%TF.GenerationSoftware,KiCad,Pcbnew,7.0.7*%
%TF.CreationDate,2025-06-12T14:25:12+01:00*%
%TF.ProjectId,Rosa,526f7361-2e6b-4696-9361-645f70636258,rev?*%
%TF.SameCoordinates,Original*%
%TF.FileFunction,Copper,L2,Bot*%
%TF.FilePolarity,Positive*%
%FSLAX46Y46*%
G04 Gerber Fmt 4.6, Leading zero omitted, Abs format (unit mm)*
G04 Created by KiCad (PCBNEW 7.0.7) date 2025-06-12 14:25:12*
%MOMM*%
%LPD*%
G01*
G04 APERTURE LIST*
G04 Aperture macros list*
%AMRoundRect*
0 Rectangle with rounded corners*
0 $1 Rounding radius*
0 $2 $3 $4 $5 $6 $7 $8 $9 X,Y pos of 4 corners*
0 Add a 4 corners polygon primitive as box body*
4,1,4,$2,$3,$4,$5,$6,$7,$8,$9,$2,$3,0*
0 Add four circle primitives for the rounded corners*
1,1,$1+$1,$2,$3*
1,1,$1+$1,$4,$5*
1,1,$1+$1,$6,$7*
1,1,$1+$1,$8,$9*
0 Add four rect primitives between the rounded corners*
20,1,$1+$1,$2,$3,$4,$5,0*
20,1,$1+$1,$4,$5,$6,$7,0*
20,1,$1+$1,$6,$7,$8,$9,0*
20,1,$1+$1,$8,$9,$2,$3,0*%
G04 Aperture macros list end*
%TA.AperFunction,SMDPad,CuDef*%
%ADD10R,3.800000X2.000000*%
%TD*%
%TA.AperFunction,ComponentPad*%
%ADD11O,1.700000X1.700000*%
%TD*%
%TA.AperFunction,ComponentPad*%
%ADD12R,1.700000X1.700000*%
%TD*%
%TA.AperFunction,ComponentPad*%
%ADD13R,1.422400X1.422400*%
%TD*%
%TA.AperFunction,ComponentPad*%
%ADD14C,1.422400*%
%TD*%
%TA.AperFunction,SMDPad,CuDef*%
%ADD15RoundRect,0.250000X0.250000X0.475000X-0.250000X0.475000X-0.250000X-0.475000X0.250000X-0.475000X0*%
%TD*%
%TA.AperFunction,SMDPad,CuDef*%
%ADD16RoundRect,0.200000X0.200000X0.275000X-0.200000X0.275000X-0.200000X-0.275000X0.200000X-0.275000X0*%
%TD*%
%TA.AperFunction,ViaPad*%
%ADD17C,0.800000*%
%TD*%
%TA.AperFunction,Conductor*%
%ADD18C,0.200000*%
%TD*%
%TA.AperFunction,Conductor*%
%ADD19C,0.250000*%
%TD*%
%TA.AperFunction,Conductor*%
%ADD20C,0.600000*%
%TD*%
%TA.AperFunction,Conductor*%
%ADD21C,0.400000*%
%TD*%
G04 APERTURE END LIST*
D10*
%TO.P,,3V3*%
%TO.N,VCC_3*%
X20193000Y-41605200D03*
%TD*%
D11*
%TO.P,,GND*%
%TO.N,GND*%
X4509000Y-4407400D03*
%TO.P,,TCK*%
%TO.N,N/C*%
X12129000Y-4407400D03*
%TO.P,,TDI*%
X9589000Y-4407400D03*
%TO.P,,TDO*%
X7049000Y-4407400D03*
%TO.P,,TMS*%
X14669000Y-4407400D03*
D12*
%TO.P,,VCC_3*%
%TO.N,VCC_3*%
X17209000Y-4407400D03*
%TD*%
D13*
%TO.P,                              Marine,B0*%
%TO.N,N/C*%
X20003000Y-7303000D03*
D14*
%TO.P,                              Marine,B1*%
X20003000Y-9843000D03*
%TO.P,                              Marine,B2*%
X17463000Y-7303000D03*
%TO.P,                              Marine,B3*%
X17463000Y-9843000D03*
%TO.P,                              Marine,B_C0*%
X30163000Y-32703000D03*
%TO.P,                              Marine,B_C1*%
X27623000Y-30163000D03*
%TO.P,                              Marine,B_C2*%
X27623000Y-32703000D03*
%TO.P,                              Marine,B_C3*%
X25083000Y-30163000D03*
%TO.P,                              Marine,B_D0*%
X14923000Y-32703000D03*
%TO.P,                              Marine,B_D1*%
X12383000Y-30163000D03*
%TO.P,                              Marine,B_D2*%
X12383000Y-32703000D03*
%TO.P,                              Marine,B_D3*%
X9843000Y-30163000D03*
%TO.P,                              Marine,B_O0*%
X32703000Y-27623000D03*
%TO.P,                              Marine,B_O1*%
X30163000Y-27623000D03*
%TO.P,                              Marine,B_O2*%
X32703000Y-25083000D03*
%TO.P,                              Marine,B_O3*%
X30163000Y-25083000D03*
%TO.P,                              Marine,C14M*%
X30163000Y-9843000D03*
%TO.P,                              Marine,C28M*%
X30163000Y-7303000D03*
%TO.P,                              Marine,FIELD0*%
X7303000Y-17463000D03*
%TO.P,                              Marine,FIELD1*%
X9843000Y-17463000D03*
%TO.P,                              Marine,FIELD2*%
X9843000Y-20003000D03*
%TO.P,                              Marine,G0*%
X14923000Y-7303000D03*
%TO.P,                              Marine,G1*%
X14923000Y-9843000D03*
%TO.P,                              Marine,G2*%
X12383000Y-7303000D03*
%TO.P,                              Marine,G3*%
X12383000Y-9843000D03*
%TO.P,                              Marine,GND*%
%TO.N,GND*%
X22543000Y-9843000D03*
X25083000Y-9843000D03*
X32703000Y-20003000D03*
%TO.P,                              Marine,G_C0*%
%TO.N,N/C*%
X25083000Y-32703000D03*
%TO.P,                              Marine,G_C1*%
X22543000Y-30163000D03*
%TO.P,                              Marine,G_C2*%
X22543000Y-32703000D03*
%TO.P,                              Marine,G_C3*%
X20003000Y-30163000D03*
%TO.P,                              Marine,G_D0*%
X9843000Y-32703000D03*
%TO.P,                              Marine,G_D1*%
X7303000Y-30163000D03*
%TO.P,                              Marine,G_D2*%
X9843000Y-27623000D03*
%TO.P,                              Marine,G_D3*%
X7303000Y-27623000D03*
%TO.P,                              Marine,G_O0*%
X30163000Y-22543000D03*
%TO.P,                              Marine,G_O1*%
X30163000Y-20003000D03*
%TO.P,                              Marine,G_O2*%
X30163000Y-17463000D03*
%TO.P,                              Marine,G_O3*%
X32703000Y-14923000D03*
%TO.P,                              Marine,N_BYPASS*%
X25083000Y-7303000D03*
%TO.P,                              Marine,N_HSYCX2*%
X32703000Y-30163000D03*
%TO.P,                              Marine,N_HSYNC*%
X27623000Y-9843000D03*
%TO.P,                              Marine,N_RSTR_L*%
X9843000Y-12383000D03*
%TO.P,                              Marine,N_RSTW_C*%
X7303000Y-14923000D03*
%TO.P,                              Marine,N_RSTW_D*%
X9843000Y-14923000D03*
%TO.P,                              Marine,N_SCNDBL_N_CSYNC*%
X22543000Y-7303000D03*
%TO.P,                              Marine,N_VSYNC*%
X27623000Y-7303000D03*
%TO.P,                              Marine,N_VSYN_O*%
X30163000Y-30163000D03*
%TO.P,                              Marine,R0*%
X9843000Y-7303000D03*
%TO.P,                              Marine,R1*%
X7303000Y-9843000D03*
%TO.P,                              Marine,R2*%
X9843000Y-9843000D03*
%TO.P,                              Marine,R3*%
X7303000Y-12383000D03*
%TO.P,                              Marine,R_C0*%
X20003000Y-32703000D03*
%TO.P,                              Marine,R_C1*%
X17463000Y-30163000D03*
%TO.P,                              Marine,R_C2*%
X17463000Y-32703000D03*
%TO.P,                              Marine,R_C3*%
X14923000Y-30163000D03*
%TO.P,                              Marine,R_D0*%
X9843000Y-25083000D03*
%TO.P,                              Marine,R_D1*%
X7303000Y-25083000D03*
%TO.P,                              Marine,R_D2*%
X9843000Y-22543000D03*
%TO.P,                              Marine,R_D3*%
X7303000Y-22543000D03*
%TO.P,                              Marine,R_O0*%
X30163000Y-14923000D03*
%TO.P,                              Marine,R_O1*%
X32703000Y-12383000D03*
%TO.P,                              Marine,R_O2*%
X30163000Y-12383000D03*
%TO.P,                              Marine,R_O3*%
X32703000Y-9843000D03*
%TO.P,                              Marine,VCC*%
X7303000Y-20003000D03*
X32703000Y-17463000D03*
X32703000Y-22543000D03*
%TD*%
D15*
%TO.P, ,1*%
%TO.N,GND*%
X21867400Y-20003000D03*
%TO.P, ,2*%
%TO.N,VCC_3*%
X19967400Y-20003000D03*
%TD*%
D16*
%TO.P,R2,1*%
%TO.N,N/C*%
X27393400Y-28473400D03*
%TO.P,R2,2*%
X25743400Y-28473400D03*
%TD*%
D15*
%TO.P, ,1*%
%TO.N,GND*%
X21879600Y-17297400D03*
%TO.P, ,2*%
%TO.N,VCC_3*%
X19979600Y-17297400D03*
%TD*%
D17*
%TO.N,*%
X19241000Y-16040600D03*
X21488400Y-25933400D03*
X21476200Y-14211800D03*
X26187400Y-21386800D03*
X30937200Y-36626800D03*
X15532600Y-14008600D03*
X18987000Y-25540200D03*
X18987000Y-13754600D03*
X16040600Y-23863800D03*
X31877000Y-33045400D03*
X26099000Y-17463000D03*
X15532600Y-25591000D03*
X25591000Y-14999200D03*
X14669000Y-18479000D03*
X13856200Y-17818600D03*
X14110200Y-26099000D03*
X26200600Y-22492200D03*
X17615400Y-14796000D03*
X23457400Y-25946600D03*
%TO.N,GND*%
X14161000Y-19799800D03*
X8559800Y-16865600D03*
X28346400Y-12903200D03*
X23508200Y-14999200D03*
X21361400Y-24130000D03*
X15240000Y-16510000D03*
X11658600Y-38252400D03*
X23215600Y-41630600D03*
X25831800Y-31775400D03*
X4559800Y-36970200D03*
X28702000Y-31877000D03*
X25083000Y-25057600D03*
X4509000Y-7811000D03*
X18021800Y-24321000D03*
X29718000Y-34696400D03*
X11404600Y-12674600D03*
X34340800Y-7975600D03*
X21132800Y-5359400D03*
X3302000Y-21361400D03*
X23266400Y-31394400D03*
X23520400Y-17297400D03*
X16611600Y-15621000D03*
X20447000Y-31445200D03*
X7899400Y-8051800D03*
X28321000Y-8559800D03*
X20028400Y-3391400D03*
X35356800Y-36880800D03*
X14364200Y-23025600D03*
X6553200Y-32334200D03*
X16713200Y-31394400D03*
X23406600Y-19952200D03*
X20421600Y-8585200D03*
X25730200Y-8559800D03*
X24688800Y-36550600D03*
X33324800Y-33223200D03*
X14364200Y-24829000D03*
X17463000Y-13780000D03*
X11277600Y-27051000D03*
X25616400Y-16040600D03*
X13932400Y-8547600D03*
%TO.N,VCC_3*%
X18897600Y-41681400D03*
X25730200Y-35636200D03*
X21437600Y-41681400D03*
X20028400Y-23482800D03*
X20003000Y-14770600D03*
X20155400Y-37021000D03*
X20003000Y-18529800D03*
X23063200Y-24003000D03*
X20167600Y-41681400D03*
%TD*%
D18*
%TO.N,*%
X24003000Y-29540200D02*
X24003000Y-31623000D01*
X7303000Y-12916400D02*
X7303000Y-12383000D01*
D19*
X29286200Y-31419800D02*
X28803600Y-30937200D01*
D18*
X26200600Y-26200600D02*
X26200600Y-22492200D01*
X14618200Y-28740600D02*
X13703800Y-29655000D01*
X31483800Y-15583400D02*
X31483800Y-11062200D01*
X13754600Y-11214600D02*
X13856200Y-11316200D01*
X18682200Y-9182600D02*
X18072600Y-8573000D01*
X12383000Y-7303000D02*
X13449800Y-6236200D01*
X30874200Y-16193000D02*
X31483800Y-15583400D01*
X18936200Y-25540200D02*
X15735800Y-28740600D01*
X18987000Y-10757400D02*
X18682200Y-10452600D01*
D19*
X31877000Y-32156400D02*
X31140400Y-31419800D01*
D18*
X21019000Y-13145000D02*
X21019000Y-13754600D01*
X21019000Y-13754600D02*
X21425400Y-14161000D01*
D19*
X27660600Y-28473400D02*
X27393400Y-28473400D01*
D18*
X12383000Y-9843000D02*
X13754600Y-11214600D01*
X13449800Y-6236200D02*
X20968200Y-6236200D01*
X19241000Y-16040600D02*
X19241000Y-15989800D01*
X9233400Y-13399000D02*
X8776200Y-12941800D01*
X6134600Y-7861800D02*
X9589000Y-4407400D01*
D19*
X31877000Y-33045400D02*
X31877000Y-32969200D01*
D18*
X26200600Y-22492200D02*
X26251400Y-22492200D01*
X15735800Y-28740600D02*
X14618200Y-28740600D01*
X12586200Y-18479000D02*
X10554200Y-16447000D01*
X15532600Y-25591000D02*
X15532600Y-27826200D01*
X11011400Y-28943800D02*
X9131800Y-28943800D01*
X35026600Y-35407600D02*
X33909000Y-36525200D01*
X14516600Y-26505400D02*
X14516600Y-27419800D01*
D19*
X28803600Y-30937200D02*
X28803600Y-29616400D01*
D18*
X26099000Y-17463000D02*
X27369000Y-16193000D01*
X18021800Y-13399000D02*
X18225000Y-13602200D01*
X16497800Y-8573000D02*
X16142200Y-8217400D01*
X21019000Y-13754600D02*
X21019000Y-13653000D01*
X11011400Y-29909000D02*
X11011400Y-31331400D01*
X23457400Y-28994600D02*
X24003000Y-29540200D01*
X23457400Y-25946600D02*
X23660600Y-26149800D01*
X11722600Y-5931400D02*
X11163800Y-6490200D01*
X26187400Y-21386800D02*
X28575000Y-23774400D01*
X27051000Y-27051000D02*
X26200600Y-26200600D01*
X18987000Y-25540200D02*
X18987000Y-25489400D01*
X20968200Y-6236200D02*
X21323800Y-6591800D01*
X23545800Y-25095200D02*
X24561800Y-26111200D01*
X16040600Y-23863800D02*
X6287000Y-23863800D01*
X21019000Y-10605000D02*
X21019000Y-13145000D01*
X30962600Y-36957000D02*
X31038800Y-36957000D01*
X18225000Y-13602200D02*
X18225000Y-14211800D01*
X32703000Y-30163000D02*
X32093400Y-30163000D01*
X21323800Y-6591800D02*
X21323800Y-6947400D01*
X21488400Y-25400000D02*
X21793200Y-25095200D01*
X14669000Y-18479000D02*
X12586200Y-18479000D01*
X28893000Y-28893000D02*
X28295600Y-28295600D01*
X28295600Y-27559000D02*
X27787600Y-27051000D01*
X33248600Y-23774400D02*
X35026600Y-25552400D01*
X15532600Y-27826200D02*
X15227800Y-28131000D01*
X30823400Y-28893000D02*
X28893000Y-28893000D01*
X12789400Y-28131000D02*
X11011400Y-29909000D01*
X12891000Y-13399000D02*
X9233400Y-13399000D01*
X16142200Y-7404600D02*
X16040600Y-7303000D01*
X5257800Y-6198600D02*
X7049000Y-4407400D01*
X15227800Y-28131000D02*
X12789400Y-28131000D01*
X28575000Y-23774400D02*
X33248600Y-23774400D01*
X13551400Y-4864600D02*
X13551400Y-5321800D01*
X28295600Y-28295600D02*
X28295600Y-27559000D01*
D19*
X31140400Y-31419800D02*
X29286200Y-31419800D01*
D18*
X18987000Y-25489400D02*
X18936200Y-25540200D01*
X14110200Y-26099000D02*
X14161000Y-26149800D01*
X11163800Y-11113000D02*
X13653000Y-13602200D01*
X8573000Y-15989800D02*
X8573000Y-14186400D01*
X10554200Y-16447000D02*
X9030200Y-16447000D01*
X14110200Y-26099000D02*
X14516600Y-26505400D01*
X27369000Y-16193000D02*
X30874200Y-16193000D01*
X11011400Y-31331400D02*
X12383000Y-32703000D01*
X14262600Y-27673800D02*
X12281400Y-27673800D01*
X24561800Y-26111200D02*
X24561800Y-29641800D01*
X19241000Y-15227800D02*
X19241000Y-16040600D01*
X13856200Y-11316200D02*
X17564600Y-11316200D01*
X24003000Y-31623000D02*
X25083000Y-32703000D01*
X9030200Y-16447000D02*
X8573000Y-15989800D01*
X8623800Y-31483800D02*
X9843000Y-32703000D01*
X8623800Y-29451800D02*
X8623800Y-31483800D01*
X18987000Y-13754600D02*
X18987000Y-10757400D01*
X27787600Y-27051000D02*
X27051000Y-27051000D01*
X13551400Y-5321800D02*
X12941800Y-5931400D01*
X31483800Y-11062200D02*
X32703000Y-9843000D01*
X16142200Y-8217400D02*
X16142200Y-7404600D01*
X35026600Y-25552400D02*
X35026600Y-35407600D01*
X18936200Y-25540200D02*
X18987000Y-25540200D01*
X12281400Y-27673800D02*
X11011400Y-28943800D01*
X18072600Y-8573000D02*
X16497800Y-8573000D01*
X8776200Y-8369800D02*
X9843000Y-7303000D01*
X14516600Y-27419800D02*
X14262600Y-27673800D01*
X6287000Y-23863800D02*
X5257800Y-22834600D01*
X21793200Y-25095200D02*
X23545800Y-25095200D01*
X24561800Y-29641800D02*
X25083000Y-30163000D01*
X13703800Y-29655000D02*
X13703800Y-31483800D01*
X5257800Y-22834600D02*
X5257800Y-6198600D01*
X32093400Y-30163000D02*
X30823400Y-28893000D01*
X18021800Y-11773400D02*
X18021800Y-13246600D01*
D19*
X28803600Y-29616400D02*
X27660600Y-28473400D01*
D18*
X6541000Y-21171400D02*
X6134600Y-20765000D01*
X13856200Y-17463000D02*
X13856200Y-14364200D01*
X16548600Y-21171400D02*
X6541000Y-21171400D01*
X21488400Y-25933400D02*
X21488400Y-25400000D01*
X11163800Y-6490200D02*
X11163800Y-11113000D01*
X6134600Y-20765000D02*
X6134600Y-7861800D01*
X17615400Y-14796000D02*
X17615400Y-20104600D01*
X23457400Y-25946600D02*
X23457400Y-28994600D01*
X8776200Y-12941800D02*
X8776200Y-8369800D01*
X14008600Y-4407400D02*
X13551400Y-4864600D01*
X21323800Y-6947400D02*
X21323800Y-10300200D01*
D19*
X25591000Y-14999200D02*
X25591000Y-14415000D01*
D18*
X12941800Y-5931400D02*
X11722600Y-5931400D01*
X14669000Y-4407400D02*
X14008600Y-4407400D01*
X21323800Y-10300200D02*
X21019000Y-10605000D01*
X18225000Y-14211800D02*
X19241000Y-15227800D01*
X17615400Y-20104600D02*
X16548600Y-21171400D01*
X8573000Y-14186400D02*
X7303000Y-12916400D01*
X9131800Y-28943800D02*
X8623800Y-29451800D01*
X17564600Y-11316200D02*
X18021800Y-11773400D01*
X18682200Y-10452600D02*
X18682200Y-9182600D01*
X13653000Y-13602200D02*
X15126200Y-13602200D01*
X13703800Y-31483800D02*
X14923000Y-32703000D01*
X15126200Y-13602200D02*
X15532600Y-14008600D01*
X18021800Y-13246600D02*
X18021800Y-13399000D01*
D19*
X25591000Y-14415000D02*
X30163000Y-9843000D01*
D18*
X16040600Y-7303000D02*
X14923000Y-7303000D01*
X13856200Y-14364200D02*
X12891000Y-13399000D01*
X33909000Y-36525200D02*
X30988000Y-36525200D01*
D19*
X31877000Y-33045400D02*
X31877000Y-32156400D01*
D20*
%TO.N,GND*%
X21879600Y-17297400D02*
X23520400Y-17297400D01*
X23520400Y-17297400D02*
X23469600Y-17297400D01*
D21*
X15583400Y-8547600D02*
X15799300Y-8763500D01*
D18*
X8636000Y-21615400D02*
X5892800Y-21615400D01*
D21*
X15799300Y-8763500D02*
X15964400Y-8928600D01*
D18*
X10414000Y-13792200D02*
X11633200Y-15011400D01*
D21*
X11900400Y-8319000D02*
X11671800Y-8547600D01*
X15710400Y-8674600D02*
X15710400Y-8319000D01*
D18*
X10795000Y-6629400D02*
X10795000Y-8255000D01*
X23266400Y-31394400D02*
X23469600Y-31115000D01*
X23037800Y-29210000D02*
X23545800Y-29718000D01*
D21*
X28283400Y-21222200D02*
X27064200Y-20003000D01*
D18*
X10744200Y-6578600D02*
X10795000Y-6629400D01*
X8356600Y-13055600D02*
X9093200Y-13792200D01*
D21*
X32703000Y-20003000D02*
X31483800Y-21222200D01*
D18*
X5689600Y-7569200D02*
X5689600Y-22377400D01*
D21*
X23457400Y-20003000D02*
X23406600Y-19952200D01*
D18*
X9093200Y-13792200D02*
X9753600Y-13792200D01*
D21*
X27064200Y-20003000D02*
X23457400Y-20003000D01*
D18*
X23545800Y-29718000D02*
X23545800Y-30556200D01*
D21*
X15786600Y-8776200D02*
X15799300Y-8763500D01*
D18*
X8356600Y-9347200D02*
X8356600Y-13055600D01*
D21*
X15964400Y-8928600D02*
X15710400Y-8674600D01*
X11671800Y-8547600D02*
X13932400Y-8547600D01*
X11570200Y-8776200D02*
X15786600Y-8776200D01*
X23355800Y-20003000D02*
X21867400Y-20003000D01*
D18*
X10388600Y-21615400D02*
X8636000Y-21615400D01*
D21*
X16116800Y-9081000D02*
X16116800Y-10706600D01*
X15964400Y-8928600D02*
X16116800Y-9081000D01*
X15710400Y-8319000D02*
X11900400Y-8319000D01*
X31483800Y-21222200D02*
X28283400Y-21222200D01*
D18*
X10617200Y-23469600D02*
X6502400Y-23469600D01*
D21*
X22543000Y-9843000D02*
X25083000Y-9843000D01*
D18*
X9753600Y-13792200D02*
X10414000Y-13792200D01*
D21*
X13932400Y-8547600D02*
X15583400Y-8547600D01*
X11570200Y-8649200D02*
X11671800Y-8547600D01*
X23406600Y-19952200D02*
X23355800Y-20003000D01*
X11570200Y-8776200D02*
X11570200Y-8649200D01*
D18*
%TO.N,VCC_3*%
X24841200Y-25781000D02*
X25323800Y-25781000D01*
D21*
X20155400Y-37021000D02*
X20193000Y-37058600D01*
X21273000Y-35903400D02*
X20155400Y-37021000D01*
D18*
X26289000Y-29667200D02*
X26289000Y-30708600D01*
X24790400Y-25730200D02*
X24841200Y-25781000D01*
D21*
X20003000Y-18529800D02*
X20003000Y-28537400D01*
X20003000Y-18529800D02*
X19927800Y-18454600D01*
D18*
X26619200Y-33477200D02*
X26289000Y-33807400D01*
D21*
X20003000Y-28537400D02*
X21273000Y-29807400D01*
X20003000Y-18454600D02*
X20003000Y-14845800D01*
D18*
X25806400Y-26263600D02*
X25806400Y-27508200D01*
X26289000Y-30708600D02*
X26619200Y-31038800D01*
X26289000Y-33807400D02*
X25730200Y-34366200D01*
X25743400Y-29121600D02*
X26289000Y-29667200D01*
X25806400Y-27508200D02*
X25806400Y-28168600D01*
X25743400Y-28473400D02*
X25743400Y-29121600D01*
D21*
X21273000Y-29807400D02*
X21273000Y-35903400D01*
X19927800Y-14845800D02*
X20003000Y-14770600D01*
D18*
X23063200Y-24003000D02*
X24790400Y-25730200D01*
X25730200Y-34366200D02*
X25730200Y-35636200D01*
D21*
X20193000Y-37058600D02*
X20193000Y-41605200D01*
D18*
X26619200Y-31038800D02*
X26619200Y-33477200D01*
X25323800Y-25781000D02*
X25806400Y-26263600D01*
%TD*%
%TA.AperFunction,Conductor*%
%TO.N,GND*%
G36*
X36289852Y-2636385D02*
G01*
X36335607Y-2689189D01*
X36346813Y-2740787D01*
X36321586Y-38889987D01*
X36301855Y-38957012D01*
X36249019Y-39002730D01*
X36197586Y-39013900D01*
X24561160Y-39013900D01*
X24560954Y-39013859D01*
X24536400Y-39013859D01*
X24536301Y-39013900D01*
X24536017Y-39014016D01*
X24536015Y-39014018D01*
X24535859Y-39014399D01*
X24535876Y-39039016D01*
X24535871Y-39039016D01*
X24535900Y-39039159D01*
X24535900Y-42877843D01*
X24516215Y-42944882D01*
X24463411Y-42990637D01*
X24412044Y-43001843D01*
X22354677Y-43004230D01*
X22287615Y-42984623D01*
X22241798Y-42931872D01*
X22231775Y-42862725D01*
X22260726Y-42799136D01*
X22266855Y-42792546D01*
X22273594Y-42785805D01*
X22273601Y-42785801D01*
X22328966Y-42702940D01*
X22343500Y-42629874D01*
X22343500Y-40580526D01*
X22343500Y-40580523D01*
X22343499Y-40580521D01*
X22328967Y-40507464D01*
X22328966Y-40507460D01*
X22328965Y-40507459D01*
X22273601Y-40424599D01*
X22190740Y-40369234D01*
X22190739Y-40369233D01*
X22190735Y-40369232D01*
X22117677Y-40354700D01*
X22117674Y-40354700D01*
X20767500Y-40354700D01*
X20700461Y-40335015D01*
X20654706Y-40282211D01*
X20643500Y-40230700D01*
X20643500Y-37497622D01*
X20663185Y-37430583D01*
X20665450Y-37427182D01*
X20735620Y-37325523D01*
X20791637Y-37177818D01*
X20808032Y-37042789D01*
X20835654Y-36978612D01*
X20843437Y-36970065D01*
X21571205Y-36242296D01*
X21576373Y-36237677D01*
X21606970Y-36213279D01*
X21640480Y-36164128D01*
X21675793Y-36116282D01*
X21675794Y-36116279D01*
X21679787Y-36108724D01*
X21683470Y-36101076D01*
X21683470Y-36101075D01*
X21683472Y-36101073D01*
X21701007Y-36044222D01*
X21720646Y-35988099D01*
X21722232Y-35979711D01*
X21723500Y-35971304D01*
X21723500Y-35911826D01*
X21725724Y-35852392D01*
X21724684Y-35843161D01*
X21725513Y-35843067D01*
X21723500Y-35827766D01*
X21723500Y-33536726D01*
X21743185Y-33469687D01*
X21795989Y-33423932D01*
X21865147Y-33413988D01*
X21926163Y-33440872D01*
X21960038Y-33468672D01*
X22006121Y-33506492D01*
X22006128Y-33506496D01*
X22173188Y-33595792D01*
X22173190Y-33595792D01*
X22173193Y-33595794D01*
X22354474Y-33650785D01*
X22543000Y-33669353D01*
X22731526Y-33650785D01*
X22912807Y-33595794D01*
X22934562Y-33584166D01*
X23040768Y-33527397D01*
X23079871Y-33506496D01*
X23079872Y-33506496D01*
X23079873Y-33506495D01*
X23079877Y-33506493D01*
X23226315Y-33386315D01*
X23346493Y-33239877D01*
X23435794Y-33072807D01*
X23490785Y-32891526D01*
X23509353Y-32703000D01*
X23490785Y-32514474D01*
X23435794Y-32333193D01*
X23435792Y-32333190D01*
X23435792Y-32333188D01*
X23346496Y-32166128D01*
X23346496Y-32166127D01*
X23319380Y-32133086D01*
X23226315Y-32019685D01*
X23079877Y-31899507D01*
X23079873Y-31899505D01*
X23079871Y-31899503D01*
X22912811Y-31810207D01*
X22731524Y-31755214D01*
X22543000Y-31736647D01*
X22354475Y-31755214D01*
X22173188Y-31810207D01*
X22006128Y-31899503D01*
X22006122Y-31899507D01*
X21926164Y-31965127D01*
X21861854Y-31992439D01*
X21792987Y-31980648D01*
X21741427Y-31933495D01*
X21723500Y-31869273D01*
X21723500Y-30996726D01*
X21743185Y-30929687D01*
X21795989Y-30883932D01*
X21865147Y-30873988D01*
X21926163Y-30900872D01*
X21951260Y-30921468D01*
X22006121Y-30966492D01*
X22006128Y-30966496D01*
X22173188Y-31055792D01*
X22173190Y-31055792D01*
X22173193Y-31055794D01*
X22354474Y-31110785D01*
X22543000Y-31129353D01*
X22731526Y-31110785D01*
X22912807Y-31055794D01*
X22918091Y-31052970D01*
X23023315Y-30996726D01*
X23079871Y-30966496D01*
X23079872Y-30966496D01*
X23079873Y-30966495D01*
X23079877Y-30966493D01*
X23226315Y-30846315D01*
X23346493Y-30699877D01*
X23419141Y-30563961D01*
X23468104Y-30514117D01*
X23536241Y-30498656D01*
X23601921Y-30522487D01*
X23644290Y-30578045D01*
X23652500Y-30622414D01*
X23652500Y-31573788D01*
X23649861Y-31599232D01*
X23647957Y-31608312D01*
X23647957Y-31608316D01*
X23652023Y-31640938D01*
X23652499Y-31648600D01*
X23652499Y-31652033D01*
X23652501Y-31652051D01*
X23656087Y-31673539D01*
X23662427Y-31724393D01*
X23664520Y-31731426D01*
X23666908Y-31738381D01*
X23691295Y-31783444D01*
X23713801Y-31829483D01*
X23718065Y-31835455D01*
X23722580Y-31841256D01*
X23760275Y-31875958D01*
X24144006Y-32259689D01*
X24177491Y-32321012D01*
X24174986Y-32383365D01*
X24135214Y-32514475D01*
X24116647Y-32703000D01*
X24135214Y-32891524D01*
X24190207Y-33072811D01*
X24279503Y-33239871D01*
X24279503Y-33239872D01*
X24279506Y-33239876D01*
X24279507Y-33239877D01*
X24399685Y-33386315D01*
X24546123Y-33506493D01*
X24546126Y-33506495D01*
X24546128Y-33506496D01*
X24713188Y-33595792D01*
X24713190Y-33595792D01*
X24713193Y-33595794D01*
X24894474Y-33650785D01*
X25083000Y-33669353D01*
X25271526Y-33650785D01*
X25452807Y-33595794D01*
X25474562Y-33584166D01*
X25580768Y-33527397D01*
X25619871Y-33506496D01*
X25619872Y-33506496D01*
X25619873Y-33506495D01*
X25619877Y-33506493D01*
X25766315Y-33386315D01*
X25886493Y-33239877D01*
X25975794Y-33072807D01*
X26026039Y-32907168D01*
X26064337Y-32848731D01*
X26128149Y-32820275D01*
X26197216Y-32830835D01*
X26249610Y-32877059D01*
X26268700Y-32943165D01*
X26268700Y-33280655D01*
X26249015Y-33347694D01*
X26232382Y-33368336D01*
X26082517Y-33518201D01*
X25517155Y-34083561D01*
X25497306Y-34099682D01*
X25489531Y-34104762D01*
X25469343Y-34130698D01*
X25464267Y-34136448D01*
X25461834Y-34138881D01*
X25461823Y-34138894D01*
X25449154Y-34156638D01*
X25417683Y-34197072D01*
X25414175Y-34203553D01*
X25410960Y-34210132D01*
X25396338Y-34259245D01*
X25379698Y-34307716D01*
X25378494Y-34314933D01*
X25377582Y-34322246D01*
X25379700Y-34373431D01*
X25379699Y-35021849D01*
X25360014Y-35088889D01*
X25337926Y-35114664D01*
X25239718Y-35201668D01*
X25149981Y-35331675D01*
X25149980Y-35331676D01*
X25093962Y-35479381D01*
X25074922Y-35636199D01*
X25074922Y-35636200D01*
X25093962Y-35793018D01*
X25139021Y-35911826D01*
X25149980Y-35940723D01*
X25239717Y-36070730D01*
X25357960Y-36175483D01*
X25357962Y-36175484D01*
X25497834Y-36248896D01*
X25651214Y-36286700D01*
X25651215Y-36286700D01*
X25809185Y-36286700D01*
X25962565Y-36248896D01*
X25983960Y-36237667D01*
X26102440Y-36175483D01*
X26220683Y-36070730D01*
X26310420Y-35940723D01*
X26366437Y-35793018D01*
X26385478Y-35636200D01*
X26366437Y-35479382D01*
X26361396Y-35466091D01*
X26336471Y-35400369D01*
X26310420Y-35331677D01*
X26220683Y-35201670D01*
X26122472Y-35114663D01*
X26085347Y-35055476D01*
X26080700Y-35021849D01*
X26080700Y-34562744D01*
X26100385Y-34495705D01*
X26117019Y-34475063D01*
X26557376Y-34034706D01*
X26832250Y-33759830D01*
X26852102Y-33743711D01*
X26859869Y-33738637D01*
X26880073Y-33712677D01*
X26885141Y-33706939D01*
X26887575Y-33704507D01*
X26900240Y-33686767D01*
X26909001Y-33675510D01*
X26931717Y-33646326D01*
X26931720Y-33646316D01*
X26935206Y-33639875D01*
X26938435Y-33633270D01*
X26938439Y-33633266D01*
X26947933Y-33601374D01*
X26985923Y-33542741D01*
X27049586Y-33513952D01*
X27118707Y-33524153D01*
X27125230Y-33527397D01*
X27253188Y-33595792D01*
X27253190Y-33595792D01*
X27253193Y-33595794D01*
X27434474Y-33650785D01*
X27623000Y-33669353D01*
X27811526Y-33650785D01*
X27992807Y-33595794D01*
X28014562Y-33584166D01*
X28120768Y-33527397D01*
X28159871Y-33506496D01*
X28159872Y-33506496D01*
X28159873Y-33506495D01*
X28159877Y-33506493D01*
X28306315Y-33386315D01*
X28426493Y-33239877D01*
X28515794Y-33072807D01*
X28570785Y-32891526D01*
X28589353Y-32703000D01*
X28570785Y-32514474D01*
X28515794Y-32333193D01*
X28515792Y-32333190D01*
X28515792Y-32333188D01*
X28426496Y-32166128D01*
X28426496Y-32166127D01*
X28399380Y-32133086D01*
X28306315Y-32019685D01*
X28159877Y-31899507D01*
X28159873Y-31899505D01*
X28159871Y-31899503D01*
X27992811Y-31810207D01*
X27811524Y-31755214D01*
X27623000Y-31736647D01*
X27434475Y-31755214D01*
X27253188Y-31810207D01*
X27152153Y-31864212D01*
X27083750Y-31878454D01*
X27018506Y-31853454D01*
X26977136Y-31797149D01*
X26969700Y-31754854D01*
X26969700Y-31111145D01*
X26989385Y-31044106D01*
X27042189Y-30998351D01*
X27111347Y-30988407D01*
X27152152Y-31001786D01*
X27253193Y-31055794D01*
X27434474Y-31110785D01*
X27623000Y-31129353D01*
X27811526Y-31110785D01*
X27992807Y-31055794D01*
X27998091Y-31052970D01*
X28103315Y-30996726D01*
X28159877Y-30966493D01*
X28229832Y-30909082D01*
X28294141Y-30881770D01*
X28363008Y-30893561D01*
X28414568Y-30940713D01*
X28430805Y-30984527D01*
X28431942Y-30991340D01*
X28438734Y-31045827D01*
X28440973Y-31053347D01*
X28443534Y-31060808D01*
X28443535Y-31060810D01*
X28456620Y-31084990D01*
X28469655Y-31109077D01*
X28493774Y-31158411D01*
X28498342Y-31164809D01*
X28503182Y-31171027D01*
X28543571Y-31208209D01*
X28984049Y-31648686D01*
X29000177Y-31668545D01*
X29006116Y-31677636D01*
X29034132Y-31699441D01*
X29039893Y-31704530D01*
X29042682Y-31707319D01*
X29061683Y-31720885D01*
X29084162Y-31738381D01*
X29105011Y-31754609D01*
X29111922Y-31758349D01*
X29119000Y-31761810D01*
X29171604Y-31777470D01*
X29171605Y-31777471D01*
X29223540Y-31795300D01*
X29223542Y-31795300D01*
X29231279Y-31796591D01*
X29239109Y-31797567D01*
X29239111Y-31797568D01*
X29239112Y-31797567D01*
X29239113Y-31797568D01*
X29293955Y-31795300D01*
X29406542Y-31795300D01*
X29473581Y-31814985D01*
X29519336Y-31867789D01*
X29529280Y-31936947D01*
X29500255Y-32000503D01*
X29485205Y-32015155D01*
X29479686Y-32019683D01*
X29359503Y-32166127D01*
X29359503Y-32166128D01*
X29270207Y-32333188D01*
X29215214Y-32514475D01*
X29196647Y-32703000D01*
X29215214Y-32891524D01*
X29270207Y-33072811D01*
X29359503Y-33239871D01*
X29359503Y-33239872D01*
X29359506Y-33239876D01*
X29359507Y-33239877D01*
X29479685Y-33386315D01*
X29626123Y-33506493D01*
X29626126Y-33506495D01*
X29626128Y-33506496D01*
X29793188Y-33595792D01*
X29793190Y-33595792D01*
X29793193Y-33595794D01*
X29974474Y-33650785D01*
X30163000Y-33669353D01*
X30351526Y-33650785D01*
X30532807Y-33595794D01*
X30554562Y-33584166D01*
X30660768Y-33527397D01*
X30699871Y-33506496D01*
X30699872Y-33506496D01*
X30699873Y-33506495D01*
X30699877Y-33506493D01*
X30846315Y-33386315D01*
X30966493Y-33239877D01*
X31008599Y-33161101D01*
X31057561Y-33111259D01*
X31125698Y-33095798D01*
X31191378Y-33119629D01*
X31233747Y-33175187D01*
X31238669Y-33195009D01*
X31238968Y-33194936D01*
X31240762Y-33202218D01*
X31295935Y-33347694D01*
X31296780Y-33349923D01*
X31386517Y-33479930D01*
X31504760Y-33584683D01*
X31504762Y-33584684D01*
X31644634Y-33658096D01*
X31798014Y-33695900D01*
X31798015Y-33695900D01*
X31955985Y-33695900D01*
X32109365Y-33658096D01*
X32131787Y-33646328D01*
X32249240Y-33584683D01*
X32367483Y-33479930D01*
X32457220Y-33349923D01*
X32513237Y-33202218D01*
X32532278Y-33045400D01*
X32513595Y-32891526D01*
X32513237Y-32888581D01*
X32487332Y-32820275D01*
X32457220Y-32740877D01*
X32367483Y-32610870D01*
X32367481Y-32610868D01*
X32294273Y-32546011D01*
X32257146Y-32486822D01*
X32252500Y-32453196D01*
X32252500Y-32208203D01*
X32255139Y-32182758D01*
X32255177Y-32182575D01*
X32257367Y-32172132D01*
X32255325Y-32155753D01*
X32252977Y-32136907D01*
X32252500Y-32129231D01*
X32252500Y-32125289D01*
X32252498Y-32125276D01*
X32248657Y-32102259D01*
X32241866Y-32047776D01*
X32241866Y-32047774D01*
X32241864Y-32047770D01*
X32239622Y-32040240D01*
X32237065Y-32032792D01*
X32237065Y-32032790D01*
X32210944Y-31984522D01*
X32186826Y-31935189D01*
X32186824Y-31935187D01*
X32186824Y-31935186D01*
X32182276Y-31928816D01*
X32177420Y-31922576D01*
X32177419Y-31922574D01*
X32152357Y-31899503D01*
X32137030Y-31885393D01*
X31442549Y-31190911D01*
X31426422Y-31171052D01*
X31420486Y-31161967D01*
X31420483Y-31161963D01*
X31392474Y-31140163D01*
X31386710Y-31135072D01*
X31383915Y-31132277D01*
X31364905Y-31118706D01*
X31321589Y-31084990D01*
X31314674Y-31081248D01*
X31307600Y-31077790D01*
X31254996Y-31062129D01*
X31203058Y-31044299D01*
X31195323Y-31043008D01*
X31187485Y-31042031D01*
X31132644Y-31044300D01*
X30946009Y-31044300D01*
X30878970Y-31024615D01*
X30833215Y-30971811D01*
X30823271Y-30902653D01*
X30850156Y-30841635D01*
X30870652Y-30816660D01*
X30966493Y-30699877D01*
X31055794Y-30532807D01*
X31110785Y-30351526D01*
X31129353Y-30163000D01*
X31112151Y-29988349D01*
X31125170Y-29919706D01*
X31173234Y-29868996D01*
X31241085Y-29852321D01*
X31307180Y-29874977D01*
X31323235Y-29888517D01*
X31720911Y-30286193D01*
X31753409Y-30345708D01*
X31753447Y-30345697D01*
X31753502Y-30345879D01*
X31754396Y-30347516D01*
X31754845Y-30349669D01*
X31755213Y-30351520D01*
X31810207Y-30532811D01*
X31899503Y-30699871D01*
X31899503Y-30699872D01*
X31899506Y-30699876D01*
X31899507Y-30699877D01*
X32019685Y-30846315D01*
X32166123Y-30966493D01*
X32166126Y-30966495D01*
X32166128Y-30966496D01*
X32333188Y-31055792D01*
X32333190Y-31055792D01*
X32333193Y-31055794D01*
X32514474Y-31110785D01*
X32703000Y-31129353D01*
X32891526Y-31110785D01*
X33072807Y-31055794D01*
X33078091Y-31052970D01*
X33183315Y-30996726D01*
X33239871Y-30966496D01*
X33239872Y-30966496D01*
X33239873Y-30966495D01*
X33239877Y-30966493D01*
X33386315Y-30846315D01*
X33506493Y-30699877D01*
X33595794Y-30532807D01*
X33650785Y-30351526D01*
X33669353Y-30163000D01*
X33650785Y-29974474D01*
X33595794Y-29793193D01*
X33595792Y-29793190D01*
X33595792Y-29793188D01*
X33506496Y-29626128D01*
X33506496Y-29626127D01*
X33506493Y-29626123D01*
X33386315Y-29479685D01*
X33239877Y-29359507D01*
X33239873Y-29359505D01*
X33239871Y-29359503D01*
X33072811Y-29270207D01*
X32891524Y-29215214D01*
X32703000Y-29196647D01*
X32514475Y-29215214D01*
X32333188Y-29270207D01*
X32166128Y-29359503D01*
X32166122Y-29359507D01*
X32043991Y-29459737D01*
X31979681Y-29487049D01*
X31910814Y-29475258D01*
X31877646Y-29451564D01*
X31106037Y-28679955D01*
X31089911Y-28660098D01*
X31084837Y-28652331D01*
X31058887Y-28632133D01*
X31053141Y-28627059D01*
X31050707Y-28624625D01*
X31050706Y-28624624D01*
X31050705Y-28624623D01*
X31044248Y-28620013D01*
X31032961Y-28611955D01*
X30992526Y-28580483D01*
X30992522Y-28580481D01*
X30986048Y-28576977D01*
X30979469Y-28573760D01*
X30930354Y-28559138D01*
X30872169Y-28539163D01*
X30872628Y-28537825D01*
X30819603Y-28512150D01*
X30783163Y-28452536D01*
X30784737Y-28382684D01*
X30823827Y-28324772D01*
X30824234Y-28324437D01*
X30846310Y-28306319D01*
X30846309Y-28306319D01*
X30846315Y-28306315D01*
X30966493Y-28159877D01*
X31055794Y-27992807D01*
X31110785Y-27811526D01*
X31129353Y-27623000D01*
X31129353Y-27622999D01*
X31736647Y-27622999D01*
X31755214Y-27811524D01*
X31810207Y-27992811D01*
X31899503Y-28159871D01*
X31899503Y-28159872D01*
X31899506Y-28159876D01*
X31899507Y-28159877D01*
X32019685Y-28306315D01*
X32166123Y-28426493D01*
X32166126Y-28426495D01*
X32166128Y-28426496D01*
X32333188Y-28515792D01*
X32333190Y-28515792D01*
X32333193Y-28515794D01*
X32514474Y-28570785D01*
X32703000Y-28589353D01*
X32891526Y-28570785D01*
X33072807Y-28515794D01*
X33073236Y-28515565D01*
X33195455Y-28450237D01*
X33239871Y-28426496D01*
X33239872Y-28426496D01*
X33239873Y-28426495D01*
X33239877Y-28426493D01*
X33386315Y-28306315D01*
X33506493Y-28159877D01*
X33595794Y-27992807D01*
X33650785Y-27811526D01*
X33669353Y-27623000D01*
X33650785Y-27434474D01*
X33595794Y-27253193D01*
X33595792Y-27253190D01*
X33595792Y-27253188D01*
X33506496Y-27086128D01*
X33506496Y-27086127D01*
X33506493Y-27086123D01*
X33386315Y-26939685D01*
X33239877Y-26819507D01*
X33239873Y-26819505D01*
X33239871Y-26819503D01*
X33072811Y-26730207D01*
X32891524Y-26675214D01*
X32703000Y-26656647D01*
X32514475Y-26675214D01*
X32333188Y-26730207D01*
X32166128Y-26819503D01*
X32166127Y-26819503D01*
X32019685Y-26939685D01*
X31899503Y-27086127D01*
X31899503Y-27086128D01*
X31810207Y-27253188D01*
X31755214Y-27434475D01*
X31736647Y-27622999D01*
X31129353Y-27622999D01*
X31110785Y-27434474D01*
X31055794Y-27253193D01*
X31055792Y-27253190D01*
X31055792Y-27253188D01*
X30966496Y-27086128D01*
X30966496Y-27086127D01*
X30966493Y-27086123D01*
X30846315Y-26939685D01*
X30699877Y-26819507D01*
X30699873Y-26819505D01*
X30699871Y-26819503D01*
X30532811Y-26730207D01*
X30351524Y-26675214D01*
X30163000Y-26656647D01*
X29974475Y-26675214D01*
X29793188Y-26730207D01*
X29626128Y-26819503D01*
X29626127Y-26819503D01*
X29479685Y-26939685D01*
X29359503Y-27086127D01*
X29359503Y-27086128D01*
X29270207Y-27253188D01*
X29215214Y-27434475D01*
X29196647Y-27623000D01*
X29215214Y-27811524D01*
X29270207Y-27992811D01*
X29359503Y-28159871D01*
X29359503Y-28159872D01*
X29359506Y-28159876D01*
X29359507Y-28159877D01*
X29479684Y-28306314D01*
X29479687Y-28306317D01*
X29499585Y-28322647D01*
X29538919Y-28380392D01*
X29540790Y-28450237D01*
X29504603Y-28510005D01*
X29441847Y-28540721D01*
X29420920Y-28542500D01*
X29089544Y-28542500D01*
X29022505Y-28522815D01*
X29001863Y-28506181D01*
X28846479Y-28350797D01*
X28682416Y-28186734D01*
X28648933Y-28125414D01*
X28646100Y-28099065D01*
X28646100Y-27608206D01*
X28648739Y-27582760D01*
X28648800Y-27582468D01*
X28650642Y-27573685D01*
X28648382Y-27555561D01*
X28646577Y-27541068D01*
X28646100Y-27533391D01*
X28646100Y-27529963D01*
X28646098Y-27529950D01*
X28642510Y-27508449D01*
X28638859Y-27479160D01*
X28636173Y-27457607D01*
X28636172Y-27457604D01*
X28634118Y-27450704D01*
X28634075Y-27450579D01*
X28634037Y-27450453D01*
X28631692Y-27443618D01*
X28607304Y-27398555D01*
X28584799Y-27352518D01*
X28580519Y-27346524D01*
X28576019Y-27340743D01*
X28538324Y-27306041D01*
X28070237Y-26837955D01*
X28054111Y-26818098D01*
X28049037Y-26810331D01*
X28023087Y-26790133D01*
X28017341Y-26785059D01*
X28014907Y-26782625D01*
X28014906Y-26782624D01*
X28014905Y-26782623D01*
X28008448Y-26778013D01*
X27997161Y-26769955D01*
X27956726Y-26738483D01*
X27956722Y-26738481D01*
X27950248Y-26734977D01*
X27943669Y-26731760D01*
X27894554Y-26717138D01*
X27846086Y-26700498D01*
X27838869Y-26699294D01*
X27831553Y-26698382D01*
X27782325Y-26700419D01*
X27780369Y-26700500D01*
X27247544Y-26700500D01*
X27180505Y-26680815D01*
X27159863Y-26664181D01*
X26587419Y-26091737D01*
X26553934Y-26030414D01*
X26551100Y-26004056D01*
X26551100Y-23106550D01*
X26570785Y-23039511D01*
X26592871Y-23013736D01*
X26691083Y-22926730D01*
X26780820Y-22796723D01*
X26801028Y-22743437D01*
X26843203Y-22687739D01*
X26908800Y-22663681D01*
X26976990Y-22678907D01*
X27004649Y-22699731D01*
X28292362Y-23987444D01*
X28308486Y-24007299D01*
X28313563Y-24015069D01*
X28339508Y-24035262D01*
X28345260Y-24040342D01*
X28347693Y-24042775D01*
X28365434Y-24055441D01*
X28405874Y-24086917D01*
X28405876Y-24086917D01*
X28412248Y-24090366D01*
X28412305Y-24090394D01*
X28412378Y-24090433D01*
X28418929Y-24093635D01*
X28418934Y-24093639D01*
X28468033Y-24108256D01*
X28516512Y-24124900D01*
X28516520Y-24124900D01*
X28523705Y-24126099D01*
X28523738Y-24126104D01*
X28523792Y-24126113D01*
X28531046Y-24127017D01*
X28582231Y-24124900D01*
X29467955Y-24124900D01*
X29534994Y-24144585D01*
X29580749Y-24197389D01*
X29590693Y-24266547D01*
X29561668Y-24330103D01*
X29546619Y-24344754D01*
X29479687Y-24399682D01*
X29359503Y-24546127D01*
X29359503Y-24546128D01*
X29270207Y-24713188D01*
X29215214Y-24894475D01*
X29196647Y-25082999D01*
X29215214Y-25271524D01*
X29270207Y-25452811D01*
X29359503Y-25619871D01*
X29359503Y-25619872D01*
X29359506Y-25619876D01*
X29359507Y-25619877D01*
X29479685Y-25766315D01*
X29626123Y-25886493D01*
X29626126Y-25886495D01*
X29626128Y-25886496D01*
X29793188Y-25975792D01*
X29793190Y-25975792D01*
X29793193Y-25975794D01*
X29974474Y-26030785D01*
X30163000Y-26049353D01*
X30351526Y-26030785D01*
X30532807Y-25975794D01*
X30699871Y-25886496D01*
X30699872Y-25886496D01*
X30699873Y-25886495D01*
X30699877Y-25886493D01*
X30846315Y-25766315D01*
X30966493Y-25619877D01*
X31033902Y-25493764D01*
X31055792Y-25452811D01*
X31055792Y-25452810D01*
X31055794Y-25452807D01*
X31110785Y-25271526D01*
X31129353Y-25083000D01*
X31110785Y-24894474D01*
X31055794Y-24713193D01*
X31055792Y-24713190D01*
X31055792Y-24713188D01*
X30966496Y-24546128D01*
X30966496Y-24546127D01*
X30966492Y-24546122D01*
X30846315Y-24399685D01*
X30846313Y-24399683D01*
X30846312Y-24399682D01*
X30779381Y-24344754D01*
X30740046Y-24287008D01*
X30738175Y-24217164D01*
X30774362Y-24157395D01*
X30837118Y-24126679D01*
X30858045Y-24124900D01*
X32007955Y-24124900D01*
X32074994Y-24144585D01*
X32120749Y-24197389D01*
X32130693Y-24266547D01*
X32101668Y-24330103D01*
X32086619Y-24344754D01*
X32019687Y-24399682D01*
X31899503Y-24546127D01*
X31899503Y-24546128D01*
X31810207Y-24713188D01*
X31755214Y-24894475D01*
X31736647Y-25083000D01*
X31755214Y-25271524D01*
X31810207Y-25452811D01*
X31899503Y-25619871D01*
X31899503Y-25619872D01*
X31899506Y-25619876D01*
X31899507Y-25619877D01*
X32019685Y-25766315D01*
X32166123Y-25886493D01*
X32166126Y-25886495D01*
X32166128Y-25886496D01*
X32333188Y-25975792D01*
X32333190Y-25975792D01*
X32333193Y-25975794D01*
X32514474Y-26030785D01*
X32703000Y-26049353D01*
X32891526Y-26030785D01*
X33072807Y-25975794D01*
X33239871Y-25886496D01*
X33239872Y-25886496D01*
X33239873Y-25886495D01*
X33239877Y-25886493D01*
X33386315Y-25766315D01*
X33506493Y-25619877D01*
X33573902Y-25493764D01*
X33595792Y-25452811D01*
X33595792Y-25452810D01*
X33595794Y-25452807D01*
X33650785Y-25271526D01*
X33669353Y-25083000D01*
X33660476Y-24992875D01*
X33673494Y-24924233D01*
X33721559Y-24873522D01*
X33789410Y-24856847D01*
X33855505Y-24879503D01*
X33871560Y-24893043D01*
X34639781Y-25661263D01*
X34673266Y-25722586D01*
X34676100Y-25748944D01*
X34676100Y-35211055D01*
X34656415Y-35278094D01*
X34639781Y-35298736D01*
X33800137Y-36138381D01*
X33738814Y-36171866D01*
X33712456Y-36174700D01*
X31454877Y-36174700D01*
X31387838Y-36155015D01*
X31372650Y-36143516D01*
X31341908Y-36116281D01*
X31309440Y-36087517D01*
X31309438Y-36087516D01*
X31309437Y-36087515D01*
X31169565Y-36014103D01*
X31016186Y-35976300D01*
X31016185Y-35976300D01*
X30858215Y-35976300D01*
X30858214Y-35976300D01*
X30704834Y-36014103D01*
X30564962Y-36087515D01*
X30446716Y-36192271D01*
X30356981Y-36322275D01*
X30356980Y-36322276D01*
X30300962Y-36469981D01*
X30281922Y-36626799D01*
X30281922Y-36626800D01*
X30300962Y-36783618D01*
X30337608Y-36880243D01*
X30356980Y-36931323D01*
X30446717Y-37061330D01*
X30564960Y-37166083D01*
X30704835Y-37239496D01*
X30752459Y-37251233D01*
X30783528Y-37266301D01*
X30784435Y-37264626D01*
X30793473Y-37269517D01*
X30848792Y-37288508D01*
X30904112Y-37307500D01*
X30904113Y-37307500D01*
X31067839Y-37307500D01*
X31067840Y-37307500D01*
X31154181Y-37293092D01*
X31257058Y-37237418D01*
X31336284Y-37151356D01*
X31336288Y-37151346D01*
X31341213Y-37143810D01*
X31362800Y-37118810D01*
X31427680Y-37061333D01*
X31427681Y-37061332D01*
X31427681Y-37061331D01*
X31427683Y-37061330D01*
X31517420Y-36931323D01*
X31517419Y-36931323D01*
X31518844Y-36929260D01*
X31573127Y-36885270D01*
X31620894Y-36875700D01*
X33859789Y-36875700D01*
X33885234Y-36878338D01*
X33894315Y-36880243D01*
X33910005Y-36878287D01*
X33926939Y-36876177D01*
X33934615Y-36875700D01*
X33938035Y-36875700D01*
X33938040Y-36875700D01*
X33941608Y-36875104D01*
X33959539Y-36872113D01*
X33986958Y-36868694D01*
X34010393Y-36865773D01*
X34010402Y-36865768D01*
X34017451Y-36863670D01*
X34024377Y-36861292D01*
X34024381Y-36861292D01*
X34069444Y-36836904D01*
X34115484Y-36814398D01*
X34115487Y-36814394D01*
X34121453Y-36810135D01*
X34127254Y-36805619D01*
X34127258Y-36805618D01*
X34161957Y-36767924D01*
X35239646Y-35690234D01*
X35259502Y-35674111D01*
X35267269Y-35669037D01*
X35287473Y-35643077D01*
X35292541Y-35637339D01*
X35294975Y-35634907D01*
X35307644Y-35617161D01*
X35339117Y-35576726D01*
X35339118Y-35576720D01*
X35342617Y-35570255D01*
X35345835Y-35563672D01*
X35345840Y-35563666D01*
X35360461Y-35514554D01*
X35377100Y-35466088D01*
X35377100Y-35466079D01*
X35378306Y-35458856D01*
X35379217Y-35451552D01*
X35377100Y-35400370D01*
X35377100Y-25601611D01*
X35379739Y-25576164D01*
X35381643Y-25567085D01*
X35378292Y-25540200D01*
X35377577Y-25534461D01*
X35377100Y-25526785D01*
X35377100Y-25523360D01*
X35373512Y-25501858D01*
X35369351Y-25468482D01*
X35367173Y-25451007D01*
X35367171Y-25451003D01*
X35365102Y-25444053D01*
X35365070Y-25443959D01*
X35365046Y-25443878D01*
X35362692Y-25437022D01*
X35362692Y-25437019D01*
X35338302Y-25391950D01*
X35315798Y-25345917D01*
X35315797Y-25345916D01*
X35315797Y-25345915D01*
X35311526Y-25339934D01*
X35307017Y-25334141D01*
X35269312Y-25299430D01*
X33531237Y-23561355D01*
X33515111Y-23541498D01*
X33510037Y-23533731D01*
X33484087Y-23513533D01*
X33478341Y-23508459D01*
X33475907Y-23506025D01*
X33475906Y-23506024D01*
X33475905Y-23506023D01*
X33469448Y-23501413D01*
X33458161Y-23493355D01*
X33417726Y-23461883D01*
X33417722Y-23461881D01*
X33411248Y-23458377D01*
X33395436Y-23450647D01*
X33396715Y-23448030D01*
X33351676Y-23418846D01*
X33322891Y-23355181D01*
X33333094Y-23286061D01*
X33367030Y-23242142D01*
X33374360Y-23236125D01*
X33386315Y-23226315D01*
X33506493Y-23079877D01*
X33584179Y-22934537D01*
X33595792Y-22912811D01*
X33595792Y-22912810D01*
X33595794Y-22912807D01*
X33650785Y-22731526D01*
X33669353Y-22543000D01*
X33650785Y-22354474D01*
X33595794Y-22173193D01*
X33595792Y-22173190D01*
X33595792Y-22173188D01*
X33506496Y-22006128D01*
X33506496Y-22006127D01*
X33440806Y-21926083D01*
X33386315Y-21859685D01*
X33239877Y-21739507D01*
X33239873Y-21739505D01*
X33239871Y-21739503D01*
X33072811Y-21650207D01*
X32891524Y-21595214D01*
X32703000Y-21576647D01*
X32514475Y-21595214D01*
X32333188Y-21650207D01*
X32166128Y-21739503D01*
X32166127Y-21739503D01*
X32019685Y-21859685D01*
X31899503Y-22006127D01*
X31899503Y-22006128D01*
X31810207Y-22173188D01*
X31755214Y-22354475D01*
X31736647Y-22543000D01*
X31755214Y-22731524D01*
X31810207Y-22912811D01*
X31899503Y-23079871D01*
X31899507Y-23079877D01*
X32015516Y-23221236D01*
X32042828Y-23285546D01*
X32031037Y-23354413D01*
X31983884Y-23405973D01*
X31919662Y-23423900D01*
X30946338Y-23423900D01*
X30879299Y-23404215D01*
X30833544Y-23351411D01*
X30823600Y-23282253D01*
X30850484Y-23221236D01*
X30901750Y-23158766D01*
X30966493Y-23079877D01*
X31044179Y-22934537D01*
X31055792Y-22912811D01*
X31055792Y-22912810D01*
X31055794Y-22912807D01*
X31110785Y-22731526D01*
X31129353Y-22543000D01*
X31110785Y-22354474D01*
X31055794Y-22173193D01*
X31055792Y-22173190D01*
X31055792Y-22173188D01*
X30966496Y-22006128D01*
X30966496Y-22006127D01*
X30900806Y-21926083D01*
X30846315Y-21859685D01*
X30699877Y-21739507D01*
X30699873Y-21739505D01*
X30699871Y-21739503D01*
X30532811Y-21650207D01*
X30351524Y-21595214D01*
X30163000Y-21576647D01*
X29974475Y-21595214D01*
X29793188Y-21650207D01*
X29626128Y-21739503D01*
X29626127Y-21739503D01*
X29479685Y-21859685D01*
X29359503Y-22006127D01*
X29359503Y-22006128D01*
X29270207Y-22173188D01*
X29215214Y-22354475D01*
X29196647Y-22543000D01*
X29215214Y-22731524D01*
X29270207Y-22912811D01*
X29359503Y-23079871D01*
X29359507Y-23079877D01*
X29475516Y-23221236D01*
X29502828Y-23285546D01*
X29491037Y-23354413D01*
X29443884Y-23405973D01*
X29379662Y-23423900D01*
X28771544Y-23423900D01*
X28704505Y-23404215D01*
X28683863Y-23387581D01*
X26868089Y-21571807D01*
X26834604Y-21510484D01*
X26832674Y-21469184D01*
X26842678Y-21386800D01*
X26823637Y-21229982D01*
X26767620Y-21082277D01*
X26677883Y-20952270D01*
X26559640Y-20847517D01*
X26559638Y-20847516D01*
X26559637Y-20847515D01*
X26419765Y-20774103D01*
X26266386Y-20736300D01*
X26266385Y-20736300D01*
X26108415Y-20736300D01*
X26108414Y-20736300D01*
X25955034Y-20774103D01*
X25815162Y-20847515D01*
X25778064Y-20880381D01*
X25698718Y-20950675D01*
X25696916Y-20952271D01*
X25607181Y-21082275D01*
X25607180Y-21082276D01*
X25551162Y-21229981D01*
X25532122Y-21386799D01*
X25532122Y-21386800D01*
X25551162Y-21543618D01*
X25607180Y-21691323D01*
X25607181Y-21691324D01*
X25696918Y-21821331D01*
X25732136Y-21852532D01*
X25769263Y-21911721D01*
X25768495Y-21981587D01*
X25732137Y-22038162D01*
X25710116Y-22057670D01*
X25620381Y-22187675D01*
X25620380Y-22187676D01*
X25564362Y-22335381D01*
X25545322Y-22492199D01*
X25545322Y-22492200D01*
X25564362Y-22649018D01*
X25595653Y-22731524D01*
X25620380Y-22796723D01*
X25636388Y-22819915D01*
X25710117Y-22926731D01*
X25736362Y-22949981D01*
X25808326Y-23013735D01*
X25845453Y-23072923D01*
X25850100Y-23106550D01*
X25850100Y-25512256D01*
X25830415Y-25579295D01*
X25777611Y-25625050D01*
X25708453Y-25634994D01*
X25644897Y-25605969D01*
X25638419Y-25599937D01*
X25606437Y-25567955D01*
X25590311Y-25548098D01*
X25585237Y-25540331D01*
X25559287Y-25520133D01*
X25553541Y-25515059D01*
X25551107Y-25512625D01*
X25551106Y-25512624D01*
X25551105Y-25512623D01*
X25544648Y-25508013D01*
X25533361Y-25499955D01*
X25492926Y-25468483D01*
X25492922Y-25468481D01*
X25486448Y-25464977D01*
X25479869Y-25461760D01*
X25430754Y-25447138D01*
X25382286Y-25430498D01*
X25375069Y-25429294D01*
X25367753Y-25428382D01*
X25318525Y-25430419D01*
X25316569Y-25430500D01*
X25037743Y-25430500D01*
X24970704Y-25410815D01*
X24950062Y-25394181D01*
X23743889Y-24188008D01*
X23710404Y-24126685D01*
X23708474Y-24085384D01*
X23718478Y-24003000D01*
X23699437Y-23846182D01*
X23643420Y-23698477D01*
X23553683Y-23568470D01*
X23435440Y-23463717D01*
X23435438Y-23463716D01*
X23435437Y-23463715D01*
X23295565Y-23390303D01*
X23142186Y-23352500D01*
X23142185Y-23352500D01*
X22984215Y-23352500D01*
X22984214Y-23352500D01*
X22830834Y-23390303D01*
X22690962Y-23463715D01*
X22572716Y-23568471D01*
X22482981Y-23698475D01*
X22482980Y-23698476D01*
X22426962Y-23846181D01*
X22407922Y-24002999D01*
X22407922Y-24003000D01*
X22426962Y-24159818D01*
X22472355Y-24279507D01*
X22482980Y-24307523D01*
X22572717Y-24437530D01*
X22674707Y-24527884D01*
X22711834Y-24587074D01*
X22711066Y-24656939D01*
X22672649Y-24715299D01*
X22608778Y-24743624D01*
X22592480Y-24744700D01*
X21842406Y-24744700D01*
X21816961Y-24742061D01*
X21807885Y-24740158D01*
X21807882Y-24740158D01*
X21775268Y-24744223D01*
X21767592Y-24744700D01*
X21764160Y-24744700D01*
X21749819Y-24747092D01*
X21742648Y-24748289D01*
X21725821Y-24750386D01*
X21691807Y-24754627D01*
X21691806Y-24754627D01*
X21691801Y-24754628D01*
X21684775Y-24756719D01*
X21677823Y-24759106D01*
X21632755Y-24783495D01*
X21586712Y-24806003D01*
X21580766Y-24810248D01*
X21574942Y-24814781D01*
X21540242Y-24852475D01*
X21275355Y-25117361D01*
X21255506Y-25133482D01*
X21247731Y-25138562D01*
X21227543Y-25164498D01*
X21222467Y-25170248D01*
X21220034Y-25172681D01*
X21220023Y-25172694D01*
X21207354Y-25190438D01*
X21175883Y-25230872D01*
X21172375Y-25237353D01*
X21169160Y-25243932D01*
X21154538Y-25293045D01*
X21138190Y-25340669D01*
X21134564Y-25351231D01*
X21132256Y-25350438D01*
X21108134Y-25400240D01*
X21098514Y-25409748D01*
X20997916Y-25498870D01*
X20908181Y-25628875D01*
X20908180Y-25628876D01*
X20852162Y-25776581D01*
X20833122Y-25933399D01*
X20833122Y-25933400D01*
X20852162Y-26090218D01*
X20899529Y-26215112D01*
X20908180Y-26237923D01*
X20997917Y-26367930D01*
X21116160Y-26472683D01*
X21116162Y-26472684D01*
X21256034Y-26546096D01*
X21409414Y-26583900D01*
X21409415Y-26583900D01*
X21567385Y-26583900D01*
X21720765Y-26546096D01*
X21753033Y-26529160D01*
X21860640Y-26472683D01*
X21978883Y-26367930D01*
X22068620Y-26237923D01*
X22124637Y-26090218D01*
X22143678Y-25933400D01*
X22140251Y-25905171D01*
X22124637Y-25776581D01*
X22082119Y-25664471D01*
X22068620Y-25628877D01*
X22068617Y-25628873D01*
X22067805Y-25627325D01*
X22067551Y-25626061D01*
X22065960Y-25621864D01*
X22066657Y-25621599D01*
X22054080Y-25558817D01*
X22079573Y-25493764D01*
X22136189Y-25452820D01*
X22177602Y-25445700D01*
X22776467Y-25445700D01*
X22843506Y-25465385D01*
X22889261Y-25518189D01*
X22899205Y-25587347D01*
X22880413Y-25635300D01*
X22880667Y-25635433D01*
X22879462Y-25637728D01*
X22878517Y-25640138D01*
X22877597Y-25641472D01*
X22877179Y-25642078D01*
X22821162Y-25789781D01*
X22802122Y-25946599D01*
X22802122Y-25946600D01*
X22821162Y-26103418D01*
X22863523Y-26215112D01*
X22877180Y-26251123D01*
X22966917Y-26381130D01*
X23065126Y-26468135D01*
X23102252Y-26527323D01*
X23106899Y-26560950D01*
X23106899Y-28945388D01*
X23104262Y-28970826D01*
X23102357Y-28979913D01*
X23102357Y-28979917D01*
X23106423Y-29012537D01*
X23106900Y-29020214D01*
X23106900Y-29023640D01*
X23107928Y-29029799D01*
X23110487Y-29045141D01*
X23116827Y-29095993D01*
X23118920Y-29103026D01*
X23121308Y-29109981D01*
X23131787Y-29129345D01*
X23146380Y-29197674D01*
X23121715Y-29263045D01*
X23065623Y-29304704D01*
X22995913Y-29309424D01*
X22964276Y-29297717D01*
X22960562Y-29295732D01*
X22912807Y-29270206D01*
X22779145Y-29229660D01*
X22731524Y-29215214D01*
X22543000Y-29196647D01*
X22354475Y-29215214D01*
X22173188Y-29270207D01*
X22006128Y-29359503D01*
X22006127Y-29359503D01*
X21859681Y-29479688D01*
X21821483Y-29526232D01*
X21763737Y-29565566D01*
X21693892Y-29567435D01*
X21637950Y-29535247D01*
X21628771Y-29526068D01*
X21597516Y-29494813D01*
X21557055Y-29451206D01*
X21549792Y-29445414D01*
X21550312Y-29444761D01*
X21538067Y-29435364D01*
X20489819Y-28387116D01*
X20456334Y-28325793D01*
X20453500Y-28299435D01*
X20453500Y-24031061D01*
X20473185Y-23964022D01*
X20495275Y-23938244D01*
X20518883Y-23917330D01*
X20608620Y-23787323D01*
X20664637Y-23639618D01*
X20683678Y-23482800D01*
X20682972Y-23476981D01*
X20664637Y-23325981D01*
X20643392Y-23269963D01*
X20608620Y-23178277D01*
X20518883Y-23048270D01*
X20517512Y-23047055D01*
X20495271Y-23027351D01*
X20458146Y-22968161D01*
X20453500Y-22934537D01*
X20453500Y-20988530D01*
X20473185Y-20921491D01*
X20503189Y-20889264D01*
X20558957Y-20847515D01*
X20574946Y-20835546D01*
X20661196Y-20720331D01*
X20668580Y-20700532D01*
X20710450Y-20644598D01*
X20775914Y-20620179D01*
X20844187Y-20635029D01*
X20893594Y-20684433D01*
X20902469Y-20704859D01*
X20933041Y-20797119D01*
X20933043Y-20797124D01*
X21025084Y-20946345D01*
X21149054Y-21070315D01*
X21298275Y-21162356D01*
X21298280Y-21162358D01*
X21464702Y-21217505D01*
X21464709Y-21217506D01*
X21567419Y-21227999D01*
X21617399Y-21227998D01*
X21617400Y-21227998D01*
X21617400Y-20253000D01*
X22117400Y-20253000D01*
X22117400Y-21227999D01*
X22167372Y-21227999D01*
X22167386Y-21227998D01*
X22270097Y-21217505D01*
X22436519Y-21162358D01*
X22436524Y-21162356D01*
X22585745Y-21070315D01*
X22709715Y-20946345D01*
X22801756Y-20797124D01*
X22801758Y-20797119D01*
X22856905Y-20630697D01*
X22856906Y-20630690D01*
X22867399Y-20527986D01*
X22867400Y-20527973D01*
X22867400Y-20253000D01*
X22117400Y-20253000D01*
X21617400Y-20253000D01*
X21617400Y-20002999D01*
X29196647Y-20002999D01*
X29215214Y-20191524D01*
X29270207Y-20372811D01*
X29359503Y-20539871D01*
X29359503Y-20539872D01*
X29359506Y-20539876D01*
X29359507Y-20539877D01*
X29479685Y-20686315D01*
X29626123Y-20806493D01*
X29626126Y-20806495D01*
X29626128Y-20806496D01*
X29793188Y-20895792D01*
X29793190Y-20895792D01*
X29793193Y-20895794D01*
X29974474Y-20950785D01*
X30163000Y-20969353D01*
X30351526Y-20950785D01*
X30532807Y-20895794D01*
X30699871Y-20806496D01*
X30699872Y-20806496D01*
X30699873Y-20806495D01*
X30699877Y-20806493D01*
X30846315Y-20686315D01*
X30966493Y-20539877D01*
X31031195Y-20418829D01*
X31055792Y-20372811D01*
X31055792Y-20372810D01*
X31055794Y-20372807D01*
X31110785Y-20191526D01*
X31129353Y-20003001D01*
X31487173Y-20003001D01*
X31505643Y-20214120D01*
X31505645Y-20214131D01*
X31560493Y-20418829D01*
X31560497Y-20418838D01*
X31650062Y-20610913D01*
X31687733Y-20664712D01*
X32165580Y-20186865D01*
X32226903Y-20153380D01*
X32296594Y-20158364D01*
X32352528Y-20200235D01*
X32363742Y-20218246D01*
X32370296Y-20231109D01*
X32375358Y-20241044D01*
X32375363Y-20241050D01*
X32464949Y-20330636D01*
X32464951Y-20330637D01*
X32464955Y-20330641D01*
X32487747Y-20342254D01*
X32538542Y-20390228D01*
X32555337Y-20458049D01*
X32532799Y-20524184D01*
X32519132Y-20540419D01*
X32041286Y-21018265D01*
X32041286Y-21018266D01*
X32095082Y-21055935D01*
X32095086Y-21055937D01*
X32287161Y-21145502D01*
X32287170Y-21145506D01*
X32491868Y-21200354D01*
X32491879Y-21200356D01*
X32702998Y-21218827D01*
X32703002Y-21218827D01*
X32914120Y-21200356D01*
X32914131Y-21200354D01*
X33118829Y-21145506D01*
X33118838Y-21145502D01*
X33310911Y-21055938D01*
X33364712Y-21018265D01*
X32886866Y-20540419D01*
X32853381Y-20479096D01*
X32858365Y-20409404D01*
X32900237Y-20353471D01*
X32918245Y-20342258D01*
X32941045Y-20330641D01*
X33030641Y-20241045D01*
X33042254Y-20218252D01*
X33090225Y-20167458D01*
X33158046Y-20150661D01*
X33224181Y-20173197D01*
X33240419Y-20186866D01*
X33718265Y-20664711D01*
X33755938Y-20610911D01*
X33845502Y-20418838D01*
X33845506Y-20418829D01*
X33900354Y-20214131D01*
X33900356Y-20214120D01*
X33918827Y-20003001D01*
X33918827Y-20002998D01*
X33900356Y-19791879D01*
X33900354Y-19791868D01*
X33845506Y-19587170D01*
X33845502Y-19587161D01*
X33755936Y-19395086D01*
X33755933Y-19395082D01*
X33718265Y-19341286D01*
X33240419Y-19819132D01*
X33179096Y-19852617D01*
X33109404Y-19847633D01*
X33053471Y-19805761D01*
X33042256Y-19787751D01*
X33030641Y-19764955D01*
X33030637Y-19764951D01*
X33030636Y-19764949D01*
X32941050Y-19675363D01*
X32941044Y-19675358D01*
X32931109Y-19670296D01*
X32918250Y-19663744D01*
X32867456Y-19615773D01*
X32850660Y-19547952D01*
X32873197Y-19481817D01*
X32886865Y-19465580D01*
X33364712Y-18987733D01*
X33310913Y-18950062D01*
X33118838Y-18860497D01*
X33118829Y-18860493D01*
X32914131Y-18805645D01*
X32914120Y-18805643D01*
X32703002Y-18787173D01*
X32702998Y-18787173D01*
X32491879Y-18805643D01*
X32491868Y-18805645D01*
X32287170Y-18860493D01*
X32287161Y-18860497D01*
X32095084Y-18950064D01*
X32041286Y-18987732D01*
X32041286Y-18987733D01*
X32519133Y-19465580D01*
X32552618Y-19526903D01*
X32547634Y-19596595D01*
X32505762Y-19652528D01*
X32487748Y-19663745D01*
X32464956Y-19675358D01*
X32464949Y-19675363D01*
X32375363Y-19764949D01*
X32375358Y-19764956D01*
X32363745Y-19787748D01*
X32315770Y-19838544D01*
X32247949Y-19855338D01*
X32181814Y-19832800D01*
X32165580Y-19819133D01*
X31687733Y-19341286D01*
X31687732Y-19341286D01*
X31650064Y-19395084D01*
X31560497Y-19587161D01*
X31560493Y-19587170D01*
X31505645Y-19791868D01*
X31505643Y-19791879D01*
X31487173Y-20002998D01*
X31487173Y-20003001D01*
X31129353Y-20003001D01*
X31129353Y-20003000D01*
X31110785Y-19814474D01*
X31055794Y-19633193D01*
X31055792Y-19633190D01*
X31055792Y-19633188D01*
X30966496Y-19466128D01*
X30966496Y-19466127D01*
X30929065Y-19420517D01*
X30846315Y-19319685D01*
X30699877Y-19199507D01*
X30699873Y-19199505D01*
X30699871Y-19199503D01*
X30532811Y-19110207D01*
X30351524Y-19055214D01*
X30163000Y-19036647D01*
X29974475Y-19055214D01*
X29793188Y-19110207D01*
X29626128Y-19199503D01*
X29626127Y-19199503D01*
X29479685Y-19319685D01*
X29359503Y-19466127D01*
X29359503Y-19466128D01*
X29270207Y-19633188D01*
X29215214Y-19814475D01*
X29196647Y-20002999D01*
X21617400Y-20002999D01*
X21617400Y-18778000D01*
X22117400Y-18778000D01*
X22117400Y-19753000D01*
X22867399Y-19753000D01*
X22867399Y-19478028D01*
X22867398Y-19478013D01*
X22856905Y-19375302D01*
X22801758Y-19208880D01*
X22801756Y-19208875D01*
X22709715Y-19059654D01*
X22585745Y-18935684D01*
X22436524Y-18843643D01*
X22436519Y-18843641D01*
X22270097Y-18788494D01*
X22270090Y-18788493D01*
X22167386Y-18778000D01*
X22117400Y-18778000D01*
X21617400Y-18778000D01*
X21617399Y-18777999D01*
X21567429Y-18778000D01*
X21567411Y-18778001D01*
X21464702Y-18788494D01*
X21298280Y-18843641D01*
X21298275Y-18843643D01*
X21149054Y-18935684D01*
X21025084Y-19059654D01*
X20933043Y-19208875D01*
X20933042Y-19208878D01*
X20902469Y-19301141D01*
X20862696Y-19358585D01*
X20798180Y-19385408D01*
X20729404Y-19373093D01*
X20678204Y-19325549D01*
X20668581Y-19305468D01*
X20661198Y-19285673D01*
X20661193Y-19285664D01*
X20574947Y-19170455D01*
X20574944Y-19170452D01*
X20522951Y-19131530D01*
X20481080Y-19075597D01*
X20476096Y-19005905D01*
X20495210Y-18961826D01*
X20583220Y-18834323D01*
X20639237Y-18686618D01*
X20658278Y-18529800D01*
X20639237Y-18372982D01*
X20639236Y-18372980D01*
X20639237Y-18372980D01*
X20584710Y-18229206D01*
X20579343Y-18159543D01*
X20601385Y-18110925D01*
X20673396Y-18014731D01*
X20680780Y-17994932D01*
X20722650Y-17938998D01*
X20788114Y-17914579D01*
X20856387Y-17929429D01*
X20905794Y-17978833D01*
X20914669Y-17999259D01*
X20945241Y-18091519D01*
X20945243Y-18091524D01*
X21037284Y-18240745D01*
X21161254Y-18364715D01*
X21310475Y-18456756D01*
X21310480Y-18456758D01*
X21476902Y-18511905D01*
X21476909Y-18511906D01*
X21579619Y-18522399D01*
X21629598Y-18522398D01*
X21629599Y-18522398D01*
X21629600Y-17547400D01*
X22129600Y-17547400D01*
X22129600Y-18522399D01*
X22179572Y-18522399D01*
X22179586Y-18522398D01*
X22282297Y-18511905D01*
X22448719Y-18456758D01*
X22448724Y-18456756D01*
X22597945Y-18364715D01*
X22721915Y-18240745D01*
X22813956Y-18091524D01*
X22813958Y-18091519D01*
X22869105Y-17925097D01*
X22869106Y-17925090D01*
X22879599Y-17822386D01*
X22879600Y-17822373D01*
X22879600Y-17547400D01*
X22129600Y-17547400D01*
X21629600Y-17547400D01*
X21629600Y-17463000D01*
X25443722Y-17463000D01*
X25462762Y-17619818D01*
X25500547Y-17719447D01*
X25518780Y-17767523D01*
X25608517Y-17897530D01*
X25726760Y-18002283D01*
X25726762Y-18002284D01*
X25866634Y-18075696D01*
X26020014Y-18113500D01*
X26020015Y-18113500D01*
X26177985Y-18113500D01*
X26331365Y-18075696D01*
X26390563Y-18044626D01*
X26471240Y-18002283D01*
X26589483Y-17897530D01*
X26679220Y-17767523D01*
X26735237Y-17619818D01*
X26754278Y-17463000D01*
X26744274Y-17380617D01*
X26755734Y-17311696D01*
X26779686Y-17277994D01*
X27477862Y-16579819D01*
X27539186Y-16546334D01*
X27565544Y-16543500D01*
X29420920Y-16543500D01*
X29487959Y-16563185D01*
X29533714Y-16615989D01*
X29543658Y-16685147D01*
X29514633Y-16748703D01*
X29499585Y-16763353D01*
X29479687Y-16779682D01*
X29359503Y-16926127D01*
X29359503Y-16926128D01*
X29270207Y-17093188D01*
X29215214Y-17274475D01*
X29196647Y-17463000D01*
X29215214Y-17651524D01*
X29270207Y-17832811D01*
X29359503Y-17999871D01*
X29359503Y-17999872D01*
X29359506Y-17999876D01*
X29359507Y-17999877D01*
X29479685Y-18146315D01*
X29626123Y-18266493D01*
X29626126Y-18266495D01*
X29626128Y-18266496D01*
X29793188Y-18355792D01*
X29793190Y-18355792D01*
X29793193Y-18355794D01*
X29974474Y-18410785D01*
X30163000Y-18429353D01*
X30351526Y-18410785D01*
X30532807Y-18355794D01*
X30699871Y-18266496D01*
X30699872Y-18266496D01*
X30699873Y-18266495D01*
X30699877Y-18266493D01*
X30846315Y-18146315D01*
X30966493Y-17999877D01*
X31030631Y-17879883D01*
X31055792Y-17832811D01*
X31055792Y-17832810D01*
X31055794Y-17832807D01*
X31110785Y-17651526D01*
X31129353Y-17463000D01*
X31129353Y-17462999D01*
X31736647Y-17462999D01*
X31755214Y-17651524D01*
X31810207Y-17832811D01*
X31899503Y-17999871D01*
X31899503Y-17999872D01*
X31899506Y-17999876D01*
X31899507Y-17999877D01*
X32019685Y-18146315D01*
X32166123Y-18266493D01*
X32166126Y-18266495D01*
X32166128Y-18266496D01*
X32333188Y-18355792D01*
X32333190Y-18355792D01*
X32333193Y-18355794D01*
X32514474Y-18410785D01*
X32703000Y-18429353D01*
X32891526Y-18410785D01*
X33072807Y-18355794D01*
X33239871Y-18266496D01*
X33239872Y-18266496D01*
X33239873Y-18266495D01*
X33239877Y-18266493D01*
X33386315Y-18146315D01*
X33506493Y-17999877D01*
X33570631Y-17879883D01*
X33595792Y-17832811D01*
X33595792Y-17832810D01*
X33595794Y-17832807D01*
X33650785Y-17651526D01*
X33669353Y-17463000D01*
X33650785Y-17274474D01*
X33595794Y-17093193D01*
X33595792Y-17093190D01*
X33595792Y-17093188D01*
X33506496Y-16926128D01*
X33506496Y-16926127D01*
X33444269Y-16850303D01*
X33386315Y-16779685D01*
X33239877Y-16659507D01*
X33239873Y-16659505D01*
X33239871Y-16659503D01*
X33072811Y-16570207D01*
X32891524Y-16515214D01*
X32703000Y-16496647D01*
X32514475Y-16515214D01*
X32333188Y-16570207D01*
X32166128Y-16659503D01*
X32166127Y-16659503D01*
X32019685Y-16779685D01*
X31899503Y-16926127D01*
X31899503Y-16926128D01*
X31810207Y-17093188D01*
X31755214Y-17274475D01*
X31736647Y-17462999D01*
X31129353Y-17462999D01*
X31110785Y-17274474D01*
X31055794Y-17093193D01*
X31055792Y-17093190D01*
X31055792Y-17093188D01*
X30966496Y-16926128D01*
X30966496Y-16926127D01*
X30887772Y-16830201D01*
X30846315Y-16779685D01*
X30846313Y-16779683D01*
X30846312Y-16779682D01*
X30826415Y-16763353D01*
X30787081Y-16705608D01*
X30785210Y-16635763D01*
X30821397Y-16575995D01*
X30884153Y-16545279D01*
X30898143Y-16544089D01*
X30898130Y-16543923D01*
X30903233Y-16543500D01*
X30903240Y-16543500D01*
X30906808Y-16542904D01*
X30924739Y-16539913D01*
X30952158Y-16536494D01*
X30975593Y-16533573D01*
X30975602Y-16533568D01*
X30982651Y-16531470D01*
X30989577Y-16529092D01*
X30989581Y-16529092D01*
X31034644Y-16504704D01*
X31080684Y-16482198D01*
X31080687Y-16482194D01*
X31086653Y-16477935D01*
X31092454Y-16473419D01*
X31092458Y-16473418D01*
X31127157Y-16435724D01*
X31696846Y-15866034D01*
X31716702Y-15849911D01*
X31724469Y-15844837D01*
X31744673Y-15818877D01*
X31749741Y-15813139D01*
X31752176Y-15810706D01*
X31755962Y-15805402D01*
X31764848Y-15792958D01*
X31796313Y-15752531D01*
X31796312Y-15752531D01*
X31796317Y-15752526D01*
X31796319Y-15752519D01*
X31799782Y-15746118D01*
X31799821Y-15746040D01*
X31799858Y-15745970D01*
X31803033Y-15739474D01*
X31803040Y-15739466D01*
X31817660Y-15690356D01*
X31826616Y-15664266D01*
X31867002Y-15607252D01*
X31931801Y-15581121D01*
X32000441Y-15594172D01*
X32022563Y-15608677D01*
X32166123Y-15726493D01*
X32166126Y-15726494D01*
X32166128Y-15726496D01*
X32333188Y-15815792D01*
X32333190Y-15815792D01*
X32333193Y-15815794D01*
X32514474Y-15870785D01*
X32703000Y-15889353D01*
X32891526Y-15870785D01*
X33072807Y-15815794D01*
X33077814Y-15813118D01*
X33215606Y-15739466D01*
X33239871Y-15726496D01*
X33239872Y-15726496D01*
X33239873Y-15726495D01*
X33239877Y-15726493D01*
X33386315Y-15606315D01*
X33506493Y-15459877D01*
X33589959Y-15303723D01*
X33595792Y-15292811D01*
X33595792Y-15292810D01*
X33595794Y-15292807D01*
X33650785Y-15111526D01*
X33669353Y-14923000D01*
X33650785Y-14734474D01*
X33595794Y-14553193D01*
X33595792Y-14553190D01*
X33595792Y-14553188D01*
X33506496Y-14386128D01*
X33506496Y-14386127D01*
X33492127Y-14368618D01*
X33386315Y-14239685D01*
X33239877Y-14119507D01*
X33239873Y-14119505D01*
X33239871Y-14119503D01*
X33072811Y-14030207D01*
X32891524Y-13975214D01*
X32703000Y-13956647D01*
X32514475Y-13975214D01*
X32333188Y-14030207D01*
X32166128Y-14119503D01*
X32166122Y-14119507D01*
X32036963Y-14225505D01*
X31972653Y-14252817D01*
X31903786Y-14241026D01*
X31852226Y-14193873D01*
X31834299Y-14129651D01*
X31834299Y-13176348D01*
X31853984Y-13109309D01*
X31906788Y-13063554D01*
X31975946Y-13053610D01*
X32036962Y-13080494D01*
X32055006Y-13095302D01*
X32166121Y-13186492D01*
X32166128Y-13186496D01*
X32333188Y-13275792D01*
X32333190Y-13275792D01*
X32333193Y-13275794D01*
X32514474Y-13330785D01*
X32703000Y-13349353D01*
X32891526Y-13330785D01*
X33072807Y-13275794D01*
X33087479Y-13267952D01*
X33152747Y-13233065D01*
X33239871Y-13186496D01*
X33239872Y-13186496D01*
X33239873Y-13186495D01*
X33239877Y-13186493D01*
X33386315Y-13066315D01*
X33506493Y-12919877D01*
X33595794Y-12752807D01*
X33650785Y-12571526D01*
X33669353Y-12383000D01*
X33650785Y-12194474D01*
X33595794Y-12013193D01*
X33595792Y-12013190D01*
X33595792Y-12013188D01*
X33506496Y-11846128D01*
X33506496Y-11846127D01*
X33506493Y-11846123D01*
X33386315Y-11699685D01*
X33239877Y-11579507D01*
X33239873Y-11579505D01*
X33239871Y-11579503D01*
X33072811Y-11490207D01*
X32891524Y-11435214D01*
X32703000Y-11416647D01*
X32514475Y-11435214D01*
X32333188Y-11490207D01*
X32166128Y-11579503D01*
X32166122Y-11579507D01*
X32036963Y-11685505D01*
X31972653Y-11712817D01*
X31903786Y-11701026D01*
X31852226Y-11653873D01*
X31834299Y-11589651D01*
X31834299Y-11258743D01*
X31853984Y-11191704D01*
X31870613Y-11171067D01*
X32259689Y-10781991D01*
X32321010Y-10748508D01*
X32383363Y-10751013D01*
X32404652Y-10757471D01*
X32514474Y-10790785D01*
X32703000Y-10809353D01*
X32891526Y-10790785D01*
X33072807Y-10735794D01*
X33075221Y-10734504D01*
X33182007Y-10677425D01*
X33239871Y-10646496D01*
X33239872Y-10646496D01*
X33239873Y-10646495D01*
X33239877Y-10646493D01*
X33386315Y-10526315D01*
X33506493Y-10379877D01*
X33573154Y-10255164D01*
X33595792Y-10212811D01*
X33595792Y-10212810D01*
X33595794Y-10212807D01*
X33650785Y-10031526D01*
X33669353Y-9843000D01*
X33650785Y-9654474D01*
X33595794Y-9473193D01*
X33595792Y-9473190D01*
X33595792Y-9473188D01*
X33506496Y-9306128D01*
X33506496Y-9306127D01*
X33506047Y-9305580D01*
X33386315Y-9159685D01*
X33239877Y-9039507D01*
X33239873Y-9039505D01*
X33239871Y-9039503D01*
X33072811Y-8950207D01*
X32891524Y-8895214D01*
X32703000Y-8876647D01*
X32514475Y-8895214D01*
X32333188Y-8950207D01*
X32166128Y-9039503D01*
X32166127Y-9039503D01*
X32019685Y-9159685D01*
X31899503Y-9306127D01*
X31899503Y-9306128D01*
X31810207Y-9473188D01*
X31755214Y-9654475D01*
X31736647Y-9843000D01*
X31755214Y-10031524D01*
X31794986Y-10162634D01*
X31795609Y-10232501D01*
X31764006Y-10286310D01*
X31270755Y-10779561D01*
X31250906Y-10795682D01*
X31243131Y-10800762D01*
X31222943Y-10826698D01*
X31217867Y-10832448D01*
X31215434Y-10834881D01*
X31215423Y-10834894D01*
X31202754Y-10852638D01*
X31171283Y-10893072D01*
X31167775Y-10899553D01*
X31164560Y-10906132D01*
X31149938Y-10955245D01*
X31133299Y-11003713D01*
X31132090Y-11010951D01*
X31131182Y-11018241D01*
X31133300Y-11069430D01*
X31133300Y-11702820D01*
X31113615Y-11769859D01*
X31060811Y-11815614D01*
X30991653Y-11825558D01*
X30928097Y-11796533D01*
X30913447Y-11781485D01*
X30846317Y-11699687D01*
X30846315Y-11699685D01*
X30699877Y-11579507D01*
X30699873Y-11579505D01*
X30699871Y-11579503D01*
X30532811Y-11490207D01*
X30351524Y-11435214D01*
X30163000Y-11416647D01*
X29974475Y-11435214D01*
X29793188Y-11490207D01*
X29626128Y-11579503D01*
X29626127Y-11579503D01*
X29479685Y-11699685D01*
X29359503Y-11846127D01*
X29359503Y-11846128D01*
X29270207Y-12013188D01*
X29215214Y-12194475D01*
X29196647Y-12383000D01*
X29215214Y-12571524D01*
X29270207Y-12752811D01*
X29359503Y-12919871D01*
X29359503Y-12919872D01*
X29359506Y-12919876D01*
X29359507Y-12919877D01*
X29479685Y-13066315D01*
X29626123Y-13186493D01*
X29626126Y-13186495D01*
X29626128Y-13186496D01*
X29793188Y-13275792D01*
X29793190Y-13275792D01*
X29793193Y-13275794D01*
X29974474Y-13330785D01*
X30163000Y-13349353D01*
X30351526Y-13330785D01*
X30532807Y-13275794D01*
X30547479Y-13267952D01*
X30612747Y-13233065D01*
X30699871Y-13186496D01*
X30699872Y-13186496D01*
X30699873Y-13186495D01*
X30699877Y-13186493D01*
X30846315Y-13066315D01*
X30913446Y-12984514D01*
X30971192Y-12945180D01*
X31041036Y-12943309D01*
X31100805Y-12979496D01*
X31131521Y-13042252D01*
X31133300Y-13063179D01*
X31133300Y-14242820D01*
X31113615Y-14309859D01*
X31060811Y-14355614D01*
X30991653Y-14365558D01*
X30928097Y-14336533D01*
X30913447Y-14321485D01*
X30846317Y-14239687D01*
X30839157Y-14233811D01*
X30699877Y-14119507D01*
X30699873Y-14119505D01*
X30699871Y-14119503D01*
X30532811Y-14030207D01*
X30351524Y-13975214D01*
X30163000Y-13956647D01*
X29974475Y-13975214D01*
X29793188Y-14030207D01*
X29626128Y-14119503D01*
X29626127Y-14119503D01*
X29479685Y-14239685D01*
X29359503Y-14386127D01*
X29359503Y-14386128D01*
X29270207Y-14553188D01*
X29215214Y-14734475D01*
X29196647Y-14922999D01*
X29215214Y-15111524D01*
X29270207Y-15292811D01*
X29359503Y-15459871D01*
X29359503Y-15459872D01*
X29359506Y-15459876D01*
X29359507Y-15459877D01*
X29479684Y-15606314D01*
X29479687Y-15606317D01*
X29499585Y-15622647D01*
X29538919Y-15680392D01*
X29540790Y-15750237D01*
X29504603Y-15810005D01*
X29441847Y-15840721D01*
X29420920Y-15842500D01*
X27418206Y-15842500D01*
X27392761Y-15839861D01*
X27383685Y-15837958D01*
X27383682Y-15837958D01*
X27351068Y-15842023D01*
X27343392Y-15842500D01*
X27339960Y-15842500D01*
X27327266Y-15844618D01*
X27318448Y-15846089D01*
X27301621Y-15848186D01*
X27267607Y-15852427D01*
X27267606Y-15852427D01*
X27267601Y-15852428D01*
X27260575Y-15854519D01*
X27253623Y-15856906D01*
X27253619Y-15856907D01*
X27253619Y-15856908D01*
X27236746Y-15866039D01*
X27208555Y-15881295D01*
X27162512Y-15903803D01*
X27156566Y-15908048D01*
X27150742Y-15912581D01*
X27116042Y-15950275D01*
X26288274Y-16778042D01*
X26226951Y-16811527D01*
X26185721Y-16811004D01*
X26185430Y-16813404D01*
X26177985Y-16812500D01*
X26020015Y-16812500D01*
X26020014Y-16812500D01*
X25866634Y-16850303D01*
X25726762Y-16923715D01*
X25608516Y-17028471D01*
X25518781Y-17158475D01*
X25518780Y-17158476D01*
X25462762Y-17306181D01*
X25443722Y-17462999D01*
X25443722Y-17463000D01*
X21629600Y-17463000D01*
X21629599Y-16072400D01*
X22129600Y-16072400D01*
X22129600Y-17047400D01*
X22879599Y-17047400D01*
X22879599Y-16772420D01*
X22879598Y-16772413D01*
X22869105Y-16669702D01*
X22813958Y-16503280D01*
X22813956Y-16503275D01*
X22721915Y-16354054D01*
X22597945Y-16230084D01*
X22448724Y-16138043D01*
X22448719Y-16138041D01*
X22282297Y-16082894D01*
X22282290Y-16082893D01*
X22179586Y-16072400D01*
X22129600Y-16072400D01*
X21629599Y-16072400D01*
X21629598Y-16072399D01*
X21579629Y-16072400D01*
X21579611Y-16072401D01*
X21476902Y-16082894D01*
X21310480Y-16138041D01*
X21310475Y-16138043D01*
X21161254Y-16230084D01*
X21037284Y-16354054D01*
X20945243Y-16503275D01*
X20945242Y-16503278D01*
X20914669Y-16595541D01*
X20874896Y-16652985D01*
X20810380Y-16679808D01*
X20741604Y-16667493D01*
X20690404Y-16619949D01*
X20680781Y-16599868D01*
X20673398Y-16580073D01*
X20673393Y-16580064D01*
X20587147Y-16464855D01*
X20587144Y-16464852D01*
X20503189Y-16402003D01*
X20461318Y-16346069D01*
X20453500Y-16302737D01*
X20453500Y-15296359D01*
X20473185Y-15229320D01*
X20488846Y-15211044D01*
X20488509Y-15210745D01*
X20493481Y-15205132D01*
X20493481Y-15205131D01*
X20493483Y-15205130D01*
X20583220Y-15075123D01*
X20612014Y-14999200D01*
X24935722Y-14999200D01*
X24954762Y-15156018D01*
X24986822Y-15240551D01*
X25010780Y-15303723D01*
X25100517Y-15433730D01*
X25218760Y-15538483D01*
X25218762Y-15538484D01*
X25358634Y-15611896D01*
X25512014Y-15649700D01*
X25512015Y-15649700D01*
X25669985Y-15649700D01*
X25823365Y-15611896D01*
X25833995Y-15606317D01*
X25963240Y-15538483D01*
X26081483Y-15433730D01*
X26171220Y-15303723D01*
X26227237Y-15156018D01*
X26246278Y-14999200D01*
X26233483Y-14893818D01*
X26227237Y-14842381D01*
X26186313Y-14734474D01*
X26171220Y-14694677D01*
X26095625Y-14585158D01*
X26073743Y-14518807D01*
X26091208Y-14451155D01*
X26109991Y-14427044D01*
X29746816Y-10790219D01*
X29808137Y-10756736D01*
X29870491Y-10759242D01*
X29974471Y-10790784D01*
X29974473Y-10790785D01*
X29993041Y-10792613D01*
X30163000Y-10809353D01*
X30351526Y-10790785D01*
X30532807Y-10735794D01*
X30535221Y-10734504D01*
X30642007Y-10677425D01*
X30699871Y-10646496D01*
X30699872Y-10646496D01*
X30699873Y-10646495D01*
X30699877Y-10646493D01*
X30846315Y-10526315D01*
X30966493Y-10379877D01*
X31033154Y-10255164D01*
X31055792Y-10212811D01*
X31055792Y-10212810D01*
X31055794Y-10212807D01*
X31110785Y-10031526D01*
X31129353Y-9843000D01*
X31110785Y-9654474D01*
X31055794Y-9473193D01*
X31055792Y-9473190D01*
X31055792Y-9473188D01*
X30966496Y-9306128D01*
X30966496Y-9306127D01*
X30966047Y-9305580D01*
X30846315Y-9159685D01*
X30699877Y-9039507D01*
X30699873Y-9039505D01*
X30699871Y-9039503D01*
X30532811Y-8950207D01*
X30351524Y-8895214D01*
X30163000Y-8876647D01*
X29974475Y-8895214D01*
X29793188Y-8950207D01*
X29626128Y-9039503D01*
X29626127Y-9039503D01*
X29479685Y-9159685D01*
X29359503Y-9306127D01*
X29359503Y-9306128D01*
X29270207Y-9473188D01*
X29215214Y-9654475D01*
X29196647Y-9842999D01*
X29215214Y-10031524D01*
X29246757Y-10135507D01*
X29247380Y-10205374D01*
X29215777Y-10259183D01*
X25362108Y-14112852D01*
X25342254Y-14128976D01*
X25333165Y-14134914D01*
X25333164Y-14134915D01*
X25311363Y-14162923D01*
X25306286Y-14168674D01*
X25303484Y-14171477D01*
X25303474Y-14171488D01*
X25289905Y-14190495D01*
X25256192Y-14233808D01*
X25252447Y-14240729D01*
X25248988Y-14247804D01*
X25233329Y-14300403D01*
X25215500Y-14352338D01*
X25214206Y-14360092D01*
X25213231Y-14367913D01*
X25214662Y-14402522D01*
X25197763Y-14470318D01*
X25172996Y-14500459D01*
X25100516Y-14564670D01*
X25010781Y-14694675D01*
X25010780Y-14694676D01*
X24954762Y-14842381D01*
X24935722Y-14999199D01*
X24935722Y-14999200D01*
X20612014Y-14999200D01*
X20639237Y-14927418D01*
X20658278Y-14770600D01*
X20655442Y-14747239D01*
X20639237Y-14613781D01*
X20602276Y-14516324D01*
X20583220Y-14466077D01*
X20493483Y-14336070D01*
X20375240Y-14231317D01*
X20375238Y-14231316D01*
X20375237Y-14231315D01*
X20235365Y-14157903D01*
X20081986Y-14120100D01*
X20081985Y-14120100D01*
X19924015Y-14120100D01*
X19924014Y-14120100D01*
X19770634Y-14157903D01*
X19759401Y-14163799D01*
X19690892Y-14177521D01*
X19625840Y-14152026D01*
X19584898Y-14095409D01*
X19581066Y-14025644D01*
X19585832Y-14010044D01*
X19623237Y-13911418D01*
X19642278Y-13754600D01*
X19641806Y-13750708D01*
X19623237Y-13597781D01*
X19591607Y-13514381D01*
X19567220Y-13450077D01*
X19477483Y-13320070D01*
X19379272Y-13233063D01*
X19342147Y-13173876D01*
X19337500Y-13140249D01*
X19337500Y-10806606D01*
X19340139Y-10781160D01*
X19344150Y-10762030D01*
X19348039Y-10762845D01*
X19364015Y-10715587D01*
X19418623Y-10672001D01*
X19488127Y-10664858D01*
X19523991Y-10677424D01*
X19633193Y-10735794D01*
X19814474Y-10790785D01*
X20003000Y-10809353D01*
X20191526Y-10790785D01*
X20372807Y-10735794D01*
X20486047Y-10675265D01*
X20554449Y-10661024D01*
X20619693Y-10686024D01*
X20661064Y-10742329D01*
X20668500Y-10784624D01*
X20668500Y-13705388D01*
X20665861Y-13730832D01*
X20663957Y-13739911D01*
X20663957Y-13739917D01*
X20668023Y-13772537D01*
X20668500Y-13780214D01*
X20668500Y-13783638D01*
X20672087Y-13805141D01*
X20678427Y-13855993D01*
X20680520Y-13863026D01*
X20682908Y-13869981D01*
X20707295Y-13915044D01*
X20729801Y-13961083D01*
X20734065Y-13967055D01*
X20738580Y-13972856D01*
X20776275Y-14007558D01*
X20795509Y-14026792D01*
X20828994Y-14088115D01*
X20830924Y-14129418D01*
X20820922Y-14211799D01*
X20820922Y-14211800D01*
X20839962Y-14368614D01*
X20839962Y-14368618D01*
X20893347Y-14509381D01*
X20895980Y-14516323D01*
X20985717Y-14646330D01*
X21103960Y-14751083D01*
X21103962Y-14751084D01*
X21243834Y-14824496D01*
X21397214Y-14862300D01*
X21397215Y-14862300D01*
X21555185Y-14862300D01*
X21708565Y-14824496D01*
X21708564Y-14824496D01*
X21848440Y-14751083D01*
X21966683Y-14646330D01*
X22056420Y-14516323D01*
X22112437Y-14368618D01*
X22112438Y-14368614D01*
X22131478Y-14211800D01*
X22131478Y-14211799D01*
X22112437Y-14054981D01*
X22082185Y-13975214D01*
X22056420Y-13907277D01*
X21966683Y-13777270D01*
X21848440Y-13672517D01*
X21848438Y-13672516D01*
X21848437Y-13672515D01*
X21708565Y-13599103D01*
X21555186Y-13561300D01*
X21555185Y-13561300D01*
X21493500Y-13561300D01*
X21426461Y-13541615D01*
X21380706Y-13488811D01*
X21369500Y-13437300D01*
X21369500Y-10801543D01*
X21389185Y-10734504D01*
X21405815Y-10713866D01*
X21536842Y-10582838D01*
X21556705Y-10566709D01*
X21564469Y-10561637D01*
X21584673Y-10535677D01*
X21589741Y-10529939D01*
X21592175Y-10527507D01*
X21595785Y-10522450D01*
X21604840Y-10509767D01*
X21616166Y-10495215D01*
X21636317Y-10469326D01*
X21636320Y-10469316D01*
X21639806Y-10462875D01*
X21643035Y-10456270D01*
X21643039Y-10456266D01*
X21657656Y-10407166D01*
X21665269Y-10384991D01*
X21694867Y-10337578D01*
X22005580Y-10026865D01*
X22066903Y-9993380D01*
X22136595Y-9998364D01*
X22192528Y-10040236D01*
X22203742Y-10058246D01*
X22210296Y-10071109D01*
X22215358Y-10081044D01*
X22215363Y-10081050D01*
X22304949Y-10170636D01*
X22304951Y-10170637D01*
X22304955Y-10170641D01*
X22327747Y-10182254D01*
X22378542Y-10230228D01*
X22395337Y-10298049D01*
X22372799Y-10364184D01*
X22359132Y-10380419D01*
X21881286Y-10858265D01*
X21881286Y-10858266D01*
X21935082Y-10895935D01*
X21935086Y-10895937D01*
X22127161Y-10985502D01*
X22127170Y-10985506D01*
X22331868Y-11040354D01*
X22331879Y-11040356D01*
X22542998Y-11058827D01*
X22543002Y-11058827D01*
X22754120Y-11040356D01*
X22754131Y-11040354D01*
X22958829Y-10985506D01*
X22958838Y-10985502D01*
X23150911Y-10895938D01*
X23204712Y-10858265D01*
X22726866Y-10380419D01*
X22693381Y-10319096D01*
X22698365Y-10249404D01*
X22740237Y-10193471D01*
X22758245Y-10182258D01*
X22781045Y-10170641D01*
X22870641Y-10081045D01*
X22882254Y-10058252D01*
X22930225Y-10007458D01*
X22998046Y-9990661D01*
X23064181Y-10013197D01*
X23080419Y-10026866D01*
X23558265Y-10504711D01*
X23595938Y-10450911D01*
X23685502Y-10258838D01*
X23685507Y-10258827D01*
X23693225Y-10230023D01*
X23729589Y-10170362D01*
X23792436Y-10139832D01*
X23861812Y-10148126D01*
X23915690Y-10192611D01*
X23932775Y-10230023D01*
X23940492Y-10258827D01*
X23940497Y-10258838D01*
X24030062Y-10450913D01*
X24067733Y-10504712D01*
X24545580Y-10026865D01*
X24606903Y-9993380D01*
X24676594Y-9998364D01*
X24732528Y-10040235D01*
X24743742Y-10058246D01*
X24750296Y-10071109D01*
X24755358Y-10081044D01*
X24755363Y-10081050D01*
X24844949Y-10170636D01*
X24844951Y-10170637D01*
X24844955Y-10170641D01*
X24867747Y-10182254D01*
X24918542Y-10230228D01*
X24935337Y-10298049D01*
X24912799Y-10364184D01*
X24899132Y-10380419D01*
X24421286Y-10858265D01*
X24421286Y-10858266D01*
X24475082Y-10895935D01*
X24475086Y-10895937D01*
X24667161Y-10985502D01*
X24667170Y-10985506D01*
X24871868Y-11040354D01*
X24871879Y-11040356D01*
X25082998Y-11058827D01*
X25083002Y-11058827D01*
X25294120Y-11040356D01*
X25294131Y-11040354D01*
X25498829Y-10985506D01*
X25498838Y-10985502D01*
X25690911Y-10895938D01*
X25744712Y-10858265D01*
X25266866Y-10380419D01*
X25233381Y-10319096D01*
X25238365Y-10249404D01*
X25280237Y-10193471D01*
X25298245Y-10182258D01*
X25321045Y-10170641D01*
X25410641Y-10081045D01*
X25422254Y-10058252D01*
X25470225Y-10007458D01*
X25538046Y-9990661D01*
X25604181Y-10013197D01*
X25620419Y-10026866D01*
X26098265Y-10504711D01*
X26135938Y-10450911D01*
X26225502Y-10258838D01*
X26225506Y-10258829D01*
X26280354Y-10054131D01*
X26280356Y-10054120D01*
X26298827Y-9843001D01*
X26298827Y-9843000D01*
X26656647Y-9843000D01*
X26675214Y-10031524D01*
X26730207Y-10212811D01*
X26819503Y-10379871D01*
X26819503Y-10379872D01*
X26819506Y-10379876D01*
X26819507Y-10379877D01*
X26939685Y-10526315D01*
X27086123Y-10646493D01*
X27086126Y-10646495D01*
X27086128Y-10646496D01*
X27253188Y-10735792D01*
X27253190Y-10735792D01*
X27253193Y-10735794D01*
X27434474Y-10790785D01*
X27623000Y-10809353D01*
X27811526Y-10790785D01*
X27992807Y-10735794D01*
X27995221Y-10734504D01*
X28102007Y-10677425D01*
X28159871Y-10646496D01*
X28159872Y-10646496D01*
X28159873Y-10646495D01*
X28159877Y-10646493D01*
X28306315Y-10526315D01*
X28426493Y-10379877D01*
X28493154Y-10255164D01*
X28515792Y-10212811D01*
X28515792Y-10212810D01*
X28515794Y-10212807D01*
X28570785Y-10031526D01*
X28589353Y-9843000D01*
X28570785Y-9654474D01*
X28515794Y-9473193D01*
X28515792Y-9473190D01*
X28515792Y-9473188D01*
X28426496Y-9306128D01*
X28426496Y-9306127D01*
X28426047Y-9305580D01*
X28306315Y-9159685D01*
X28159877Y-9039507D01*
X28159873Y-9039505D01*
X28159871Y-9039503D01*
X27992811Y-8950207D01*
X27811524Y-8895214D01*
X27623000Y-8876647D01*
X27434475Y-8895214D01*
X27253188Y-8950207D01*
X27086128Y-9039503D01*
X27086127Y-9039503D01*
X26939685Y-9159685D01*
X26819503Y-9306127D01*
X26819503Y-9306128D01*
X26730207Y-9473188D01*
X26675214Y-9654475D01*
X26656647Y-9843000D01*
X26298827Y-9843000D01*
X26298827Y-9842998D01*
X26280356Y-9631879D01*
X26280354Y-9631868D01*
X26225506Y-9427170D01*
X26225502Y-9427161D01*
X26135936Y-9235086D01*
X26135933Y-9235082D01*
X26098265Y-9181286D01*
X25620419Y-9659132D01*
X25559096Y-9692617D01*
X25489404Y-9687633D01*
X25433471Y-9645761D01*
X25422256Y-9627751D01*
X25410641Y-9604955D01*
X25410637Y-9604951D01*
X25410636Y-9604949D01*
X25321050Y-9515363D01*
X25321044Y-9515358D01*
X25311109Y-9510296D01*
X25298250Y-9503744D01*
X25247456Y-9455773D01*
X25230660Y-9387952D01*
X25253197Y-9321817D01*
X25266865Y-9305580D01*
X25744712Y-8827733D01*
X25690913Y-8790062D01*
X25498838Y-8700497D01*
X25498829Y-8700493D01*
X25294131Y-8645645D01*
X25294120Y-8645643D01*
X25083002Y-8627173D01*
X25082998Y-8627173D01*
X24871879Y-8645643D01*
X24871868Y-8645645D01*
X24667170Y-8700493D01*
X24667161Y-8700497D01*
X24475084Y-8790064D01*
X24421286Y-8827732D01*
X24421286Y-8827733D01*
X24899133Y-9305580D01*
X24932618Y-9366903D01*
X24927634Y-9436595D01*
X24885762Y-9492528D01*
X24867748Y-9503745D01*
X24844956Y-9515358D01*
X24844949Y-9515363D01*
X24755363Y-9604949D01*
X24755358Y-9604956D01*
X24743745Y-9627748D01*
X24695770Y-9678544D01*
X24627949Y-9695338D01*
X24561814Y-9672800D01*
X24545580Y-9659133D01*
X24067733Y-9181286D01*
X24067732Y-9181286D01*
X24030064Y-9235084D01*
X23940497Y-9427161D01*
X23940493Y-9427170D01*
X23932775Y-9455977D01*
X23896410Y-9515638D01*
X23833563Y-9546167D01*
X23764188Y-9537872D01*
X23710310Y-9493387D01*
X23693225Y-9455977D01*
X23685506Y-9427170D01*
X23685502Y-9427161D01*
X23595936Y-9235086D01*
X23595933Y-9235082D01*
X23558265Y-9181286D01*
X23080419Y-9659132D01*
X23019096Y-9692617D01*
X22949404Y-9687633D01*
X22893471Y-9645761D01*
X22882256Y-9627751D01*
X22870641Y-9604955D01*
X22870637Y-9604951D01*
X22870636Y-9604949D01*
X22781050Y-9515363D01*
X22781044Y-9515358D01*
X22771109Y-9510296D01*
X22758250Y-9503744D01*
X22707456Y-9455773D01*
X22690660Y-9387952D01*
X22713197Y-9321817D01*
X22726865Y-9305580D01*
X23204712Y-8827733D01*
X23150913Y-8790062D01*
X22958838Y-8700497D01*
X22958829Y-8700493D01*
X22754131Y-8645645D01*
X22754120Y-8645643D01*
X22543002Y-8627173D01*
X22542998Y-8627173D01*
X22331879Y-8645643D01*
X22331868Y-8645645D01*
X22127170Y-8700493D01*
X22127161Y-8700497D01*
X21935088Y-8790062D01*
X21935086Y-8790063D01*
X21869423Y-8836041D01*
X21803216Y-8858368D01*
X21735449Y-8841357D01*
X21687637Y-8790409D01*
X21674300Y-8734466D01*
X21674300Y-8096349D01*
X21693985Y-8029310D01*
X21746789Y-7983555D01*
X21815947Y-7973611D01*
X21876964Y-8000495D01*
X21912074Y-8029309D01*
X22006121Y-8106492D01*
X22006128Y-8106496D01*
X22173188Y-8195792D01*
X22173190Y-8195792D01*
X22173193Y-8195794D01*
X22354474Y-8250785D01*
X22543000Y-8269353D01*
X22731526Y-8250785D01*
X22912807Y-8195794D01*
X23079871Y-8106496D01*
X23079872Y-8106496D01*
X23079873Y-8106495D01*
X23079877Y-8106493D01*
X23226315Y-7986315D01*
X23346493Y-7839877D01*
X23425449Y-7692161D01*
X23435792Y-7672811D01*
X23435792Y-7672810D01*
X23435794Y-7672807D01*
X23490785Y-7491526D01*
X23509353Y-7303000D01*
X24116647Y-7303000D01*
X24135214Y-7491524D01*
X24190207Y-7672811D01*
X24279503Y-7839871D01*
X24279503Y-7839872D01*
X24279506Y-7839876D01*
X24279507Y-7839877D01*
X24399685Y-7986315D01*
X24546123Y-8106493D01*
X24546126Y-8106495D01*
X24546128Y-8106496D01*
X24713188Y-8195792D01*
X24713190Y-8195792D01*
X24713193Y-8195794D01*
X24894474Y-8250785D01*
X25083000Y-8269353D01*
X25271526Y-8250785D01*
X25452807Y-8195794D01*
X25619871Y-8106496D01*
X25619872Y-8106496D01*
X25619873Y-8106495D01*
X25619877Y-8106493D01*
X25766315Y-7986315D01*
X25886493Y-7839877D01*
X25965449Y-7692161D01*
X25975792Y-7672811D01*
X25975792Y-7672810D01*
X25975794Y-7672807D01*
X26030785Y-7491526D01*
X26049353Y-7303000D01*
X26049353Y-7302999D01*
X26656647Y-7302999D01*
X26675214Y-7491524D01*
X26730207Y-7672811D01*
X26819503Y-7839871D01*
X26819503Y-7839872D01*
X26819506Y-7839876D01*
X26819507Y-7839877D01*
X26939685Y-7986315D01*
X27086123Y-8106493D01*
X27086126Y-8106495D01*
X27086128Y-8106496D01*
X27253188Y-8195792D01*
X27253190Y-8195792D01*
X27253193Y-8195794D01*
X27434474Y-8250785D01*
X27623000Y-8269353D01*
X27811526Y-8250785D01*
X27992807Y-8195794D01*
X28159871Y-8106496D01*
X28159872Y-8106496D01*
X28159873Y-8106495D01*
X28159877Y-8106493D01*
X28306315Y-7986315D01*
X28426493Y-7839877D01*
X28505449Y-7692161D01*
X28515792Y-7672811D01*
X28515792Y-7672810D01*
X28515794Y-7672807D01*
X28570785Y-7491526D01*
X28589353Y-7303000D01*
X29196647Y-7303000D01*
X29215214Y-7491524D01*
X29270207Y-7672811D01*
X29359503Y-7839871D01*
X29359503Y-7839872D01*
X29359506Y-7839876D01*
X29359507Y-7839877D01*
X29479685Y-7986315D01*
X29626123Y-8106493D01*
X29626126Y-8106495D01*
X29626128Y-8106496D01*
X29793188Y-8195792D01*
X29793190Y-8195792D01*
X29793193Y-8195794D01*
X29974474Y-8250785D01*
X30163000Y-8269353D01*
X30351526Y-8250785D01*
X30532807Y-8195794D01*
X30699871Y-8106496D01*
X30699872Y-8106496D01*
X30699873Y-8106495D01*
X30699877Y-8106493D01*
X30846315Y-7986315D01*
X30966493Y-7839877D01*
X31045449Y-7692161D01*
X31055792Y-7672811D01*
X31055792Y-7672810D01*
X31055794Y-7672807D01*
X31110785Y-7491526D01*
X31129353Y-7303000D01*
X31110785Y-7114474D01*
X31055794Y-6933193D01*
X31055792Y-6933190D01*
X31055792Y-6933188D01*
X30966496Y-6766128D01*
X30966496Y-6766127D01*
X30966493Y-6766123D01*
X30846315Y-6619685D01*
X30699877Y-6499507D01*
X30699873Y-6499505D01*
X30699871Y-6499503D01*
X30532811Y-6410207D01*
X30351524Y-6355214D01*
X30163000Y-6336647D01*
X29974475Y-6355214D01*
X29793188Y-6410207D01*
X29626128Y-6499503D01*
X29626127Y-6499503D01*
X29479685Y-6619685D01*
X29359503Y-6766127D01*
X29359503Y-6766128D01*
X29270207Y-6933188D01*
X29215214Y-7114475D01*
X29196647Y-7303000D01*
X28589353Y-7303000D01*
X28570785Y-7114474D01*
X28515794Y-6933193D01*
X28515792Y-6933190D01*
X28515792Y-6933188D01*
X28426496Y-6766128D01*
X28426496Y-6766127D01*
X28426493Y-6766123D01*
X28306315Y-6619685D01*
X28159877Y-6499507D01*
X28159873Y-6499505D01*
X28159871Y-6499503D01*
X27992811Y-6410207D01*
X27811524Y-6355214D01*
X27623000Y-6336647D01*
X27434475Y-6355214D01*
X27253188Y-6410207D01*
X27086128Y-6499503D01*
X27086127Y-6499503D01*
X26939685Y-6619685D01*
X26819503Y-6766127D01*
X26819503Y-6766128D01*
X26730207Y-6933188D01*
X26675214Y-7114475D01*
X26656647Y-7302999D01*
X26049353Y-7302999D01*
X26030785Y-7114474D01*
X25975794Y-6933193D01*
X25975792Y-6933190D01*
X25975792Y-6933188D01*
X25886496Y-6766128D01*
X25886496Y-6766127D01*
X25886493Y-6766123D01*
X25766315Y-6619685D01*
X25619877Y-6499507D01*
X25619873Y-6499505D01*
X25619871Y-6499503D01*
X25452811Y-6410207D01*
X25271524Y-6355214D01*
X25083000Y-6336647D01*
X24894475Y-6355214D01*
X24713188Y-6410207D01*
X24546128Y-6499503D01*
X24546127Y-6499503D01*
X24399685Y-6619685D01*
X24279503Y-6766127D01*
X24279503Y-6766128D01*
X24190207Y-6933188D01*
X24135214Y-7114475D01*
X24116647Y-7303000D01*
X23509353Y-7303000D01*
X23490785Y-7114474D01*
X23435794Y-6933193D01*
X23435792Y-6933190D01*
X23435792Y-6933188D01*
X23346496Y-6766128D01*
X23346496Y-6766127D01*
X23346493Y-6766123D01*
X23226315Y-6619685D01*
X23079877Y-6499507D01*
X23079873Y-6499505D01*
X23079871Y-6499503D01*
X22912811Y-6410207D01*
X22731524Y-6355214D01*
X22543000Y-6336647D01*
X22354475Y-6355214D01*
X22173188Y-6410207D01*
X22006128Y-6499503D01*
X22006122Y-6499507D01*
X21871004Y-6610394D01*
X21806694Y-6637706D01*
X21737826Y-6625914D01*
X21686267Y-6578762D01*
X21669292Y-6529875D01*
X21665507Y-6499507D01*
X21664373Y-6490407D01*
X21664371Y-6490404D01*
X21662318Y-6483504D01*
X21662275Y-6483379D01*
X21662237Y-6483253D01*
X21659892Y-6476418D01*
X21635504Y-6431355D01*
X21612999Y-6385318D01*
X21608719Y-6379324D01*
X21604219Y-6373543D01*
X21566524Y-6338841D01*
X21250837Y-6023155D01*
X21234711Y-6003298D01*
X21229637Y-5995531D01*
X21203687Y-5975333D01*
X21197941Y-5970259D01*
X21195507Y-5967825D01*
X21195506Y-5967824D01*
X21195505Y-5967823D01*
X21188886Y-5963098D01*
X21177761Y-5955155D01*
X21137326Y-5923683D01*
X21137322Y-5923681D01*
X21130848Y-5920177D01*
X21124269Y-5916960D01*
X21075154Y-5902338D01*
X21026686Y-5885698D01*
X21019469Y-5884494D01*
X21012153Y-5883582D01*
X20962925Y-5885619D01*
X20960969Y-5885700D01*
X13782543Y-5885700D01*
X13715504Y-5866015D01*
X13669749Y-5813211D01*
X13659805Y-5744053D01*
X13688830Y-5680497D01*
X13694847Y-5674033D01*
X13764450Y-5604430D01*
X13784302Y-5588311D01*
X13792069Y-5583237D01*
X13812273Y-5557277D01*
X13817341Y-5551539D01*
X13819776Y-5549106D01*
X13823562Y-5543802D01*
X13832448Y-5531358D01*
X13863913Y-5490931D01*
X13863912Y-5490931D01*
X13863917Y-5490926D01*
X13863919Y-5490919D01*
X13867382Y-5484518D01*
X13867421Y-5484440D01*
X13867458Y-5484370D01*
X13870637Y-5477870D01*
X13870640Y-5477866D01*
X13870642Y-5477860D01*
X13885260Y-5428759D01*
X13894900Y-5400676D01*
X13935284Y-5343660D01*
X14000083Y-5317528D01*
X14068723Y-5330577D01*
X14077442Y-5335498D01*
X14176363Y-5396748D01*
X14366544Y-5470424D01*
X14567024Y-5507900D01*
X14567026Y-5507900D01*
X14770974Y-5507900D01*
X14770976Y-5507900D01*
X14971456Y-5470424D01*
X15161637Y-5396748D01*
X15335041Y-5289381D01*
X15343052Y-5282078D01*
X16108500Y-5282078D01*
X16123032Y-5355135D01*
X16123033Y-5355139D01*
X16123034Y-5355140D01*
X16178399Y-5438001D01*
X16247901Y-5484440D01*
X16261260Y-5493366D01*
X16261264Y-5493367D01*
X16334321Y-5507899D01*
X16334324Y-5507900D01*
X16334326Y-5507900D01*
X18083676Y-5507900D01*
X18083677Y-5507899D01*
X18156740Y-5493366D01*
X18239601Y-5438001D01*
X18294966Y-5355140D01*
X18309500Y-5282074D01*
X18309500Y-3532726D01*
X18309500Y-3532723D01*
X18309499Y-3532721D01*
X18294967Y-3459664D01*
X18294966Y-3459660D01*
X18239601Y-3376799D01*
X18156740Y-3321434D01*
X18156739Y-3321433D01*
X18156735Y-3321432D01*
X18083677Y-3306900D01*
X18083674Y-3306900D01*
X16334326Y-3306900D01*
X16334323Y-3306900D01*
X16261264Y-3321432D01*
X16261260Y-3321433D01*
X16178399Y-3376799D01*
X16123033Y-3459660D01*
X16123032Y-3459664D01*
X16108500Y-3532721D01*
X16108500Y-5282078D01*
X15343052Y-5282078D01*
X15485764Y-5151979D01*
X15608673Y-4989221D01*
X15699582Y-4806650D01*
X15755397Y-4610483D01*
X15774215Y-4407400D01*
X15770906Y-4371694D01*
X15755397Y-4204317D01*
X15742048Y-4157400D01*
X15699582Y-4008150D01*
X15684274Y-3977408D01*
X15649415Y-3907400D01*
X15608673Y-3825579D01*
X15485764Y-3662821D01*
X15485762Y-3662818D01*
X15335041Y-3525419D01*
X15335039Y-3525417D01*
X15161642Y-3418055D01*
X15161635Y-3418051D01*
X15035769Y-3369291D01*
X14971456Y-3344376D01*
X14770976Y-3306900D01*
X14567024Y-3306900D01*
X14366544Y-3344376D01*
X14366541Y-3344376D01*
X14366541Y-3344377D01*
X14176364Y-3418051D01*
X14176357Y-3418055D01*
X14002960Y-3525417D01*
X14002958Y-3525419D01*
X13852237Y-3662818D01*
X13729327Y-3825578D01*
X13638422Y-4008139D01*
X13638417Y-4008152D01*
X13582603Y-4204316D01*
X13573110Y-4306757D01*
X13547323Y-4371694D01*
X13537320Y-4382996D01*
X13444630Y-4475686D01*
X13383307Y-4509171D01*
X13313615Y-4504187D01*
X13257682Y-4462315D01*
X13233478Y-4399446D01*
X13215397Y-4204317D01*
X13202048Y-4157400D01*
X13159582Y-4008150D01*
X13144274Y-3977408D01*
X13109415Y-3907400D01*
X13068673Y-3825579D01*
X12945764Y-3662821D01*
X12945762Y-3662818D01*
X12795041Y-3525419D01*
X12795039Y-3525417D01*
X12621642Y-3418055D01*
X12621635Y-3418051D01*
X12495769Y-3369291D01*
X12431456Y-3344376D01*
X12230976Y-3306900D01*
X12027024Y-3306900D01*
X11826544Y-3344376D01*
X11826541Y-3344376D01*
X11826541Y-3344377D01*
X11636364Y-3418051D01*
X11636357Y-3418055D01*
X11462960Y-3525417D01*
X11462958Y-3525419D01*
X11312237Y-3662818D01*
X11189327Y-3825578D01*
X11098422Y-4008139D01*
X11098417Y-4008152D01*
X11042602Y-4204317D01*
X11023785Y-4407399D01*
X11023785Y-4407400D01*
X11042602Y-4610482D01*
X11098417Y-4806647D01*
X11098422Y-4806660D01*
X11189327Y-4989221D01*
X11312237Y-5151981D01*
X11462958Y-5289380D01*
X11462960Y-5289382D01*
X11508418Y-5317528D01*
X11609779Y-5380288D01*
X11611968Y-5381643D01*
X11658604Y-5433670D01*
X11669708Y-5502652D01*
X11641755Y-5566687D01*
X11605708Y-5596125D01*
X11562156Y-5619694D01*
X11539136Y-5630947D01*
X11516116Y-5642201D01*
X11510164Y-5646449D01*
X11504342Y-5650981D01*
X11469642Y-5688675D01*
X10950755Y-6207561D01*
X10930906Y-6223682D01*
X10923131Y-6228762D01*
X10902943Y-6254698D01*
X10897867Y-6260448D01*
X10895434Y-6262881D01*
X10895423Y-6262894D01*
X10882754Y-6280638D01*
X10851283Y-6321072D01*
X10847775Y-6327553D01*
X10844560Y-6334132D01*
X10829938Y-6383245D01*
X10813298Y-6431716D01*
X10812094Y-6438933D01*
X10811182Y-6446246D01*
X10813300Y-6497430D01*
X10813300Y-6622820D01*
X10793615Y-6689859D01*
X10740811Y-6735614D01*
X10671653Y-6745558D01*
X10608097Y-6716533D01*
X10593447Y-6701485D01*
X10526317Y-6619687D01*
X10526315Y-6619685D01*
X10379877Y-6499507D01*
X10379873Y-6499505D01*
X10379871Y-6499503D01*
X10212811Y-6410207D01*
X10031524Y-6355214D01*
X9843000Y-6336647D01*
X9654475Y-6355214D01*
X9473188Y-6410207D01*
X9306128Y-6499503D01*
X9306127Y-6499503D01*
X9159685Y-6619685D01*
X9039503Y-6766127D01*
X9039503Y-6766128D01*
X8950207Y-6933188D01*
X8895214Y-7114475D01*
X8876647Y-7303000D01*
X8895214Y-7491524D01*
X8934986Y-7622634D01*
X8935609Y-7692501D01*
X8904006Y-7746310D01*
X8563155Y-8087161D01*
X8543306Y-8103282D01*
X8535531Y-8108362D01*
X8515343Y-8134298D01*
X8510267Y-8140048D01*
X8507834Y-8142481D01*
X8507823Y-8142494D01*
X8495154Y-8160238D01*
X8463683Y-8200672D01*
X8460175Y-8207153D01*
X8456960Y-8213732D01*
X8442338Y-8262845D01*
X8425698Y-8311316D01*
X8424494Y-8318533D01*
X8423582Y-8325846D01*
X8425700Y-8377031D01*
X8425699Y-9408280D01*
X8406014Y-9475320D01*
X8353210Y-9521074D01*
X8284052Y-9531018D01*
X8220496Y-9501993D01*
X8192341Y-9466733D01*
X8106496Y-9306128D01*
X8106496Y-9306127D01*
X8106047Y-9305580D01*
X7986315Y-9159685D01*
X7839877Y-9039507D01*
X7839873Y-9039505D01*
X7839871Y-9039503D01*
X7672811Y-8950207D01*
X7491524Y-8895214D01*
X7303000Y-8876647D01*
X7114475Y-8895214D01*
X6933188Y-8950207D01*
X6766128Y-9039503D01*
X6766122Y-9039507D01*
X6687763Y-9103814D01*
X6623453Y-9131126D01*
X6554585Y-9119334D01*
X6503026Y-9072182D01*
X6485099Y-9007962D01*
X6485099Y-8058342D01*
X6504784Y-7991304D01*
X6521413Y-7970667D01*
X9038489Y-5453591D01*
X9099810Y-5420108D01*
X9169502Y-5425092D01*
X9170962Y-5425648D01*
X9286536Y-5470421D01*
X9286544Y-5470424D01*
X9487024Y-5507900D01*
X9487026Y-5507900D01*
X9690974Y-5507900D01*
X9690976Y-5507900D01*
X9891456Y-5470424D01*
X10081637Y-5396748D01*
X10255041Y-5289381D01*
X10405764Y-5151979D01*
X10528673Y-4989221D01*
X10619582Y-4806650D01*
X10675397Y-4610483D01*
X10694215Y-4407400D01*
X10690906Y-4371694D01*
X10675397Y-4204317D01*
X10662048Y-4157400D01*
X10619582Y-4008150D01*
X10604274Y-3977408D01*
X10569415Y-3907400D01*
X10528673Y-3825579D01*
X10405764Y-3662821D01*
X10405762Y-3662818D01*
X10255041Y-3525419D01*
X10255039Y-3525417D01*
X10081642Y-3418055D01*
X10081635Y-3418051D01*
X9955769Y-3369291D01*
X9891456Y-3344376D01*
X9690976Y-3306900D01*
X9487024Y-3306900D01*
X9286544Y-3344376D01*
X9286541Y-3344376D01*
X9286541Y-3344377D01*
X9096364Y-3418051D01*
X9096357Y-3418055D01*
X8922960Y-3525417D01*
X8922958Y-3525419D01*
X8772237Y-3662818D01*
X8649327Y-3825578D01*
X8558422Y-4008139D01*
X8558417Y-4008152D01*
X8502602Y-4204317D01*
X8483785Y-4407399D01*
X8483785Y-4407400D01*
X8502602Y-4610482D01*
X8558418Y-4806653D01*
X8563741Y-4817341D01*
X8576002Y-4886126D01*
X8549129Y-4950621D01*
X8540422Y-4960294D01*
X5921555Y-7579161D01*
X5901706Y-7595282D01*
X5893931Y-7600362D01*
X5873743Y-7626298D01*
X5868667Y-7632048D01*
X5866234Y-7634481D01*
X5866224Y-7634493D01*
X5853554Y-7652239D01*
X5830154Y-7682303D01*
X5773444Y-7723117D01*
X5703671Y-7726792D01*
X5642988Y-7692161D01*
X5610660Y-7630220D01*
X5608300Y-7606142D01*
X5608300Y-6395143D01*
X5627985Y-6328104D01*
X5644615Y-6307466D01*
X6498489Y-5453591D01*
X6559810Y-5420108D01*
X6629501Y-5425092D01*
X6630962Y-5425648D01*
X6746536Y-5470421D01*
X6746544Y-5470424D01*
X6947024Y-5507900D01*
X6947026Y-5507900D01*
X7150974Y-5507900D01*
X7150976Y-5507900D01*
X7351456Y-5470424D01*
X7541637Y-5396748D01*
X7715041Y-5289381D01*
X7865764Y-5151979D01*
X7988673Y-4989221D01*
X8079582Y-4806650D01*
X8135397Y-4610483D01*
X8154215Y-4407400D01*
X8150906Y-4371694D01*
X8135397Y-4204317D01*
X8122048Y-4157400D01*
X8079582Y-4008150D01*
X8064274Y-3977408D01*
X8029415Y-3907400D01*
X7988673Y-3825579D01*
X7865764Y-3662821D01*
X7865762Y-3662818D01*
X7715041Y-3525419D01*
X7715039Y-3525417D01*
X7541642Y-3418055D01*
X7541635Y-3418051D01*
X7415769Y-3369291D01*
X7351456Y-3344376D01*
X7150976Y-3306900D01*
X6947024Y-3306900D01*
X6746544Y-3344376D01*
X6746541Y-3344376D01*
X6746541Y-3344377D01*
X6556364Y-3418051D01*
X6556357Y-3418055D01*
X6382960Y-3525417D01*
X6382958Y-3525419D01*
X6232237Y-3662818D01*
X6109327Y-3825578D01*
X6022182Y-4000588D01*
X5974679Y-4051825D01*
X5907016Y-4069246D01*
X5840676Y-4047320D01*
X5796721Y-3993009D01*
X5791407Y-3977408D01*
X5782434Y-3943918D01*
X5782429Y-3943907D01*
X5682600Y-3729822D01*
X5682599Y-3729820D01*
X5547113Y-3536326D01*
X5547108Y-3536320D01*
X5380082Y-3369294D01*
X5186578Y-3233799D01*
X4972492Y-3133970D01*
X4972486Y-3133967D01*
X4759000Y-3076764D01*
X4759000Y-3795098D01*
X4739315Y-3862137D01*
X4686511Y-3907892D01*
X4617355Y-3917836D01*
X4544766Y-3907400D01*
X4544763Y-3907400D01*
X4473237Y-3907400D01*
X4473233Y-3907400D01*
X4400645Y-3917836D01*
X4331487Y-3907892D01*
X4278684Y-3862136D01*
X4259000Y-3795098D01*
X4259000Y-3076764D01*
X4258999Y-3076764D01*
X4045513Y-3133967D01*
X4045507Y-3133970D01*
X3831422Y-3233799D01*
X3831420Y-3233800D01*
X3637926Y-3369286D01*
X3637920Y-3369291D01*
X3470891Y-3536320D01*
X3470886Y-3536326D01*
X3335400Y-3729820D01*
X3335399Y-3729822D01*
X3235570Y-3943907D01*
X3235567Y-3943913D01*
X3178364Y-4157399D01*
X3178364Y-4157400D01*
X3895653Y-4157400D01*
X3962692Y-4177085D01*
X4008447Y-4229889D01*
X4018391Y-4299047D01*
X4014631Y-4316333D01*
X4009000Y-4335511D01*
X4009000Y-4479288D01*
X4014631Y-4498467D01*
X4014630Y-4568336D01*
X3976855Y-4627114D01*
X3913299Y-4656138D01*
X3895653Y-4657400D01*
X3178364Y-4657400D01*
X3235567Y-4870886D01*
X3235570Y-4870892D01*
X3335399Y-5084978D01*
X3470894Y-5278482D01*
X3637917Y-5445505D01*
X3831421Y-5581000D01*
X4045507Y-5680829D01*
X4045516Y-5680833D01*
X4259000Y-5738034D01*
X4259000Y-5019701D01*
X4278685Y-4952662D01*
X4331489Y-4906907D01*
X4400647Y-4896963D01*
X4473237Y-4907400D01*
X4473238Y-4907400D01*
X4544762Y-4907400D01*
X4544763Y-4907400D01*
X4617353Y-4896963D01*
X4686512Y-4906907D01*
X4739315Y-4952662D01*
X4759000Y-5019701D01*
X4759000Y-5738033D01*
X4945395Y-5688091D01*
X5015245Y-5689754D01*
X5073107Y-5728917D01*
X5100611Y-5793145D01*
X5089024Y-5862048D01*
X5065169Y-5895547D01*
X5044755Y-5915961D01*
X5024906Y-5932082D01*
X5017131Y-5937162D01*
X4996943Y-5963098D01*
X4991867Y-5968848D01*
X4989434Y-5971281D01*
X4989423Y-5971294D01*
X4976754Y-5989038D01*
X4945283Y-6029472D01*
X4941775Y-6035953D01*
X4938560Y-6042532D01*
X4923938Y-6091645D01*
X4907298Y-6140116D01*
X4906094Y-6147333D01*
X4905182Y-6154646D01*
X4907300Y-6205830D01*
X4907300Y-22785388D01*
X4904661Y-22810832D01*
X4902757Y-22819911D01*
X4902757Y-22819917D01*
X4906823Y-22852537D01*
X4907300Y-22860214D01*
X4907300Y-22863638D01*
X4910887Y-22885141D01*
X4917227Y-22935993D01*
X4919320Y-22943026D01*
X4921708Y-22949981D01*
X4946095Y-22995044D01*
X4968601Y-23041083D01*
X4972865Y-23047055D01*
X4977380Y-23052856D01*
X5015075Y-23087558D01*
X6004362Y-24076844D01*
X6020489Y-24096702D01*
X6025563Y-24104469D01*
X6025565Y-24104471D01*
X6051505Y-24124660D01*
X6057268Y-24129750D01*
X6059694Y-24132176D01*
X6077441Y-24144847D01*
X6117874Y-24176317D01*
X6117875Y-24176317D01*
X6117876Y-24176318D01*
X6124332Y-24179812D01*
X6130930Y-24183038D01*
X6130932Y-24183038D01*
X6130934Y-24183040D01*
X6166832Y-24193727D01*
X6180042Y-24197660D01*
X6192160Y-24201820D01*
X6228512Y-24214300D01*
X6228515Y-24214300D01*
X6235754Y-24215508D01*
X6243047Y-24216417D01*
X6294242Y-24214300D01*
X6509650Y-24214300D01*
X6576689Y-24233985D01*
X6622444Y-24286789D01*
X6632388Y-24355947D01*
X6605504Y-24416964D01*
X6499507Y-24546122D01*
X6499503Y-24546128D01*
X6410207Y-24713188D01*
X6355214Y-24894475D01*
X6336647Y-25083000D01*
X6355214Y-25271524D01*
X6410207Y-25452811D01*
X6499503Y-25619871D01*
X6499503Y-25619872D01*
X6499506Y-25619876D01*
X6499507Y-25619877D01*
X6619685Y-25766315D01*
X6766123Y-25886493D01*
X6766126Y-25886495D01*
X6766128Y-25886496D01*
X6933188Y-25975792D01*
X6933190Y-25975792D01*
X6933193Y-25975794D01*
X7114474Y-26030785D01*
X7303000Y-26049353D01*
X7491526Y-26030785D01*
X7672807Y-25975794D01*
X7839871Y-25886496D01*
X7839872Y-25886496D01*
X7839873Y-25886495D01*
X7839877Y-25886493D01*
X7986315Y-25766315D01*
X8106493Y-25619877D01*
X8173902Y-25493764D01*
X8195792Y-25452811D01*
X8195792Y-25452810D01*
X8195794Y-25452807D01*
X8250785Y-25271526D01*
X8269353Y-25083000D01*
X8250785Y-24894474D01*
X8195794Y-24713193D01*
X8195792Y-24713190D01*
X8195792Y-24713188D01*
X8106496Y-24546128D01*
X8106492Y-24546122D01*
X8103341Y-24542283D01*
X8023439Y-24444921D01*
X8000496Y-24416964D01*
X7973184Y-24352654D01*
X7984975Y-24283787D01*
X8032128Y-24232227D01*
X8096350Y-24214300D01*
X9049650Y-24214300D01*
X9116689Y-24233985D01*
X9162444Y-24286789D01*
X9172388Y-24355947D01*
X9145504Y-24416964D01*
X9039507Y-24546122D01*
X9039503Y-24546128D01*
X8950207Y-24713188D01*
X8895214Y-24894475D01*
X8876647Y-25083000D01*
X8895214Y-25271524D01*
X8950207Y-25452811D01*
X9039503Y-25619871D01*
X9039503Y-25619872D01*
X9039506Y-25619876D01*
X9039507Y-25619877D01*
X9159685Y-25766315D01*
X9306123Y-25886493D01*
X9306126Y-25886495D01*
X9306128Y-25886496D01*
X9473188Y-25975792D01*
X9473190Y-25975792D01*
X9473193Y-25975794D01*
X9654474Y-26030785D01*
X9843000Y-26049353D01*
X10031526Y-26030785D01*
X10212807Y-25975794D01*
X10379871Y-25886496D01*
X10379872Y-25886496D01*
X10379873Y-25886495D01*
X10379877Y-25886493D01*
X10526315Y-25766315D01*
X10646493Y-25619877D01*
X10713902Y-25493764D01*
X10735792Y-25452811D01*
X10735792Y-25452810D01*
X10735794Y-25452807D01*
X10790785Y-25271526D01*
X10809353Y-25083000D01*
X10790785Y-24894474D01*
X10735794Y-24713193D01*
X10735792Y-24713190D01*
X10735792Y-24713188D01*
X10646496Y-24546128D01*
X10646492Y-24546122D01*
X10643341Y-24542283D01*
X10563439Y-24444921D01*
X10540496Y-24416964D01*
X10513184Y-24352654D01*
X10524975Y-24283787D01*
X10572128Y-24232227D01*
X10636350Y-24214300D01*
X15427036Y-24214300D01*
X15494075Y-24233985D01*
X15529087Y-24267862D01*
X15550115Y-24298328D01*
X15550116Y-24298329D01*
X15550117Y-24298330D01*
X15668360Y-24403083D01*
X15668362Y-24403084D01*
X15808234Y-24476496D01*
X15961614Y-24514300D01*
X15961615Y-24514300D01*
X16119585Y-24514300D01*
X16272965Y-24476496D01*
X16333125Y-24444921D01*
X16412840Y-24403083D01*
X16531083Y-24298330D01*
X16620820Y-24168323D01*
X16676837Y-24020618D01*
X16695878Y-23863800D01*
X16676837Y-23706982D01*
X16673611Y-23698477D01*
X16651289Y-23639618D01*
X16620820Y-23559277D01*
X16531083Y-23429270D01*
X16412840Y-23324517D01*
X16412838Y-23324516D01*
X16412837Y-23324515D01*
X16272965Y-23251103D01*
X16119586Y-23213300D01*
X16119585Y-23213300D01*
X15961615Y-23213300D01*
X15961614Y-23213300D01*
X15808234Y-23251103D01*
X15668362Y-23324515D01*
X15550115Y-23429271D01*
X15529087Y-23459738D01*
X15474805Y-23503730D01*
X15427036Y-23513300D01*
X10523180Y-23513300D01*
X10456141Y-23493615D01*
X10410386Y-23440811D01*
X10400442Y-23371653D01*
X10429467Y-23308097D01*
X10444515Y-23293447D01*
X10496111Y-23251103D01*
X10526315Y-23226315D01*
X10646493Y-23079877D01*
X10724179Y-22934537D01*
X10735792Y-22912811D01*
X10735792Y-22912810D01*
X10735794Y-22912807D01*
X10790785Y-22731526D01*
X10809353Y-22543000D01*
X10790785Y-22354474D01*
X10735794Y-22173193D01*
X10735792Y-22173190D01*
X10735792Y-22173188D01*
X10646496Y-22006128D01*
X10646496Y-22006127D01*
X10580806Y-21926083D01*
X10526315Y-21859685D01*
X10526313Y-21859683D01*
X10526312Y-21859682D01*
X10382615Y-21741754D01*
X10343280Y-21684008D01*
X10341409Y-21614163D01*
X10377596Y-21554395D01*
X10440352Y-21523679D01*
X10461279Y-21521900D01*
X16499389Y-21521900D01*
X16524834Y-21524538D01*
X16533915Y-21526443D01*
X16549605Y-21524487D01*
X16566539Y-21522377D01*
X16574215Y-21521900D01*
X16577635Y-21521900D01*
X16577640Y-21521900D01*
X16581208Y-21521304D01*
X16599139Y-21518313D01*
X16626558Y-21514894D01*
X16649993Y-21511973D01*
X16650002Y-21511968D01*
X16657051Y-21509870D01*
X16663977Y-21507492D01*
X16663981Y-21507492D01*
X16709044Y-21483104D01*
X16755084Y-21460598D01*
X16755087Y-21460594D01*
X16761053Y-21456335D01*
X16766854Y-21451819D01*
X16766858Y-21451818D01*
X16801557Y-21414124D01*
X17828446Y-20387234D01*
X17848302Y-20371111D01*
X17856069Y-20366037D01*
X17876273Y-20340077D01*
X17881341Y-20334339D01*
X17883775Y-20331907D01*
X17896444Y-20314161D01*
X17927917Y-20273726D01*
X17927918Y-20273720D01*
X17931417Y-20267255D01*
X17934635Y-20260672D01*
X17934640Y-20260666D01*
X17949261Y-20211554D01*
X17965900Y-20163088D01*
X17965900Y-20163079D01*
X17967106Y-20155856D01*
X17968017Y-20148552D01*
X17965900Y-20097370D01*
X17965900Y-15410350D01*
X17985585Y-15343311D01*
X18007671Y-15317536D01*
X18105883Y-15230530D01*
X18195620Y-15100523D01*
X18243764Y-14973575D01*
X18285941Y-14917876D01*
X18351538Y-14893818D01*
X18419728Y-14909045D01*
X18447386Y-14929868D01*
X18854181Y-15336663D01*
X18887666Y-15397986D01*
X18890500Y-15424344D01*
X18890500Y-15426249D01*
X18870815Y-15493288D01*
X18848728Y-15519062D01*
X18789690Y-15571366D01*
X18750516Y-15606071D01*
X18660781Y-15736075D01*
X18660780Y-15736076D01*
X18604762Y-15883781D01*
X18585722Y-16040599D01*
X18585722Y-16040600D01*
X18604762Y-16197418D01*
X18644705Y-16302737D01*
X18660780Y-16345123D01*
X18750517Y-16475130D01*
X18868760Y-16579883D01*
X18868762Y-16579884D01*
X19008634Y-16653296D01*
X19134774Y-16684386D01*
X19195155Y-16719542D01*
X19226944Y-16781761D01*
X19229100Y-16804783D01*
X19229100Y-17820270D01*
X19229101Y-17820276D01*
X19235508Y-17879883D01*
X19285802Y-18014728D01*
X19285806Y-18014735D01*
X19366946Y-18123123D01*
X19372054Y-18129946D01*
X19372057Y-18129948D01*
X19378328Y-18136220D01*
X19375659Y-18138888D01*
X19406896Y-18180693D01*
X19411817Y-18250389D01*
X19406617Y-18267892D01*
X19366763Y-18372978D01*
X19366763Y-18372980D01*
X19347722Y-18529799D01*
X19347722Y-18529800D01*
X19366762Y-18686618D01*
X19420951Y-18829500D01*
X19422780Y-18834323D01*
X19440844Y-18860493D01*
X19486530Y-18926682D01*
X19508413Y-18993037D01*
X19490947Y-19060689D01*
X19458792Y-19096388D01*
X19359852Y-19170455D01*
X19273606Y-19285664D01*
X19273602Y-19285671D01*
X19223308Y-19420517D01*
X19216901Y-19480116D01*
X19216900Y-19480135D01*
X19216900Y-20525870D01*
X19216901Y-20525876D01*
X19223308Y-20585483D01*
X19273602Y-20720328D01*
X19273606Y-20720335D01*
X19359852Y-20835544D01*
X19359855Y-20835547D01*
X19475066Y-20921794D01*
X19475069Y-20921796D01*
X19475071Y-20921796D01*
X19482852Y-20926046D01*
X19481769Y-20928027D01*
X19527765Y-20962458D01*
X19552184Y-21027922D01*
X19552500Y-21036771D01*
X19552500Y-22988502D01*
X19532815Y-23055541D01*
X19530550Y-23058942D01*
X19448181Y-23178275D01*
X19448180Y-23178276D01*
X19392162Y-23325981D01*
X19373122Y-23482799D01*
X19373122Y-23482800D01*
X19392162Y-23639618D01*
X19448180Y-23787323D01*
X19448180Y-23787324D01*
X19488807Y-23846181D01*
X19530550Y-23906657D01*
X19552433Y-23973010D01*
X19552500Y-23977096D01*
X19552500Y-24898052D01*
X19532815Y-24965091D01*
X19480011Y-25010846D01*
X19410853Y-25020790D01*
X19366418Y-25003378D01*
X19365881Y-25004402D01*
X19219365Y-24927503D01*
X19065986Y-24889700D01*
X19065985Y-24889700D01*
X18908015Y-24889700D01*
X18908014Y-24889700D01*
X18754634Y-24927503D01*
X18614762Y-25000915D01*
X18496516Y-25105671D01*
X18406781Y-25235675D01*
X18406780Y-25235676D01*
X18350762Y-25383381D01*
X18331722Y-25540199D01*
X18331722Y-25540200D01*
X18336224Y-25577281D01*
X18324763Y-25646204D01*
X18300809Y-25679907D01*
X16094780Y-27885936D01*
X16033457Y-27919421D01*
X15963765Y-27914437D01*
X15907832Y-27872565D01*
X15883415Y-27807101D01*
X15883100Y-27798282D01*
X15883100Y-26205346D01*
X15902784Y-26138311D01*
X15924864Y-26112543D01*
X16023083Y-26025530D01*
X16112820Y-25895523D01*
X16168837Y-25747818D01*
X16187878Y-25591000D01*
X16187435Y-25587347D01*
X16168837Y-25434181D01*
X16136507Y-25348935D01*
X16112820Y-25286477D01*
X16023083Y-25156470D01*
X15904840Y-25051717D01*
X15904838Y-25051716D01*
X15904837Y-25051715D01*
X15764965Y-24978303D01*
X15611586Y-24940500D01*
X15611585Y-24940500D01*
X15453615Y-24940500D01*
X15453614Y-24940500D01*
X15300234Y-24978303D01*
X15160362Y-25051715D01*
X15042116Y-25156471D01*
X14952381Y-25286475D01*
X14952380Y-25286476D01*
X14896362Y-25434181D01*
X14877322Y-25590999D01*
X14877322Y-25591001D01*
X14886557Y-25667066D01*
X14875096Y-25735989D01*
X14828192Y-25787775D01*
X14760736Y-25805981D01*
X14694145Y-25784828D01*
X14661411Y-25752450D01*
X14600685Y-25664472D01*
X14597063Y-25661263D01*
X14482440Y-25559717D01*
X14482438Y-25559716D01*
X14482437Y-25559715D01*
X14342565Y-25486303D01*
X14189186Y-25448500D01*
X14189185Y-25448500D01*
X14031215Y-25448500D01*
X14031214Y-25448500D01*
X13877834Y-25486303D01*
X13737962Y-25559715D01*
X13659896Y-25628875D01*
X13652644Y-25635300D01*
X13619716Y-25664471D01*
X13529981Y-25794475D01*
X13529980Y-25794476D01*
X13473962Y-25942181D01*
X13454922Y-26098999D01*
X13454922Y-26099000D01*
X13473962Y-26255818D01*
X13516481Y-26367930D01*
X13529980Y-26403523D01*
X13619717Y-26533530D01*
X13737960Y-26638283D01*
X13737962Y-26638284D01*
X13877834Y-26711696D01*
X14031214Y-26749500D01*
X14031215Y-26749500D01*
X14042100Y-26749500D01*
X14109139Y-26769185D01*
X14154894Y-26821989D01*
X14166100Y-26873500D01*
X14166100Y-27199300D01*
X14146415Y-27266339D01*
X14093611Y-27312094D01*
X14042100Y-27323300D01*
X12330606Y-27323300D01*
X12305161Y-27320661D01*
X12296085Y-27318758D01*
X12296082Y-27318758D01*
X12263468Y-27322823D01*
X12255792Y-27323300D01*
X12252360Y-27323300D01*
X12238019Y-27325692D01*
X12230848Y-27326889D01*
X12214021Y-27328986D01*
X12180007Y-27333227D01*
X12180006Y-27333227D01*
X12180001Y-27333228D01*
X12172975Y-27335319D01*
X12166023Y-27337706D01*
X12120955Y-27362095D01*
X12074912Y-27384603D01*
X12068966Y-27388848D01*
X12063142Y-27393381D01*
X12028442Y-27431074D01*
X12028442Y-27431075D01*
X11453212Y-28006306D01*
X10902537Y-28556981D01*
X10841214Y-28590466D01*
X10814856Y-28593300D01*
X10523180Y-28593300D01*
X10456141Y-28573615D01*
X10410386Y-28520811D01*
X10400442Y-28451653D01*
X10429467Y-28388097D01*
X10444515Y-28373447D01*
X10526310Y-28306319D01*
X10526315Y-28306315D01*
X10646493Y-28159877D01*
X10735794Y-27992807D01*
X10790785Y-27811526D01*
X10809353Y-27623000D01*
X10790785Y-27434474D01*
X10735794Y-27253193D01*
X10735792Y-27253190D01*
X10735792Y-27253188D01*
X10646496Y-27086128D01*
X10646496Y-27086127D01*
X10646493Y-27086123D01*
X10526315Y-26939685D01*
X10379877Y-26819507D01*
X10379873Y-26819505D01*
X10379871Y-26819503D01*
X10212811Y-26730207D01*
X10031524Y-26675214D01*
X9843000Y-26656647D01*
X9654475Y-26675214D01*
X9473188Y-26730207D01*
X9306128Y-26819503D01*
X9306127Y-26819503D01*
X9159685Y-26939685D01*
X9039503Y-27086127D01*
X9039503Y-27086128D01*
X8950207Y-27253188D01*
X8895214Y-27434475D01*
X8876647Y-27623000D01*
X8895214Y-27811524D01*
X8950207Y-27992811D01*
X9039503Y-28159871D01*
X9039503Y-28159872D01*
X9039506Y-28159876D01*
X9039507Y-28159877D01*
X9159684Y-28306314D01*
X9159687Y-28306317D01*
X9236388Y-28369264D01*
X9275722Y-28427009D01*
X9277593Y-28496854D01*
X9241406Y-28556622D01*
X9178650Y-28587338D01*
X9152595Y-28589011D01*
X9146485Y-28588758D01*
X9146484Y-28588758D01*
X9146483Y-28588758D01*
X9113868Y-28592823D01*
X9106192Y-28593300D01*
X9102760Y-28593300D01*
X9088419Y-28595692D01*
X9081248Y-28596889D01*
X9064421Y-28598986D01*
X9030407Y-28603227D01*
X9030406Y-28603227D01*
X9030401Y-28603228D01*
X9023375Y-28605319D01*
X9016423Y-28607706D01*
X9016419Y-28607707D01*
X9016419Y-28607708D01*
X9006864Y-28612879D01*
X8971355Y-28632095D01*
X8925312Y-28654603D01*
X8919366Y-28658848D01*
X8913542Y-28663381D01*
X8878842Y-28701075D01*
X8410755Y-29169161D01*
X8390906Y-29185282D01*
X8383131Y-29190362D01*
X8362943Y-29216298D01*
X8357867Y-29222048D01*
X8355434Y-29224481D01*
X8355423Y-29224494D01*
X8342754Y-29242238D01*
X8311283Y-29282672D01*
X8307775Y-29289153D01*
X8304560Y-29295732D01*
X8289938Y-29344845D01*
X8273298Y-29393316D01*
X8272096Y-29400522D01*
X8271182Y-29407846D01*
X8273300Y-29459030D01*
X8273300Y-29482820D01*
X8253615Y-29549859D01*
X8200811Y-29595614D01*
X8131653Y-29605558D01*
X8068097Y-29576533D01*
X8053447Y-29561485D01*
X7986317Y-29479687D01*
X7986315Y-29479685D01*
X7839877Y-29359507D01*
X7839873Y-29359505D01*
X7839871Y-29359503D01*
X7672811Y-29270207D01*
X7491524Y-29215214D01*
X7303000Y-29196647D01*
X7114475Y-29215214D01*
X6933188Y-29270207D01*
X6766128Y-29359503D01*
X6766127Y-29359503D01*
X6619685Y-29479685D01*
X6499503Y-29626127D01*
X6499503Y-29626128D01*
X6410207Y-29793188D01*
X6355214Y-29974475D01*
X6336647Y-30163000D01*
X6355214Y-30351524D01*
X6410207Y-30532811D01*
X6499503Y-30699871D01*
X6499503Y-30699872D01*
X6499506Y-30699876D01*
X6499507Y-30699877D01*
X6619685Y-30846315D01*
X6766123Y-30966493D01*
X6766126Y-30966495D01*
X6766128Y-30966496D01*
X6933188Y-31055792D01*
X6933190Y-31055792D01*
X6933193Y-31055794D01*
X7114474Y-31110785D01*
X7303000Y-31129353D01*
X7491526Y-31110785D01*
X7672807Y-31055794D01*
X7678091Y-31052970D01*
X7783315Y-30996726D01*
X7839871Y-30966496D01*
X7839872Y-30966496D01*
X7839873Y-30966495D01*
X7839877Y-30966493D01*
X7986315Y-30846315D01*
X8053446Y-30764514D01*
X8111192Y-30725180D01*
X8181036Y-30723309D01*
X8240805Y-30759496D01*
X8271521Y-30822252D01*
X8273300Y-30843179D01*
X8273300Y-31434588D01*
X8270661Y-31460032D01*
X8268757Y-31469111D01*
X8268757Y-31469117D01*
X8272823Y-31501737D01*
X8273300Y-31509414D01*
X8273300Y-31512840D01*
X8275691Y-31527173D01*
X8276887Y-31534341D01*
X8283227Y-31585193D01*
X8285320Y-31592226D01*
X8287708Y-31599181D01*
X8312095Y-31644244D01*
X8334601Y-31690283D01*
X8338865Y-31696255D01*
X8343380Y-31702056D01*
X8381075Y-31736758D01*
X8904006Y-32259688D01*
X8937491Y-32321011D01*
X8934986Y-32383364D01*
X8895214Y-32514475D01*
X8876647Y-32703000D01*
X8895214Y-32891524D01*
X8950207Y-33072811D01*
X9039503Y-33239871D01*
X9039503Y-33239872D01*
X9039506Y-33239876D01*
X9039507Y-33239877D01*
X9159685Y-33386315D01*
X9306123Y-33506493D01*
X9306126Y-33506495D01*
X9306128Y-33506496D01*
X9473188Y-33595792D01*
X9473190Y-33595792D01*
X9473193Y-33595794D01*
X9654474Y-33650785D01*
X9843000Y-33669353D01*
X10031526Y-33650785D01*
X10212807Y-33595794D01*
X10234562Y-33584166D01*
X10340768Y-33527397D01*
X10379871Y-33506496D01*
X10379872Y-33506496D01*
X10379873Y-33506495D01*
X10379877Y-33506493D01*
X10526315Y-33386315D01*
X10646493Y-33239877D01*
X10735794Y-33072807D01*
X10790785Y-32891526D01*
X10809353Y-32703000D01*
X10790785Y-32514474D01*
X10735794Y-32333193D01*
X10735792Y-32333190D01*
X10735792Y-32333188D01*
X10646496Y-32166128D01*
X10646496Y-32166127D01*
X10619380Y-32133086D01*
X10526315Y-32019685D01*
X10379877Y-31899507D01*
X10379873Y-31899505D01*
X10379871Y-31899503D01*
X10212811Y-31810207D01*
X10031524Y-31755214D01*
X9843000Y-31736647D01*
X9654475Y-31755214D01*
X9523365Y-31794986D01*
X9453498Y-31795609D01*
X9399689Y-31764006D01*
X9010619Y-31374936D01*
X8977134Y-31313613D01*
X8974300Y-31287255D01*
X8974300Y-30956349D01*
X8993985Y-30889310D01*
X9046789Y-30843555D01*
X9115947Y-30833611D01*
X9176964Y-30860495D01*
X9198726Y-30878355D01*
X9306121Y-30966492D01*
X9306128Y-30966496D01*
X9473188Y-31055792D01*
X9473190Y-31055792D01*
X9473193Y-31055794D01*
X9654474Y-31110785D01*
X9843000Y-31129353D01*
X10031526Y-31110785D01*
X10212807Y-31055794D01*
X10218091Y-31052970D01*
X10323315Y-30996726D01*
X10379877Y-30966493D01*
X10457667Y-30902653D01*
X10458235Y-30902187D01*
X10522545Y-30874874D01*
X10591413Y-30886665D01*
X10642973Y-30933818D01*
X10660900Y-30998040D01*
X10660900Y-31282188D01*
X10658261Y-31307632D01*
X10656357Y-31316711D01*
X10656357Y-31316717D01*
X10660423Y-31349337D01*
X10660900Y-31357014D01*
X10660900Y-31360438D01*
X10664487Y-31381941D01*
X10670827Y-31432793D01*
X10672920Y-31439826D01*
X10675308Y-31446781D01*
X10699695Y-31491844D01*
X10722201Y-31537883D01*
X10726465Y-31543855D01*
X10730980Y-31549656D01*
X10768675Y-31584358D01*
X11444006Y-32259688D01*
X11477491Y-32321011D01*
X11474986Y-32383364D01*
X11435214Y-32514475D01*
X11416647Y-32702999D01*
X11435214Y-32891524D01*
X11490207Y-33072811D01*
X11579503Y-33239871D01*
X11579503Y-33239872D01*
X11579506Y-33239876D01*
X11579507Y-33239877D01*
X11699685Y-33386315D01*
X11846123Y-33506493D01*
X11846126Y-33506495D01*
X11846128Y-33506496D01*
X12013188Y-33595792D01*
X12013190Y-33595792D01*
X12013193Y-33595794D01*
X12194474Y-33650785D01*
X12383000Y-33669353D01*
X12571526Y-33650785D01*
X12752807Y-33595794D01*
X12774562Y-33584166D01*
X12880768Y-33527397D01*
X12919871Y-33506496D01*
X12919872Y-33506496D01*
X12919873Y-33506495D01*
X12919877Y-33506493D01*
X13066315Y-33386315D01*
X13186493Y-33239877D01*
X13275794Y-33072807D01*
X13330785Y-32891526D01*
X13349353Y-32703000D01*
X13330785Y-32514474D01*
X13275794Y-32333193D01*
X13275792Y-32333190D01*
X13275792Y-32333188D01*
X13186496Y-32166128D01*
X13186496Y-32166127D01*
X13159380Y-32133086D01*
X13066315Y-32019685D01*
X12919877Y-31899507D01*
X12919873Y-31899505D01*
X12919871Y-31899503D01*
X12752811Y-31810207D01*
X12571524Y-31755214D01*
X12383000Y-31736647D01*
X12194475Y-31755214D01*
X12063364Y-31794986D01*
X11993497Y-31795609D01*
X11939688Y-31764006D01*
X11398219Y-31222536D01*
X11364734Y-31161213D01*
X11361900Y-31134855D01*
X11361900Y-30781279D01*
X11381585Y-30714240D01*
X11434389Y-30668485D01*
X11503547Y-30658541D01*
X11567103Y-30687566D01*
X11581754Y-30702615D01*
X11699682Y-30846312D01*
X11699683Y-30846313D01*
X11699685Y-30846315D01*
X11846123Y-30966493D01*
X11846126Y-30966495D01*
X11846128Y-30966496D01*
X12013188Y-31055792D01*
X12013190Y-31055792D01*
X12013193Y-31055794D01*
X12194474Y-31110785D01*
X12383000Y-31129353D01*
X12571526Y-31110785D01*
X12752807Y-31055794D01*
X12758091Y-31052970D01*
X12863315Y-30996726D01*
X12919871Y-30966496D01*
X12919872Y-30966496D01*
X12919873Y-30966495D01*
X12919877Y-30966493D01*
X13066315Y-30846315D01*
X13133446Y-30764514D01*
X13191192Y-30725180D01*
X13261036Y-30723309D01*
X13320805Y-30759496D01*
X13351521Y-30822252D01*
X13353300Y-30843179D01*
X13353300Y-31434588D01*
X13350661Y-31460032D01*
X13348757Y-31469111D01*
X13348757Y-31469117D01*
X13352823Y-31501737D01*
X13353300Y-31509414D01*
X13353300Y-31512840D01*
X13355691Y-31527173D01*
X13356887Y-31534341D01*
X13363227Y-31585193D01*
X13365320Y-31592226D01*
X13367708Y-31599181D01*
X13392095Y-31644244D01*
X13414601Y-31690283D01*
X13418865Y-31696255D01*
X13423380Y-31702056D01*
X13461075Y-31736758D01*
X13984006Y-32259688D01*
X14017491Y-32321011D01*
X14014986Y-32383364D01*
X13975214Y-32514475D01*
X13956647Y-32703000D01*
X13975214Y-32891524D01*
X14030207Y-33072811D01*
X14119503Y-33239871D01*
X14119503Y-33239872D01*
X14119506Y-33239876D01*
X14119507Y-33239877D01*
X14239685Y-33386315D01*
X14386123Y-33506493D01*
X14386126Y-33506495D01*
X14386128Y-33506496D01*
X14553188Y-33595792D01*
X14553190Y-33595792D01*
X14553193Y-33595794D01*
X14734474Y-33650785D01*
X14923000Y-33669353D01*
X15111526Y-33650785D01*
X15292807Y-33595794D01*
X15314562Y-33584166D01*
X15420768Y-33527397D01*
X15459871Y-33506496D01*
X15459872Y-33506496D01*
X15459873Y-33506495D01*
X15459877Y-33506493D01*
X15606315Y-33386315D01*
X15726493Y-33239877D01*
X15815794Y-33072807D01*
X15870785Y-32891526D01*
X15889353Y-32703000D01*
X15889353Y-32702999D01*
X16496647Y-32702999D01*
X16515214Y-32891524D01*
X16570207Y-33072811D01*
X16659503Y-33239871D01*
X16659503Y-33239872D01*
X16659506Y-33239876D01*
X16659507Y-33239877D01*
X16779685Y-33386315D01*
X16926123Y-33506493D01*
X16926126Y-33506495D01*
X16926128Y-33506496D01*
X17093188Y-33595792D01*
X17093190Y-33595792D01*
X17093193Y-33595794D01*
X17274474Y-33650785D01*
X17463000Y-33669353D01*
X17651526Y-33650785D01*
X17832807Y-33595794D01*
X17854562Y-33584166D01*
X17960768Y-33527397D01*
X17999871Y-33506496D01*
X17999872Y-33506496D01*
X17999873Y-33506495D01*
X17999877Y-33506493D01*
X18146315Y-33386315D01*
X18266493Y-33239877D01*
X18355794Y-33072807D01*
X18410785Y-32891526D01*
X18429353Y-32703000D01*
X18410785Y-32514474D01*
X18355794Y-32333193D01*
X18355792Y-32333190D01*
X18355792Y-32333188D01*
X18266496Y-32166128D01*
X18266496Y-32166127D01*
X18239380Y-32133086D01*
X18146315Y-32019685D01*
X17999877Y-31899507D01*
X17999873Y-31899505D01*
X17999871Y-31899503D01*
X17832811Y-31810207D01*
X17651524Y-31755214D01*
X17463000Y-31736647D01*
X17274475Y-31755214D01*
X17093188Y-31810207D01*
X16926128Y-31899503D01*
X16926127Y-31899503D01*
X16779685Y-32019685D01*
X16659503Y-32166127D01*
X16659503Y-32166128D01*
X16570207Y-32333188D01*
X16515214Y-32514475D01*
X16496647Y-32702999D01*
X15889353Y-32702999D01*
X15870785Y-32514474D01*
X15815794Y-32333193D01*
X15815792Y-32333190D01*
X15815792Y-32333188D01*
X15726496Y-32166128D01*
X15726496Y-32166127D01*
X15699380Y-32133086D01*
X15606315Y-32019685D01*
X15459877Y-31899507D01*
X15459873Y-31899505D01*
X15459871Y-31899503D01*
X15292811Y-31810207D01*
X15111524Y-31755214D01*
X14923000Y-31736647D01*
X14734475Y-31755214D01*
X14603364Y-31794986D01*
X14533497Y-31795609D01*
X14479688Y-31764006D01*
X14289470Y-31573788D01*
X14090616Y-31374934D01*
X14057133Y-31313614D01*
X14054300Y-31287265D01*
X14054300Y-30956349D01*
X14073985Y-30889309D01*
X14126789Y-30843554D01*
X14195947Y-30833611D01*
X14256964Y-30860495D01*
X14278726Y-30878355D01*
X14386121Y-30966492D01*
X14386128Y-30966496D01*
X14553188Y-31055792D01*
X14553190Y-31055792D01*
X14553193Y-31055794D01*
X14734474Y-31110785D01*
X14923000Y-31129353D01*
X15111526Y-31110785D01*
X15292807Y-31055794D01*
X15298091Y-31052970D01*
X15403315Y-30996726D01*
X15459871Y-30966496D01*
X15459872Y-30966496D01*
X15459873Y-30966495D01*
X15459877Y-30966493D01*
X15606315Y-30846315D01*
X15726493Y-30699877D01*
X15815794Y-30532807D01*
X15870785Y-30351526D01*
X15889353Y-30163000D01*
X16496647Y-30163000D01*
X16515214Y-30351524D01*
X16570207Y-30532811D01*
X16659503Y-30699871D01*
X16659503Y-30699872D01*
X16659506Y-30699876D01*
X16659507Y-30699877D01*
X16779685Y-30846315D01*
X16926123Y-30966493D01*
X16926126Y-30966495D01*
X16926128Y-30966496D01*
X17093188Y-31055792D01*
X17093190Y-31055792D01*
X17093193Y-31055794D01*
X17274474Y-31110785D01*
X17463000Y-31129353D01*
X17651526Y-31110785D01*
X17832807Y-31055794D01*
X17838091Y-31052970D01*
X17943315Y-30996726D01*
X17999871Y-30966496D01*
X17999872Y-30966496D01*
X17999873Y-30966495D01*
X17999877Y-30966493D01*
X18146315Y-30846315D01*
X18266493Y-30699877D01*
X18355794Y-30532807D01*
X18410785Y-30351526D01*
X18429353Y-30163000D01*
X18410785Y-29974474D01*
X18355794Y-29793193D01*
X18355792Y-29793190D01*
X18355792Y-29793188D01*
X18266496Y-29626128D01*
X18266496Y-29626127D01*
X18266493Y-29626123D01*
X18146315Y-29479685D01*
X17999877Y-29359507D01*
X17999873Y-29359505D01*
X17999871Y-29359503D01*
X17832811Y-29270207D01*
X17651524Y-29215214D01*
X17463000Y-29196647D01*
X17274475Y-29215214D01*
X17093188Y-29270207D01*
X16926128Y-29359503D01*
X16926127Y-29359503D01*
X16779685Y-29479685D01*
X16659503Y-29626127D01*
X16659503Y-29626128D01*
X16570207Y-29793188D01*
X16515214Y-29974475D01*
X16496647Y-30163000D01*
X15889353Y-30163000D01*
X15870785Y-29974474D01*
X15815794Y-29793193D01*
X15815792Y-29793190D01*
X15815792Y-29793188D01*
X15726496Y-29626128D01*
X15726496Y-29626127D01*
X15726493Y-29626123D01*
X15606315Y-29479685D01*
X15459877Y-29359507D01*
X15459876Y-29359506D01*
X15459872Y-29359503D01*
X15459871Y-29359502D01*
X15394307Y-29324458D01*
X15344462Y-29275496D01*
X15329002Y-29207358D01*
X15352834Y-29141678D01*
X15408391Y-29099310D01*
X15452760Y-29091100D01*
X15686589Y-29091100D01*
X15712034Y-29093738D01*
X15721115Y-29095643D01*
X15736805Y-29093687D01*
X15753739Y-29091577D01*
X15761415Y-29091100D01*
X15764835Y-29091100D01*
X15764840Y-29091100D01*
X15768408Y-29090504D01*
X15786339Y-29087513D01*
X15813758Y-29084094D01*
X15837193Y-29081173D01*
X15837202Y-29081168D01*
X15844251Y-29079070D01*
X15851177Y-29076692D01*
X15851181Y-29076692D01*
X15896244Y-29052304D01*
X15942284Y-29029798D01*
X15942287Y-29029794D01*
X15948253Y-29025535D01*
X15954054Y-29021019D01*
X15954058Y-29021018D01*
X15988757Y-28983324D01*
X18756970Y-26215110D01*
X18818291Y-26181627D01*
X18874323Y-26182395D01*
X18908015Y-26190700D01*
X19065985Y-26190700D01*
X19219365Y-26152896D01*
X19365881Y-26075998D01*
X19366651Y-26077466D01*
X19424405Y-26058415D01*
X19492058Y-26075874D01*
X19539532Y-26127138D01*
X19552500Y-26182347D01*
X19552500Y-28508617D01*
X19552110Y-28515555D01*
X19551293Y-28522815D01*
X19547729Y-28554434D01*
X19558788Y-28612879D01*
X19567652Y-28671690D01*
X19570162Y-28679827D01*
X19572978Y-28687875D01*
X19600777Y-28740472D01*
X19626576Y-28794044D01*
X19631362Y-28801065D01*
X19636431Y-28807932D01*
X19636434Y-28807938D01*
X19636438Y-28807942D01*
X19678495Y-28849999D01*
X19718947Y-28893596D01*
X19726210Y-28899388D01*
X19725689Y-28900041D01*
X19737930Y-28909434D01*
X19844070Y-29015574D01*
X19877555Y-29076897D01*
X19872571Y-29146589D01*
X19830699Y-29202522D01*
X19792386Y-29221915D01*
X19633193Y-29270206D01*
X19633192Y-29270206D01*
X19633187Y-29270208D01*
X19466128Y-29359503D01*
X19466127Y-29359503D01*
X19319685Y-29479685D01*
X19199503Y-29626127D01*
X19199503Y-29626128D01*
X19110207Y-29793188D01*
X19055214Y-29974475D01*
X19036647Y-30162999D01*
X19055214Y-30351524D01*
X19110207Y-30532811D01*
X19199503Y-30699871D01*
X19199503Y-30699872D01*
X19199506Y-30699876D01*
X19199507Y-30699877D01*
X19319685Y-30846315D01*
X19466123Y-30966493D01*
X19466126Y-30966495D01*
X19466128Y-30966496D01*
X19633188Y-31055792D01*
X19633190Y-31055792D01*
X19633193Y-31055794D01*
X19814474Y-31110785D01*
X20003000Y-31129353D01*
X20191526Y-31110785D01*
X20372807Y-31055794D01*
X20378091Y-31052970D01*
X20483315Y-30996726D01*
X20539877Y-30966493D01*
X20619836Y-30900872D01*
X20684145Y-30873560D01*
X20753012Y-30885351D01*
X20804573Y-30932503D01*
X20822500Y-30996726D01*
X20822500Y-31869273D01*
X20802815Y-31936312D01*
X20750011Y-31982067D01*
X20680853Y-31992011D01*
X20619836Y-31965127D01*
X20539877Y-31899507D01*
X20539871Y-31899503D01*
X20372811Y-31810207D01*
X20191524Y-31755214D01*
X20003000Y-31736647D01*
X19814475Y-31755214D01*
X19633188Y-31810207D01*
X19466128Y-31899503D01*
X19466127Y-31899503D01*
X19319685Y-32019685D01*
X19199503Y-32166127D01*
X19199503Y-32166128D01*
X19110207Y-32333188D01*
X19055214Y-32514475D01*
X19036647Y-32703000D01*
X19055214Y-32891524D01*
X19110207Y-33072811D01*
X19199503Y-33239871D01*
X19199503Y-33239872D01*
X19199506Y-33239876D01*
X19199507Y-33239877D01*
X19319685Y-33386315D01*
X19466123Y-33506493D01*
X19466126Y-33506495D01*
X19466128Y-33506496D01*
X19633188Y-33595792D01*
X19633190Y-33595792D01*
X19633193Y-33595794D01*
X19814474Y-33650785D01*
X20003000Y-33669353D01*
X20191526Y-33650785D01*
X20372807Y-33595794D01*
X20394562Y-33584166D01*
X20500768Y-33527397D01*
X20539877Y-33506493D01*
X20619836Y-33440872D01*
X20684145Y-33413560D01*
X20753012Y-33425351D01*
X20804573Y-33472503D01*
X20822500Y-33536726D01*
X20822500Y-35665434D01*
X20802815Y-35732473D01*
X20786181Y-35753115D01*
X20205116Y-36334181D01*
X20143793Y-36367666D01*
X20117435Y-36370500D01*
X20076414Y-36370500D01*
X19923034Y-36408303D01*
X19783162Y-36481715D01*
X19664916Y-36586471D01*
X19575181Y-36716475D01*
X19575180Y-36716476D01*
X19519162Y-36864181D01*
X19500122Y-37020999D01*
X19500122Y-37021000D01*
X19519162Y-37177818D01*
X19575180Y-37325523D01*
X19575181Y-37325524D01*
X19664917Y-37455530D01*
X19700725Y-37487252D01*
X19737853Y-37546441D01*
X19742500Y-37580069D01*
X19742500Y-40230700D01*
X19722815Y-40297739D01*
X19670011Y-40343494D01*
X19618500Y-40354700D01*
X18268323Y-40354700D01*
X18195264Y-40369232D01*
X18195260Y-40369233D01*
X18112399Y-40424599D01*
X18057033Y-40507460D01*
X18057032Y-40507464D01*
X18042500Y-40580521D01*
X18042500Y-42629878D01*
X18057032Y-42702935D01*
X18057033Y-42702939D01*
X18057034Y-42702940D01*
X18112399Y-42785801D01*
X18112400Y-42785801D01*
X18112401Y-42785803D01*
X18121035Y-42794437D01*
X18118943Y-42796528D01*
X18151721Y-42835753D01*
X18160426Y-42905078D01*
X18130268Y-42968104D01*
X18070824Y-43004821D01*
X18038167Y-43009238D01*
X2766400Y-43026954D01*
X2699338Y-43007347D01*
X2653521Y-42954596D01*
X2642256Y-42902798D01*
X2661464Y-27623000D01*
X6336647Y-27623000D01*
X6355214Y-27811524D01*
X6410207Y-27992811D01*
X6499503Y-28159871D01*
X6499503Y-28159872D01*
X6499506Y-28159876D01*
X6499507Y-28159877D01*
X6619685Y-28306315D01*
X6766123Y-28426493D01*
X6766126Y-28426495D01*
X6766128Y-28426496D01*
X6933188Y-28515792D01*
X6933190Y-28515792D01*
X6933193Y-28515794D01*
X7114474Y-28570785D01*
X7303000Y-28589353D01*
X7491526Y-28570785D01*
X7672807Y-28515794D01*
X7673236Y-28515565D01*
X7795455Y-28450237D01*
X7839871Y-28426496D01*
X7839872Y-28426496D01*
X7839873Y-28426495D01*
X7839877Y-28426493D01*
X7986315Y-28306315D01*
X8106493Y-28159877D01*
X8195794Y-27992807D01*
X8250785Y-27811526D01*
X8269353Y-27623000D01*
X8250785Y-27434474D01*
X8195794Y-27253193D01*
X8195792Y-27253190D01*
X8195792Y-27253188D01*
X8106496Y-27086128D01*
X8106496Y-27086127D01*
X8106493Y-27086123D01*
X7986315Y-26939685D01*
X7839877Y-26819507D01*
X7839873Y-26819505D01*
X7839871Y-26819503D01*
X7672811Y-26730207D01*
X7491524Y-26675214D01*
X7303000Y-26656647D01*
X7114475Y-26675214D01*
X6933188Y-26730207D01*
X6766128Y-26819503D01*
X6766127Y-26819503D01*
X6619685Y-26939685D01*
X6499503Y-27086127D01*
X6499503Y-27086128D01*
X6410207Y-27253188D01*
X6355214Y-27434475D01*
X6336647Y-27623000D01*
X2661464Y-27623000D01*
X2692743Y-2740542D01*
X2712512Y-2673529D01*
X2765373Y-2627841D01*
X2816743Y-2616700D01*
X36222813Y-2616700D01*
X36289852Y-2636385D01*
G37*
%TD.AperFunction*%
%TA.AperFunction,Conductor*%
G36*
X25956323Y-30838059D02*
G01*
X25973873Y-30862722D01*
X25977293Y-30869041D01*
X25999801Y-30915082D01*
X26004065Y-30921055D01*
X26008580Y-30926856D01*
X26046275Y-30961558D01*
X26232381Y-31147663D01*
X26265866Y-31208986D01*
X26268700Y-31235344D01*
X26268700Y-32462834D01*
X26249015Y-32529873D01*
X26196211Y-32575628D01*
X26127053Y-32585572D01*
X26063497Y-32556547D01*
X26026039Y-32498830D01*
X25975794Y-32333193D01*
X25975791Y-32333189D01*
X25975791Y-32333186D01*
X25886496Y-32166128D01*
X25886496Y-32166127D01*
X25859380Y-32133086D01*
X25766315Y-32019685D01*
X25619877Y-31899507D01*
X25619873Y-31899505D01*
X25619871Y-31899503D01*
X25452811Y-31810207D01*
X25271524Y-31755214D01*
X25083000Y-31736647D01*
X24894473Y-31755215D01*
X24763362Y-31794986D01*
X24693495Y-31795609D01*
X24639687Y-31764006D01*
X24524367Y-31648686D01*
X24389819Y-31514137D01*
X24356334Y-31452814D01*
X24353500Y-31426456D01*
X24353500Y-31069774D01*
X24373185Y-31002735D01*
X24425989Y-30956980D01*
X24495147Y-30947036D01*
X24540354Y-30964361D01*
X24540750Y-30963622D01*
X24713188Y-31055792D01*
X24713190Y-31055792D01*
X24713193Y-31055794D01*
X24894474Y-31110785D01*
X25083000Y-31129353D01*
X25271526Y-31110785D01*
X25452807Y-31055794D01*
X25458091Y-31052970D01*
X25563315Y-30996726D01*
X25619871Y-30966496D01*
X25619872Y-30966496D01*
X25619873Y-30966495D01*
X25619877Y-30966493D01*
X25766315Y-30846315D01*
X25768964Y-30843086D01*
X25826709Y-30803749D01*
X25896553Y-30801875D01*
X25956323Y-30838059D01*
G37*
%TD.AperFunction*%
%TA.AperFunction,Conductor*%
G36*
X5813503Y-20928750D02*
G01*
X5843699Y-20968000D01*
X5845402Y-20971484D01*
X5845404Y-20971486D01*
X5849665Y-20977455D01*
X5854180Y-20983256D01*
X5891875Y-21017958D01*
X6258362Y-21384444D01*
X6274489Y-21404302D01*
X6279563Y-21412069D01*
X6279565Y-21412071D01*
X6305505Y-21432260D01*
X6311268Y-21437350D01*
X6313693Y-21439775D01*
X6313695Y-21439777D01*
X6330560Y-21451818D01*
X6331437Y-21452444D01*
X6371874Y-21483917D01*
X6371878Y-21483918D01*
X6378314Y-21487400D01*
X6378339Y-21487413D01*
X6378371Y-21487430D01*
X6384930Y-21490637D01*
X6384933Y-21490639D01*
X6434037Y-21505258D01*
X6482512Y-21521900D01*
X6482514Y-21521900D01*
X6489754Y-21523108D01*
X6497046Y-21524017D01*
X6548231Y-21521900D01*
X6684721Y-21521900D01*
X6751760Y-21541585D01*
X6797515Y-21594389D01*
X6807459Y-21663547D01*
X6778434Y-21727103D01*
X6763385Y-21741754D01*
X6619687Y-21859682D01*
X6499503Y-22006127D01*
X6499503Y-22006128D01*
X6410207Y-22173188D01*
X6355214Y-22354475D01*
X6336647Y-22543000D01*
X6355214Y-22731524D01*
X6410207Y-22912811D01*
X6499503Y-23079871D01*
X6499503Y-23079872D01*
X6499506Y-23079876D01*
X6499507Y-23079877D01*
X6580261Y-23178277D01*
X6619687Y-23226317D01*
X6701485Y-23293447D01*
X6740819Y-23351192D01*
X6742690Y-23421037D01*
X6706503Y-23480805D01*
X6643747Y-23511521D01*
X6622820Y-23513300D01*
X6483543Y-23513300D01*
X6416504Y-23493615D01*
X6395862Y-23476981D01*
X5644619Y-22725737D01*
X5611134Y-22664414D01*
X5608300Y-22638056D01*
X5608300Y-21022463D01*
X5627985Y-20955424D01*
X5680789Y-20909669D01*
X5749947Y-20899725D01*
X5813503Y-20928750D01*
G37*
%TD.AperFunction*%
%TA.AperFunction,Conductor*%
G36*
X9291760Y-21541585D02*
G01*
X9337515Y-21594389D01*
X9347459Y-21663547D01*
X9318434Y-21727103D01*
X9303385Y-21741754D01*
X9159687Y-21859682D01*
X9039503Y-22006127D01*
X9039503Y-22006128D01*
X8950207Y-22173188D01*
X8895214Y-22354475D01*
X8876647Y-22543000D01*
X8895214Y-22731524D01*
X8950207Y-22912811D01*
X9039503Y-23079871D01*
X9039503Y-23079872D01*
X9039506Y-23079876D01*
X9039507Y-23079877D01*
X9120261Y-23178277D01*
X9159687Y-23226317D01*
X9241485Y-23293447D01*
X9280819Y-23351192D01*
X9282690Y-23421037D01*
X9246503Y-23480805D01*
X9183747Y-23511521D01*
X9162820Y-23513300D01*
X7983180Y-23513300D01*
X7916141Y-23493615D01*
X7870386Y-23440811D01*
X7860442Y-23371653D01*
X7889467Y-23308097D01*
X7904515Y-23293447D01*
X7956111Y-23251103D01*
X7986315Y-23226315D01*
X8106493Y-23079877D01*
X8184179Y-22934537D01*
X8195792Y-22912811D01*
X8195792Y-22912810D01*
X8195794Y-22912807D01*
X8250785Y-22731526D01*
X8269353Y-22543000D01*
X8250785Y-22354474D01*
X8195794Y-22173193D01*
X8195792Y-22173190D01*
X8195792Y-22173188D01*
X8106496Y-22006128D01*
X8106496Y-22006127D01*
X8040806Y-21926083D01*
X7986315Y-21859685D01*
X7986313Y-21859683D01*
X7986312Y-21859682D01*
X7842615Y-21741754D01*
X7803280Y-21684008D01*
X7801409Y-21614163D01*
X7837596Y-21554395D01*
X7900352Y-21523679D01*
X7921279Y-21521900D01*
X9224721Y-21521900D01*
X9291760Y-21541585D01*
G37*
%TD.AperFunction*%
%TA.AperFunction,Conductor*%
G36*
X11716963Y-10540495D02*
G01*
X11768560Y-10582839D01*
X11846123Y-10646493D01*
X11846125Y-10646494D01*
X11846128Y-10646496D01*
X12013188Y-10735792D01*
X12013190Y-10735792D01*
X12013193Y-10735794D01*
X12194474Y-10790785D01*
X12383000Y-10809353D01*
X12571526Y-10790785D01*
X12702636Y-10751012D01*
X12772501Y-10750390D01*
X12826311Y-10781993D01*
X13573562Y-11529244D01*
X13589686Y-11549099D01*
X13594763Y-11556869D01*
X13620708Y-11577062D01*
X13626460Y-11582142D01*
X13628893Y-11584575D01*
X13646638Y-11597244D01*
X13687074Y-11628717D01*
X13687076Y-11628717D01*
X13693510Y-11632199D01*
X13693544Y-11632216D01*
X13693590Y-11632241D01*
X13700132Y-11635439D01*
X13700133Y-11635439D01*
X13700134Y-11635440D01*
X13714278Y-11639651D01*
X13749245Y-11650062D01*
X13797709Y-11666699D01*
X13797712Y-11666700D01*
X13797715Y-11666700D01*
X13804825Y-11667887D01*
X13804931Y-11667900D01*
X13805055Y-11667920D01*
X13812246Y-11668817D01*
X13863431Y-11666700D01*
X17368056Y-11666700D01*
X17435095Y-11686385D01*
X17455737Y-11703019D01*
X17634981Y-11882263D01*
X17668466Y-11943586D01*
X17671300Y-11969944D01*
X17671300Y-13349788D01*
X17668661Y-13375232D01*
X17666757Y-13384311D01*
X17666757Y-13384317D01*
X17670823Y-13416937D01*
X17671300Y-13424614D01*
X17671300Y-13428038D01*
X17674887Y-13449541D01*
X17681227Y-13500393D01*
X17683320Y-13507426D01*
X17685708Y-13514381D01*
X17710095Y-13559444D01*
X17732601Y-13605483D01*
X17736865Y-13611455D01*
X17741380Y-13617256D01*
X17779075Y-13651957D01*
X17838180Y-13711062D01*
X17871666Y-13772385D01*
X17874500Y-13798744D01*
X17874500Y-14031619D01*
X17854815Y-14098658D01*
X17802011Y-14144413D01*
X17732853Y-14154357D01*
X17720828Y-14152017D01*
X17703348Y-14147709D01*
X17694385Y-14145500D01*
X17536415Y-14145500D01*
X17536414Y-14145500D01*
X17383034Y-14183303D01*
X17243162Y-14256715D01*
X17243159Y-14256717D01*
X17243160Y-14256717D01*
X17126473Y-14360092D01*
X17124916Y-14361471D01*
X17035181Y-14491475D01*
X17035180Y-14491476D01*
X16979162Y-14639181D01*
X16960122Y-14795999D01*
X16960122Y-14796000D01*
X16979162Y-14952818D01*
X16996753Y-14999200D01*
X17035180Y-15100523D01*
X17042775Y-15111526D01*
X17124917Y-15230531D01*
X17136228Y-15240551D01*
X17223126Y-15317535D01*
X17260253Y-15376723D01*
X17264900Y-15410350D01*
X17264900Y-19908055D01*
X17245215Y-19975094D01*
X17228581Y-19995736D01*
X16439737Y-20784581D01*
X16378414Y-20818066D01*
X16352056Y-20820900D01*
X10678040Y-20820900D01*
X10611001Y-20801215D01*
X10565246Y-20748411D01*
X10555302Y-20679253D01*
X10582187Y-20618235D01*
X10609065Y-20585483D01*
X10646493Y-20539877D01*
X10711195Y-20418829D01*
X10735792Y-20372811D01*
X10735792Y-20372810D01*
X10735794Y-20372807D01*
X10790785Y-20191526D01*
X10809353Y-20003000D01*
X10790785Y-19814474D01*
X10735794Y-19633193D01*
X10735792Y-19633190D01*
X10735792Y-19633188D01*
X10646496Y-19466128D01*
X10646496Y-19466127D01*
X10609065Y-19420517D01*
X10526315Y-19319685D01*
X10379877Y-19199507D01*
X10379873Y-19199505D01*
X10379871Y-19199503D01*
X10212811Y-19110207D01*
X10031524Y-19055214D01*
X9843000Y-19036647D01*
X9654475Y-19055214D01*
X9473188Y-19110207D01*
X9306128Y-19199503D01*
X9306127Y-19199503D01*
X9159685Y-19319685D01*
X9039503Y-19466127D01*
X9039503Y-19466128D01*
X8950207Y-19633188D01*
X8895214Y-19814475D01*
X8876647Y-20003000D01*
X8895214Y-20191524D01*
X8950207Y-20372811D01*
X9039503Y-20539871D01*
X9039508Y-20539878D01*
X9103813Y-20618235D01*
X9131126Y-20682545D01*
X9119335Y-20751413D01*
X9072182Y-20802973D01*
X9007960Y-20820900D01*
X8138040Y-20820900D01*
X8071001Y-20801215D01*
X8025246Y-20748411D01*
X8015302Y-20679253D01*
X8042187Y-20618235D01*
X8069065Y-20585483D01*
X8106493Y-20539877D01*
X8171195Y-20418829D01*
X8195792Y-20372811D01*
X8195792Y-20372810D01*
X8195794Y-20372807D01*
X8250785Y-20191526D01*
X8269353Y-20003000D01*
X8250785Y-19814474D01*
X8195794Y-19633193D01*
X8195792Y-19633190D01*
X8195792Y-19633188D01*
X8106496Y-19466128D01*
X8106496Y-19466127D01*
X8069065Y-19420517D01*
X7986315Y-19319685D01*
X7839877Y-19199507D01*
X7839873Y-19199505D01*
X7839871Y-19199503D01*
X7672811Y-19110207D01*
X7491524Y-19055214D01*
X7303000Y-19036647D01*
X7114475Y-19055214D01*
X6933188Y-19110207D01*
X6766128Y-19199503D01*
X6766121Y-19199507D01*
X6687764Y-19263813D01*
X6623454Y-19291125D01*
X6554586Y-19279333D01*
X6503027Y-19232181D01*
X6485100Y-19167959D01*
X6485100Y-18298040D01*
X6504785Y-18231001D01*
X6557589Y-18185246D01*
X6626747Y-18175302D01*
X6687765Y-18202187D01*
X6715901Y-18225277D01*
X6766123Y-18266493D01*
X6766126Y-18266494D01*
X6766128Y-18266496D01*
X6933188Y-18355792D01*
X6933190Y-18355792D01*
X6933193Y-18355794D01*
X7114474Y-18410785D01*
X7303000Y-18429353D01*
X7491526Y-18410785D01*
X7672807Y-18355794D01*
X7839871Y-18266496D01*
X7839872Y-18266496D01*
X7839873Y-18266495D01*
X7839877Y-18266493D01*
X7986315Y-18146315D01*
X8106493Y-17999877D01*
X8170631Y-17879883D01*
X8195792Y-17832811D01*
X8195792Y-17832810D01*
X8195794Y-17832807D01*
X8250785Y-17651526D01*
X8269353Y-17463000D01*
X8250785Y-17274474D01*
X8195794Y-17093193D01*
X8195792Y-17093190D01*
X8195792Y-17093188D01*
X8106496Y-16926128D01*
X8106496Y-16926127D01*
X8044269Y-16850303D01*
X7986315Y-16779685D01*
X7839877Y-16659507D01*
X7839873Y-16659505D01*
X7839871Y-16659503D01*
X7672811Y-16570207D01*
X7491524Y-16515214D01*
X7303000Y-16496647D01*
X7114475Y-16515214D01*
X6933188Y-16570207D01*
X6766128Y-16659503D01*
X6766121Y-16659507D01*
X6687764Y-16723813D01*
X6623454Y-16751125D01*
X6554586Y-16739333D01*
X6503027Y-16692181D01*
X6485100Y-16627959D01*
X6485100Y-15758040D01*
X6504785Y-15691001D01*
X6557589Y-15645246D01*
X6626747Y-15635302D01*
X6687765Y-15662187D01*
X6722090Y-15690356D01*
X6766123Y-15726493D01*
X6766126Y-15726494D01*
X6766128Y-15726496D01*
X6933188Y-15815792D01*
X6933190Y-15815792D01*
X6933193Y-15815794D01*
X7114474Y-15870785D01*
X7303000Y-15889353D01*
X7491526Y-15870785D01*
X7672807Y-15815794D01*
X7677814Y-15813118D01*
X7815606Y-15739466D01*
X7839871Y-15726496D01*
X7839872Y-15726496D01*
X7839873Y-15726495D01*
X7839877Y-15726493D01*
X7986315Y-15606315D01*
X8002643Y-15586418D01*
X8060388Y-15547082D01*
X8130233Y-15545209D01*
X8190002Y-15581395D01*
X8220720Y-15644150D01*
X8222499Y-15665080D01*
X8222499Y-15940588D01*
X8219862Y-15966026D01*
X8217957Y-15975113D01*
X8217957Y-15975117D01*
X8222023Y-16007737D01*
X8222500Y-16015414D01*
X8222500Y-16018840D01*
X8224891Y-16033173D01*
X8226087Y-16040341D01*
X8232427Y-16091193D01*
X8234520Y-16098226D01*
X8236908Y-16105181D01*
X8261295Y-16150244D01*
X8283801Y-16196283D01*
X8288065Y-16202255D01*
X8292580Y-16208056D01*
X8330275Y-16242758D01*
X8747562Y-16660044D01*
X8763689Y-16679902D01*
X8768763Y-16687669D01*
X8768765Y-16687671D01*
X8794705Y-16707860D01*
X8800468Y-16712950D01*
X8802435Y-16714917D01*
X8802895Y-16715377D01*
X8808729Y-16719542D01*
X8820637Y-16728044D01*
X8861074Y-16759517D01*
X8861078Y-16759518D01*
X8867514Y-16763000D01*
X8867539Y-16763013D01*
X8867571Y-16763030D01*
X8874128Y-16766235D01*
X8874133Y-16766239D01*
X8923237Y-16780858D01*
X8949335Y-16789818D01*
X9006349Y-16830201D01*
X9032480Y-16895000D01*
X9019430Y-16963641D01*
X9018431Y-16965550D01*
X8950207Y-17093190D01*
X8895214Y-17274475D01*
X8876647Y-17463000D01*
X8895214Y-17651524D01*
X8950207Y-17832811D01*
X9039503Y-17999871D01*
X9039503Y-17999872D01*
X9039506Y-17999876D01*
X9039507Y-17999877D01*
X9159685Y-18146315D01*
X9306123Y-18266493D01*
X9306126Y-18266495D01*
X9306128Y-18266496D01*
X9473188Y-18355792D01*
X9473190Y-18355792D01*
X9473193Y-18355794D01*
X9654474Y-18410785D01*
X9843000Y-18429353D01*
X10031526Y-18410785D01*
X10212807Y-18355794D01*
X10379871Y-18266496D01*
X10379872Y-18266496D01*
X10379873Y-18266495D01*
X10379877Y-18266493D01*
X10526315Y-18146315D01*
X10646493Y-17999877D01*
X10710631Y-17879883D01*
X10735792Y-17832811D01*
X10735792Y-17832810D01*
X10735794Y-17832807D01*
X10790785Y-17651526D01*
X10807430Y-17482522D01*
X10833591Y-17417736D01*
X10890625Y-17377377D01*
X10960425Y-17374260D01*
X11018514Y-17406996D01*
X12303562Y-18692044D01*
X12319686Y-18711899D01*
X12324763Y-18719669D01*
X12350708Y-18739862D01*
X12356460Y-18744942D01*
X12358893Y-18747375D01*
X12376638Y-18760044D01*
X12417074Y-18791517D01*
X12417076Y-18791517D01*
X12423510Y-18794999D01*
X12423544Y-18795016D01*
X12423590Y-18795041D01*
X12430132Y-18798239D01*
X12430133Y-18798239D01*
X12430134Y-18798240D01*
X12444278Y-18802451D01*
X12479245Y-18812862D01*
X12527709Y-18829499D01*
X12527712Y-18829500D01*
X12527715Y-18829500D01*
X12534825Y-18830687D01*
X12534931Y-18830700D01*
X12535055Y-18830720D01*
X12542246Y-18831617D01*
X12593431Y-18829500D01*
X14055436Y-18829500D01*
X14122475Y-18849185D01*
X14157487Y-18883062D01*
X14178515Y-18913528D01*
X14178516Y-18913529D01*
X14178517Y-18913530D01*
X14296760Y-19018283D01*
X14296762Y-19018284D01*
X14436634Y-19091696D01*
X14590014Y-19129500D01*
X14590015Y-19129500D01*
X14747985Y-19129500D01*
X14901365Y-19091696D01*
X14920069Y-19081879D01*
X15041240Y-19018283D01*
X15159483Y-18913530D01*
X15249220Y-18783523D01*
X15305237Y-18635818D01*
X15324278Y-18479000D01*
X15310402Y-18364715D01*
X15305237Y-18322181D01*
X15283992Y-18266163D01*
X15249220Y-18174477D01*
X15159483Y-18044470D01*
X15041240Y-17939717D01*
X15041238Y-17939716D01*
X15041237Y-17939715D01*
X14901365Y-17866303D01*
X14747986Y-17828500D01*
X14747985Y-17828500D01*
X14622535Y-17828500D01*
X14555496Y-17808815D01*
X14509741Y-17756011D01*
X14499439Y-17719447D01*
X14497662Y-17704814D01*
X14492437Y-17661782D01*
X14436420Y-17514077D01*
X14346683Y-17384070D01*
X14346682Y-17384068D01*
X14275134Y-17320684D01*
X14248472Y-17297063D01*
X14211346Y-17237876D01*
X14206700Y-17204256D01*
X14206700Y-14413411D01*
X14209339Y-14387964D01*
X14209725Y-14386123D01*
X14211243Y-14378885D01*
X14209072Y-14361470D01*
X14207177Y-14346261D01*
X14206700Y-14338585D01*
X14206700Y-14335160D01*
X14203112Y-14313658D01*
X14202321Y-14307319D01*
X14196773Y-14262807D01*
X14196771Y-14262803D01*
X14194702Y-14255853D01*
X14194670Y-14255759D01*
X14194644Y-14255672D01*
X14192291Y-14248817D01*
X14167904Y-14203755D01*
X14145399Y-14157718D01*
X14137580Y-14146769D01*
X14133327Y-14139908D01*
X14131371Y-14136242D01*
X14134730Y-14134450D01*
X14116355Y-14087792D01*
X14129964Y-14019261D01*
X14178463Y-13968966D01*
X14239858Y-13952700D01*
X14760680Y-13952700D01*
X14827719Y-13972385D01*
X14873474Y-14025189D01*
X14883776Y-14061754D01*
X14896363Y-14165418D01*
X14952380Y-14313123D01*
X15042117Y-14443130D01*
X15160360Y-14547883D01*
X15160362Y-14547884D01*
X15300234Y-14621296D01*
X15453614Y-14659100D01*
X15453615Y-14659100D01*
X15611585Y-14659100D01*
X15764965Y-14621296D01*
X15764964Y-14621296D01*
X15904840Y-14547883D01*
X16023083Y-14443130D01*
X16112820Y-14313123D01*
X16168837Y-14165418D01*
X16187878Y-14008600D01*
X16187752Y-14007558D01*
X16168837Y-13851781D01*
X16140578Y-13777270D01*
X16112820Y-13704077D01*
X16023083Y-13574070D01*
X15904840Y-13469317D01*
X15904838Y-13469316D01*
X15904837Y-13469315D01*
X15764965Y-13395903D01*
X15611586Y-13358100D01*
X15611585Y-13358100D01*
X15453615Y-13358100D01*
X15453614Y-13358100D01*
X15446168Y-13359004D01*
X15445801Y-13355982D01*
X15389888Y-13353490D01*
X15358484Y-13335679D01*
X15357681Y-13336805D01*
X15349249Y-13330785D01*
X15335761Y-13321155D01*
X15295326Y-13289683D01*
X15295322Y-13289681D01*
X15288848Y-13286177D01*
X15282269Y-13282960D01*
X15233154Y-13268338D01*
X15184686Y-13251698D01*
X15177469Y-13250494D01*
X15170153Y-13249582D01*
X15120925Y-13251619D01*
X15118969Y-13251700D01*
X13849544Y-13251700D01*
X13782505Y-13232015D01*
X13761863Y-13215381D01*
X11550618Y-11004136D01*
X11517133Y-10942813D01*
X11514299Y-10916463D01*
X11514299Y-10636347D01*
X11533984Y-10569310D01*
X11586788Y-10523555D01*
X11655946Y-10513611D01*
X11716963Y-10540495D01*
G37*
%TD.AperFunction*%
%TA.AperFunction,Conductor*%
G36*
X12761495Y-13769185D02*
G01*
X12782137Y-13785819D01*
X13469381Y-14473062D01*
X13502866Y-14534385D01*
X13505700Y-14560743D01*
X13505699Y-17204249D01*
X13486014Y-17271289D01*
X13463926Y-17297064D01*
X13365718Y-17384068D01*
X13275981Y-17514075D01*
X13275980Y-17514076D01*
X13219962Y-17661781D01*
X13200922Y-17818599D01*
X13200922Y-17818600D01*
X13220867Y-17982864D01*
X13219455Y-17983035D01*
X13216748Y-18044626D01*
X13176429Y-18101689D01*
X13111660Y-18127894D01*
X13099420Y-18128500D01*
X12782744Y-18128500D01*
X12715705Y-18108815D01*
X12695063Y-18092181D01*
X10836837Y-16233955D01*
X10820711Y-16214098D01*
X10815637Y-16206331D01*
X10789687Y-16186133D01*
X10783941Y-16181059D01*
X10781507Y-16178625D01*
X10781506Y-16178624D01*
X10781505Y-16178623D01*
X10775048Y-16174013D01*
X10763761Y-16165955D01*
X10723326Y-16134483D01*
X10723322Y-16134481D01*
X10716848Y-16130977D01*
X10710269Y-16127760D01*
X10661154Y-16113138D01*
X10612686Y-16096498D01*
X10605469Y-16095294D01*
X10598153Y-16094382D01*
X10548925Y-16096419D01*
X10546969Y-16096500D01*
X10123383Y-16096500D01*
X10056344Y-16076815D01*
X10010589Y-16024011D01*
X10000645Y-15954853D01*
X10029670Y-15891297D01*
X10087386Y-15853839D01*
X10212807Y-15815794D01*
X10217814Y-15813118D01*
X10355606Y-15739466D01*
X10379871Y-15726496D01*
X10379872Y-15726496D01*
X10379873Y-15726495D01*
X10379877Y-15726493D01*
X10526315Y-15606315D01*
X10646493Y-15459877D01*
X10729959Y-15303723D01*
X10735792Y-15292811D01*
X10735792Y-15292810D01*
X10735794Y-15292807D01*
X10790785Y-15111526D01*
X10809353Y-14923000D01*
X10790785Y-14734474D01*
X10735794Y-14553193D01*
X10735792Y-14553190D01*
X10735792Y-14553188D01*
X10646496Y-14386128D01*
X10646496Y-14386127D01*
X10632127Y-14368618D01*
X10526315Y-14239685D01*
X10379877Y-14119507D01*
X10379873Y-14119505D01*
X10379871Y-14119503D01*
X10212811Y-14030207D01*
X10146289Y-14010028D01*
X10087386Y-13992160D01*
X10028949Y-13953863D01*
X10000493Y-13890051D01*
X10011053Y-13820984D01*
X10057277Y-13768590D01*
X10123383Y-13749500D01*
X12694456Y-13749500D01*
X12761495Y-13769185D01*
G37*
%TD.AperFunction*%
%TA.AperFunction,Conductor*%
G36*
X8375120Y-12717792D02*
G01*
X8417489Y-12773350D01*
X8425699Y-12817717D01*
X8425700Y-12892586D01*
X8423061Y-12918032D01*
X8421157Y-12927111D01*
X8421157Y-12927117D01*
X8425223Y-12959737D01*
X8425700Y-12967414D01*
X8425700Y-12970840D01*
X8428091Y-12985173D01*
X8429287Y-12992341D01*
X8435627Y-13043193D01*
X8437720Y-13050226D01*
X8440108Y-13057181D01*
X8464495Y-13102244D01*
X8487001Y-13148283D01*
X8491265Y-13154255D01*
X8495780Y-13160056D01*
X8533475Y-13194758D01*
X8950762Y-13612044D01*
X8966889Y-13631902D01*
X8971963Y-13639669D01*
X8971965Y-13639671D01*
X8997905Y-13659860D01*
X9003668Y-13664950D01*
X9006093Y-13667375D01*
X9006095Y-13667377D01*
X9023837Y-13680044D01*
X9064274Y-13711517D01*
X9064278Y-13711518D01*
X9070714Y-13715000D01*
X9070739Y-13715013D01*
X9070771Y-13715030D01*
X9077330Y-13718237D01*
X9077333Y-13718239D01*
X9126437Y-13732858D01*
X9174912Y-13749500D01*
X9174914Y-13749500D01*
X9182154Y-13750708D01*
X9189446Y-13751617D01*
X9240631Y-13749500D01*
X9562617Y-13749500D01*
X9629656Y-13769185D01*
X9675411Y-13821989D01*
X9685355Y-13891147D01*
X9656330Y-13954703D01*
X9598613Y-13992160D01*
X9540610Y-14009755D01*
X9473188Y-14030207D01*
X9306128Y-14119503D01*
X9306127Y-14119503D01*
X9159680Y-14239689D01*
X9145945Y-14256425D01*
X9088199Y-14295758D01*
X9018354Y-14297627D01*
X8958586Y-14261438D01*
X8927872Y-14198682D01*
X8927046Y-14193095D01*
X8923977Y-14168467D01*
X8923500Y-14160791D01*
X8923500Y-14157363D01*
X8923498Y-14157350D01*
X8922635Y-14152181D01*
X8919910Y-14135849D01*
X8913573Y-14085007D01*
X8913572Y-14085004D01*
X8911518Y-14078104D01*
X8911475Y-14077979D01*
X8911437Y-14077853D01*
X8909092Y-14071018D01*
X8884704Y-14025955D01*
X8862199Y-13979918D01*
X8857919Y-13973924D01*
X8853419Y-13968143D01*
X8815724Y-13933441D01*
X8048782Y-13166500D01*
X8015297Y-13105177D01*
X8020281Y-13035486D01*
X8040607Y-13000159D01*
X8106493Y-12919877D01*
X8192343Y-12759262D01*
X8241303Y-12709422D01*
X8309440Y-12693961D01*
X8375120Y-12717792D01*
G37*
%TD.AperFunction*%
%TA.AperFunction,Conductor*%
G36*
X10780805Y-10439496D02*
G01*
X10811521Y-10502252D01*
X10813300Y-10523179D01*
X10813300Y-11063788D01*
X10810661Y-11089232D01*
X10808757Y-11098312D01*
X10808757Y-11098316D01*
X10812823Y-11130938D01*
X10813299Y-11138600D01*
X10813299Y-11142033D01*
X10813301Y-11142051D01*
X10816887Y-11163539D01*
X10823227Y-11214393D01*
X10825320Y-11221426D01*
X10827708Y-11228381D01*
X10852095Y-11273444D01*
X10874601Y-11319483D01*
X10878865Y-11325455D01*
X10883380Y-11331256D01*
X10921075Y-11365958D01*
X12391937Y-12836819D01*
X12425422Y-12898142D01*
X12420438Y-12967834D01*
X12378566Y-13023767D01*
X12313102Y-13048184D01*
X12304256Y-13048500D01*
X10784625Y-13048500D01*
X10717586Y-13028815D01*
X10671831Y-12976011D01*
X10661887Y-12906853D01*
X10675267Y-12866047D01*
X10735792Y-12752811D01*
X10735792Y-12752810D01*
X10735794Y-12752807D01*
X10790785Y-12571526D01*
X10809353Y-12383000D01*
X10790785Y-12194474D01*
X10735794Y-12013193D01*
X10735792Y-12013190D01*
X10735792Y-12013188D01*
X10646496Y-11846128D01*
X10646496Y-11846127D01*
X10646493Y-11846123D01*
X10526315Y-11699685D01*
X10379877Y-11579507D01*
X10379873Y-11579505D01*
X10379871Y-11579503D01*
X10212811Y-11490207D01*
X10031524Y-11435214D01*
X9843000Y-11416647D01*
X9654475Y-11435214D01*
X9473188Y-11490207D01*
X9309153Y-11577886D01*
X9240750Y-11592128D01*
X9175506Y-11567128D01*
X9134136Y-11510823D01*
X9126700Y-11468528D01*
X9126700Y-10757471D01*
X9146385Y-10690432D01*
X9199189Y-10644677D01*
X9268347Y-10634733D01*
X9309153Y-10648113D01*
X9473188Y-10735792D01*
X9473190Y-10735792D01*
X9473193Y-10735794D01*
X9654474Y-10790785D01*
X9843000Y-10809353D01*
X10031526Y-10790785D01*
X10212807Y-10735794D01*
X10215221Y-10734504D01*
X10322007Y-10677425D01*
X10379871Y-10646496D01*
X10379872Y-10646496D01*
X10379873Y-10646495D01*
X10379877Y-10646493D01*
X10526315Y-10526315D01*
X10593446Y-10444514D01*
X10651192Y-10405180D01*
X10721036Y-10403309D01*
X10780805Y-10439496D01*
G37*
%TD.AperFunction*%
%TA.AperFunction,Conductor*%
G36*
X8375120Y-10177792D02*
G01*
X8417489Y-10233350D01*
X8425699Y-10277719D01*
X8425699Y-11948280D01*
X8406014Y-12015319D01*
X8353210Y-12061074D01*
X8284052Y-12071018D01*
X8220496Y-12041993D01*
X8192341Y-12006733D01*
X8106496Y-11846128D01*
X8106496Y-11846127D01*
X8106493Y-11846123D01*
X7986315Y-11699685D01*
X7839877Y-11579507D01*
X7839873Y-11579505D01*
X7839871Y-11579503D01*
X7672811Y-11490207D01*
X7491524Y-11435214D01*
X7303000Y-11416647D01*
X7114475Y-11435214D01*
X6933188Y-11490207D01*
X6766128Y-11579503D01*
X6766121Y-11579507D01*
X6687764Y-11643813D01*
X6623454Y-11671125D01*
X6554586Y-11659333D01*
X6503027Y-11612181D01*
X6485100Y-11547959D01*
X6485100Y-10678040D01*
X6504785Y-10611001D01*
X6557589Y-10565246D01*
X6626747Y-10555302D01*
X6687765Y-10582187D01*
X6705760Y-10596955D01*
X6766123Y-10646493D01*
X6766126Y-10646494D01*
X6766128Y-10646496D01*
X6933188Y-10735792D01*
X6933190Y-10735792D01*
X6933193Y-10735794D01*
X7114474Y-10790785D01*
X7303000Y-10809353D01*
X7491526Y-10790785D01*
X7672807Y-10735794D01*
X7675221Y-10734504D01*
X7782007Y-10677425D01*
X7839871Y-10646496D01*
X7839872Y-10646496D01*
X7839873Y-10646495D01*
X7839877Y-10646493D01*
X7986315Y-10526315D01*
X8106493Y-10379877D01*
X8192343Y-10219262D01*
X8241303Y-10169422D01*
X8309440Y-10153961D01*
X8375120Y-10177792D01*
G37*
%TD.AperFunction*%
%TA.AperFunction,Conductor*%
G36*
X14075568Y-6606385D02*
G01*
X14121323Y-6659189D01*
X14131267Y-6728347D01*
X14117887Y-6769153D01*
X14030207Y-6933188D01*
X13975214Y-7114475D01*
X13956647Y-7303000D01*
X13975214Y-7491524D01*
X14030207Y-7672811D01*
X14119503Y-7839871D01*
X14119503Y-7839872D01*
X14119506Y-7839876D01*
X14119507Y-7839877D01*
X14239685Y-7986315D01*
X14386123Y-8106493D01*
X14386126Y-8106495D01*
X14386128Y-8106496D01*
X14553188Y-8195792D01*
X14553190Y-8195792D01*
X14553193Y-8195794D01*
X14734474Y-8250785D01*
X14923000Y-8269353D01*
X15111526Y-8250785D01*
X15292807Y-8195794D01*
X15459877Y-8106493D01*
X15589035Y-8000495D01*
X15653345Y-7973183D01*
X15722213Y-7984974D01*
X15773773Y-8032126D01*
X15791700Y-8096349D01*
X15791700Y-8168188D01*
X15789061Y-8193632D01*
X15787157Y-8202711D01*
X15787157Y-8202717D01*
X15791223Y-8235337D01*
X15791700Y-8243014D01*
X15791700Y-8246440D01*
X15793458Y-8256977D01*
X15795287Y-8267941D01*
X15801627Y-8318793D01*
X15803720Y-8325826D01*
X15806108Y-8332781D01*
X15830495Y-8377844D01*
X15853001Y-8423883D01*
X15857265Y-8429855D01*
X15861780Y-8435656D01*
X15899475Y-8470358D01*
X16215162Y-8786044D01*
X16231286Y-8805899D01*
X16236363Y-8813669D01*
X16262308Y-8833862D01*
X16268060Y-8838942D01*
X16270493Y-8841375D01*
X16288234Y-8854041D01*
X16328674Y-8885517D01*
X16328676Y-8885517D01*
X16335048Y-8888966D01*
X16335105Y-8888994D01*
X16335178Y-8889033D01*
X16341729Y-8892235D01*
X16341734Y-8892239D01*
X16390833Y-8906856D01*
X16439312Y-8923500D01*
X16439320Y-8923500D01*
X16446505Y-8924699D01*
X16446538Y-8924704D01*
X16446592Y-8924713D01*
X16453846Y-8925617D01*
X16505031Y-8923500D01*
X16720920Y-8923500D01*
X16787959Y-8943185D01*
X16833714Y-8995989D01*
X16843658Y-9065147D01*
X16814633Y-9128703D01*
X16799585Y-9143353D01*
X16779687Y-9159682D01*
X16659503Y-9306127D01*
X16659503Y-9306128D01*
X16570207Y-9473188D01*
X16515214Y-9654475D01*
X16496647Y-9843000D01*
X16515214Y-10031524D01*
X16570207Y-10212811D01*
X16659503Y-10379871D01*
X16659503Y-10379872D01*
X16659506Y-10379876D01*
X16659507Y-10379877D01*
X16779685Y-10526315D01*
X16926123Y-10646493D01*
X16926126Y-10646495D01*
X16926128Y-10646496D01*
X17086734Y-10732342D01*
X17136578Y-10781304D01*
X17152039Y-10849442D01*
X17128207Y-10915121D01*
X17072650Y-10957490D01*
X17028281Y-10965700D01*
X15357719Y-10965700D01*
X15290680Y-10946015D01*
X15244925Y-10893211D01*
X15234981Y-10824053D01*
X15264006Y-10760497D01*
X15299266Y-10732342D01*
X15425150Y-10665055D01*
X15459871Y-10646496D01*
X15459872Y-10646496D01*
X15459873Y-10646495D01*
X15459877Y-10646493D01*
X15606315Y-10526315D01*
X15726493Y-10379877D01*
X15793154Y-10255164D01*
X15815792Y-10212811D01*
X15815792Y-10212810D01*
X15815794Y-10212807D01*
X15870785Y-10031526D01*
X15889353Y-9843000D01*
X15870785Y-9654474D01*
X15815794Y-9473193D01*
X15815792Y-9473190D01*
X15815792Y-9473188D01*
X15726496Y-9306128D01*
X15726496Y-9306127D01*
X15726047Y-9305580D01*
X15606315Y-9159685D01*
X15459877Y-9039507D01*
X15459873Y-9039505D01*
X15459871Y-9039503D01*
X15292811Y-8950207D01*
X15111524Y-8895214D01*
X14923000Y-8876647D01*
X14734475Y-8895214D01*
X14553188Y-8950207D01*
X14386128Y-9039503D01*
X14386127Y-9039503D01*
X14239685Y-9159685D01*
X14119503Y-9306127D01*
X14119503Y-9306128D01*
X14030207Y-9473188D01*
X13975214Y-9654475D01*
X13956647Y-9842999D01*
X13975214Y-10031524D01*
X14030207Y-10212811D01*
X14119503Y-10379871D01*
X14119503Y-10379872D01*
X14119506Y-10379876D01*
X14119507Y-10379877D01*
X14239685Y-10526315D01*
X14386123Y-10646493D01*
X14386126Y-10646495D01*
X14386128Y-10646496D01*
X14546734Y-10732342D01*
X14596578Y-10781304D01*
X14612039Y-10849442D01*
X14588207Y-10915121D01*
X14532650Y-10957490D01*
X14488281Y-10965700D01*
X14052744Y-10965700D01*
X13985705Y-10946015D01*
X13965063Y-10929381D01*
X13321993Y-10286311D01*
X13288508Y-10224988D01*
X13291012Y-10162637D01*
X13330785Y-10031526D01*
X13349353Y-9843000D01*
X13330785Y-9654474D01*
X13275794Y-9473193D01*
X13275792Y-9473190D01*
X13275792Y-9473188D01*
X13186496Y-9306128D01*
X13186496Y-9306127D01*
X13186047Y-9305580D01*
X13066315Y-9159685D01*
X12919877Y-9039507D01*
X12919873Y-9039505D01*
X12919871Y-9039503D01*
X12752811Y-8950207D01*
X12571524Y-8895214D01*
X12383000Y-8876647D01*
X12194475Y-8895214D01*
X12013188Y-8950207D01*
X11846128Y-9039503D01*
X11846122Y-9039507D01*
X11716963Y-9145505D01*
X11652653Y-9172817D01*
X11583786Y-9161026D01*
X11532226Y-9113873D01*
X11514299Y-9049651D01*
X11514299Y-8096348D01*
X11533984Y-8029309D01*
X11586788Y-7983554D01*
X11655946Y-7973610D01*
X11716962Y-8000494D01*
X11769705Y-8043779D01*
X11846121Y-8106492D01*
X11846128Y-8106496D01*
X12013188Y-8195792D01*
X12013190Y-8195792D01*
X12013193Y-8195794D01*
X12194474Y-8250785D01*
X12383000Y-8269353D01*
X12571526Y-8250785D01*
X12752807Y-8195794D01*
X12919871Y-8106496D01*
X12919872Y-8106496D01*
X12919873Y-8106495D01*
X12919877Y-8106493D01*
X13066315Y-7986315D01*
X13186493Y-7839877D01*
X13265449Y-7692161D01*
X13275792Y-7672811D01*
X13275792Y-7672810D01*
X13275794Y-7672807D01*
X13330785Y-7491526D01*
X13349353Y-7303000D01*
X13330785Y-7114474D01*
X13291012Y-6983363D01*
X13290390Y-6913497D01*
X13321993Y-6859688D01*
X13436124Y-6745558D01*
X13558662Y-6623019D01*
X13619986Y-6589534D01*
X13646344Y-6586700D01*
X14008529Y-6586700D01*
X14075568Y-6606385D01*
G37*
%TD.AperFunction*%
%TA.AperFunction,Conductor*%
G36*
X10780805Y-7899496D02*
G01*
X10811521Y-7962252D01*
X10813300Y-7983179D01*
X10813300Y-9162820D01*
X10793615Y-9229859D01*
X10740811Y-9275614D01*
X10671653Y-9285558D01*
X10608097Y-9256533D01*
X10593447Y-9241485D01*
X10526317Y-9159687D01*
X10526311Y-9159682D01*
X10379877Y-9039507D01*
X10379873Y-9039505D01*
X10379871Y-9039503D01*
X10212811Y-8950207D01*
X10031524Y-8895214D01*
X9843000Y-8876647D01*
X9654475Y-8895214D01*
X9473188Y-8950207D01*
X9309153Y-9037886D01*
X9240750Y-9052128D01*
X9175506Y-9027128D01*
X9134136Y-8970823D01*
X9126700Y-8928528D01*
X9126700Y-8566343D01*
X9146385Y-8499304D01*
X9163015Y-8478666D01*
X9399688Y-8241992D01*
X9461011Y-8208508D01*
X9523363Y-8211012D01*
X9654474Y-8250785D01*
X9843000Y-8269353D01*
X10031526Y-8250785D01*
X10212807Y-8195794D01*
X10379871Y-8106496D01*
X10379872Y-8106496D01*
X10379873Y-8106495D01*
X10379877Y-8106493D01*
X10526315Y-7986315D01*
X10593446Y-7904514D01*
X10651192Y-7865180D01*
X10721036Y-7863309D01*
X10780805Y-7899496D01*
G37*
%TD.AperFunction*%
%TA.AperFunction,Conductor*%
G36*
X18984339Y-6606385D02*
G01*
X19030094Y-6659189D01*
X19041300Y-6710700D01*
X19041300Y-8038878D01*
X19055832Y-8111935D01*
X19055833Y-8111939D01*
X19055834Y-8111940D01*
X19111199Y-8194801D01*
X19177555Y-8239138D01*
X19194060Y-8250166D01*
X19194064Y-8250167D01*
X19267121Y-8264699D01*
X19267124Y-8264700D01*
X19267126Y-8264700D01*
X20738876Y-8264700D01*
X20738877Y-8264699D01*
X20760079Y-8260482D01*
X20823919Y-8247784D01*
X20824735Y-8251887D01*
X20871309Y-8246877D01*
X20933790Y-8278148D01*
X20969446Y-8338235D01*
X20973300Y-8368908D01*
X20973300Y-9162820D01*
X20953615Y-9229859D01*
X20900811Y-9275614D01*
X20831653Y-9285558D01*
X20768097Y-9256533D01*
X20753447Y-9241485D01*
X20686317Y-9159687D01*
X20686311Y-9159682D01*
X20539877Y-9039507D01*
X20539873Y-9039505D01*
X20539871Y-9039503D01*
X20372811Y-8950207D01*
X20191524Y-8895214D01*
X20003000Y-8876647D01*
X19814475Y-8895214D01*
X19633188Y-8950207D01*
X19466128Y-9039503D01*
X19466127Y-9039503D01*
X19319681Y-9159687D01*
X19253600Y-9240208D01*
X19195854Y-9279542D01*
X19126009Y-9281413D01*
X19066241Y-9245225D01*
X19035525Y-9182469D01*
X19034701Y-9176894D01*
X19033977Y-9171092D01*
X19033176Y-9164655D01*
X19032700Y-9156983D01*
X19032700Y-9153562D01*
X19032699Y-9153551D01*
X19029111Y-9132059D01*
X19026844Y-9113873D01*
X19022773Y-9081208D01*
X19022769Y-9081201D01*
X19020686Y-9074203D01*
X19020676Y-9074172D01*
X19020666Y-9074140D01*
X19018292Y-9067224D01*
X19018292Y-9067219D01*
X19010125Y-9052128D01*
X18993899Y-9022145D01*
X18981112Y-8995989D01*
X18971398Y-8976117D01*
X18971397Y-8976116D01*
X18967128Y-8970138D01*
X18962620Y-8964347D01*
X18962618Y-8964342D01*
X18945391Y-8948483D01*
X18924913Y-8929631D01*
X18355237Y-8359955D01*
X18339111Y-8340098D01*
X18334037Y-8332331D01*
X18308087Y-8312133D01*
X18302341Y-8307059D01*
X18299907Y-8304625D01*
X18299906Y-8304624D01*
X18299905Y-8304623D01*
X18293448Y-8300013D01*
X18282161Y-8291955D01*
X18241726Y-8260483D01*
X18241722Y-8260481D01*
X18235248Y-8256977D01*
X18228670Y-8253761D01*
X18220796Y-8251417D01*
X18179554Y-8239138D01*
X18156981Y-8231389D01*
X18149097Y-8228682D01*
X18092081Y-8188297D01*
X18065950Y-8123497D01*
X18079001Y-8054858D01*
X18110696Y-8015547D01*
X18146310Y-7986319D01*
X18146309Y-7986319D01*
X18146315Y-7986315D01*
X18266493Y-7839877D01*
X18345449Y-7692161D01*
X18355792Y-7672811D01*
X18355792Y-7672810D01*
X18355794Y-7672807D01*
X18410785Y-7491526D01*
X18429353Y-7303000D01*
X18410785Y-7114474D01*
X18355794Y-6933193D01*
X18355792Y-6933190D01*
X18355792Y-6933188D01*
X18268113Y-6769153D01*
X18253871Y-6700751D01*
X18278871Y-6635507D01*
X18335176Y-6594136D01*
X18377471Y-6586700D01*
X18917300Y-6586700D01*
X18984339Y-6606385D01*
G37*
%TD.AperFunction*%
%TD*%
M02*
