M48
; DRILL file {KiCad 7.0.7} date Wed Aug 27 15:09:07 2025
; FORMAT={-:-/ absolute / inch / decimal}
; #@! TF.CreationDate,2025-08-27T15:09:07+01:00
; #@! TF.GenerationSoftware,Kicad,Pcbnew,7.0.7
; #@! TF.FileFunction,Plated,1,2,PTH
FMAT,2
INCH
; #@! TA.AperFunction,Plated,PTH,ViaDrill
T1C0.0157
; #@! TA.AperFunction,Plated,PTH,ComponentDrill
T2C0.0315
; #@! TA.AperFunction,Plated,PTH,ComponentDrill
T3C0.0394
%
G90
G05
T1
X0.13Y-0.841
X0.1775Y-0.3075
X0.1795Y-1.4555
X0.258Y-1.273
X0.311Y-0.317
X0.337Y-0.664
X0.444Y-1.065
X0.449Y-0.499
X0.459Y-1.506
X0.5455Y-0.7015
X0.5485Y-0.3365
X0.5555Y-1.0275
X0.5575Y-0.7795
X0.5655Y-0.9065
X0.5655Y-0.9775
X0.5775Y-0.7275
X0.6Y-0.65
X0.6115Y-0.5515
X0.6115Y-1.0075
X0.6315Y-0.9395
X0.654Y-0.615
X0.658Y-1.236
X0.6875Y-0.5425
X0.6935Y-0.5825
X0.7095Y-0.9575
X0.744Y-1.641
X0.7475Y-0.5415
X0.7475Y-1.0055
X0.7575Y-0.6315
X0.7875Y-0.5815
X0.7875Y-0.7295
X0.7885Y-0.1335
X0.7885Y-0.9245
X0.7935Y-1.4575
X0.794Y-1.641
X0.804Y-0.338
X0.805Y-1.238
X0.832Y-0.211
X0.841Y-0.95
X0.844Y-1.641
X0.8455Y-0.5595
X0.846Y-1.021
X0.908Y-0.945
X0.914Y-1.639
X0.916Y-1.236
X0.9215Y-0.7855
X0.9235Y-1.0215
X0.9255Y-0.5905
X0.926Y-0.681
X0.972Y-1.439
X0.9875Y-0.9865
X1.0075Y-0.5905
X1.0085Y-0.6315
X1.013Y-0.337
X1.013Y-1.403
X1.017Y-1.251
X1.0275Y-0.6875
X1.031Y-0.842
X1.0315Y-0.8855
X1.115Y-0.337
X1.116Y-0.508
X1.13Y-1.255
X1.17Y-1.366
X1.218Y-1.442
X1.255Y-1.301
X1.312Y-1.308
X1.352Y-0.314
X1.392Y-1.452
T2
X0.2875Y-0.3875
X0.2875Y-0.4875
X0.2875Y-0.5875
X0.2875Y-0.6875
X0.2875Y-0.7875
X0.2875Y-0.8875
X0.2875Y-0.9875
X0.2875Y-1.0875
X0.2875Y-1.1875
X0.3875Y-0.2875
X0.3875Y-0.3875
X0.3875Y-0.4875
X0.3875Y-0.5875
X0.3875Y-0.6875
X0.3875Y-0.7875
X0.3875Y-0.8875
X0.3875Y-0.9875
X0.3875Y-1.0875
X0.3875Y-1.1875
X0.3875Y-1.2875
X0.4875Y-0.2875
X0.4875Y-0.3875
X0.4875Y-1.1875
X0.4875Y-1.2875
X0.5875Y-0.2875
X0.5875Y-0.3875
X0.5875Y-1.1875
X0.5875Y-1.2875
X0.6875Y-0.2875
X0.6875Y-0.3875
X0.6875Y-1.1875
X0.6875Y-1.2875
X0.7875Y-0.2875
X0.7875Y-0.3875
X0.7875Y-1.1875
X0.7875Y-1.2875
X0.8875Y-0.2875
X0.8875Y-0.3875
X0.8875Y-1.1875
X0.8875Y-1.2875
X0.9875Y-0.2875
X0.9875Y-0.3875
X0.9875Y-1.1875
X0.9875Y-1.2875
X1.0875Y-0.2875
X1.0875Y-0.3875
X1.0875Y-1.1875
X1.0875Y-1.2875
X1.1875Y-0.2875
X1.1875Y-0.3875
X1.1875Y-0.4875
X1.1875Y-0.5875
X1.1875Y-0.6875
X1.1875Y-0.7875
X1.1875Y-0.8875
X1.1875Y-0.9875
X1.1875Y-1.0875
X1.1875Y-1.1875
X1.1875Y-1.2875
X1.2875Y-0.3875
X1.2875Y-0.4875
X1.2875Y-0.5875
X1.2875Y-0.6875
X1.2875Y-0.7875
X1.2875Y-0.8875
X1.2875Y-0.9875
X1.2875Y-1.0875
X1.2875Y-1.1875
T3
X0.1775Y-0.1735
X0.2775Y-0.1735
X0.3775Y-0.1735
X0.4775Y-0.1735
X0.5775Y-0.1735
X0.6775Y-0.1735
T0
M30
