%TF.GenerationSoftware,KiCad,Pcbnew,7.0.7*%
%TF.CreationDate,2025-06-12T14:25:12+01:00*%
%TF.ProjectId,Rosa,526f7361-2e6b-4696-9361-645f70636258,rev?*%
%TF.SameCoordinates,Original*%
%TF.FileFunction,Copper,L1,Top*%
%TF.FilePolarity,Positive*%
%FSLAX46Y46*%
G04 Gerber Fmt 4.6, Leading zero omitted, Abs format (unit mm)*
G04 Created by KiCad (PCBNEW 7.0.7) date 2025-06-12 14:25:12*
%MOMM*%
%LPD*%
G01*
G04 APERTURE LIST*
G04 Aperture macros list*
%AMRoundRect*
0 Rectangle with rounded corners*
0 $1 Rounding radius*
0 $2 $3 $4 $5 $6 $7 $8 $9 X,Y pos of 4 corners*
0 Add a 4 corners polygon primitive as box body*
4,1,4,$2,$3,$4,$5,$6,$7,$8,$9,$2,$3,0*
0 Add four circle primitives for the rounded corners*
1,1,$1+$1,$2,$3*
1,1,$1+$1,$4,$5*
1,1,$1+$1,$6,$7*
1,1,$1+$1,$8,$9*
0 Add four rect primitives between the rounded corners*
20,1,$1+$1,$2,$3,$4,$5,0*
20,1,$1+$1,$4,$5,$6,$7,0*
20,1,$1+$1,$6,$7,$8,$9,0*
20,1,$1+$1,$8,$9,$2,$3,0*%
G04 Aperture macros list end*
%TA.AperFunction,SMDPad,CuDef*%
%ADD10RoundRect,0.155000X-0.212500X-0.155000X0.212500X-0.155000X0.212500X0.155000X-0.212500X0.155000X0*%
%TD*%
%TA.AperFunction,ComponentPad*%
%ADD11O,1.700000X1.700000*%
%TD*%
%TA.AperFunction,ComponentPad*%
%ADD12R,1.700000X1.700000*%
%TD*%
%TA.AperFunction,SMDPad,CuDef*%
%ADD13RoundRect,0.075000X0.662500X0.075000X-0.662500X0.075000X-0.662500X-0.075000X0.662500X-0.075000X0*%
%TD*%
%TA.AperFunction,SMDPad,CuDef*%
%ADD14RoundRect,0.075000X0.075000X0.662500X-0.075000X0.662500X-0.075000X-0.662500X0.075000X-0.662500X0*%
%TD*%
%TA.AperFunction,SMDPad,CuDef*%
%ADD15RoundRect,0.200000X-0.200000X-0.275000X0.200000X-0.275000X0.200000X0.275000X-0.200000X0.275000X0*%
%TD*%
%TA.AperFunction,SMDPad,CuDef*%
%ADD16RoundRect,0.250000X0.475000X-0.250000X0.475000X0.250000X-0.475000X0.250000X-0.475000X-0.250000X0*%
%TD*%
%TA.AperFunction,SMDPad,CuDef*%
%ADD17RoundRect,0.218750X-0.256250X0.218750X-0.256250X-0.218750X0.256250X-0.218750X0.256250X0.218750X0*%
%TD*%
%TA.AperFunction,ComponentPad*%
%ADD18R,1.422400X1.422400*%
%TD*%
%TA.AperFunction,ComponentPad*%
%ADD19C,1.422400*%
%TD*%
%TA.AperFunction,SMDPad,CuDef*%
%ADD20R,1.500000X2.000000*%
%TD*%
%TA.AperFunction,SMDPad,CuDef*%
%ADD21R,3.800000X2.000000*%
%TD*%
%TA.AperFunction,SMDPad,CuDef*%
%ADD22RoundRect,0.250000X-0.250000X-0.475000X0.250000X-0.475000X0.250000X0.475000X-0.250000X0.475000X0*%
%TD*%
%TA.AperFunction,ViaPad*%
%ADD23C,0.800000*%
%TD*%
%TA.AperFunction,Conductor*%
%ADD24C,0.200000*%
%TD*%
%TA.AperFunction,Conductor*%
%ADD25C,0.250000*%
%TD*%
%TA.AperFunction,Conductor*%
%ADD26C,0.400000*%
%TD*%
%TA.AperFunction,Conductor*%
%ADD27C,0.000000*%
%TD*%
%TA.AperFunction,Conductor*%
%ADD28C,0.600000*%
%TD*%
G04 APERTURE END LIST*
D10*
%TO.P,JP2,1*%
%TO.N,GND*%
X27905900Y-36703000D03*
%TO.P,JP2,2*%
%TO.N,N/C*%
X29040900Y-36703000D03*
%TD*%
D11*
%TO.P,,GND*%
%TO.N,GND*%
X4509000Y-4407400D03*
%TO.P,,TCK*%
%TO.N,N/C*%
X12129000Y-4407400D03*
%TO.P,,TDI*%
X9589000Y-4407400D03*
%TO.P,,TDO*%
X7049000Y-4407400D03*
%TO.P,,TMS*%
X14669000Y-4407400D03*
D12*
%TO.P,,VCC_3*%
%TO.N,VCC_3*%
X17209000Y-4407400D03*
%TD*%
D13*
%TO.P,,1-1*%
%TO.N,N/C*%
X27665500Y-18503000D03*
%TO.P,,1-2*%
X27665500Y-20003000D03*
%TO.P,,1-3*%
X27665500Y-17503000D03*
%TO.P,,1-4*%
X27665500Y-16503000D03*
%TO.P,,1-5*%
X27665500Y-19503000D03*
%TO.P,,1-6*%
X27665500Y-19003000D03*
%TO.P,,1-7*%
X27665500Y-14003000D03*
%TO.P,,1-8*%
X27665500Y-18003000D03*
%TO.P,,1-9/GCK1*%
X27665500Y-15503000D03*
D14*
%TO.P,,1-10*%
X25003000Y-12340500D03*
D13*
%TO.P,,1-11/GCK2*%
X27665500Y-15003000D03*
D14*
%TO.P,,1-12*%
X22503000Y-12340500D03*
%TO.P,,1-13*%
X21003000Y-12340500D03*
%TO.P,,1-14/GCK3*%
X25503000Y-12340500D03*
%TO.P,,1-15*%
X24503000Y-12340500D03*
%TO.P,,1-16*%
X19503000Y-12340500D03*
%TO.P,,1-17*%
X24003000Y-12340500D03*
%TO.P,,1-18*%
X19003000Y-12340500D03*
%TO.P,,2-1*%
X19503000Y-27665500D03*
%TO.P,,2-2*%
X23003000Y-27665500D03*
%TO.P,,2-3*%
X21503000Y-27665500D03*
%TO.P,,2-4*%
X22503000Y-27665500D03*
%TO.P,,2-5*%
X23503000Y-27665500D03*
%TO.P,,2-6*%
X24003000Y-27665500D03*
D13*
%TO.P,,2-7/GTS1*%
X27665500Y-25003000D03*
D14*
%TO.P,,2-8*%
X24503000Y-27665500D03*
%TO.P,,2-9/GSR*%
X25503000Y-27665500D03*
D13*
%TO.P,,2-10*%
X27665500Y-26003000D03*
%TO.P,,2-11/GTS2*%
X27665500Y-24503000D03*
%TO.P,,2-12*%
X27665500Y-23503000D03*
%TO.P,,2-13*%
X27665500Y-22503000D03*
%TO.P,,2-14*%
X27665500Y-22003000D03*
%TO.P,,2-15*%
X27665500Y-21003000D03*
%TO.P,,2-16*%
X27665500Y-21503000D03*
%TO.P,,2-17*%
X27665500Y-20503000D03*
D14*
%TO.P,,2-18*%
X22003000Y-27665500D03*
%TO.P,,3-1*%
X18503000Y-12340500D03*
%TO.P,,3-2*%
X23003000Y-12340500D03*
%TO.P,,3-3*%
X14503000Y-12340500D03*
%TO.P,,3-4*%
X14003000Y-12340500D03*
%TO.P,,3-5*%
X21503000Y-12340500D03*
D13*
%TO.P,,3-6*%
X12340500Y-15003000D03*
%TO.P,,3-7*%
X12340500Y-15503000D03*
D14*
%TO.P,,3-8*%
X20503000Y-12340500D03*
%TO.P,,3-9*%
X18003000Y-12340500D03*
D13*
%TO.P,,3-10*%
X12340500Y-18503000D03*
%TO.P,,3-11*%
X12340500Y-14503000D03*
%TO.P,,3-12*%
X12340500Y-19003000D03*
%TO.P,,3-13*%
X12340500Y-20003000D03*
%TO.P,,3-14*%
X12340500Y-16003000D03*
%TO.P,,3-15*%
X12340500Y-16503000D03*
%TO.P,,3-16*%
X12340500Y-20503000D03*
%TO.P,,3-17*%
X12340500Y-17503000D03*
%TO.P,,3-18*%
X12340500Y-18003000D03*
%TO.P,,4-1*%
X12340500Y-21003000D03*
%TO.P,,4-2*%
X12340500Y-22003000D03*
%TO.P,,4-3*%
X12340500Y-24003000D03*
%TO.P,,4-4*%
X12340500Y-24503000D03*
%TO.P,,4-5*%
X12340500Y-22503000D03*
D14*
%TO.P,,4-6*%
X14003000Y-27665500D03*
%TO.P,,4-7*%
X14503000Y-27665500D03*
D13*
%TO.P,,4-8*%
X12340500Y-23503000D03*
%TO.P,,4-9*%
X12340500Y-21503000D03*
D14*
%TO.P,,4-10*%
X16503000Y-27665500D03*
D13*
%TO.P,,4-11*%
X12340500Y-25503000D03*
D14*
%TO.P,,4-12*%
X17003000Y-27665500D03*
%TO.P,,4-13*%
X18503000Y-27665500D03*
%TO.P,,4-14*%
X15003000Y-27665500D03*
%TO.P,,4-15*%
X20503000Y-27665500D03*
%TO.P,,4-16*%
X19003000Y-27665500D03*
%TO.P,,4-17*%
X21003000Y-27665500D03*
%TO.P,,4-18*%
X15503000Y-27665500D03*
D13*
%TO.P,,GND*%
%TO.N,GND*%
X27665500Y-16003000D03*
D14*
X26003000Y-27665500D03*
X23503000Y-12340500D03*
X18003000Y-27665500D03*
X17003000Y-12340500D03*
D13*
X12340500Y-26003000D03*
X12340500Y-23003000D03*
X12340500Y-19503000D03*
%TO.P,,NC*%
%TO.N,N/C*%
X27665500Y-25503000D03*
X27665500Y-23003000D03*
X27665500Y-17003000D03*
X27665500Y-14503000D03*
D14*
X22003000Y-12340500D03*
X17503000Y-12340500D03*
X16003000Y-27665500D03*
X16003000Y-12340500D03*
D13*
X12340500Y-25003000D03*
D14*
%TO.P,,TCK*%
X15003000Y-12340500D03*
%TO.P,,TDI *%
X16503000Y-12340500D03*
%TO.P,,TDO*%
X17503000Y-27665500D03*
%TO.P,,TMS*%
X15503000Y-12340500D03*
D13*
%TO.P,,VCC_3*%
%TO.N,VCC_3*%
X27665500Y-24003000D03*
D14*
X26003000Y-12340500D03*
X25003000Y-27665500D03*
X20003000Y-27665500D03*
X20003000Y-12340500D03*
D13*
X12340500Y-17003000D03*
X12340500Y-14003000D03*
%TD*%
D15*
%TO.P,R3,1*%
%TO.N,N/C*%
X26835600Y-34798000D03*
%TO.P,R3,2*%
X28485600Y-34798000D03*
%TD*%
D16*
%TO.P,C2,1*%
%TO.N,GND*%
X13551400Y-37529000D03*
%TO.P,C2,2*%
%TO.N,N/C*%
X13551400Y-35629000D03*
%TD*%
D17*
%TO.P,R4,1*%
%TO.N,N/C*%
X22504400Y-4495700D03*
%TO.P,R4,2*%
X22504400Y-6070700D03*
%TD*%
D18*
%TO.P,                              Marine,B0*%
%TO.N,N/C*%
X20003000Y-7303000D03*
D19*
%TO.P,                              Marine,B1*%
X20003000Y-9843000D03*
%TO.P,                              Marine,B2*%
X17463000Y-7303000D03*
%TO.P,                              Marine,B3*%
X17463000Y-9843000D03*
%TO.P,                              Marine,B_C0*%
X30163000Y-32703000D03*
%TO.P,                              Marine,B_C1*%
X27623000Y-30163000D03*
%TO.P,                              Marine,B_C2*%
X27623000Y-32703000D03*
%TO.P,                              Marine,B_C3*%
X25083000Y-30163000D03*
%TO.P,                              Marine,B_D0*%
X14923000Y-32703000D03*
%TO.P,                              Marine,B_D1*%
X12383000Y-30163000D03*
%TO.P,                              Marine,B_D2*%
X12383000Y-32703000D03*
%TO.P,                              Marine,B_D3*%
X9843000Y-30163000D03*
%TO.P,                              Marine,B_O0*%
X32703000Y-27623000D03*
%TO.P,                              Marine,B_O1*%
X30163000Y-27623000D03*
%TO.P,                              Marine,B_O2*%
X32703000Y-25083000D03*
%TO.P,                              Marine,B_O3*%
X30163000Y-25083000D03*
%TO.P,                              Marine,C14M*%
X30163000Y-9843000D03*
%TO.P,                              Marine,C28M*%
X30163000Y-7303000D03*
%TO.P,                              Marine,FIELD0*%
X7303000Y-17463000D03*
%TO.P,                              Marine,FIELD1*%
X9843000Y-17463000D03*
%TO.P,                              Marine,FIELD2*%
X9843000Y-20003000D03*
%TO.P,                              Marine,G0*%
X14923000Y-7303000D03*
%TO.P,                              Marine,G1*%
X14923000Y-9843000D03*
%TO.P,                              Marine,G2*%
X12383000Y-7303000D03*
%TO.P,                              Marine,G3*%
X12383000Y-9843000D03*
%TO.P,                              Marine,GND*%
%TO.N,GND*%
X22543000Y-9843000D03*
X25083000Y-9843000D03*
X32703000Y-20003000D03*
%TO.P,                              Marine,G_C0*%
%TO.N,N/C*%
X25083000Y-32703000D03*
%TO.P,                              Marine,G_C1*%
X22543000Y-30163000D03*
%TO.P,                              Marine,G_C2*%
X22543000Y-32703000D03*
%TO.P,                              Marine,G_C3*%
X20003000Y-30163000D03*
%TO.P,                              Marine,G_D0*%
X9843000Y-32703000D03*
%TO.P,                              Marine,G_D1*%
X7303000Y-30163000D03*
%TO.P,                              Marine,G_D2*%
X9843000Y-27623000D03*
%TO.P,                              Marine,G_D3*%
X7303000Y-27623000D03*
%TO.P,                              Marine,G_O0*%
X30163000Y-22543000D03*
%TO.P,                              Marine,G_O1*%
X30163000Y-20003000D03*
%TO.P,                              Marine,G_O2*%
X30163000Y-17463000D03*
%TO.P,                              Marine,G_O3*%
X32703000Y-14923000D03*
%TO.P,                              Marine,N_BYPASS*%
X25083000Y-7303000D03*
%TO.P,                              Marine,N_HSYCX2*%
X32703000Y-30163000D03*
%TO.P,                              Marine,N_HSYNC*%
X27623000Y-9843000D03*
%TO.P,                              Marine,N_RSTR_L*%
X9843000Y-12383000D03*
%TO.P,                              Marine,N_RSTW_C*%
X7303000Y-14923000D03*
%TO.P,                              Marine,N_RSTW_D*%
X9843000Y-14923000D03*
%TO.P,                              Marine,N_SCNDBL_N_CSYNC*%
X22543000Y-7303000D03*
%TO.P,                              Marine,N_VSYNC*%
X27623000Y-7303000D03*
%TO.P,                              Marine,N_VSYN_O*%
X30163000Y-30163000D03*
%TO.P,                              Marine,R0*%
X9843000Y-7303000D03*
%TO.P,                              Marine,R1*%
X7303000Y-9843000D03*
%TO.P,                              Marine,R2*%
X9843000Y-9843000D03*
%TO.P,                              Marine,R3*%
X7303000Y-12383000D03*
%TO.P,                              Marine,R_C0*%
X20003000Y-32703000D03*
%TO.P,                              Marine,R_C1*%
X17463000Y-30163000D03*
%TO.P,                              Marine,R_C2*%
X17463000Y-32703000D03*
%TO.P,                              Marine,R_C3*%
X14923000Y-30163000D03*
%TO.P,                              Marine,R_D0*%
X9843000Y-25083000D03*
%TO.P,                              Marine,R_D1*%
X7303000Y-25083000D03*
%TO.P,                              Marine,R_D2*%
X9843000Y-22543000D03*
%TO.P,                              Marine,R_D3*%
X7303000Y-22543000D03*
%TO.P,                              Marine,R_O0*%
X30163000Y-14923000D03*
%TO.P,                              Marine,R_O1*%
X32703000Y-12383000D03*
%TO.P,                              Marine,R_O2*%
X30163000Y-12383000D03*
%TO.P,                              Marine,R_O3*%
X32703000Y-9843000D03*
%TO.P,                              Marine,VCC*%
X7303000Y-20003000D03*
X32703000Y-17463000D03*
X32703000Y-22543000D03*
%TD*%
D17*
%TO.P,R1,1*%
%TO.N,VCC_3*%
X25095200Y-4495700D03*
%TO.P,R1,2*%
%TO.N,N/C*%
X25095200Y-6070700D03*
%TD*%
D10*
%TO.P,JP1,1*%
%TO.N,GND*%
X31588900Y-34696400D03*
%TO.P,JP1,2*%
%TO.N,N/C*%
X32723900Y-34696400D03*
%TD*%
D20*
%TO.P,U1,3V3*%
%TO.N,VCC_3*%
X20206200Y-35293400D03*
D21*
X20206200Y-41593400D03*
D20*
%TO.P,U1,5V*%
%TO.N,N/C*%
X17906200Y-35293400D03*
%TO.P,U1,GND*%
%TO.N,GND*%
X22506200Y-35293400D03*
%TD*%
D22*
%TO.P,L1,1*%
%TO.N,N/C*%
X31892200Y-6273800D03*
%TO.P,L1,2*%
X33792200Y-6273800D03*
%TD*%
D16*
%TO.P,C1,1*%
%TO.N,VCC_3*%
X15570200Y-42174200D03*
%TO.P,C1,2*%
%TO.N,GND*%
X15570200Y-40274200D03*
%TD*%
D23*
%TO.N,*%
X19241000Y-16040600D03*
X21488400Y-25933400D03*
X21476200Y-14211800D03*
X26187400Y-21386800D03*
X30937200Y-36626800D03*
X15532600Y-14008600D03*
X18987000Y-25540200D03*
X18987000Y-13754600D03*
X16040600Y-23863800D03*
X31877000Y-33045400D03*
X26099000Y-17463000D03*
X15532600Y-25591000D03*
X25591000Y-14999200D03*
X14669000Y-18479000D03*
X13856200Y-17818600D03*
X14110200Y-26099000D03*
X26200600Y-22492200D03*
X17615400Y-14796000D03*
X23457400Y-25946600D03*
%TO.N,GND*%
X14161000Y-19799800D03*
X8559800Y-16865600D03*
X28346400Y-12903200D03*
X23508200Y-14999200D03*
X21361400Y-24130000D03*
X15240000Y-16510000D03*
X11658600Y-38252400D03*
X23215600Y-41630600D03*
X25831800Y-31775400D03*
X4559800Y-36970200D03*
X28702000Y-31877000D03*
X25083000Y-25057600D03*
X4509000Y-7811000D03*
X18021800Y-24321000D03*
X29718000Y-34696400D03*
X11404600Y-12674600D03*
X34340800Y-7975600D03*
X21132800Y-5359400D03*
X3302000Y-21361400D03*
X23266400Y-31394400D03*
X23520400Y-17297400D03*
X16611600Y-15621000D03*
X20447000Y-31445200D03*
X7899400Y-8051800D03*
X28321000Y-8559800D03*
X20028400Y-3391400D03*
X35356800Y-36880800D03*
X14364200Y-23025600D03*
X6553200Y-32334200D03*
X16713200Y-31394400D03*
X23406600Y-19952200D03*
X20421600Y-8585200D03*
X25730200Y-8559800D03*
X24688800Y-36550600D03*
X33324800Y-33223200D03*
X14364200Y-24829000D03*
X17463000Y-13780000D03*
X11277600Y-27051000D03*
X25616400Y-16040600D03*
X13932400Y-8547600D03*
%TO.N,VCC_3*%
X18897600Y-41681400D03*
X25730200Y-35636200D03*
X21437600Y-41681400D03*
X20028400Y-23482800D03*
X20003000Y-14770600D03*
X20155400Y-37021000D03*
X20003000Y-18529800D03*
X23063200Y-24003000D03*
X20167600Y-41681400D03*
%TD*%
D24*
%TO.N,*%
X27665500Y-14003000D02*
X28543000Y-14003000D01*
X11343000Y-21503000D02*
X12340500Y-21503000D01*
X16091400Y-28689800D02*
X15685000Y-28689800D01*
X14211800Y-11062200D02*
X14503000Y-11353400D01*
X12340500Y-20003000D02*
X11417800Y-20003000D01*
X18225000Y-13602200D02*
X18021800Y-13399000D01*
X21019000Y-13754600D02*
X21019000Y-12356500D01*
X20503000Y-27665500D02*
X20503000Y-28366600D01*
X22720800Y-10986000D02*
X23003000Y-11268200D01*
X14923000Y-32703000D02*
X14923000Y-32550600D01*
X16726400Y-32703000D02*
X16078200Y-32054800D01*
D25*
X29117100Y-36626800D02*
X29040900Y-36703000D01*
D24*
X17056600Y-14796000D02*
X16497800Y-14237200D01*
X12636000Y-26759400D02*
X13602200Y-26759400D01*
X9843000Y-24727400D02*
X10567400Y-24003000D01*
X26517600Y-30226000D02*
X26517600Y-30784800D01*
X18987000Y-27649500D02*
X19003000Y-27665500D01*
X10947400Y-20294600D02*
X11155800Y-20503000D01*
X25503000Y-11455000D02*
X25743400Y-11214600D01*
X19503000Y-28376000D02*
X19503000Y-27665500D01*
X9843000Y-9843000D02*
X11062200Y-11062200D01*
X27619900Y-20548600D02*
X27665500Y-20503000D01*
X26454600Y-25184600D02*
X26636200Y-25003000D01*
X22847800Y-7303000D02*
X22543000Y-7303000D01*
X31483800Y-15583400D02*
X30823400Y-16243800D01*
X26353000Y-10452600D02*
X26353000Y-8573000D01*
X10249400Y-16142200D02*
X7404600Y-16142200D01*
X33792200Y-6273800D02*
X33792200Y-7101800D01*
X26636200Y-25003000D02*
X27665500Y-25003000D01*
X31483800Y-13602200D02*
X31483800Y-15583400D01*
X17971000Y-10960600D02*
X18503000Y-11492600D01*
X26251400Y-11214600D02*
X25743400Y-11214600D01*
X24503000Y-10837800D02*
X24067000Y-10401800D01*
D26*
X18834600Y-38138600D02*
X17957000Y-37261000D01*
D24*
X30823400Y-16243800D02*
X29705800Y-16243800D01*
X17666200Y-30163000D02*
X17463000Y-30163000D01*
D26*
X31433000Y-38138600D02*
X18834600Y-38138600D01*
D24*
X9843000Y-20003000D02*
X11343000Y-21503000D01*
X28543000Y-26003000D02*
X27665500Y-26003000D01*
X32703000Y-25083000D02*
X31382200Y-23762200D01*
X11062200Y-11062200D02*
X14211800Y-11062200D01*
D26*
X5118600Y-20358600D02*
X5118600Y-33820600D01*
D24*
X9843000Y-32703000D02*
X9843000Y-32499800D01*
X7303000Y-30163000D02*
X8598400Y-28867600D01*
X18225000Y-14161000D02*
X18225000Y-13602200D01*
X13639100Y-11976600D02*
X10960600Y-11976600D01*
X11423000Y-16503000D02*
X12340500Y-16503000D01*
X18948400Y-29820600D02*
X19622000Y-29147000D01*
D25*
X28485600Y-35267400D02*
X28485600Y-34798000D01*
D24*
X16503000Y-28278200D02*
X16091400Y-28689800D01*
X30163000Y-30163000D02*
X26454600Y-26454600D01*
X11113000Y-7811000D02*
X11113000Y-5423400D01*
X31902400Y-33883600D02*
X32613600Y-33883600D01*
X11265400Y-25692600D02*
X11455000Y-25503000D01*
X7404600Y-16142200D02*
X7303000Y-16040600D01*
X14059400Y-18479000D02*
X14669000Y-18479000D01*
X27665500Y-19503000D02*
X27708300Y-19545800D01*
X17003000Y-27665500D02*
X17003000Y-28337000D01*
X14313400Y-10554200D02*
X13907000Y-10554200D01*
X23003000Y-11268200D02*
X23003000Y-12340500D01*
X10351000Y-21374600D02*
X10979400Y-22003000D01*
X10478000Y-26353000D02*
X8954000Y-26353000D01*
X11658200Y-14503000D02*
X9843000Y-12687800D01*
X29756600Y-13653000D02*
X30671000Y-13653000D01*
X18987000Y-13754600D02*
X19003000Y-13738600D01*
X25083000Y-7303000D02*
X25083000Y-6082900D01*
X25003000Y-11294600D02*
X25053800Y-11294600D01*
X18135600Y-28676600D02*
X18503000Y-28309200D01*
X27115000Y-32703000D02*
X27623000Y-32703000D01*
X14059400Y-18479000D02*
X13535400Y-19003000D01*
X31433000Y-16599400D02*
X32703000Y-15329400D01*
X10979400Y-22003000D02*
X12340500Y-22003000D01*
X8573000Y-26353000D02*
X8954000Y-26353000D01*
X9843000Y-27623000D02*
X11265400Y-26200600D01*
X13907000Y-10554200D02*
X13703800Y-10351000D01*
X27623000Y-30163000D02*
X26200600Y-28740600D01*
D26*
X5118600Y-33820600D02*
X6235400Y-34937400D01*
D24*
X24503000Y-12340500D02*
X24503000Y-10837800D01*
X17615400Y-14846800D02*
X17412200Y-14846800D01*
X18987000Y-25540200D02*
X18987000Y-27649500D01*
X14110200Y-26099000D02*
X14516600Y-26505400D01*
X9843000Y-30163000D02*
X11316200Y-28689800D01*
X18503000Y-11492600D02*
X18503000Y-12340500D01*
X30163000Y-25083000D02*
X28583000Y-23503000D01*
X25489400Y-27679100D02*
X25503000Y-27665500D01*
X24503000Y-28821000D02*
X24829000Y-29147000D01*
X29591000Y-31521400D02*
X30124400Y-31521400D01*
X29705800Y-16243800D02*
X28446600Y-17503000D01*
X31382200Y-9511800D02*
X31382200Y-12941800D01*
X30163000Y-31560000D02*
X30163000Y-32703000D01*
D27*
X25503000Y-13995000D02*
X25464000Y-14034000D01*
D24*
X8471400Y-21374600D02*
X10351000Y-21374600D01*
X17627600Y-29057600D02*
X18821400Y-29057600D01*
X26593800Y-20548600D02*
X27619900Y-20548600D01*
X12340500Y-17503000D02*
X13540600Y-17503000D01*
X11134200Y-24503000D02*
X10782800Y-24854400D01*
X28893000Y-24676600D02*
X28719400Y-24503000D01*
X15003000Y-28508200D02*
X15003000Y-27665500D01*
X18694400Y-8128000D02*
X17869400Y-7303000D01*
X24067000Y-8319000D02*
X25083000Y-7303000D01*
X14003000Y-27160200D02*
X14003000Y-27665500D01*
X26187400Y-21361400D02*
X26200100Y-21374100D01*
X11265400Y-26200600D02*
X11265400Y-25692600D01*
X9843000Y-22543000D02*
X12300500Y-22543000D01*
X15177000Y-30163000D02*
X14923000Y-30163000D01*
X32613600Y-33883600D02*
X32723900Y-33993900D01*
X24003000Y-27665500D02*
X24003000Y-28957000D01*
X25540200Y-10808200D02*
X25997400Y-10808200D01*
X29096200Y-23152600D02*
X29096200Y-21120600D01*
X26085800Y-17476200D02*
X26085800Y-20040600D01*
X17503000Y-25326200D02*
X16040600Y-23863800D01*
X26099000Y-17463000D02*
X26085800Y-17476200D01*
X25997400Y-10808200D02*
X26353000Y-10452600D01*
X26211400Y-22503000D02*
X26200600Y-22492200D01*
X29096200Y-21120600D02*
X28740600Y-20765000D01*
X10351000Y-26353000D02*
X10147800Y-26353000D01*
X26454600Y-26454600D02*
X26454600Y-25184600D01*
X14821400Y-28689800D02*
X15003000Y-28508200D01*
X27665500Y-22503000D02*
X26211400Y-22503000D01*
X28588200Y-20003000D02*
X27665500Y-20003000D01*
X10782800Y-24854400D02*
X10782800Y-26048200D01*
X32703000Y-12383000D02*
X31483800Y-13602200D01*
X29045400Y-15126200D02*
X29045400Y-14364200D01*
X28446600Y-17503000D02*
X27665500Y-17503000D01*
X26085800Y-31165800D02*
X27623000Y-32703000D01*
X22543000Y-7303000D02*
X22543000Y-6109300D01*
X19190200Y-10859000D02*
X18694400Y-10363200D01*
X24003000Y-11277600D02*
X24003000Y-12340500D01*
X21003000Y-28705800D02*
X20561800Y-29147000D01*
X11316200Y-28689800D02*
X14821400Y-28689800D01*
X26988000Y-9843000D02*
X27623000Y-9843000D01*
X26085800Y-31115000D02*
X26085800Y-31165800D01*
X21120600Y-8979400D02*
X21564600Y-9423400D01*
X31192200Y-6273800D02*
X31892200Y-6273800D01*
X27665500Y-22003000D02*
X26829000Y-22003000D01*
X15003000Y-12340500D02*
X15003000Y-11243800D01*
X13602200Y-26759400D02*
X14003000Y-27160200D01*
X19241000Y-15177000D02*
X18225000Y-14161000D01*
X18072600Y-7303000D02*
X17463000Y-7303000D01*
X21019000Y-12356500D02*
X21003000Y-12340500D01*
X23000200Y-27668300D02*
X23003000Y-27665500D01*
X25083000Y-32703000D02*
X24930600Y-32703000D01*
X29197800Y-19850600D02*
X29197800Y-20561800D01*
D26*
X34481000Y-24727400D02*
X34481000Y-35090600D01*
D24*
X29197800Y-18021800D02*
X29179000Y-18003000D01*
X18770600Y-33883600D02*
X31902400Y-33883600D01*
X8674600Y-18834600D02*
X10376400Y-18834600D01*
X7303000Y-17463000D02*
X8674600Y-18834600D01*
X19452200Y-11527400D02*
X19190200Y-11265400D01*
X21003000Y-27665500D02*
X21003000Y-28705800D01*
X27665500Y-18503000D02*
X31155000Y-18503000D01*
X31433000Y-26353000D02*
X29705800Y-26353000D01*
X24503000Y-27665500D02*
X24503000Y-28821000D01*
X22543000Y-32703000D02*
X21323800Y-31483800D01*
D26*
X6235400Y-34937400D02*
X17957000Y-34937400D01*
D24*
X20066000Y-28803600D02*
X19532600Y-28803600D01*
X19190200Y-11265400D02*
X18885400Y-11265400D01*
X14503000Y-11353400D02*
X14503000Y-12340500D01*
X31902400Y-33883600D02*
X31902400Y-33070800D01*
X15939000Y-9843000D02*
X17056600Y-10960600D01*
X12340500Y-24503000D02*
X11134200Y-24503000D01*
X22543000Y-6109300D02*
X22504400Y-6070700D01*
X25594800Y-15003000D02*
X25591000Y-14999200D01*
X17463000Y-30163000D02*
X17463000Y-29222200D01*
X15685000Y-28689800D02*
X15177000Y-29197800D01*
X28668600Y-15503000D02*
X29045400Y-15126200D01*
X25083000Y-6082900D02*
X25095200Y-6070700D01*
X25053800Y-11294600D02*
X25540200Y-10808200D01*
X21564600Y-10668000D02*
X21882600Y-10986000D01*
X25003000Y-12340500D02*
X25003000Y-11294600D01*
X29108400Y-31038800D02*
X29591000Y-31521400D01*
X32703000Y-27623000D02*
X31433000Y-26353000D01*
X26200600Y-28740600D02*
X25540200Y-28740600D01*
X18948400Y-31648400D02*
X18948400Y-29820600D01*
X30671000Y-13653000D02*
X31382200Y-12941800D01*
X21488400Y-27650900D02*
X21503000Y-27665500D01*
X10947400Y-19405600D02*
X10947400Y-20294600D01*
X20561800Y-29147000D02*
X19622000Y-29147000D01*
X11290800Y-19876000D02*
X11290800Y-18910800D01*
X13703800Y-9538200D02*
X12891000Y-8725400D01*
X24003000Y-28957000D02*
X24003500Y-28957500D01*
X21019000Y-13754600D02*
X21476200Y-14211800D01*
X32723900Y-33993900D02*
X32723900Y-34696400D01*
X26085800Y-20040600D02*
X26593800Y-20548600D01*
X30163000Y-7303000D02*
X31192200Y-6273800D01*
X30163000Y-17463000D02*
X29756600Y-17463000D01*
X12340500Y-23503000D02*
X8883000Y-23503000D01*
D26*
X34481000Y-35090600D02*
X31433000Y-38138600D01*
D24*
X15177000Y-29197800D02*
X13348200Y-29197800D01*
X30010600Y-21374600D02*
X30010600Y-22390600D01*
X20503000Y-11359000D02*
X20003000Y-10859000D01*
X11155800Y-20503000D02*
X12340500Y-20503000D01*
X13535400Y-19003000D02*
X12340500Y-19003000D01*
X26517600Y-30784800D02*
X27165800Y-31433000D01*
X25438600Y-29147000D02*
X26517600Y-30226000D01*
X28079200Y-31433000D02*
X28473400Y-31038800D01*
X26099000Y-17463000D02*
X26111200Y-17475200D01*
X20257000Y-30163000D02*
X20003000Y-30163000D01*
X11455000Y-25503000D02*
X12340500Y-25503000D01*
X19532600Y-28803600D02*
X18542000Y-29794200D01*
X10300200Y-11316200D02*
X8776200Y-11316200D01*
X9843000Y-12687800D02*
X9843000Y-12383000D01*
X28583000Y-16503000D02*
X30163000Y-14923000D01*
X21488400Y-25933400D02*
X21488400Y-27650900D01*
D25*
X30937200Y-36626800D02*
X29117100Y-36626800D01*
D24*
X18021800Y-13399000D02*
X18021800Y-12359300D01*
X30163000Y-27623000D02*
X28543000Y-26003000D01*
X17056600Y-10960600D02*
X17971000Y-10960600D01*
X30163000Y-20003000D02*
X29163000Y-19003000D01*
X27623000Y-9843000D02*
X26251400Y-11214600D01*
X19444200Y-27724300D02*
X19503000Y-27665500D01*
X16503000Y-13571600D02*
X16503000Y-12340500D01*
X21120600Y-7506200D02*
X21120600Y-8979400D01*
X30010600Y-22390600D02*
X30163000Y-22543000D01*
X9843000Y-25083000D02*
X9843000Y-24727400D01*
X18542000Y-29794200D02*
X18542000Y-33655000D01*
X17003000Y-28337000D02*
X15177000Y-30163000D01*
X26212800Y-21386800D02*
X26187400Y-21386800D01*
D26*
X5474200Y-20003000D02*
X5118600Y-20358600D01*
D24*
X10376400Y-18834600D02*
X10947400Y-19405600D01*
X11113000Y-5423400D02*
X12129000Y-4407400D01*
X26187400Y-21386800D02*
X26187400Y-21361400D01*
X18821400Y-29057600D02*
X19503000Y-28376000D01*
D25*
X29032200Y-36694300D02*
X29032200Y-35814000D01*
D24*
X16078200Y-29794200D02*
X17195800Y-28676600D01*
X18021800Y-12359300D02*
X18003000Y-12340500D01*
X14516600Y-26505400D02*
X14516600Y-27651900D01*
X24981400Y-12318900D02*
X25003000Y-12340500D01*
X29705800Y-26353000D02*
X28893000Y-25540200D01*
X7303000Y-22543000D02*
X8471400Y-21374600D01*
X7303000Y-16040600D02*
X7303000Y-14923000D01*
X12027400Y-8725400D02*
X11113000Y-7811000D01*
X11113000Y-17005800D02*
X10249400Y-16142200D01*
X17503000Y-27665500D02*
X17503000Y-25326200D01*
X11417800Y-20003000D02*
X11290800Y-19876000D01*
X19503000Y-27665500D02*
X19495000Y-27673500D01*
X27665500Y-15503000D02*
X28668600Y-15503000D01*
X11113000Y-18123400D02*
X11113000Y-17005800D01*
X17615400Y-14796000D02*
X17056600Y-14796000D01*
X21882600Y-10986000D02*
X22720800Y-10986000D01*
X29163000Y-19003000D02*
X27665500Y-19003000D01*
X16503000Y-27665500D02*
X16503000Y-28278200D01*
X28740600Y-20765000D02*
X28740600Y-20155400D01*
X28893000Y-25540200D02*
X28893000Y-24676600D01*
X22003000Y-27665500D02*
X22003000Y-28417000D01*
X22503000Y-28679000D02*
X22503000Y-27665500D01*
X15503000Y-13979000D02*
X15532600Y-14008600D01*
X8954000Y-26353000D02*
X10147800Y-26353000D01*
D25*
X29040900Y-36703000D02*
X29032200Y-36694300D01*
D26*
X17957000Y-37261000D02*
X17957000Y-34937400D01*
D24*
X24067000Y-10401800D02*
X24067000Y-8319000D01*
X29045400Y-14364200D02*
X29756600Y-13653000D01*
X29705800Y-23762200D02*
X29096200Y-23152600D01*
X15003000Y-11243800D02*
X14313400Y-10554200D01*
X11290800Y-18910800D02*
X9843000Y-17463000D01*
X18694400Y-10363200D02*
X18694400Y-8128000D01*
X22003000Y-28417000D02*
X20257000Y-30163000D01*
X28719400Y-24503000D02*
X27665500Y-24503000D01*
D26*
X34481000Y-19241000D02*
X34481000Y-24727400D01*
D24*
X13540600Y-17503000D02*
X13856200Y-17818600D01*
X20503000Y-27665500D02*
X20503000Y-28392000D01*
X21503000Y-12340500D02*
X21503000Y-11343000D01*
X31155000Y-18503000D02*
X31433000Y-18225000D01*
X31433000Y-18225000D02*
X31433000Y-16599400D01*
X14923000Y-9843000D02*
X15939000Y-9843000D01*
X17195800Y-28676600D02*
X18135600Y-28676600D01*
X18542000Y-33655000D02*
X18770600Y-33883600D01*
X24003500Y-30785300D02*
X24333200Y-31115000D01*
X10567400Y-24003000D02*
X12340500Y-24003000D01*
D26*
X32703000Y-22543000D02*
X34481000Y-24321000D01*
D24*
X31382200Y-23762200D02*
X29705800Y-23762200D01*
X10527800Y-28867600D02*
X12636000Y-26759400D01*
X12340500Y-18503000D02*
X11492600Y-18503000D01*
X26829000Y-22003000D02*
X26212800Y-21386800D01*
X8776200Y-11316200D02*
X7303000Y-9843000D01*
X23635200Y-10909800D02*
X24003000Y-11277600D01*
X31902400Y-33070800D02*
X31877000Y-33045400D01*
X26353000Y-8573000D02*
X26403800Y-8522200D01*
X26139000Y-17503000D02*
X26099000Y-17463000D01*
X19503000Y-12340500D02*
X19503000Y-11527400D01*
X8883000Y-23503000D02*
X7303000Y-25083000D01*
X19241000Y-16040600D02*
X19241000Y-15177000D01*
X30124400Y-31521400D02*
X30163000Y-31560000D01*
X21503000Y-11343000D02*
X20003000Y-9843000D01*
X12340500Y-14503000D02*
X11658200Y-14503000D01*
X27165800Y-31433000D02*
X28079200Y-31433000D01*
X19503000Y-11527400D02*
X19452200Y-11527400D01*
X11492600Y-18503000D02*
X11113000Y-18123400D01*
X32703000Y-15329400D02*
X32703000Y-14923000D01*
X21564600Y-9423400D02*
X21564600Y-10668000D01*
X25540200Y-27702700D02*
X25503000Y-27665500D01*
X7303000Y-27623000D02*
X8573000Y-26353000D01*
X15532600Y-27635900D02*
X15503000Y-27665500D01*
X27708300Y-19545800D02*
X28893000Y-19545800D01*
X29756600Y-17463000D02*
X29197800Y-18021800D01*
X24829000Y-29147000D02*
X25438600Y-29147000D01*
X22543000Y-7303000D02*
X23635200Y-8395200D01*
X16078200Y-32054800D02*
X16078200Y-29794200D01*
D26*
X34481000Y-24321000D02*
X34481000Y-24727400D01*
D24*
X23000200Y-29705800D02*
X23000200Y-27668300D01*
X28543000Y-14003000D02*
X30163000Y-12383000D01*
X28893000Y-19545800D02*
X29197800Y-19850600D01*
X15532600Y-25591000D02*
X15532600Y-27635900D01*
X12300500Y-22543000D02*
X12340500Y-22503000D01*
X15503000Y-12340500D02*
X15503000Y-13979000D01*
X20003000Y-32703000D02*
X18948400Y-31648400D01*
X24333200Y-31115000D02*
X26085800Y-31115000D01*
X19003000Y-12340500D02*
X18987000Y-13754600D01*
X18503000Y-28309200D02*
X18503000Y-27665500D01*
X23503000Y-25992200D02*
X23457400Y-25946600D01*
D26*
X7303000Y-20003000D02*
X5474200Y-20003000D01*
D24*
X16497800Y-14237200D02*
X16497800Y-13576800D01*
X14003000Y-12340500D02*
X13639100Y-11976600D01*
X14516600Y-27651900D02*
X14503000Y-27665500D01*
X17463000Y-29222200D02*
X17627600Y-29057600D01*
D26*
X32703000Y-17463000D02*
X34481000Y-19241000D01*
D24*
X20917400Y-7303000D02*
X21120600Y-7506200D01*
X17869400Y-7303000D02*
X17463000Y-7303000D01*
X24003500Y-28957500D02*
X24003500Y-30785300D01*
X21323800Y-31483800D02*
X21323800Y-29858200D01*
X23635200Y-8395200D02*
X23635200Y-10909800D01*
X27665500Y-15003000D02*
X25594800Y-15003000D01*
D25*
X29032200Y-35814000D02*
X28485600Y-35267400D01*
D24*
X29179000Y-18003000D02*
X27665500Y-18003000D01*
X12891000Y-8725400D02*
X12027400Y-8725400D01*
X29197800Y-20561800D02*
X30010600Y-21374600D01*
X9843000Y-14923000D02*
X11423000Y-16503000D01*
X28740600Y-20155400D02*
X28588200Y-20003000D01*
X20003000Y-7303000D02*
X20917400Y-7303000D01*
X8598400Y-28867600D02*
X10527800Y-28867600D01*
X13348200Y-29197800D02*
X12383000Y-30163000D01*
X18885400Y-11265400D02*
X17463000Y-9843000D01*
X27623000Y-7303000D02*
X26403800Y-8522200D01*
X21323800Y-29858200D02*
X22503000Y-28679000D01*
X25503000Y-12340500D02*
X25503000Y-11455000D01*
X33792200Y-7101800D02*
X31382200Y-9511800D01*
X22543000Y-30163000D02*
X23000200Y-29705800D01*
X20503000Y-12340500D02*
X20503000Y-11359000D01*
X20503000Y-28366600D02*
X20066000Y-28803600D01*
X20003000Y-10859000D02*
X19190200Y-10859000D01*
X28583000Y-23503000D02*
X27665500Y-23503000D01*
X25540200Y-28740600D02*
X25540200Y-27702700D01*
X13703800Y-10351000D02*
X13703800Y-9538200D01*
X28473400Y-31038800D02*
X29108400Y-31038800D01*
X23503000Y-27665500D02*
X23503000Y-25992200D01*
X10782800Y-26048200D02*
X10478000Y-26353000D01*
X17463000Y-32703000D02*
X16726400Y-32703000D01*
X16497800Y-13576800D02*
X16503000Y-13571600D01*
X27665500Y-16503000D02*
X28583000Y-16503000D01*
X10960600Y-11976600D02*
X10300200Y-11316200D01*
X12351300Y-17513800D02*
X12340500Y-17503000D01*
D26*
%TO.N,GND*%
X25933400Y-9017000D02*
X25933400Y-8356600D01*
X25628600Y-8661400D02*
X25527000Y-8559800D01*
X24942800Y-9067800D02*
X24765000Y-9067800D01*
D24*
X14364200Y-23025600D02*
X14386800Y-23003000D01*
X12340500Y-23003000D02*
X14341600Y-23003000D01*
D28*
X14999200Y-38799000D02*
X15570200Y-39370000D01*
X11277600Y-27025599D02*
X11720378Y-26582821D01*
D26*
X13889200Y-19528000D02*
X13274751Y-19528000D01*
D24*
X19024600Y-8280400D02*
X19024600Y-8331200D01*
X14341600Y-23003000D02*
X14364200Y-23025600D01*
D25*
X27905900Y-36703000D02*
X27753500Y-36550600D01*
D26*
X23190200Y-8813800D02*
X22543000Y-9461000D01*
D24*
X12340500Y-26003000D02*
X13190200Y-26003000D01*
X17003000Y-13320000D02*
X17463000Y-13780000D01*
D26*
X25107400Y-9843000D02*
X25755600Y-9194800D01*
X14161000Y-19799800D02*
X13889200Y-19528000D01*
D24*
X25654000Y-16003000D02*
X25616400Y-16040600D01*
D26*
X25083000Y-9257800D02*
X25654000Y-8686800D01*
X25730200Y-8559800D02*
X25730200Y-8763000D01*
X22543000Y-9843000D02*
X22543000Y-9436600D01*
D25*
X22506200Y-35293400D02*
X24219000Y-35293400D01*
D28*
X4509000Y-7811000D02*
X4509000Y-7760200D01*
D26*
X25654000Y-8686800D02*
X25679400Y-8712200D01*
D25*
X24714200Y-35788600D02*
X24688800Y-35814000D01*
D26*
X25083000Y-9843000D02*
X25107400Y-9843000D01*
X25527000Y-8559800D02*
X25730200Y-8559800D01*
D24*
X18948400Y-7797800D02*
X19024600Y-7874000D01*
X26003000Y-27665500D02*
X26003000Y-25977600D01*
D28*
X11277600Y-27051000D02*
X11277600Y-27025599D01*
D26*
X25755600Y-9194800D02*
X25679400Y-9118600D01*
X25083000Y-8927600D02*
X24942800Y-9067800D01*
D28*
X13551400Y-37529000D02*
X13551400Y-38799000D01*
D24*
X18021800Y-24321000D02*
X18021800Y-27646700D01*
D26*
X25083000Y-9843000D02*
X25083000Y-8927600D01*
X24790400Y-8661400D02*
X25628600Y-8661400D01*
D24*
X11557000Y-12649200D02*
X11404600Y-12674600D01*
D26*
X24765000Y-9067800D02*
X24765000Y-8686800D01*
D24*
X31588900Y-34696400D02*
X29718000Y-34696400D01*
X12340500Y-26003000D02*
X12274800Y-26003000D01*
D25*
X24688800Y-35814000D02*
X24688800Y-36550600D01*
D24*
X21564600Y-8509000D02*
X21564600Y-6629400D01*
D28*
X13551400Y-38799000D02*
X14999200Y-38799000D01*
D24*
X11506200Y-12649200D02*
X11531600Y-12649200D01*
X11404600Y-12674600D02*
X11506200Y-12649200D01*
X25083000Y-25057600D02*
X25133800Y-25108400D01*
X11811000Y-26466800D02*
X11798300Y-26454100D01*
D26*
X25679400Y-9118600D02*
X24993600Y-9118600D01*
D25*
X27753500Y-36550600D02*
X24688800Y-36550600D01*
X24219000Y-35293400D02*
X24714200Y-35788600D01*
D26*
X22543000Y-9436600D02*
X21920200Y-8813800D01*
X24765000Y-8686800D02*
X24790400Y-8661400D01*
X24993600Y-9118600D02*
X24942800Y-9067800D01*
X24485600Y-9067800D02*
X24485600Y-8661400D01*
D24*
X18948400Y-7670800D02*
X18948400Y-7797800D01*
X21564600Y-6629400D02*
X21564600Y-6731000D01*
X14386800Y-23003000D02*
X14443200Y-23003000D01*
X15417800Y-14782800D02*
X14147800Y-13512800D01*
X23508200Y-14999200D02*
X23503000Y-14943200D01*
X19024600Y-7874000D02*
X19024600Y-8280400D01*
D28*
X4509000Y-4407400D02*
X4509000Y-7811000D01*
D24*
X13716000Y-13512800D02*
X12852400Y-12649200D01*
X17003000Y-12340500D02*
X17003000Y-13320000D01*
X19024600Y-8331200D02*
X19202400Y-8509000D01*
D26*
X25730200Y-8763000D02*
X25654000Y-8686800D01*
X25679400Y-9118600D02*
X25679400Y-8712200D01*
D28*
X11038021Y-27265178D02*
X11252199Y-27051000D01*
D26*
X24485600Y-9245600D02*
X24485600Y-9067800D01*
D24*
X23503000Y-12340500D02*
X23508200Y-14999200D01*
X14147800Y-13512800D02*
X13716000Y-13512800D01*
D28*
X11252199Y-27051000D02*
X11277600Y-27051000D01*
D24*
X26003000Y-25977600D02*
X25083000Y-25057600D01*
D26*
X25083000Y-9843000D02*
X25083000Y-9257800D01*
X25755600Y-9194800D02*
X25933400Y-9017000D01*
D24*
X22517600Y-16193000D02*
X22503000Y-16091400D01*
X27665500Y-16003000D02*
X25654000Y-16003000D01*
D26*
X24485600Y-8661400D02*
X24790400Y-8661400D01*
X22543000Y-9843000D02*
X22543000Y-8674600D01*
X21920200Y-8813800D02*
X23190200Y-8813800D01*
D24*
X13190200Y-26003000D02*
X14364200Y-24829000D01*
X18021800Y-27646700D02*
X18003000Y-27665500D01*
X12274800Y-26003000D02*
X11811000Y-26466800D01*
D26*
X24765000Y-9067800D02*
X24485600Y-9067800D01*
D28*
X15570200Y-39370000D02*
X15570200Y-40274200D01*
D24*
X12852400Y-12649200D02*
X11557000Y-12649200D01*
D28*
%TO.N,VCC_3*%
X21765800Y-42085800D02*
X21336000Y-41656000D01*
D24*
X20003000Y-18555200D02*
X20130000Y-18555200D01*
X20003000Y-23457400D02*
X20003000Y-22619200D01*
D26*
X20155400Y-37021000D02*
X20155400Y-35344200D01*
D24*
X26238200Y-34798000D02*
X26835600Y-34798000D01*
X25003000Y-26400000D02*
X22606000Y-24003000D01*
D28*
X20066000Y-41453200D02*
X20206200Y-41593400D01*
D24*
X25730200Y-35636200D02*
X25730200Y-35306000D01*
D28*
X20268800Y-41656000D02*
X20066000Y-41656000D01*
D24*
X20003000Y-27665500D02*
X20003000Y-23508200D01*
D28*
X21336000Y-41656000D02*
X20906200Y-42085800D01*
D24*
X20028400Y-23482800D02*
X20003000Y-23457400D01*
X29133800Y-9907000D02*
X29133800Y-5765800D01*
X26003000Y-12340500D02*
X26700300Y-12340500D01*
D25*
X15570200Y-42174200D02*
X16151000Y-41593400D01*
X16151000Y-41593400D02*
X20206200Y-41593400D01*
D24*
X25003000Y-27665500D02*
X25003000Y-26400000D01*
D26*
X20003000Y-18377400D02*
X20155400Y-18529800D01*
D24*
X20180800Y-18555200D02*
X20460200Y-18555200D01*
X15837400Y-18555200D02*
X17056600Y-18555200D01*
D28*
X20906200Y-42085800D02*
X20698600Y-42085800D01*
D24*
X23063200Y-24003000D02*
X22606000Y-24003000D01*
X20130000Y-18555200D02*
X20155400Y-18529800D01*
X20155400Y-18529800D02*
X20180800Y-18555200D01*
X20003000Y-21704800D02*
X20003000Y-22619200D01*
D26*
X20003000Y-12340500D02*
X20003000Y-18377400D01*
D24*
X20003000Y-18555200D02*
X20003000Y-21704800D01*
X14285200Y-17003000D02*
X15837400Y-18555200D01*
X29083000Y-5765800D02*
X27724600Y-4407400D01*
X24067000Y-18555200D02*
X24778200Y-17844000D01*
D28*
X20066000Y-41656000D02*
X20066000Y-41453200D01*
D24*
X17056600Y-18555200D02*
X20003000Y-18555200D01*
X12340500Y-17003000D02*
X14285200Y-17003000D01*
X24778200Y-14389600D02*
X26048200Y-13119600D01*
X20460200Y-18555200D02*
X24067000Y-18555200D01*
X26700300Y-12340500D02*
X29133800Y-9907000D01*
D28*
X20698600Y-42085800D02*
X20268800Y-41656000D01*
D24*
X27724600Y-4407400D02*
X17209000Y-4407400D01*
X27665500Y-24003000D02*
X23063200Y-24003000D01*
X17056600Y-17082000D02*
X17056600Y-18555200D01*
X25730200Y-35306000D02*
X26238200Y-34798000D01*
X20003000Y-23508200D02*
X20028400Y-23482800D01*
X29133800Y-5765800D02*
X29083000Y-5765800D01*
D26*
X20155400Y-35344200D02*
X20206200Y-35293400D01*
D24*
X20307800Y-21704800D02*
X20003000Y-21704800D01*
X12340500Y-14003000D02*
X13977600Y-14003000D01*
X22606000Y-24003000D02*
X20307800Y-21704800D01*
X24778200Y-17844000D02*
X24778200Y-14389600D01*
X13977600Y-14003000D02*
X17056600Y-17082000D01*
%TD*%
%TA.AperFunction,Conductor*%
%TO.N,GND*%
G36*
X26121146Y-34253785D02*
G01*
X26166901Y-34306589D01*
X26176845Y-34375747D01*
X26147820Y-34439303D01*
X26113123Y-34467154D01*
X26099578Y-34474484D01*
X26077754Y-34486295D01*
X26031712Y-34508803D01*
X26025766Y-34513048D01*
X26019942Y-34517581D01*
X25985242Y-34555275D01*
X25547552Y-34992964D01*
X25503848Y-35021223D01*
X25497833Y-35023504D01*
X25357962Y-35096915D01*
X25239716Y-35201671D01*
X25149981Y-35331675D01*
X25149980Y-35331676D01*
X25093962Y-35479381D01*
X25074922Y-35636199D01*
X25074922Y-35636200D01*
X25093962Y-35793018D01*
X25149980Y-35940723D01*
X25239717Y-36070730D01*
X25357960Y-36175483D01*
X25357962Y-36175484D01*
X25497834Y-36248896D01*
X25651214Y-36286700D01*
X25651215Y-36286700D01*
X25809185Y-36286700D01*
X25962565Y-36248896D01*
X25986094Y-36236547D01*
X26102440Y-36175483D01*
X26220683Y-36070730D01*
X26310420Y-35940723D01*
X26366437Y-35793018D01*
X26385478Y-35636200D01*
X26385478Y-35636199D01*
X26386382Y-35628755D01*
X26387995Y-35628950D01*
X26405163Y-35570485D01*
X26457967Y-35524730D01*
X26527125Y-35514786D01*
X26550435Y-35520483D01*
X26550901Y-35520646D01*
X26556883Y-35521207D01*
X26581330Y-35523500D01*
X26581334Y-35523500D01*
X27089870Y-35523500D01*
X27120299Y-35520646D01*
X27120301Y-35520646D01*
X27184390Y-35498219D01*
X27248482Y-35475793D01*
X27357750Y-35395150D01*
X27438393Y-35285882D01*
X27474202Y-35183546D01*
X27483246Y-35157701D01*
X27483246Y-35157699D01*
X27486100Y-35127269D01*
X27486100Y-34468730D01*
X27483246Y-34438300D01*
X27483245Y-34438298D01*
X27469514Y-34399055D01*
X27465952Y-34329276D01*
X27500680Y-34268649D01*
X27562674Y-34236421D01*
X27586555Y-34234100D01*
X27734645Y-34234100D01*
X27801684Y-34253785D01*
X27847439Y-34306589D01*
X27857383Y-34375747D01*
X27851686Y-34399055D01*
X27837954Y-34438298D01*
X27837953Y-34438300D01*
X27835100Y-34468730D01*
X27835100Y-35127269D01*
X27837953Y-35157699D01*
X27837953Y-35157701D01*
X27877729Y-35271370D01*
X27882807Y-35285882D01*
X27963450Y-35395150D01*
X28072718Y-35475793D01*
X28160188Y-35506400D01*
X28184814Y-35515017D01*
X28231540Y-35544377D01*
X28389584Y-35702421D01*
X28423069Y-35763744D01*
X28418085Y-35833436D01*
X28376213Y-35889369D01*
X28310749Y-35913786D01*
X28267308Y-35909178D01*
X28221683Y-35895922D01*
X28221677Y-35895921D01*
X28184552Y-35893000D01*
X28155900Y-35893000D01*
X28155900Y-36829000D01*
X28136215Y-36896039D01*
X28083411Y-36941794D01*
X28031900Y-36953000D01*
X27040670Y-36953000D01*
X27041321Y-36961281D01*
X27087490Y-37120194D01*
X27087492Y-37120197D01*
X27171733Y-37262642D01*
X27171739Y-37262650D01*
X27288749Y-37379660D01*
X27288758Y-37379666D01*
X27420144Y-37457368D01*
X27467827Y-37508437D01*
X27480331Y-37577179D01*
X27453686Y-37641768D01*
X27396350Y-37681698D01*
X27357023Y-37688100D01*
X20710327Y-37688100D01*
X20643288Y-37668415D01*
X20597533Y-37615611D01*
X20587589Y-37546453D01*
X20616614Y-37482897D01*
X20628100Y-37471285D01*
X20643808Y-37457368D01*
X20645883Y-37455530D01*
X20735620Y-37325523D01*
X20791637Y-37177818D01*
X20810678Y-37021000D01*
X20808408Y-37002300D01*
X20791637Y-36864181D01*
X20743310Y-36736754D01*
X20735620Y-36716477D01*
X20735619Y-36716476D01*
X20733873Y-36711871D01*
X20728506Y-36642208D01*
X20761653Y-36580702D01*
X20822792Y-36546880D01*
X20849815Y-36543900D01*
X20980876Y-36543900D01*
X20980877Y-36543899D01*
X21053940Y-36529366D01*
X21129061Y-36479172D01*
X21195739Y-36458294D01*
X21263119Y-36476779D01*
X21309809Y-36528758D01*
X21312040Y-36534011D01*
X21312849Y-36535493D01*
X21399009Y-36650587D01*
X21399012Y-36650590D01*
X21514106Y-36736750D01*
X21514113Y-36736754D01*
X21648820Y-36786996D01*
X21648827Y-36786998D01*
X21708355Y-36793399D01*
X21708372Y-36793400D01*
X22256200Y-36793400D01*
X22256200Y-35543400D01*
X22756200Y-35543400D01*
X22756200Y-36793400D01*
X23304028Y-36793400D01*
X23304044Y-36793399D01*
X23363572Y-36786998D01*
X23363579Y-36786996D01*
X23498286Y-36736754D01*
X23498293Y-36736750D01*
X23613387Y-36650590D01*
X23613390Y-36650587D01*
X23699550Y-36535493D01*
X23699554Y-36535486D01*
X23730319Y-36453000D01*
X27040670Y-36453000D01*
X27655900Y-36453000D01*
X27655900Y-35893000D01*
X27627248Y-35893000D01*
X27590122Y-35895921D01*
X27590116Y-35895922D01*
X27431205Y-35942091D01*
X27431202Y-35942092D01*
X27288757Y-36026333D01*
X27288749Y-36026339D01*
X27171739Y-36143349D01*
X27171733Y-36143357D01*
X27087492Y-36285802D01*
X27087490Y-36285805D01*
X27041321Y-36444718D01*
X27040670Y-36453000D01*
X23730319Y-36453000D01*
X23749796Y-36400779D01*
X23749798Y-36400772D01*
X23756199Y-36341244D01*
X23756200Y-36341227D01*
X23756200Y-35543400D01*
X22756200Y-35543400D01*
X22256200Y-35543400D01*
X22256200Y-35167400D01*
X22275885Y-35100361D01*
X22328689Y-35054606D01*
X22380200Y-35043400D01*
X23756200Y-35043400D01*
X23756200Y-34358100D01*
X23775885Y-34291061D01*
X23828689Y-34245306D01*
X23880200Y-34234100D01*
X26054107Y-34234100D01*
X26121146Y-34253785D01*
G37*
%TD.AperFunction*%
%TA.AperFunction,Conductor*%
G36*
X31988703Y-18111366D02*
G01*
X32003351Y-18126412D01*
X32019685Y-18146315D01*
X32166123Y-18266493D01*
X32166126Y-18266495D01*
X32166128Y-18266496D01*
X32333188Y-18355792D01*
X32333190Y-18355792D01*
X32333193Y-18355794D01*
X32514474Y-18410785D01*
X32703000Y-18429353D01*
X32891526Y-18410785D01*
X32914127Y-18403928D01*
X32983992Y-18403304D01*
X33037804Y-18434908D01*
X33267179Y-18664283D01*
X33300664Y-18725606D01*
X33295680Y-18795298D01*
X33253808Y-18851231D01*
X33188344Y-18875648D01*
X33127093Y-18864346D01*
X33118838Y-18860497D01*
X33118829Y-18860493D01*
X32914131Y-18805645D01*
X32914120Y-18805643D01*
X32703002Y-18787173D01*
X32702998Y-18787173D01*
X32491879Y-18805643D01*
X32491868Y-18805645D01*
X32287170Y-18860493D01*
X32287161Y-18860497D01*
X32095084Y-18950064D01*
X32041286Y-18987732D01*
X32041286Y-18987733D01*
X32519133Y-19465580D01*
X32552618Y-19526903D01*
X32547634Y-19596595D01*
X32505762Y-19652528D01*
X32487748Y-19663745D01*
X32464956Y-19675358D01*
X32464949Y-19675363D01*
X32375363Y-19764949D01*
X32375358Y-19764956D01*
X32363745Y-19787748D01*
X32315770Y-19838544D01*
X32247949Y-19855338D01*
X32181814Y-19832800D01*
X32165580Y-19819133D01*
X31687733Y-19341286D01*
X31687732Y-19341286D01*
X31650064Y-19395084D01*
X31560497Y-19587161D01*
X31560493Y-19587170D01*
X31505645Y-19791868D01*
X31505643Y-19791879D01*
X31487173Y-20002998D01*
X31487173Y-20003001D01*
X31505643Y-20214120D01*
X31505645Y-20214131D01*
X31560493Y-20418829D01*
X31560497Y-20418838D01*
X31650062Y-20610913D01*
X31687733Y-20664712D01*
X32165580Y-20186865D01*
X32226903Y-20153380D01*
X32296594Y-20158364D01*
X32352528Y-20200235D01*
X32363742Y-20218246D01*
X32370296Y-20231109D01*
X32375358Y-20241044D01*
X32375363Y-20241050D01*
X32464949Y-20330636D01*
X32464951Y-20330637D01*
X32464955Y-20330641D01*
X32487747Y-20342254D01*
X32538542Y-20390228D01*
X32555337Y-20458049D01*
X32532799Y-20524184D01*
X32519132Y-20540419D01*
X32041286Y-21018265D01*
X32041286Y-21018266D01*
X32095082Y-21055935D01*
X32095086Y-21055937D01*
X32287161Y-21145502D01*
X32287170Y-21145506D01*
X32491868Y-21200354D01*
X32491879Y-21200356D01*
X32702998Y-21218827D01*
X32703002Y-21218827D01*
X32914120Y-21200356D01*
X32914131Y-21200354D01*
X33118829Y-21145506D01*
X33118838Y-21145502D01*
X33310911Y-21055938D01*
X33364712Y-21018265D01*
X32886866Y-20540419D01*
X32853381Y-20479096D01*
X32858365Y-20409404D01*
X32900237Y-20353471D01*
X32918245Y-20342258D01*
X32941045Y-20330641D01*
X33030641Y-20241045D01*
X33042254Y-20218252D01*
X33090225Y-20167458D01*
X33158046Y-20150661D01*
X33224181Y-20173197D01*
X33240419Y-20186866D01*
X33718265Y-20664711D01*
X33755939Y-20610909D01*
X33794118Y-20529035D01*
X33840290Y-20476595D01*
X33907483Y-20457443D01*
X33974364Y-20477658D01*
X34019699Y-20530824D01*
X34030500Y-20581439D01*
X34030500Y-22934035D01*
X34010815Y-23001074D01*
X33958011Y-23046829D01*
X33888853Y-23056773D01*
X33825297Y-23027748D01*
X33818819Y-23021716D01*
X33674908Y-22877805D01*
X33641423Y-22816482D01*
X33643929Y-22754127D01*
X33650785Y-22731527D01*
X33659994Y-22638021D01*
X33669353Y-22543000D01*
X33650785Y-22354474D01*
X33595794Y-22173193D01*
X33595792Y-22173190D01*
X33595792Y-22173188D01*
X33506496Y-22006128D01*
X33506496Y-22006127D01*
X33454659Y-21942963D01*
X33386315Y-21859685D01*
X33239877Y-21739507D01*
X33239873Y-21739505D01*
X33239871Y-21739503D01*
X33072811Y-21650207D01*
X32891524Y-21595214D01*
X32703000Y-21576647D01*
X32514475Y-21595214D01*
X32333188Y-21650207D01*
X32166128Y-21739503D01*
X32166127Y-21739503D01*
X32019685Y-21859685D01*
X31899503Y-22006127D01*
X31899503Y-22006128D01*
X31810207Y-22173188D01*
X31755214Y-22354475D01*
X31736647Y-22543000D01*
X31755214Y-22731524D01*
X31810207Y-22912811D01*
X31899503Y-23079871D01*
X31899503Y-23079872D01*
X31899506Y-23079876D01*
X31899507Y-23079877D01*
X32019685Y-23226315D01*
X32166123Y-23346493D01*
X32166126Y-23346495D01*
X32166128Y-23346496D01*
X32333188Y-23435792D01*
X32333190Y-23435792D01*
X32333193Y-23435794D01*
X32514474Y-23490785D01*
X32703000Y-23509353D01*
X32891526Y-23490785D01*
X32914127Y-23483928D01*
X32983992Y-23483304D01*
X33037804Y-23514908D01*
X33994181Y-24471284D01*
X34027666Y-24532607D01*
X34030500Y-24558965D01*
X34030500Y-34852634D01*
X34010815Y-34919673D01*
X33994181Y-34940315D01*
X31282716Y-37651781D01*
X31221393Y-37685266D01*
X31195035Y-37688100D01*
X28454777Y-37688100D01*
X28387738Y-37668415D01*
X28341983Y-37615611D01*
X28332039Y-37546453D01*
X28361064Y-37482897D01*
X28391656Y-37457368D01*
X28523041Y-37379666D01*
X28523046Y-37379663D01*
X28616037Y-37286672D01*
X28677360Y-37253187D01*
X28723116Y-37251880D01*
X28796483Y-37263500D01*
X28796484Y-37263500D01*
X29285316Y-37263500D01*
X29380263Y-37248462D01*
X29380263Y-37248461D01*
X29380268Y-37248461D01*
X29494718Y-37190146D01*
X29585546Y-37099318D01*
X29600482Y-37070003D01*
X29648455Y-37019209D01*
X29710966Y-37002300D01*
X30340892Y-37002300D01*
X30407931Y-37021985D01*
X30442942Y-37055861D01*
X30445363Y-37059369D01*
X30446715Y-37061328D01*
X30446717Y-37061330D01*
X30564960Y-37166083D01*
X30564962Y-37166084D01*
X30704834Y-37239496D01*
X30858214Y-37277300D01*
X30858215Y-37277300D01*
X31016185Y-37277300D01*
X31169565Y-37239496D01*
X31263592Y-37190146D01*
X31309440Y-37166083D01*
X31427683Y-37061330D01*
X31517420Y-36931323D01*
X31573437Y-36783618D01*
X31592478Y-36626800D01*
X31589329Y-36600861D01*
X31573437Y-36469981D01*
X31536691Y-36373091D01*
X31517420Y-36322277D01*
X31427683Y-36192270D01*
X31309440Y-36087517D01*
X31309438Y-36087516D01*
X31309437Y-36087515D01*
X31169565Y-36014103D01*
X31016186Y-35976300D01*
X31016185Y-35976300D01*
X30858215Y-35976300D01*
X30858214Y-35976300D01*
X30704834Y-36014103D01*
X30564962Y-36087515D01*
X30446716Y-36192270D01*
X30444289Y-36195787D01*
X30442942Y-36197738D01*
X30388663Y-36241729D01*
X30340892Y-36251300D01*
X29581527Y-36251300D01*
X29514488Y-36231615D01*
X29496870Y-36217418D01*
X29494718Y-36215854D01*
X29475402Y-36206012D01*
X29424607Y-36158036D01*
X29407699Y-36095530D01*
X29407699Y-35865806D01*
X29410339Y-35840355D01*
X29412567Y-35829731D01*
X29412567Y-35829730D01*
X29408177Y-35794506D01*
X29407700Y-35786830D01*
X29407700Y-35782889D01*
X29407698Y-35782876D01*
X29403857Y-35759859D01*
X29397066Y-35705376D01*
X29397066Y-35705374D01*
X29397064Y-35705370D01*
X29394822Y-35697840D01*
X29392265Y-35690392D01*
X29392265Y-35690390D01*
X29366144Y-35642122D01*
X29342026Y-35592789D01*
X29342024Y-35592787D01*
X29342024Y-35592786D01*
X29337476Y-35586416D01*
X29332620Y-35580176D01*
X29332619Y-35580174D01*
X29292229Y-35542992D01*
X29129675Y-35380437D01*
X29096192Y-35319116D01*
X29100316Y-35251805D01*
X29133246Y-35157699D01*
X29136100Y-35127266D01*
X29136100Y-34946400D01*
X30723670Y-34946400D01*
X30724321Y-34954681D01*
X30770490Y-35113594D01*
X30770492Y-35113597D01*
X30854733Y-35256042D01*
X30854739Y-35256050D01*
X30971749Y-35373060D01*
X30971757Y-35373066D01*
X31114202Y-35457307D01*
X31114205Y-35457308D01*
X31273116Y-35503477D01*
X31273122Y-35503478D01*
X31310248Y-35506400D01*
X31338899Y-35506400D01*
X31338900Y-34946400D01*
X30723670Y-34946400D01*
X29136100Y-34946400D01*
X29136100Y-34468734D01*
X29133246Y-34438301D01*
X29130320Y-34429939D01*
X29119514Y-34399055D01*
X29115952Y-34329276D01*
X29150680Y-34268649D01*
X29212674Y-34236421D01*
X29236555Y-34234100D01*
X30618443Y-34234100D01*
X30685482Y-34253785D01*
X30731237Y-34306589D01*
X30741181Y-34375747D01*
X30737519Y-34392695D01*
X30724321Y-34438118D01*
X30723670Y-34446400D01*
X31714900Y-34446400D01*
X31781939Y-34466085D01*
X31827694Y-34518889D01*
X31838900Y-34570400D01*
X31838900Y-35506400D01*
X31867552Y-35506400D01*
X31904677Y-35503478D01*
X31904683Y-35503477D01*
X32063594Y-35457308D01*
X32063597Y-35457307D01*
X32206042Y-35373066D01*
X32206046Y-35373063D01*
X32299037Y-35280072D01*
X32360360Y-35246587D01*
X32406116Y-35245280D01*
X32479483Y-35256900D01*
X32479484Y-35256900D01*
X32968316Y-35256900D01*
X33063263Y-35241862D01*
X33063263Y-35241861D01*
X33063268Y-35241861D01*
X33177718Y-35183546D01*
X33268546Y-35092718D01*
X33326861Y-34978268D01*
X33331909Y-34946400D01*
X33341900Y-34883316D01*
X33341900Y-34509483D01*
X33326862Y-34414536D01*
X33326861Y-34414534D01*
X33326861Y-34414532D01*
X33268546Y-34300082D01*
X33177718Y-34209254D01*
X33177715Y-34209252D01*
X33177714Y-34209251D01*
X33142105Y-34191108D01*
X33091309Y-34143135D01*
X33074399Y-34080625D01*
X33074399Y-34043103D01*
X33077037Y-34017669D01*
X33078943Y-34008585D01*
X33077170Y-33994363D01*
X33074877Y-33975961D01*
X33074400Y-33968285D01*
X33074400Y-33964860D01*
X33070812Y-33943358D01*
X33069560Y-33933312D01*
X33064473Y-33892507D01*
X33064471Y-33892503D01*
X33062402Y-33885553D01*
X33062370Y-33885459D01*
X33062346Y-33885378D01*
X33059992Y-33878522D01*
X33059992Y-33878519D01*
X33035602Y-33833450D01*
X33013098Y-33787417D01*
X33013097Y-33787416D01*
X33013097Y-33787415D01*
X33008826Y-33781434D01*
X33004320Y-33775646D01*
X33004318Y-33775642D01*
X32966615Y-33740934D01*
X32896234Y-33670553D01*
X32880108Y-33650694D01*
X32875037Y-33642931D01*
X32849087Y-33622733D01*
X32843340Y-33617658D01*
X32840907Y-33615225D01*
X32840906Y-33615224D01*
X32840905Y-33615223D01*
X32832178Y-33608993D01*
X32823161Y-33602555D01*
X32782726Y-33571083D01*
X32782722Y-33571081D01*
X32776248Y-33567577D01*
X32769669Y-33564360D01*
X32720554Y-33549738D01*
X32672086Y-33533098D01*
X32664869Y-33531894D01*
X32657553Y-33530982D01*
X32608325Y-33533019D01*
X32606369Y-33533100D01*
X32566202Y-33533100D01*
X32499163Y-33513415D01*
X32453408Y-33460611D01*
X32443464Y-33391453D01*
X32454628Y-33356962D01*
X32454560Y-33356936D01*
X32455087Y-33355545D01*
X32456405Y-33351475D01*
X32457215Y-33349929D01*
X32457220Y-33349923D01*
X32513237Y-33202218D01*
X32532278Y-33045400D01*
X32528100Y-33010986D01*
X32513237Y-32888581D01*
X32491992Y-32832563D01*
X32457220Y-32740877D01*
X32367483Y-32610870D01*
X32249240Y-32506117D01*
X32249238Y-32506116D01*
X32249237Y-32506115D01*
X32109365Y-32432703D01*
X31955986Y-32394900D01*
X31955985Y-32394900D01*
X31798015Y-32394900D01*
X31798014Y-32394900D01*
X31644634Y-32432703D01*
X31504762Y-32506115D01*
X31386516Y-32610871D01*
X31345801Y-32669857D01*
X31291518Y-32713847D01*
X31222069Y-32721507D01*
X31159504Y-32690403D01*
X31123687Y-32630412D01*
X31120348Y-32611571D01*
X31110785Y-32514475D01*
X31085980Y-32432703D01*
X31055794Y-32333193D01*
X31055792Y-32333190D01*
X31055792Y-32333188D01*
X30966496Y-32166128D01*
X30966496Y-32166127D01*
X30963815Y-32162860D01*
X30846315Y-32019685D01*
X30699877Y-31899507D01*
X30699876Y-31899506D01*
X30699872Y-31899503D01*
X30699871Y-31899502D01*
X30579047Y-31834921D01*
X30529202Y-31785959D01*
X30513500Y-31725563D01*
X30513500Y-31609211D01*
X30516139Y-31583764D01*
X30518043Y-31574685D01*
X30516270Y-31560463D01*
X30513977Y-31542061D01*
X30513500Y-31534385D01*
X30513500Y-31530962D01*
X30513499Y-31530951D01*
X30511343Y-31518040D01*
X30509911Y-31509457D01*
X30503573Y-31458608D01*
X30503569Y-31458601D01*
X30501486Y-31451603D01*
X30501476Y-31451572D01*
X30501466Y-31451540D01*
X30499092Y-31444624D01*
X30499092Y-31444619D01*
X30499089Y-31444613D01*
X30474699Y-31399545D01*
X30453250Y-31355669D01*
X30452198Y-31353517D01*
X30452197Y-31353516D01*
X30447922Y-31347528D01*
X30443419Y-31341743D01*
X30443418Y-31341742D01*
X30410323Y-31311275D01*
X30390502Y-31287872D01*
X30385837Y-31280731D01*
X30385836Y-31280730D01*
X30380214Y-31272124D01*
X30382651Y-31270531D01*
X30358897Y-31222399D01*
X30366758Y-31152973D01*
X30410906Y-31098819D01*
X30445047Y-31082415D01*
X30532807Y-31055794D01*
X30699871Y-30966496D01*
X30699872Y-30966496D01*
X30699873Y-30966495D01*
X30699877Y-30966493D01*
X30846315Y-30846315D01*
X30966493Y-30699877D01*
X31031700Y-30577883D01*
X31055792Y-30532811D01*
X31055792Y-30532810D01*
X31055794Y-30532807D01*
X31110785Y-30351526D01*
X31129353Y-30163000D01*
X31736647Y-30163000D01*
X31755214Y-30351524D01*
X31810207Y-30532811D01*
X31899503Y-30699871D01*
X31899503Y-30699872D01*
X31899506Y-30699876D01*
X31899507Y-30699877D01*
X32019685Y-30846315D01*
X32166123Y-30966493D01*
X32166126Y-30966495D01*
X32166128Y-30966496D01*
X32333188Y-31055792D01*
X32333190Y-31055792D01*
X32333193Y-31055794D01*
X32514474Y-31110785D01*
X32703000Y-31129353D01*
X32891526Y-31110785D01*
X33072807Y-31055794D01*
X33105615Y-31038258D01*
X33224646Y-30974634D01*
X33239871Y-30966496D01*
X33239872Y-30966496D01*
X33239873Y-30966495D01*
X33239877Y-30966493D01*
X33386315Y-30846315D01*
X33506493Y-30699877D01*
X33571700Y-30577883D01*
X33595792Y-30532811D01*
X33595792Y-30532810D01*
X33595794Y-30532807D01*
X33650785Y-30351526D01*
X33669353Y-30163000D01*
X33650785Y-29974474D01*
X33595794Y-29793193D01*
X33595792Y-29793190D01*
X33595792Y-29793188D01*
X33506496Y-29626128D01*
X33506496Y-29626127D01*
X33506493Y-29626123D01*
X33386315Y-29479685D01*
X33239877Y-29359507D01*
X33239873Y-29359505D01*
X33239871Y-29359503D01*
X33072811Y-29270207D01*
X32891524Y-29215214D01*
X32703000Y-29196647D01*
X32514475Y-29215214D01*
X32333188Y-29270207D01*
X32166128Y-29359503D01*
X32166127Y-29359503D01*
X32019685Y-29479685D01*
X31899503Y-29626127D01*
X31899503Y-29626128D01*
X31810207Y-29793188D01*
X31755214Y-29974475D01*
X31736647Y-30163000D01*
X31129353Y-30163000D01*
X31110785Y-29974474D01*
X31055794Y-29793193D01*
X31055792Y-29793190D01*
X31055792Y-29793188D01*
X30966496Y-29626128D01*
X30966496Y-29626127D01*
X30966493Y-29626123D01*
X30846315Y-29479685D01*
X30699877Y-29359507D01*
X30699873Y-29359505D01*
X30699871Y-29359503D01*
X30532811Y-29270207D01*
X30351524Y-29215214D01*
X30163000Y-29196647D01*
X29974473Y-29215215D01*
X29843362Y-29254986D01*
X29773495Y-29255609D01*
X29719687Y-29224006D01*
X27110861Y-26615180D01*
X27077376Y-26553857D01*
X27082360Y-26484165D01*
X27124232Y-26428232D01*
X27189696Y-26403815D01*
X27198518Y-26403499D01*
X28366138Y-26403499D01*
X28377689Y-26401978D01*
X28446721Y-26412743D01*
X28481554Y-26437236D01*
X29224006Y-27179688D01*
X29257491Y-27241011D01*
X29254986Y-27303364D01*
X29215214Y-27434475D01*
X29196647Y-27623000D01*
X29215214Y-27811524D01*
X29270207Y-27992811D01*
X29359503Y-28159871D01*
X29359503Y-28159872D01*
X29359506Y-28159876D01*
X29359507Y-28159877D01*
X29479685Y-28306315D01*
X29626123Y-28426493D01*
X29626126Y-28426495D01*
X29626128Y-28426496D01*
X29793188Y-28515792D01*
X29793190Y-28515792D01*
X29793193Y-28515794D01*
X29974474Y-28570785D01*
X30163000Y-28589353D01*
X30351526Y-28570785D01*
X30532807Y-28515794D01*
X30699871Y-28426496D01*
X30699872Y-28426496D01*
X30699873Y-28426495D01*
X30699877Y-28426493D01*
X30846315Y-28306315D01*
X30966493Y-28159877D01*
X31055794Y-27992807D01*
X31110785Y-27811526D01*
X31129353Y-27623000D01*
X31110785Y-27434474D01*
X31055794Y-27253193D01*
X31055792Y-27253190D01*
X31055792Y-27253188D01*
X30966496Y-27086128D01*
X30966496Y-27086127D01*
X30866976Y-26964861D01*
X30846315Y-26939685D01*
X30846313Y-26939683D01*
X30846312Y-26939682D01*
X30826415Y-26923353D01*
X30787081Y-26865608D01*
X30785210Y-26795763D01*
X30821397Y-26735995D01*
X30884153Y-26705279D01*
X30905080Y-26703500D01*
X31236456Y-26703500D01*
X31303495Y-26723185D01*
X31324137Y-26739819D01*
X31764006Y-27179688D01*
X31797491Y-27241011D01*
X31794986Y-27303364D01*
X31755214Y-27434475D01*
X31736647Y-27622999D01*
X31755214Y-27811524D01*
X31810207Y-27992811D01*
X31899503Y-28159871D01*
X31899503Y-28159872D01*
X31899506Y-28159876D01*
X31899507Y-28159877D01*
X32019685Y-28306315D01*
X32166123Y-28426493D01*
X32166126Y-28426495D01*
X32166128Y-28426496D01*
X32333188Y-28515792D01*
X32333190Y-28515792D01*
X32333193Y-28515794D01*
X32514474Y-28570785D01*
X32703000Y-28589353D01*
X32891526Y-28570785D01*
X33072807Y-28515794D01*
X33239871Y-28426496D01*
X33239872Y-28426496D01*
X33239873Y-28426495D01*
X33239877Y-28426493D01*
X33386315Y-28306315D01*
X33506493Y-28159877D01*
X33595794Y-27992807D01*
X33650785Y-27811526D01*
X33669353Y-27623000D01*
X33650785Y-27434474D01*
X33595794Y-27253193D01*
X33595792Y-27253190D01*
X33595792Y-27253188D01*
X33506496Y-27086128D01*
X33506496Y-27086127D01*
X33415135Y-26974803D01*
X33386315Y-26939685D01*
X33239877Y-26819507D01*
X33239873Y-26819505D01*
X33239871Y-26819503D01*
X33072811Y-26730207D01*
X32891524Y-26675214D01*
X32703000Y-26656647D01*
X32514475Y-26675214D01*
X32383364Y-26714986D01*
X32313497Y-26715609D01*
X32259688Y-26684006D01*
X31715637Y-26139955D01*
X31699511Y-26120098D01*
X31694437Y-26112331D01*
X31668487Y-26092133D01*
X31662741Y-26087059D01*
X31660307Y-26084625D01*
X31660306Y-26084624D01*
X31660305Y-26084623D01*
X31653105Y-26079483D01*
X31642561Y-26071955D01*
X31602126Y-26040483D01*
X31602122Y-26040481D01*
X31595648Y-26036977D01*
X31589069Y-26033760D01*
X31539954Y-26019138D01*
X31491486Y-26002498D01*
X31484269Y-26001294D01*
X31476953Y-26000382D01*
X31427725Y-26002419D01*
X31425769Y-26002500D01*
X30905080Y-26002500D01*
X30838041Y-25982815D01*
X30792286Y-25930011D01*
X30782342Y-25860853D01*
X30811367Y-25797297D01*
X30826415Y-25782647D01*
X30837389Y-25773640D01*
X30846315Y-25766315D01*
X30966493Y-25619877D01*
X31035799Y-25490215D01*
X31055792Y-25452811D01*
X31055792Y-25452810D01*
X31055794Y-25452807D01*
X31110785Y-25271526D01*
X31129353Y-25083000D01*
X31110785Y-24894474D01*
X31055794Y-24713193D01*
X31055792Y-24713190D01*
X31055792Y-24713188D01*
X30966496Y-24546128D01*
X30966496Y-24546127D01*
X30957476Y-24535136D01*
X30846315Y-24399685D01*
X30846313Y-24399683D01*
X30846312Y-24399682D01*
X30764515Y-24332553D01*
X30725181Y-24274808D01*
X30723310Y-24204963D01*
X30759497Y-24145195D01*
X30822253Y-24114479D01*
X30843180Y-24112700D01*
X31185656Y-24112700D01*
X31252695Y-24132385D01*
X31273337Y-24149019D01*
X31764006Y-24639688D01*
X31797491Y-24701011D01*
X31794986Y-24763364D01*
X31755214Y-24894475D01*
X31736647Y-25083000D01*
X31755214Y-25271524D01*
X31810207Y-25452811D01*
X31899503Y-25619871D01*
X31899503Y-25619872D01*
X31899506Y-25619876D01*
X31899507Y-25619877D01*
X32019685Y-25766315D01*
X32166123Y-25886493D01*
X32166126Y-25886495D01*
X32166128Y-25886496D01*
X32333188Y-25975792D01*
X32333190Y-25975792D01*
X32333193Y-25975794D01*
X32514474Y-26030785D01*
X32703000Y-26049353D01*
X32891526Y-26030785D01*
X33072807Y-25975794D01*
X33083638Y-25970005D01*
X33208961Y-25903018D01*
X33239871Y-25886496D01*
X33239872Y-25886496D01*
X33239873Y-25886495D01*
X33239877Y-25886493D01*
X33386315Y-25766315D01*
X33506493Y-25619877D01*
X33575799Y-25490215D01*
X33595792Y-25452811D01*
X33595792Y-25452810D01*
X33595794Y-25452807D01*
X33650785Y-25271526D01*
X33669353Y-25083000D01*
X33650785Y-24894474D01*
X33595794Y-24713193D01*
X33595792Y-24713190D01*
X33595792Y-24713188D01*
X33506496Y-24546128D01*
X33506496Y-24546127D01*
X33497476Y-24535136D01*
X33386315Y-24399685D01*
X33239877Y-24279507D01*
X33239873Y-24279505D01*
X33239871Y-24279503D01*
X33072811Y-24190207D01*
X32891524Y-24135214D01*
X32703000Y-24116647D01*
X32514475Y-24135214D01*
X32383364Y-24174986D01*
X32313497Y-24175609D01*
X32259688Y-24144006D01*
X31664837Y-23549155D01*
X31648711Y-23529298D01*
X31643637Y-23521531D01*
X31617687Y-23501333D01*
X31611941Y-23496259D01*
X31609507Y-23493825D01*
X31609506Y-23493824D01*
X31609505Y-23493823D01*
X31601483Y-23488096D01*
X31591761Y-23481155D01*
X31551326Y-23449683D01*
X31551322Y-23449681D01*
X31544848Y-23446177D01*
X31538269Y-23442960D01*
X31489154Y-23428338D01*
X31440686Y-23411698D01*
X31433469Y-23410494D01*
X31426153Y-23409582D01*
X31376925Y-23411619D01*
X31374969Y-23411700D01*
X30956350Y-23411700D01*
X30889311Y-23392015D01*
X30843556Y-23339211D01*
X30833612Y-23270053D01*
X30860496Y-23209036D01*
X30906893Y-23152500D01*
X30966493Y-23079877D01*
X31055794Y-22912807D01*
X31110785Y-22731526D01*
X31129353Y-22543000D01*
X31110785Y-22354474D01*
X31055794Y-22173193D01*
X31055792Y-22173190D01*
X31055792Y-22173188D01*
X30966496Y-22006128D01*
X30966496Y-22006127D01*
X30914659Y-21942963D01*
X30846315Y-21859685D01*
X30699877Y-21739507D01*
X30699873Y-21739505D01*
X30699871Y-21739503D01*
X30532808Y-21650206D01*
X30449103Y-21624814D01*
X30390665Y-21586517D01*
X30362208Y-21522704D01*
X30361099Y-21506161D01*
X30361099Y-21423811D01*
X30363739Y-21398361D01*
X30365643Y-21389285D01*
X30363356Y-21370938D01*
X30361577Y-21356661D01*
X30361100Y-21348985D01*
X30361100Y-21345560D01*
X30357512Y-21324058D01*
X30355308Y-21306381D01*
X30351173Y-21273207D01*
X30351171Y-21273203D01*
X30349102Y-21266253D01*
X30349070Y-21266159D01*
X30349044Y-21266072D01*
X30346691Y-21259217D01*
X30322304Y-21214155D01*
X30299799Y-21168118D01*
X30295519Y-21162124D01*
X30284707Y-21148233D01*
X30286058Y-21147181D01*
X30285771Y-21146642D01*
X30287575Y-21145679D01*
X30261664Y-21102556D01*
X30263770Y-21032718D01*
X30303300Y-20975105D01*
X30346428Y-20954963D01*
X30345697Y-20952553D01*
X30351524Y-20950785D01*
X30351526Y-20950785D01*
X30532807Y-20895794D01*
X30699871Y-20806496D01*
X30699872Y-20806496D01*
X30699873Y-20806495D01*
X30699877Y-20806493D01*
X30846315Y-20686315D01*
X30966493Y-20539877D01*
X31022960Y-20434235D01*
X31055792Y-20372811D01*
X31055792Y-20372810D01*
X31055794Y-20372807D01*
X31110785Y-20191526D01*
X31129353Y-20003000D01*
X31110785Y-19814474D01*
X31055794Y-19633193D01*
X31055792Y-19633190D01*
X31055792Y-19633188D01*
X30966496Y-19466128D01*
X30966496Y-19466127D01*
X30952140Y-19448634D01*
X30846315Y-19319685D01*
X30699877Y-19199507D01*
X30699873Y-19199505D01*
X30699871Y-19199503D01*
X30532811Y-19110207D01*
X30508979Y-19102978D01*
X30486503Y-19096159D01*
X30428066Y-19057863D01*
X30399610Y-18994051D01*
X30410170Y-18924984D01*
X30456394Y-18872590D01*
X30522500Y-18853500D01*
X31105789Y-18853500D01*
X31131234Y-18856138D01*
X31140315Y-18858043D01*
X31156005Y-18856087D01*
X31172939Y-18853977D01*
X31180615Y-18853500D01*
X31184035Y-18853500D01*
X31184040Y-18853500D01*
X31187608Y-18852904D01*
X31205539Y-18849913D01*
X31234789Y-18846266D01*
X31256393Y-18843573D01*
X31256402Y-18843568D01*
X31263451Y-18841470D01*
X31270377Y-18839092D01*
X31270381Y-18839092D01*
X31315444Y-18814704D01*
X31361484Y-18792198D01*
X31361487Y-18792194D01*
X31367453Y-18787935D01*
X31373254Y-18783419D01*
X31373258Y-18783418D01*
X31407957Y-18745724D01*
X31646046Y-18507634D01*
X31665902Y-18491511D01*
X31673669Y-18486437D01*
X31693873Y-18460477D01*
X31698941Y-18454739D01*
X31701375Y-18452307D01*
X31714044Y-18434562D01*
X31745517Y-18394126D01*
X31745518Y-18394120D01*
X31749017Y-18387656D01*
X31752235Y-18381071D01*
X31752239Y-18381067D01*
X31766858Y-18331962D01*
X31783500Y-18283488D01*
X31783500Y-18283481D01*
X31784706Y-18276256D01*
X31785617Y-18268952D01*
X31783500Y-18217770D01*
X31783500Y-18205079D01*
X31803185Y-18138040D01*
X31855989Y-18092285D01*
X31925147Y-18082341D01*
X31988703Y-18111366D01*
G37*
%TD.AperFunction*%
%TA.AperFunction,Conductor*%
G36*
X20940805Y-30759496D02*
G01*
X20971521Y-30822252D01*
X20973300Y-30843179D01*
X20973300Y-31434588D01*
X20970661Y-31460032D01*
X20968757Y-31469111D01*
X20968757Y-31469117D01*
X20972823Y-31501737D01*
X20973300Y-31509414D01*
X20973300Y-31512838D01*
X20976887Y-31534341D01*
X20983227Y-31585193D01*
X20985320Y-31592226D01*
X20987708Y-31599181D01*
X21012095Y-31644244D01*
X21034601Y-31690283D01*
X21038865Y-31696255D01*
X21043380Y-31702056D01*
X21081075Y-31736758D01*
X21604006Y-32259688D01*
X21637491Y-32321011D01*
X21634986Y-32383364D01*
X21595214Y-32514475D01*
X21576647Y-32702999D01*
X21595214Y-32891524D01*
X21650207Y-33072811D01*
X21739503Y-33239871D01*
X21739507Y-33239877D01*
X21813826Y-33330436D01*
X21841138Y-33394746D01*
X21829347Y-33463613D01*
X21782194Y-33515173D01*
X21717972Y-33533100D01*
X20828028Y-33533100D01*
X20760989Y-33513415D01*
X20715234Y-33460611D01*
X20705290Y-33391453D01*
X20732174Y-33330436D01*
X20757072Y-33300095D01*
X20806493Y-33239877D01*
X20895794Y-33072807D01*
X20950785Y-32891526D01*
X20969353Y-32703000D01*
X20950785Y-32514474D01*
X20895794Y-32333193D01*
X20895792Y-32333190D01*
X20895792Y-32333188D01*
X20806496Y-32166128D01*
X20806496Y-32166127D01*
X20803815Y-32162860D01*
X20686315Y-32019685D01*
X20539877Y-31899507D01*
X20539873Y-31899505D01*
X20539871Y-31899503D01*
X20372811Y-31810207D01*
X20191524Y-31755214D01*
X20003000Y-31736647D01*
X19814473Y-31755215D01*
X19683362Y-31794986D01*
X19613495Y-31795609D01*
X19559687Y-31764006D01*
X19335219Y-31539537D01*
X19301734Y-31478214D01*
X19298900Y-31451856D01*
X19298900Y-31083992D01*
X19318585Y-31016953D01*
X19371389Y-30971198D01*
X19440547Y-30961254D01*
X19481353Y-30974634D01*
X19633188Y-31055792D01*
X19633190Y-31055792D01*
X19633193Y-31055794D01*
X19814474Y-31110785D01*
X20003000Y-31129353D01*
X20191526Y-31110785D01*
X20372807Y-31055794D01*
X20405615Y-31038258D01*
X20524646Y-30974634D01*
X20539871Y-30966496D01*
X20539872Y-30966496D01*
X20539873Y-30966495D01*
X20539877Y-30966493D01*
X20686315Y-30846315D01*
X20753446Y-30764514D01*
X20811192Y-30725180D01*
X20881036Y-30723309D01*
X20940805Y-30759496D01*
G37*
%TD.AperFunction*%
%TA.AperFunction,Conductor*%
G36*
X23602421Y-30521553D02*
G01*
X23644790Y-30577110D01*
X23653000Y-30621479D01*
X23653000Y-30736088D01*
X23650361Y-30761532D01*
X23648457Y-30770611D01*
X23648457Y-30770617D01*
X23652523Y-30803237D01*
X23653000Y-30810914D01*
X23653000Y-30814340D01*
X23654109Y-30820988D01*
X23656587Y-30835841D01*
X23662927Y-30886693D01*
X23665020Y-30893726D01*
X23667408Y-30900681D01*
X23691795Y-30945744D01*
X23714301Y-30991783D01*
X23718565Y-30997755D01*
X23723080Y-31003556D01*
X23760775Y-31038258D01*
X24050562Y-31328044D01*
X24066686Y-31347899D01*
X24071763Y-31355669D01*
X24097708Y-31375862D01*
X24103460Y-31380942D01*
X24105893Y-31383375D01*
X24105896Y-31383377D01*
X24105897Y-31383378D01*
X24123634Y-31396041D01*
X24164074Y-31427517D01*
X24164076Y-31427517D01*
X24170448Y-31430966D01*
X24170505Y-31430994D01*
X24170578Y-31431033D01*
X24177129Y-31434235D01*
X24177134Y-31434239D01*
X24226233Y-31448856D01*
X24274712Y-31465500D01*
X24274720Y-31465500D01*
X24281905Y-31466699D01*
X24281938Y-31466704D01*
X24281992Y-31466713D01*
X24289246Y-31467617D01*
X24340431Y-31465500D01*
X25838456Y-31465500D01*
X25905495Y-31485185D01*
X25926137Y-31501819D01*
X26684006Y-32259688D01*
X26717491Y-32321011D01*
X26714986Y-32383364D01*
X26675214Y-32514475D01*
X26656647Y-32702999D01*
X26675214Y-32891524D01*
X26730207Y-33072811D01*
X26819503Y-33239871D01*
X26819507Y-33239877D01*
X26893826Y-33330436D01*
X26921138Y-33394746D01*
X26909347Y-33463613D01*
X26862194Y-33515173D01*
X26797972Y-33533100D01*
X25908028Y-33533100D01*
X25840989Y-33513415D01*
X25795234Y-33460611D01*
X25785290Y-33391453D01*
X25812174Y-33330436D01*
X25837072Y-33300095D01*
X25886493Y-33239877D01*
X25975794Y-33072807D01*
X26030785Y-32891526D01*
X26049353Y-32703000D01*
X26030785Y-32514474D01*
X25975794Y-32333193D01*
X25975792Y-32333190D01*
X25975792Y-32333188D01*
X25886496Y-32166128D01*
X25886496Y-32166127D01*
X25883815Y-32162860D01*
X25766315Y-32019685D01*
X25619877Y-31899507D01*
X25619873Y-31899505D01*
X25619871Y-31899503D01*
X25452811Y-31810207D01*
X25271524Y-31755214D01*
X25083000Y-31736647D01*
X24894475Y-31755214D01*
X24713188Y-31810207D01*
X24546128Y-31899503D01*
X24546127Y-31899503D01*
X24399685Y-32019685D01*
X24279503Y-32166127D01*
X24279503Y-32166128D01*
X24190207Y-32333188D01*
X24135214Y-32514475D01*
X24116647Y-32703000D01*
X24135214Y-32891524D01*
X24190207Y-33072811D01*
X24279503Y-33239871D01*
X24279507Y-33239877D01*
X24353826Y-33330436D01*
X24381138Y-33394746D01*
X24369347Y-33463613D01*
X24322194Y-33515173D01*
X24257972Y-33533100D01*
X23368028Y-33533100D01*
X23300989Y-33513415D01*
X23255234Y-33460611D01*
X23245290Y-33391453D01*
X23272174Y-33330436D01*
X23297072Y-33300095D01*
X23346493Y-33239877D01*
X23435794Y-33072807D01*
X23490785Y-32891526D01*
X23509353Y-32703000D01*
X23490785Y-32514474D01*
X23435794Y-32333193D01*
X23435792Y-32333190D01*
X23435792Y-32333188D01*
X23346496Y-32166128D01*
X23346496Y-32166127D01*
X23343815Y-32162860D01*
X23226315Y-32019685D01*
X23079877Y-31899507D01*
X23079873Y-31899505D01*
X23079871Y-31899503D01*
X22912811Y-31810207D01*
X22731524Y-31755214D01*
X22543000Y-31736647D01*
X22354475Y-31755214D01*
X22223364Y-31794986D01*
X22153497Y-31795609D01*
X22099688Y-31764006D01*
X21710619Y-31374937D01*
X21677134Y-31313614D01*
X21674300Y-31287256D01*
X21674300Y-30956349D01*
X21693985Y-30889310D01*
X21746789Y-30843555D01*
X21815947Y-30833611D01*
X21876965Y-30860496D01*
X22006121Y-30966492D01*
X22006128Y-30966496D01*
X22173188Y-31055792D01*
X22173190Y-31055792D01*
X22173193Y-31055794D01*
X22354474Y-31110785D01*
X22543000Y-31129353D01*
X22731526Y-31110785D01*
X22912807Y-31055794D01*
X22945615Y-31038258D01*
X23064646Y-30974634D01*
X23079871Y-30966496D01*
X23079872Y-30966496D01*
X23079873Y-30966495D01*
X23079877Y-30966493D01*
X23226315Y-30846315D01*
X23346493Y-30699877D01*
X23388398Y-30621479D01*
X23419642Y-30563026D01*
X23468604Y-30513182D01*
X23536742Y-30497721D01*
X23602421Y-30521553D01*
G37*
%TD.AperFunction*%
%TA.AperFunction,Conductor*%
G36*
X28978895Y-31408985D02*
G01*
X28999537Y-31425619D01*
X29308362Y-31734444D01*
X29324486Y-31754299D01*
X29325085Y-31755215D01*
X29329563Y-31762069D01*
X29329565Y-31762071D01*
X29355505Y-31782260D01*
X29361268Y-31787350D01*
X29363693Y-31789775D01*
X29363695Y-31789777D01*
X29370991Y-31794986D01*
X29381437Y-31802444D01*
X29421874Y-31833917D01*
X29421878Y-31833918D01*
X29428314Y-31837400D01*
X29428339Y-31837413D01*
X29428372Y-31837431D01*
X29430895Y-31838665D01*
X29431249Y-31838988D01*
X29433608Y-31840265D01*
X29440285Y-31844447D01*
X29443588Y-31846820D01*
X29442093Y-31848900D01*
X29482469Y-31885802D01*
X29500372Y-31953340D01*
X29478919Y-32019834D01*
X29472269Y-32028720D01*
X29359507Y-32166122D01*
X29359503Y-32166128D01*
X29270207Y-32333188D01*
X29215214Y-32514475D01*
X29196647Y-32703000D01*
X29215214Y-32891524D01*
X29270207Y-33072811D01*
X29359503Y-33239871D01*
X29359507Y-33239877D01*
X29433826Y-33330436D01*
X29461138Y-33394746D01*
X29449347Y-33463613D01*
X29402194Y-33515173D01*
X29337972Y-33533100D01*
X28448028Y-33533100D01*
X28380989Y-33513415D01*
X28335234Y-33460611D01*
X28325290Y-33391453D01*
X28352174Y-33330436D01*
X28377072Y-33300095D01*
X28426493Y-33239877D01*
X28515794Y-33072807D01*
X28570785Y-32891526D01*
X28589353Y-32703000D01*
X28570785Y-32514474D01*
X28515794Y-32333193D01*
X28515792Y-32333190D01*
X28515792Y-32333188D01*
X28426496Y-32166128D01*
X28426496Y-32166127D01*
X28423815Y-32162860D01*
X28306315Y-32019685D01*
X28306313Y-32019683D01*
X28306312Y-32019682D01*
X28220672Y-31949399D01*
X28181338Y-31891654D01*
X28179467Y-31821809D01*
X28215655Y-31762041D01*
X28244875Y-31742146D01*
X28285684Y-31722198D01*
X28285687Y-31722194D01*
X28291653Y-31717935D01*
X28297454Y-31713419D01*
X28297458Y-31713418D01*
X28332157Y-31675724D01*
X28582262Y-31425619D01*
X28643586Y-31392134D01*
X28669944Y-31389300D01*
X28911856Y-31389300D01*
X28978895Y-31408985D01*
G37*
%TD.AperFunction*%
%TA.AperFunction,Conductor*%
G36*
X16633902Y-30669390D02*
G01*
X16654873Y-30695643D01*
X16656121Y-30694810D01*
X16659503Y-30699872D01*
X16659506Y-30699876D01*
X16659507Y-30699877D01*
X16779685Y-30846315D01*
X16926123Y-30966493D01*
X16926126Y-30966495D01*
X16926128Y-30966496D01*
X17093188Y-31055792D01*
X17093190Y-31055792D01*
X17093193Y-31055794D01*
X17274474Y-31110785D01*
X17463000Y-31129353D01*
X17651526Y-31110785D01*
X17832807Y-31055794D01*
X17832811Y-31055792D01*
X18005250Y-30963622D01*
X18006002Y-30965029D01*
X18065266Y-30946462D01*
X18132649Y-30964936D01*
X18179348Y-31016907D01*
X18191500Y-31070442D01*
X18191500Y-31795557D01*
X18171815Y-31862596D01*
X18119011Y-31908351D01*
X18049853Y-31918295D01*
X18005770Y-31901403D01*
X18005250Y-31902378D01*
X17832811Y-31810207D01*
X17651524Y-31755214D01*
X17463000Y-31736647D01*
X17274475Y-31755214D01*
X17093188Y-31810207D01*
X16926128Y-31899503D01*
X16926127Y-31899503D01*
X16779683Y-32019686D01*
X16757881Y-32046252D01*
X16700134Y-32085585D01*
X16630289Y-32087454D01*
X16574348Y-32055266D01*
X16465018Y-31945936D01*
X16431533Y-31884613D01*
X16428699Y-31858264D01*
X16428699Y-30763101D01*
X16448384Y-30696064D01*
X16501188Y-30650309D01*
X16570346Y-30640365D01*
X16633902Y-30669390D01*
G37*
%TD.AperFunction*%
%TA.AperFunction,Conductor*%
G36*
X26620539Y-24373185D02*
G01*
X26666294Y-24425989D01*
X26677500Y-24477500D01*
X26677500Y-24535136D01*
X26657815Y-24602175D01*
X26605011Y-24647930D01*
X26568842Y-24658183D01*
X26534806Y-24662426D01*
X26527775Y-24664519D01*
X26520823Y-24666906D01*
X26475755Y-24691295D01*
X26429712Y-24713803D01*
X26423766Y-24718048D01*
X26417942Y-24722581D01*
X26383242Y-24760275D01*
X26241555Y-24901962D01*
X26221706Y-24918082D01*
X26213931Y-24923162D01*
X26193743Y-24949098D01*
X26188667Y-24954848D01*
X26186234Y-24957281D01*
X26186223Y-24957294D01*
X26173554Y-24975038D01*
X26142083Y-25015472D01*
X26138575Y-25021953D01*
X26135360Y-25028532D01*
X26120738Y-25077645D01*
X26104099Y-25126113D01*
X26102890Y-25133351D01*
X26101982Y-25140641D01*
X26104100Y-25191830D01*
X26104099Y-26405390D01*
X26101461Y-26430833D01*
X26099392Y-26440698D01*
X26100048Y-26443853D01*
X26103623Y-26472537D01*
X26104100Y-26480214D01*
X26104100Y-26483638D01*
X26107687Y-26505141D01*
X26114027Y-26555993D01*
X26116120Y-26563026D01*
X26118508Y-26569981D01*
X26137465Y-26605011D01*
X26138055Y-26606100D01*
X26153000Y-26665117D01*
X26153000Y-27515500D01*
X26653000Y-27515500D01*
X26653000Y-27448044D01*
X26672685Y-27381005D01*
X26725489Y-27335250D01*
X26794647Y-27325306D01*
X26858203Y-27354331D01*
X26864681Y-27360363D01*
X29224006Y-29719688D01*
X29257491Y-29781011D01*
X29254986Y-29843364D01*
X29215214Y-29974475D01*
X29196647Y-30162999D01*
X29215214Y-30351524D01*
X29268201Y-30526198D01*
X29268824Y-30596065D01*
X29231576Y-30655178D01*
X29168282Y-30684769D01*
X29154665Y-30686087D01*
X29105991Y-30688100D01*
X29101169Y-30688300D01*
X28635820Y-30688300D01*
X28568781Y-30668615D01*
X28523026Y-30615811D01*
X28513082Y-30546653D01*
X28517156Y-30528315D01*
X28570785Y-30351526D01*
X28589353Y-30163000D01*
X28570785Y-29974474D01*
X28515794Y-29793193D01*
X28515792Y-29793190D01*
X28515792Y-29793188D01*
X28426496Y-29626128D01*
X28426496Y-29626127D01*
X28426493Y-29626123D01*
X28306315Y-29479685D01*
X28159877Y-29359507D01*
X28159873Y-29359505D01*
X28159871Y-29359503D01*
X27992811Y-29270207D01*
X27811524Y-29215214D01*
X27623000Y-29196647D01*
X27434475Y-29215214D01*
X27303364Y-29254986D01*
X27233497Y-29255609D01*
X27179688Y-29224006D01*
X26636915Y-28681233D01*
X26603430Y-28619910D01*
X26608414Y-28550218D01*
X26610035Y-28546098D01*
X26638200Y-28478102D01*
X26652999Y-28365697D01*
X26653000Y-28365683D01*
X26653000Y-27815500D01*
X26027500Y-27815500D01*
X25960461Y-27795815D01*
X25914706Y-27743011D01*
X25903500Y-27691500D01*
X25903499Y-26964867D01*
X25903499Y-26964862D01*
X25897259Y-26917455D01*
X25890617Y-26903211D01*
X25864618Y-26847454D01*
X25853000Y-26795050D01*
X25853000Y-26459193D01*
X25858020Y-26442095D01*
X25855278Y-26434909D01*
X25852999Y-26432911D01*
X25777896Y-26442800D01*
X25777891Y-26442801D01*
X25638020Y-26500736D01*
X25638018Y-26500738D01*
X25552986Y-26565986D01*
X25487817Y-26591180D01*
X25419372Y-26577142D01*
X25369383Y-26528328D01*
X25353500Y-26467617D01*
X25353500Y-26459193D01*
X25353500Y-26449208D01*
X25356137Y-26423771D01*
X25358043Y-26414685D01*
X25355871Y-26397259D01*
X25353977Y-26382061D01*
X25353500Y-26374385D01*
X25353500Y-26370960D01*
X25349912Y-26349458D01*
X25344689Y-26307562D01*
X25343573Y-26298607D01*
X25343571Y-26298603D01*
X25341502Y-26291653D01*
X25341470Y-26291559D01*
X25341444Y-26291472D01*
X25339091Y-26284617D01*
X25314704Y-26239555D01*
X25292199Y-26193518D01*
X25287919Y-26187524D01*
X25283419Y-26181743D01*
X25245724Y-26147041D01*
X23663863Y-24565181D01*
X23630378Y-24503858D01*
X23635362Y-24434166D01*
X23677234Y-24378233D01*
X23742698Y-24353816D01*
X23751544Y-24353500D01*
X26553500Y-24353500D01*
X26620539Y-24373185D01*
G37*
%TD.AperFunction*%
%TA.AperFunction,Conductor*%
G36*
X11455779Y-26608414D02*
G01*
X11459897Y-26610035D01*
X11527891Y-26638198D01*
X11527895Y-26638199D01*
X11640302Y-26652999D01*
X11640317Y-26653000D01*
X11947355Y-26653000D01*
X12014394Y-26672685D01*
X12060149Y-26725489D01*
X12070093Y-26794647D01*
X12041068Y-26858203D01*
X12035036Y-26864681D01*
X11003345Y-27896372D01*
X10942022Y-27929857D01*
X10872330Y-27924873D01*
X10816397Y-27883001D01*
X10791980Y-27817537D01*
X10792261Y-27796537D01*
X10802606Y-27691500D01*
X10809353Y-27623000D01*
X10790785Y-27434474D01*
X10751012Y-27303363D01*
X10750389Y-27233497D01*
X10781989Y-27179691D01*
X11324768Y-26636912D01*
X11386087Y-26603430D01*
X11455779Y-26608414D01*
G37*
%TD.AperFunction*%
%TA.AperFunction,Conductor*%
G36*
X15445390Y-18665707D02*
G01*
X15473049Y-18686531D01*
X15554762Y-18768244D01*
X15570886Y-18788099D01*
X15575963Y-18795869D01*
X15601908Y-18816062D01*
X15607660Y-18821142D01*
X15610093Y-18823575D01*
X15627834Y-18836241D01*
X15668274Y-18867717D01*
X15668276Y-18867717D01*
X15674648Y-18871166D01*
X15674705Y-18871194D01*
X15674778Y-18871233D01*
X15681329Y-18874435D01*
X15681334Y-18874439D01*
X15730433Y-18889056D01*
X15778912Y-18905700D01*
X15778920Y-18905700D01*
X15786105Y-18906899D01*
X15786138Y-18906904D01*
X15786192Y-18906913D01*
X15793446Y-18907817D01*
X15844631Y-18905700D01*
X16998112Y-18905700D01*
X17039539Y-18905700D01*
X17044660Y-18905912D01*
X17071772Y-18908157D01*
X17085944Y-18909332D01*
X17085944Y-18909331D01*
X17085948Y-18909332D01*
X17087903Y-18909170D01*
X17115743Y-18905700D01*
X19406968Y-18905700D01*
X19474007Y-18925385D01*
X19509020Y-18959263D01*
X19512518Y-18964331D01*
X19519440Y-18970463D01*
X19610726Y-19051335D01*
X19647853Y-19110523D01*
X19652500Y-19144150D01*
X19652500Y-21687737D01*
X19652288Y-21692858D01*
X19648868Y-21734145D01*
X19649029Y-21736103D01*
X19652500Y-21763943D01*
X19652500Y-22890950D01*
X19632815Y-22957989D01*
X19610727Y-22983765D01*
X19537918Y-23048268D01*
X19448181Y-23178275D01*
X19448180Y-23178276D01*
X19392162Y-23325981D01*
X19373122Y-23482799D01*
X19373122Y-23482800D01*
X19392162Y-23639618D01*
X19428839Y-23736326D01*
X19448180Y-23787323D01*
X19475976Y-23827594D01*
X19537917Y-23917331D01*
X19610726Y-23981832D01*
X19647853Y-24041021D01*
X19652500Y-24074648D01*
X19652500Y-24985205D01*
X19632815Y-25052244D01*
X19580011Y-25097999D01*
X19510853Y-25107943D01*
X19447297Y-25078918D01*
X19446273Y-25078021D01*
X19440879Y-25073242D01*
X19359240Y-25000917D01*
X19359238Y-25000916D01*
X19359237Y-25000915D01*
X19219365Y-24927503D01*
X19065986Y-24889700D01*
X19065985Y-24889700D01*
X18908015Y-24889700D01*
X18908014Y-24889700D01*
X18754634Y-24927503D01*
X18614762Y-25000915D01*
X18496516Y-25105671D01*
X18406781Y-25235675D01*
X18406780Y-25235676D01*
X18350762Y-25383381D01*
X18331722Y-25540199D01*
X18331722Y-25540200D01*
X18350762Y-25697018D01*
X18406780Y-25844723D01*
X18406781Y-25844724D01*
X18496517Y-25974731D01*
X18546644Y-26019138D01*
X18594726Y-26061735D01*
X18631853Y-26120923D01*
X18636500Y-26154550D01*
X18636500Y-26455333D01*
X18616815Y-26522372D01*
X18564011Y-26568127D01*
X18494853Y-26578071D01*
X18437013Y-26553709D01*
X18367978Y-26500736D01*
X18228108Y-26442801D01*
X18228103Y-26442800D01*
X18153000Y-26432911D01*
X18153000Y-26795050D01*
X18141381Y-26847456D01*
X18115380Y-26903213D01*
X18069207Y-26955652D01*
X18002013Y-26974803D01*
X17935132Y-26954586D01*
X17890618Y-26903213D01*
X17865116Y-26848524D01*
X17853500Y-26796123D01*
X17853500Y-25375411D01*
X17856139Y-25349964D01*
X17858043Y-25340885D01*
X17856270Y-25326663D01*
X17853977Y-25308261D01*
X17853500Y-25300585D01*
X17853500Y-25297160D01*
X17849912Y-25275658D01*
X17847087Y-25253000D01*
X17843573Y-25224807D01*
X17843571Y-25224803D01*
X17841502Y-25217853D01*
X17841470Y-25217759D01*
X17841444Y-25217672D01*
X17839091Y-25210817D01*
X17814704Y-25165755D01*
X17792199Y-25119718D01*
X17787919Y-25113724D01*
X17783419Y-25107943D01*
X17745724Y-25073241D01*
X16721289Y-24048807D01*
X16687804Y-23987484D01*
X16685874Y-23946184D01*
X16695878Y-23863800D01*
X16676837Y-23706982D01*
X16620820Y-23559277D01*
X16531083Y-23429270D01*
X16412840Y-23324517D01*
X16412838Y-23324516D01*
X16412837Y-23324515D01*
X16272965Y-23251103D01*
X16119586Y-23213300D01*
X16119585Y-23213300D01*
X15961615Y-23213300D01*
X15961614Y-23213300D01*
X15808234Y-23251103D01*
X15668362Y-23324515D01*
X15550116Y-23429271D01*
X15460381Y-23559275D01*
X15460380Y-23559276D01*
X15404362Y-23706981D01*
X15385322Y-23863799D01*
X15385322Y-23863800D01*
X15404362Y-24020618D01*
X15447823Y-24135214D01*
X15460380Y-24168323D01*
X15550117Y-24298330D01*
X15668360Y-24403083D01*
X15668362Y-24403084D01*
X15808234Y-24476496D01*
X15961614Y-24514300D01*
X15961615Y-24514300D01*
X16119586Y-24514300D01*
X16127031Y-24513396D01*
X16127437Y-24516741D01*
X16182059Y-24519021D01*
X16229875Y-24548757D01*
X17116181Y-25435062D01*
X17149666Y-25496385D01*
X17152500Y-25522743D01*
X17152500Y-26553500D01*
X17132815Y-26620539D01*
X17080011Y-26666294D01*
X17028501Y-26677500D01*
X16889868Y-26677500D01*
X16883100Y-26678391D01*
X16842455Y-26683741D01*
X16842453Y-26683742D01*
X16842451Y-26683742D01*
X16805403Y-26701018D01*
X16736325Y-26711509D01*
X16700596Y-26701018D01*
X16682099Y-26692393D01*
X16663545Y-26683741D01*
X16663541Y-26683740D01*
X16616140Y-26677500D01*
X16389868Y-26677500D01*
X16383100Y-26678391D01*
X16342455Y-26683741D01*
X16342453Y-26683742D01*
X16342451Y-26683742D01*
X16305403Y-26701018D01*
X16236325Y-26711509D01*
X16200596Y-26701018D01*
X16182099Y-26692393D01*
X16163545Y-26683741D01*
X16163541Y-26683740D01*
X16116140Y-26677500D01*
X16007099Y-26677500D01*
X15940060Y-26657815D01*
X15894305Y-26605011D01*
X15883099Y-26553503D01*
X15883099Y-26205350D01*
X15902784Y-26138312D01*
X15924871Y-26112537D01*
X16006204Y-26040483D01*
X16023082Y-26025531D01*
X16029034Y-26016908D01*
X16112820Y-25895523D01*
X16168837Y-25747818D01*
X16187878Y-25591000D01*
X16176692Y-25498870D01*
X16168837Y-25434181D01*
X16136897Y-25349964D01*
X16112820Y-25286477D01*
X16023083Y-25156470D01*
X15904840Y-25051717D01*
X15904838Y-25051716D01*
X15904837Y-25051715D01*
X15764965Y-24978303D01*
X15611586Y-24940500D01*
X15611585Y-24940500D01*
X15453615Y-24940500D01*
X15453614Y-24940500D01*
X15300234Y-24978303D01*
X15160362Y-25051715D01*
X15125048Y-25083000D01*
X15059985Y-25140641D01*
X15042116Y-25156471D01*
X14952381Y-25286475D01*
X14952380Y-25286476D01*
X14896362Y-25434181D01*
X14877322Y-25590999D01*
X14877322Y-25591001D01*
X14886557Y-25667066D01*
X14875096Y-25735989D01*
X14828192Y-25787775D01*
X14760736Y-25805981D01*
X14694145Y-25784828D01*
X14661411Y-25752450D01*
X14600685Y-25664472D01*
X14590685Y-25655613D01*
X14482440Y-25559717D01*
X14482438Y-25559716D01*
X14482437Y-25559715D01*
X14342565Y-25486303D01*
X14189186Y-25448500D01*
X14189185Y-25448500D01*
X14031215Y-25448500D01*
X14031214Y-25448500D01*
X13877834Y-25486303D01*
X13737962Y-25559714D01*
X13663261Y-25625893D01*
X13600027Y-25655613D01*
X13530764Y-25646429D01*
X13482660Y-25608563D01*
X13413095Y-25517905D01*
X13377010Y-25490215D01*
X13335809Y-25433786D01*
X13328859Y-25393908D01*
X13328765Y-25393915D01*
X13328707Y-25393037D01*
X13328499Y-25391841D01*
X13328499Y-25389867D01*
X13328499Y-25389862D01*
X13322259Y-25342455D01*
X13304982Y-25305404D01*
X13294490Y-25236326D01*
X13304980Y-25200599D01*
X13322259Y-25163545D01*
X13328500Y-25116139D01*
X13328499Y-24889862D01*
X13322259Y-24842455D01*
X13304982Y-24805404D01*
X13294490Y-24736326D01*
X13304980Y-24700599D01*
X13322259Y-24663545D01*
X13328500Y-24616139D01*
X13328499Y-24389862D01*
X13322259Y-24342455D01*
X13304982Y-24305404D01*
X13294490Y-24236326D01*
X13304980Y-24200599D01*
X13322259Y-24163545D01*
X13328500Y-24116139D01*
X13328499Y-23889862D01*
X13322259Y-23842455D01*
X13304982Y-23805404D01*
X13294490Y-23736326D01*
X13304980Y-23700599D01*
X13322259Y-23663545D01*
X13328500Y-23616139D01*
X13328499Y-23614174D01*
X13328665Y-23613611D01*
X13328765Y-23612088D01*
X13329105Y-23612110D01*
X13348172Y-23547135D01*
X13377015Y-23515780D01*
X13413094Y-23488096D01*
X13505261Y-23367981D01*
X13505263Y-23367979D01*
X13563198Y-23228108D01*
X13563199Y-23228103D01*
X13573088Y-23153000D01*
X13210948Y-23153000D01*
X13158544Y-23141382D01*
X13102785Y-23115381D01*
X13050347Y-23069210D01*
X13031195Y-23002016D01*
X13051411Y-22935135D01*
X13102785Y-22890618D01*
X13158544Y-22864617D01*
X13210948Y-22853000D01*
X13573088Y-22853000D01*
X13573088Y-22852999D01*
X13563199Y-22777896D01*
X13563198Y-22777891D01*
X13505263Y-22638021D01*
X13413093Y-22517903D01*
X13377010Y-22490215D01*
X13335809Y-22433786D01*
X13328859Y-22393908D01*
X13328765Y-22393915D01*
X13328707Y-22393037D01*
X13328499Y-22391841D01*
X13328499Y-22389867D01*
X13328499Y-22389862D01*
X13322259Y-22342455D01*
X13304982Y-22305404D01*
X13294490Y-22236326D01*
X13304980Y-22200599D01*
X13322259Y-22163545D01*
X13328500Y-22116139D01*
X13328499Y-21889862D01*
X13322259Y-21842455D01*
X13304982Y-21805404D01*
X13294490Y-21736326D01*
X13304980Y-21700599D01*
X13322259Y-21663545D01*
X13328500Y-21616139D01*
X13328499Y-21389862D01*
X13322259Y-21342455D01*
X13313680Y-21324058D01*
X13304982Y-21305404D01*
X13294490Y-21236326D01*
X13304980Y-21200599D01*
X13322259Y-21163545D01*
X13328500Y-21116139D01*
X13328499Y-20889862D01*
X13322259Y-20842455D01*
X13305491Y-20806496D01*
X13304982Y-20805404D01*
X13294490Y-20736326D01*
X13304980Y-20700599D01*
X13322259Y-20663545D01*
X13328500Y-20616139D01*
X13328499Y-20389862D01*
X13322259Y-20342455D01*
X13304982Y-20305404D01*
X13294490Y-20236326D01*
X13304980Y-20200599D01*
X13322259Y-20163545D01*
X13328500Y-20116139D01*
X13328499Y-20114174D01*
X13328665Y-20113611D01*
X13328765Y-20112088D01*
X13329105Y-20112110D01*
X13348172Y-20047135D01*
X13377015Y-20015780D01*
X13413094Y-19988096D01*
X13505261Y-19867981D01*
X13505263Y-19867979D01*
X13563198Y-19728108D01*
X13563199Y-19728103D01*
X13573088Y-19653000D01*
X13210948Y-19653000D01*
X13158544Y-19641382D01*
X13102785Y-19615381D01*
X13050347Y-19569210D01*
X13031195Y-19502016D01*
X13051411Y-19435135D01*
X13102785Y-19390618D01*
X13157471Y-19365117D01*
X13209876Y-19353500D01*
X13486189Y-19353500D01*
X13511634Y-19356138D01*
X13520715Y-19358043D01*
X13536405Y-19356087D01*
X13553339Y-19353977D01*
X13561015Y-19353500D01*
X13564441Y-19353500D01*
X13567920Y-19353212D01*
X13573041Y-19353000D01*
X13596722Y-19353000D01*
X13602440Y-19349371D01*
X13621355Y-19345497D01*
X13636793Y-19343573D01*
X13636799Y-19343569D01*
X13643851Y-19341470D01*
X13650777Y-19339092D01*
X13650781Y-19339092D01*
X13695844Y-19314704D01*
X13741884Y-19292198D01*
X13741889Y-19292192D01*
X13747846Y-19287939D01*
X13753647Y-19283423D01*
X13753658Y-19283418D01*
X13788357Y-19245723D01*
X14065245Y-18968834D01*
X14126564Y-18935352D01*
X14196256Y-18940336D01*
X14235149Y-18963702D01*
X14296759Y-19018282D01*
X14296761Y-19018284D01*
X14436634Y-19091696D01*
X14590014Y-19129500D01*
X14590015Y-19129500D01*
X14747985Y-19129500D01*
X14901365Y-19091696D01*
X14903585Y-19090531D01*
X15041240Y-19018283D01*
X15159483Y-18913530D01*
X15249220Y-18783523D01*
X15269428Y-18730237D01*
X15311603Y-18674539D01*
X15377200Y-18650481D01*
X15445390Y-18665707D01*
G37*
%TD.AperFunction*%
%TA.AperFunction,Conductor*%
G36*
X20558703Y-22451831D02*
G01*
X20565181Y-22457863D01*
X22323362Y-24216044D01*
X22339486Y-24235899D01*
X22344563Y-24243669D01*
X22370508Y-24263862D01*
X22376260Y-24268942D01*
X22820264Y-24712946D01*
X23247649Y-25140331D01*
X23281134Y-25201654D01*
X23276150Y-25271346D01*
X23234278Y-25327279D01*
X23217595Y-25337808D01*
X23085161Y-25407316D01*
X23085159Y-25407317D01*
X23085160Y-25407317D01*
X22991587Y-25490215D01*
X22966916Y-25512071D01*
X22877181Y-25642075D01*
X22877180Y-25642076D01*
X22821162Y-25789781D01*
X22802122Y-25946599D01*
X22802122Y-25946600D01*
X22821162Y-26103418D01*
X22859821Y-26205351D01*
X22877180Y-26251123D01*
X22902042Y-26287142D01*
X22966917Y-26381131D01*
X23056716Y-26460684D01*
X23093843Y-26519873D01*
X23093077Y-26589739D01*
X23054659Y-26648099D01*
X22990789Y-26676424D01*
X22974491Y-26677500D01*
X22889868Y-26677500D01*
X22883100Y-26678391D01*
X22842455Y-26683741D01*
X22842453Y-26683742D01*
X22842451Y-26683742D01*
X22805403Y-26701018D01*
X22736325Y-26711509D01*
X22700596Y-26701018D01*
X22682099Y-26692393D01*
X22663545Y-26683741D01*
X22663541Y-26683740D01*
X22616140Y-26677500D01*
X22389868Y-26677500D01*
X22383100Y-26678391D01*
X22342455Y-26683741D01*
X22342453Y-26683742D01*
X22342451Y-26683742D01*
X22305403Y-26701018D01*
X22236325Y-26711509D01*
X22200596Y-26701018D01*
X22182099Y-26692393D01*
X22163545Y-26683741D01*
X22163541Y-26683740D01*
X22116140Y-26677500D01*
X21962900Y-26677500D01*
X21895861Y-26657815D01*
X21850106Y-26605011D01*
X21838900Y-26553500D01*
X21838900Y-26547750D01*
X21858585Y-26480711D01*
X21880671Y-26454936D01*
X21978883Y-26367930D01*
X22068620Y-26237923D01*
X22124637Y-26090218D01*
X22143678Y-25933400D01*
X22140251Y-25905171D01*
X22124637Y-25776581D01*
X22082119Y-25664472D01*
X22068620Y-25628877D01*
X21978883Y-25498870D01*
X21860640Y-25394117D01*
X21860638Y-25394116D01*
X21860637Y-25394115D01*
X21720765Y-25320703D01*
X21567386Y-25282900D01*
X21567385Y-25282900D01*
X21409415Y-25282900D01*
X21409414Y-25282900D01*
X21256034Y-25320703D01*
X21116162Y-25394115D01*
X20997916Y-25498871D01*
X20908181Y-25628875D01*
X20908180Y-25628876D01*
X20852162Y-25776581D01*
X20833122Y-25933399D01*
X20833122Y-25933400D01*
X20852162Y-26090218D01*
X20895827Y-26205351D01*
X20908180Y-26237923D01*
X20917665Y-26251664D01*
X20997917Y-26367931D01*
X21050693Y-26414685D01*
X21096126Y-26454935D01*
X21133253Y-26514123D01*
X21137900Y-26547750D01*
X21137900Y-26553500D01*
X21118215Y-26620539D01*
X21065411Y-26666294D01*
X21013901Y-26677500D01*
X20889868Y-26677500D01*
X20883100Y-26678391D01*
X20842455Y-26683741D01*
X20842453Y-26683742D01*
X20842451Y-26683742D01*
X20805403Y-26701018D01*
X20736325Y-26711509D01*
X20700596Y-26701018D01*
X20682099Y-26692393D01*
X20663545Y-26683741D01*
X20663541Y-26683740D01*
X20616140Y-26677500D01*
X20477500Y-26677500D01*
X20410461Y-26657815D01*
X20364706Y-26605011D01*
X20353500Y-26553500D01*
X20353500Y-24119653D01*
X20373185Y-24052614D01*
X20395273Y-24026837D01*
X20400637Y-24022084D01*
X20400640Y-24022083D01*
X20518883Y-23917330D01*
X20608620Y-23787323D01*
X20664637Y-23639618D01*
X20683678Y-23482800D01*
X20683479Y-23481156D01*
X20664637Y-23325981D01*
X20636959Y-23253000D01*
X20608620Y-23178277D01*
X20518883Y-23048270D01*
X20488909Y-23021716D01*
X20395273Y-22938762D01*
X20358146Y-22879572D01*
X20353500Y-22845946D01*
X20353500Y-22545544D01*
X20373185Y-22478505D01*
X20425989Y-22432750D01*
X20495147Y-22422806D01*
X20558703Y-22451831D01*
G37*
%TD.AperFunction*%
%TA.AperFunction,Conductor*%
G36*
X26534649Y-15373185D02*
G01*
X26580404Y-15425989D01*
X26590348Y-15495147D01*
X26565986Y-15552986D01*
X26500738Y-15638018D01*
X26500736Y-15638020D01*
X26442801Y-15777891D01*
X26442800Y-15777896D01*
X26432911Y-15852999D01*
X26432912Y-15853000D01*
X26795052Y-15853000D01*
X26847452Y-15864616D01*
X26903215Y-15890618D01*
X26955652Y-15936789D01*
X26974804Y-16003982D01*
X26954589Y-16070863D01*
X26903215Y-16115380D01*
X26847459Y-16141381D01*
X26795052Y-16153000D01*
X26432912Y-16153000D01*
X26442800Y-16228103D01*
X26442801Y-16228108D01*
X26500736Y-16367978D01*
X26592907Y-16488096D01*
X26628987Y-16515782D01*
X26670189Y-16572210D01*
X26677143Y-16612091D01*
X26677235Y-16612086D01*
X26677290Y-16612935D01*
X26677500Y-16614136D01*
X26677500Y-16616137D01*
X26682287Y-16652500D01*
X26683741Y-16663545D01*
X26701018Y-16700596D01*
X26711509Y-16769673D01*
X26701018Y-16805402D01*
X26683742Y-16842451D01*
X26683740Y-16842458D01*
X26682428Y-16852425D01*
X26654160Y-16916321D01*
X26595834Y-16954791D01*
X26525969Y-16955621D01*
X26477262Y-16929052D01*
X26471240Y-16923717D01*
X26471237Y-16923714D01*
X26331365Y-16850303D01*
X26177986Y-16812500D01*
X26177985Y-16812500D01*
X26020015Y-16812500D01*
X26020014Y-16812500D01*
X25866634Y-16850303D01*
X25726762Y-16923715D01*
X25608516Y-17028471D01*
X25518781Y-17158475D01*
X25518780Y-17158476D01*
X25462762Y-17306181D01*
X25443722Y-17462999D01*
X25443722Y-17463000D01*
X25462762Y-17619818D01*
X25510333Y-17745250D01*
X25518780Y-17767523D01*
X25608517Y-17897530D01*
X25693527Y-17972842D01*
X25730654Y-18032031D01*
X25735300Y-18065657D01*
X25735300Y-19991388D01*
X25732661Y-20016832D01*
X25730757Y-20025911D01*
X25730757Y-20025917D01*
X25734823Y-20058537D01*
X25735300Y-20066214D01*
X25735300Y-20069638D01*
X25738887Y-20091141D01*
X25745227Y-20141993D01*
X25747320Y-20149026D01*
X25749708Y-20155981D01*
X25774095Y-20201044D01*
X25796601Y-20247083D01*
X25800865Y-20253055D01*
X25805380Y-20258856D01*
X25843075Y-20293558D01*
X26095275Y-20545757D01*
X26128760Y-20607080D01*
X26123776Y-20676771D01*
X26081905Y-20732705D01*
X26037269Y-20753835D01*
X25955033Y-20774104D01*
X25815162Y-20847515D01*
X25696916Y-20952271D01*
X25607181Y-21082275D01*
X25607180Y-21082276D01*
X25551162Y-21229981D01*
X25532122Y-21386799D01*
X25532122Y-21386800D01*
X25551162Y-21543618D01*
X25591586Y-21650206D01*
X25607180Y-21691323D01*
X25649753Y-21753000D01*
X25696918Y-21821331D01*
X25732136Y-21852532D01*
X25769263Y-21911721D01*
X25768495Y-21981587D01*
X25732137Y-22038162D01*
X25710116Y-22057670D01*
X25620381Y-22187675D01*
X25620380Y-22187676D01*
X25564362Y-22335381D01*
X25545322Y-22492199D01*
X25545322Y-22492200D01*
X25564362Y-22649018D01*
X25609327Y-22767579D01*
X25620380Y-22796723D01*
X25710117Y-22926730D01*
X25828360Y-23031483D01*
X25828362Y-23031484D01*
X25968234Y-23104896D01*
X26121614Y-23142700D01*
X26121615Y-23142700D01*
X26279585Y-23142700D01*
X26432965Y-23104896D01*
X26502944Y-23068167D01*
X26571450Y-23054442D01*
X26636504Y-23079934D01*
X26677448Y-23136549D01*
X26683507Y-23161773D01*
X26683739Y-23163536D01*
X26683741Y-23163545D01*
X26701018Y-23200596D01*
X26711509Y-23269673D01*
X26701018Y-23305402D01*
X26683742Y-23342451D01*
X26683740Y-23342458D01*
X26677500Y-23389859D01*
X26677500Y-23389861D01*
X26677500Y-23501343D01*
X26677501Y-23528499D01*
X26657817Y-23595539D01*
X26605013Y-23641294D01*
X26553501Y-23652500D01*
X23676764Y-23652500D01*
X23609725Y-23632815D01*
X23574713Y-23598938D01*
X23553684Y-23568471D01*
X23543304Y-23559275D01*
X23435440Y-23463717D01*
X23435438Y-23463716D01*
X23435437Y-23463715D01*
X23295565Y-23390303D01*
X23142186Y-23352500D01*
X23142185Y-23352500D01*
X22984215Y-23352500D01*
X22984214Y-23352500D01*
X22830837Y-23390303D01*
X22687438Y-23465565D01*
X22618929Y-23479290D01*
X22553876Y-23453797D01*
X22542131Y-23443449D01*
X20590437Y-21491755D01*
X20574311Y-21471898D01*
X20569237Y-21464131D01*
X20543287Y-21443933D01*
X20537541Y-21438859D01*
X20535107Y-21436425D01*
X20535106Y-21436424D01*
X20535105Y-21436423D01*
X20528648Y-21431813D01*
X20517361Y-21423755D01*
X20476926Y-21392283D01*
X20476922Y-21392281D01*
X20470448Y-21388777D01*
X20463870Y-21385561D01*
X20455023Y-21382927D01*
X20442116Y-21379084D01*
X20383481Y-21341089D01*
X20354696Y-21277424D01*
X20353500Y-21260240D01*
X20353500Y-19144150D01*
X20373185Y-19077111D01*
X20395271Y-19051336D01*
X20493483Y-18964330D01*
X20496981Y-18959262D01*
X20551262Y-18915271D01*
X20599032Y-18905700D01*
X24017789Y-18905700D01*
X24043234Y-18908338D01*
X24052315Y-18910243D01*
X24068005Y-18908287D01*
X24084939Y-18906177D01*
X24092615Y-18905700D01*
X24096035Y-18905700D01*
X24096040Y-18905700D01*
X24099608Y-18905104D01*
X24117539Y-18902113D01*
X24144958Y-18898694D01*
X24168393Y-18895773D01*
X24168402Y-18895768D01*
X24175451Y-18893670D01*
X24182377Y-18891292D01*
X24182381Y-18891292D01*
X24227444Y-18866904D01*
X24273484Y-18844398D01*
X24273487Y-18844394D01*
X24279453Y-18840135D01*
X24285254Y-18835619D01*
X24285258Y-18835618D01*
X24319957Y-18797924D01*
X24991246Y-18126634D01*
X25011102Y-18110511D01*
X25018869Y-18105437D01*
X25039073Y-18079477D01*
X25044141Y-18073739D01*
X25046576Y-18071306D01*
X25050609Y-18065657D01*
X25059248Y-18053558D01*
X25090713Y-18013131D01*
X25090712Y-18013131D01*
X25090717Y-18013126D01*
X25090719Y-18013119D01*
X25094182Y-18006718D01*
X25094221Y-18006640D01*
X25094263Y-18006561D01*
X25097435Y-18000072D01*
X25097440Y-18000066D01*
X25112061Y-17950954D01*
X25128700Y-17902488D01*
X25128700Y-17902479D01*
X25129906Y-17895258D01*
X25130817Y-17887951D01*
X25128700Y-17836758D01*
X25128700Y-15696337D01*
X25148385Y-15629298D01*
X25201189Y-15583543D01*
X25270347Y-15573599D01*
X25310323Y-15586539D01*
X25358635Y-15611896D01*
X25421352Y-15627354D01*
X25512014Y-15649700D01*
X25512015Y-15649700D01*
X25669985Y-15649700D01*
X25823365Y-15611896D01*
X25823364Y-15611895D01*
X25963240Y-15538483D01*
X26081483Y-15433730D01*
X26099892Y-15407059D01*
X26154175Y-15363070D01*
X26201942Y-15353500D01*
X26467610Y-15353500D01*
X26534649Y-15373185D01*
G37*
%TD.AperFunction*%
%TA.AperFunction,Conductor*%
G36*
X11561752Y-22913185D02*
G01*
X11607507Y-22965989D01*
X11617451Y-23035147D01*
X11588426Y-23098703D01*
X11547120Y-23129881D01*
X11523527Y-23140882D01*
X11471124Y-23152500D01*
X10814557Y-23152500D01*
X10747518Y-23132815D01*
X10701763Y-23080011D01*
X10691819Y-23010853D01*
X10705200Y-22970044D01*
X10711080Y-22959044D01*
X10760044Y-22909201D01*
X10820437Y-22893500D01*
X11494713Y-22893500D01*
X11561752Y-22913185D01*
G37*
%TD.AperFunction*%
%TA.AperFunction,Conductor*%
G36*
X9229859Y-16512385D02*
G01*
X9275614Y-16565189D01*
X9285558Y-16634347D01*
X9256533Y-16697903D01*
X9241485Y-16712553D01*
X9159687Y-16779682D01*
X9039503Y-16926127D01*
X9039503Y-16926128D01*
X8950207Y-17093188D01*
X8895214Y-17274475D01*
X8876647Y-17463000D01*
X8895214Y-17651524D01*
X8950207Y-17832811D01*
X9039503Y-17999871D01*
X9039503Y-17999872D01*
X9039506Y-17999876D01*
X9039507Y-17999877D01*
X9159684Y-18146314D01*
X9159687Y-18146317D01*
X9303385Y-18264246D01*
X9342720Y-18321992D01*
X9344591Y-18391837D01*
X9308404Y-18451605D01*
X9245648Y-18482321D01*
X9224721Y-18484100D01*
X8871144Y-18484100D01*
X8804105Y-18464415D01*
X8783463Y-18447781D01*
X8241993Y-17906311D01*
X8208508Y-17844988D01*
X8211012Y-17782637D01*
X8250785Y-17651526D01*
X8269353Y-17463000D01*
X8250785Y-17274474D01*
X8195794Y-17093193D01*
X8195792Y-17093190D01*
X8195792Y-17093188D01*
X8106496Y-16926128D01*
X8106496Y-16926127D01*
X8102745Y-16921556D01*
X7986315Y-16779685D01*
X7986313Y-16779683D01*
X7986312Y-16779682D01*
X7904515Y-16712553D01*
X7865181Y-16654808D01*
X7863310Y-16584963D01*
X7899497Y-16525195D01*
X7962253Y-16494479D01*
X7983180Y-16492700D01*
X9162820Y-16492700D01*
X9229859Y-16512385D01*
G37*
%TD.AperFunction*%
%TA.AperFunction,Conductor*%
G36*
X13848095Y-14373185D02*
G01*
X13868737Y-14389819D01*
X16669781Y-17190863D01*
X16703266Y-17252186D01*
X16706100Y-17278544D01*
X16706100Y-18080700D01*
X16686415Y-18147739D01*
X16633611Y-18193494D01*
X16582100Y-18204700D01*
X16033944Y-18204700D01*
X15966905Y-18185015D01*
X15946263Y-18168381D01*
X14567837Y-16789955D01*
X14551711Y-16770098D01*
X14546637Y-16762331D01*
X14520687Y-16742133D01*
X14514941Y-16737059D01*
X14512507Y-16734625D01*
X14512506Y-16734624D01*
X14512505Y-16734623D01*
X14506048Y-16730013D01*
X14494761Y-16721955D01*
X14454326Y-16690483D01*
X14454322Y-16690481D01*
X14447848Y-16686977D01*
X14441269Y-16683760D01*
X14392154Y-16669138D01*
X14343686Y-16652498D01*
X14336469Y-16651294D01*
X14329153Y-16650382D01*
X14279925Y-16652419D01*
X14277969Y-16652500D01*
X13452500Y-16652500D01*
X13385461Y-16632815D01*
X13339706Y-16580011D01*
X13328500Y-16528501D01*
X13328499Y-16389867D01*
X13328499Y-16389862D01*
X13322259Y-16342455D01*
X13304982Y-16305404D01*
X13294490Y-16236326D01*
X13304980Y-16200599D01*
X13322259Y-16163545D01*
X13328500Y-16116139D01*
X13328499Y-15889862D01*
X13322259Y-15842455D01*
X13317462Y-15832169D01*
X13304982Y-15805404D01*
X13294490Y-15736326D01*
X13304980Y-15700599D01*
X13322259Y-15663545D01*
X13328500Y-15616139D01*
X13328499Y-15389862D01*
X13322259Y-15342455D01*
X13317462Y-15332169D01*
X13304982Y-15305404D01*
X13294490Y-15236326D01*
X13304980Y-15200599D01*
X13322259Y-15163545D01*
X13328500Y-15116139D01*
X13328499Y-14889862D01*
X13322259Y-14842455D01*
X13317462Y-14832169D01*
X13304982Y-14805404D01*
X13294490Y-14736326D01*
X13304980Y-14700599D01*
X13322259Y-14663545D01*
X13328500Y-14616139D01*
X13328499Y-14477499D01*
X13348183Y-14410461D01*
X13400987Y-14364706D01*
X13452499Y-14353500D01*
X13781056Y-14353500D01*
X13848095Y-14373185D01*
G37*
%TD.AperFunction*%
%TA.AperFunction,Conductor*%
G36*
X16151464Y-14407516D02*
G01*
X16209827Y-14445928D01*
X16213085Y-14449938D01*
X16217380Y-14455456D01*
X16255075Y-14490158D01*
X16773962Y-15009044D01*
X16790089Y-15028902D01*
X16795163Y-15036669D01*
X16795165Y-15036671D01*
X16821105Y-15056860D01*
X16826868Y-15061950D01*
X16829294Y-15064376D01*
X16847041Y-15077047D01*
X16887474Y-15108517D01*
X16887475Y-15108517D01*
X16887476Y-15108518D01*
X16893918Y-15112004D01*
X16900529Y-15115236D01*
X16900534Y-15115240D01*
X16949652Y-15129863D01*
X16998112Y-15146500D01*
X16998113Y-15146500D01*
X17005348Y-15147707D01*
X17005369Y-15147710D01*
X17005387Y-15147713D01*
X17018478Y-15149345D01*
X17082569Y-15177170D01*
X17105192Y-15201953D01*
X17124915Y-15230528D01*
X17124917Y-15230530D01*
X17243160Y-15335283D01*
X17243162Y-15335284D01*
X17383034Y-15408696D01*
X17536414Y-15446500D01*
X17536415Y-15446500D01*
X17694385Y-15446500D01*
X17847765Y-15408696D01*
X17883640Y-15389867D01*
X17987640Y-15335283D01*
X18105883Y-15230530D01*
X18195620Y-15100523D01*
X18251637Y-14952818D01*
X18251637Y-14952813D01*
X18252311Y-14950083D01*
X18253353Y-14948291D01*
X18254297Y-14945805D01*
X18254710Y-14945961D01*
X18287465Y-14889701D01*
X18349683Y-14857910D01*
X18419212Y-14864803D01*
X18460390Y-14892072D01*
X18854182Y-15285864D01*
X18887666Y-15347185D01*
X18890500Y-15373543D01*
X18890500Y-15426249D01*
X18870815Y-15493288D01*
X18848728Y-15519062D01*
X18805594Y-15557277D01*
X18750516Y-15606071D01*
X18660781Y-15736075D01*
X18660780Y-15736076D01*
X18604762Y-15883781D01*
X18585722Y-16040599D01*
X18585722Y-16040600D01*
X18604762Y-16197418D01*
X18655026Y-16329950D01*
X18660780Y-16345123D01*
X18750517Y-16475130D01*
X18868760Y-16579883D01*
X18868762Y-16579884D01*
X19008634Y-16653296D01*
X19162014Y-16691100D01*
X19162015Y-16691100D01*
X19319985Y-16691100D01*
X19398825Y-16671668D01*
X19468628Y-16674737D01*
X19525690Y-16715057D01*
X19551895Y-16779827D01*
X19552500Y-16792065D01*
X19552500Y-18004040D01*
X19532815Y-18071079D01*
X19517153Y-18089356D01*
X19517491Y-18089656D01*
X19512515Y-18095272D01*
X19473953Y-18151140D01*
X19419670Y-18195130D01*
X19371903Y-18204700D01*
X17531100Y-18204700D01*
X17464061Y-18185015D01*
X17418306Y-18132211D01*
X17407100Y-18080700D01*
X17407100Y-17131212D01*
X17409739Y-17105765D01*
X17411643Y-17096686D01*
X17409870Y-17082464D01*
X17407577Y-17064062D01*
X17407100Y-17056386D01*
X17407100Y-17052962D01*
X17407099Y-17052951D01*
X17403511Y-17031456D01*
X17397173Y-16980610D01*
X17397173Y-16980608D01*
X17397171Y-16980604D01*
X17395086Y-16973603D01*
X17395076Y-16973572D01*
X17395066Y-16973540D01*
X17392692Y-16966624D01*
X17392692Y-16966619D01*
X17368305Y-16921556D01*
X17352811Y-16889861D01*
X17345802Y-16875522D01*
X17345800Y-16875519D01*
X17345799Y-16875517D01*
X17345797Y-16875515D01*
X17341582Y-16869613D01*
X17341538Y-16869556D01*
X17341480Y-16869475D01*
X17337019Y-16863743D01*
X17299324Y-16829041D01*
X15337853Y-14867570D01*
X15304368Y-14806247D01*
X15309352Y-14736555D01*
X15351224Y-14680622D01*
X15416688Y-14656205D01*
X15446104Y-14658717D01*
X15446168Y-14658196D01*
X15453614Y-14659100D01*
X15453615Y-14659100D01*
X15611585Y-14659100D01*
X15764965Y-14621296D01*
X15774793Y-14616138D01*
X15904840Y-14547883D01*
X16023083Y-14443130D01*
X16023083Y-14443128D01*
X16028697Y-14438156D01*
X16029714Y-14439304D01*
X16081598Y-14406754D01*
X16151464Y-14407516D01*
G37*
%TD.AperFunction*%
%TA.AperFunction,Conductor*%
G36*
X23570863Y-13051410D02*
G01*
X23615380Y-13102785D01*
X23641381Y-13158542D01*
X23653000Y-13210948D01*
X23653000Y-13573086D01*
X23653001Y-13573087D01*
X23728098Y-13563201D01*
X23728103Y-13563200D01*
X23867979Y-13505262D01*
X23867981Y-13505261D01*
X23988095Y-13413094D01*
X24015782Y-13377013D01*
X24072209Y-13335810D01*
X24112091Y-13328859D01*
X24112085Y-13328765D01*
X24112961Y-13328707D01*
X24114157Y-13328499D01*
X24116138Y-13328499D01*
X24163545Y-13322259D01*
X24200595Y-13304981D01*
X24269672Y-13294490D01*
X24305404Y-13304981D01*
X24342455Y-13322259D01*
X24389861Y-13328500D01*
X24616138Y-13328499D01*
X24663545Y-13322259D01*
X24700595Y-13304981D01*
X24769672Y-13294490D01*
X24805404Y-13304981D01*
X24842455Y-13322259D01*
X24889861Y-13328500D01*
X25044255Y-13328499D01*
X25111294Y-13348183D01*
X25157049Y-13400987D01*
X25166993Y-13470145D01*
X25137968Y-13533701D01*
X25131936Y-13540180D01*
X24565155Y-14106961D01*
X24545306Y-14123082D01*
X24537531Y-14128162D01*
X24517343Y-14154098D01*
X24512267Y-14159848D01*
X24509834Y-14162281D01*
X24509823Y-14162294D01*
X24497154Y-14180038D01*
X24465683Y-14220472D01*
X24462175Y-14226953D01*
X24458960Y-14233532D01*
X24444338Y-14282645D01*
X24427698Y-14331116D01*
X24426494Y-14338333D01*
X24425582Y-14345646D01*
X24427700Y-14396830D01*
X24427700Y-17647456D01*
X24408015Y-17714495D01*
X24391381Y-17735137D01*
X23958137Y-18168381D01*
X23896814Y-18201866D01*
X23870456Y-18204700D01*
X20634097Y-18204700D01*
X20567058Y-18185015D01*
X20532047Y-18151140D01*
X20493483Y-18095270D01*
X20493479Y-18095266D01*
X20488509Y-18089656D01*
X20489953Y-18088376D01*
X20458145Y-18037660D01*
X20453500Y-18004040D01*
X20453500Y-15296359D01*
X20473185Y-15229320D01*
X20488846Y-15211044D01*
X20488509Y-15210745D01*
X20493481Y-15205132D01*
X20493481Y-15205131D01*
X20493483Y-15205130D01*
X20583220Y-15075123D01*
X20639237Y-14927418D01*
X20658278Y-14770600D01*
X20654117Y-14736326D01*
X20639237Y-14613781D01*
X20602276Y-14516324D01*
X20583220Y-14466077D01*
X20493483Y-14336070D01*
X20493479Y-14336066D01*
X20488509Y-14330456D01*
X20489953Y-14329176D01*
X20458145Y-14278460D01*
X20453500Y-14244840D01*
X20453500Y-13935736D01*
X20473185Y-13868697D01*
X20525989Y-13822942D01*
X20595147Y-13812998D01*
X20658703Y-13842023D01*
X20686552Y-13876716D01*
X20700092Y-13901734D01*
X20707295Y-13915045D01*
X20729801Y-13961082D01*
X20734065Y-13967055D01*
X20738580Y-13972856D01*
X20776275Y-14007558D01*
X20795509Y-14026792D01*
X20828994Y-14088115D01*
X20830924Y-14129418D01*
X20820922Y-14211799D01*
X20820922Y-14211800D01*
X20839962Y-14368618D01*
X20895980Y-14516322D01*
X20895980Y-14516323D01*
X20985717Y-14646330D01*
X21103960Y-14751083D01*
X21116060Y-14757433D01*
X21243834Y-14824496D01*
X21397214Y-14862300D01*
X21397215Y-14862300D01*
X21555185Y-14862300D01*
X21708565Y-14824496D01*
X21744941Y-14805404D01*
X21848440Y-14751083D01*
X21966683Y-14646330D01*
X22056420Y-14516323D01*
X22112437Y-14368618D01*
X22131478Y-14211800D01*
X22130118Y-14200595D01*
X22112437Y-14054981D01*
X22086314Y-13986101D01*
X22056420Y-13907277D01*
X21966683Y-13777270D01*
X21848440Y-13672517D01*
X21848438Y-13672516D01*
X21848437Y-13672515D01*
X21708566Y-13599104D01*
X21599570Y-13572239D01*
X21539189Y-13537083D01*
X21507401Y-13474863D01*
X21514297Y-13405335D01*
X21557688Y-13350572D01*
X21613065Y-13328902D01*
X21616126Y-13328499D01*
X21616138Y-13328499D01*
X21663545Y-13322259D01*
X21700595Y-13304981D01*
X21769672Y-13294490D01*
X21805404Y-13304981D01*
X21842455Y-13322259D01*
X21889861Y-13328500D01*
X22116138Y-13328499D01*
X22163545Y-13322259D01*
X22200595Y-13304981D01*
X22269672Y-13294490D01*
X22305404Y-13304981D01*
X22342455Y-13322259D01*
X22389861Y-13328500D01*
X22616138Y-13328499D01*
X22663545Y-13322259D01*
X22700595Y-13304981D01*
X22769672Y-13294490D01*
X22805404Y-13304981D01*
X22842455Y-13322259D01*
X22889861Y-13328500D01*
X22891824Y-13328499D01*
X22892386Y-13328665D01*
X22893912Y-13328765D01*
X22893889Y-13329106D01*
X22958864Y-13348172D01*
X22990217Y-13377012D01*
X23017902Y-13413092D01*
X23138021Y-13505263D01*
X23277896Y-13563200D01*
X23277901Y-13563201D01*
X23352998Y-13573087D01*
X23353000Y-13573086D01*
X23353000Y-13210948D01*
X23364617Y-13158545D01*
X23390618Y-13102784D01*
X23436788Y-13050348D01*
X23503981Y-13031195D01*
X23570863Y-13051410D01*
G37*
%TD.AperFunction*%
%TA.AperFunction,Conductor*%
G36*
X29302410Y-10336584D02*
G01*
X29354835Y-10375830D01*
X29355643Y-10375168D01*
X29358338Y-10378452D01*
X29358343Y-10378456D01*
X29358353Y-10378470D01*
X29359504Y-10379872D01*
X29359507Y-10379877D01*
X29479685Y-10526315D01*
X29626123Y-10646493D01*
X29626126Y-10646495D01*
X29626128Y-10646496D01*
X29793188Y-10735792D01*
X29793190Y-10735792D01*
X29793193Y-10735794D01*
X29974474Y-10790785D01*
X30163000Y-10809353D01*
X30351526Y-10790785D01*
X30532807Y-10735794D01*
X30699877Y-10646493D01*
X30829035Y-10540495D01*
X30893345Y-10513183D01*
X30962213Y-10524974D01*
X31013773Y-10572126D01*
X31031700Y-10636349D01*
X31031700Y-11589650D01*
X31012015Y-11656689D01*
X30959211Y-11702444D01*
X30890053Y-11712388D01*
X30829036Y-11685504D01*
X30699877Y-11579507D01*
X30699871Y-11579503D01*
X30532811Y-11490207D01*
X30351524Y-11435214D01*
X30163000Y-11416647D01*
X29974475Y-11435214D01*
X29793188Y-11490207D01*
X29626128Y-11579503D01*
X29626127Y-11579503D01*
X29479685Y-11699685D01*
X29359503Y-11846127D01*
X29359503Y-11846128D01*
X29270207Y-12013188D01*
X29215214Y-12194475D01*
X29196647Y-12383000D01*
X29215214Y-12571524D01*
X29254986Y-12702634D01*
X29255609Y-12772501D01*
X29224006Y-12826310D01*
X28481554Y-13568762D01*
X28420231Y-13602247D01*
X28377692Y-13604020D01*
X28366139Y-13602500D01*
X28366135Y-13602500D01*
X26964867Y-13602500D01*
X26953314Y-13604021D01*
X26917455Y-13608741D01*
X26917453Y-13608742D01*
X26917451Y-13608742D01*
X26813420Y-13657253D01*
X26732253Y-13738420D01*
X26683740Y-13842456D01*
X26677500Y-13889859D01*
X26677500Y-14116131D01*
X26677501Y-14116138D01*
X26683741Y-14163545D01*
X26701018Y-14200596D01*
X26711509Y-14269673D01*
X26701018Y-14305402D01*
X26683742Y-14342451D01*
X26683740Y-14342458D01*
X26677500Y-14389859D01*
X26677500Y-14389861D01*
X26677500Y-14490158D01*
X26677501Y-14528499D01*
X26657817Y-14595539D01*
X26605013Y-14641294D01*
X26553501Y-14652500D01*
X26207187Y-14652500D01*
X26140148Y-14632815D01*
X26105138Y-14598941D01*
X26081483Y-14564670D01*
X25963240Y-14459917D01*
X25963238Y-14459916D01*
X25963237Y-14459915D01*
X25823366Y-14386504D01*
X25749938Y-14368406D01*
X25689557Y-14333250D01*
X25657769Y-14271030D01*
X25664665Y-14201502D01*
X25691934Y-14160325D01*
X25697577Y-14154683D01*
X25738966Y-14092741D01*
X25738967Y-14092739D01*
X25758408Y-13995002D01*
X25758408Y-13995000D01*
X25758124Y-13993573D01*
X25756419Y-13985001D01*
X25762643Y-13915411D01*
X25790351Y-13873129D01*
X26316575Y-13346907D01*
X26329718Y-13328499D01*
X26367437Y-13275669D01*
X26367437Y-13275668D01*
X26367439Y-13275666D01*
X26400817Y-13163554D01*
X26398047Y-13096602D01*
X26399001Y-13075304D01*
X26403500Y-13041139D01*
X26403500Y-12814999D01*
X26423185Y-12747961D01*
X26475989Y-12702206D01*
X26527500Y-12691000D01*
X26651089Y-12691000D01*
X26676534Y-12693638D01*
X26685615Y-12695543D01*
X26701305Y-12693587D01*
X26718239Y-12691477D01*
X26725915Y-12691000D01*
X26729335Y-12691000D01*
X26729340Y-12691000D01*
X26732908Y-12690404D01*
X26750839Y-12687413D01*
X26778258Y-12683994D01*
X26801693Y-12681073D01*
X26801702Y-12681068D01*
X26808751Y-12678970D01*
X26815677Y-12676592D01*
X26815681Y-12676592D01*
X26860744Y-12652204D01*
X26906784Y-12629698D01*
X26906787Y-12629694D01*
X26912753Y-12625435D01*
X26918554Y-12620919D01*
X26918558Y-12620918D01*
X26953257Y-12583224D01*
X29171397Y-10365083D01*
X29232718Y-10331600D01*
X29302410Y-10336584D01*
G37*
%TD.AperFunction*%
%TA.AperFunction,Conductor*%
G36*
X17070862Y-13051410D02*
G01*
X17115380Y-13102785D01*
X17141381Y-13158542D01*
X17153000Y-13210948D01*
X17153000Y-13573086D01*
X17153001Y-13573087D01*
X17228098Y-13563201D01*
X17228103Y-13563200D01*
X17367978Y-13505263D01*
X17482679Y-13417250D01*
X17547849Y-13392056D01*
X17616293Y-13406094D01*
X17666283Y-13454908D01*
X17678036Y-13490626D01*
X17678297Y-13490549D01*
X17681011Y-13499669D01*
X17681212Y-13500278D01*
X17681225Y-13500388D01*
X17683320Y-13507426D01*
X17685708Y-13514381D01*
X17710095Y-13559444D01*
X17732601Y-13605483D01*
X17736865Y-13611455D01*
X17741380Y-13617256D01*
X17741381Y-13617257D01*
X17741382Y-13617258D01*
X17755319Y-13630088D01*
X17779075Y-13651957D01*
X17838180Y-13711062D01*
X17871666Y-13772385D01*
X17874500Y-13798744D01*
X17874500Y-14031619D01*
X17854815Y-14098658D01*
X17802011Y-14144413D01*
X17732853Y-14154357D01*
X17720828Y-14152017D01*
X17703348Y-14147709D01*
X17694385Y-14145500D01*
X17536415Y-14145500D01*
X17536414Y-14145500D01*
X17383034Y-14183303D01*
X17243162Y-14256715D01*
X17208487Y-14287434D01*
X17145253Y-14317154D01*
X17075990Y-14307969D01*
X17038580Y-14282298D01*
X16884619Y-14128337D01*
X16851134Y-14067014D01*
X16848300Y-14040656D01*
X16848300Y-13665927D01*
X16852567Y-13640352D01*
X16851808Y-13640226D01*
X16854692Y-13622942D01*
X16854701Y-13622872D01*
X16854714Y-13622791D01*
X16855617Y-13615552D01*
X16853500Y-13564368D01*
X16853500Y-13209876D01*
X16865117Y-13157473D01*
X16890618Y-13102784D01*
X16936788Y-13050348D01*
X17003981Y-13031195D01*
X17070862Y-13051410D01*
G37*
%TD.AperFunction*%
%TA.AperFunction,Conductor*%
G36*
X13509595Y-12346785D02*
G01*
X13530237Y-12363419D01*
X13566181Y-12399363D01*
X13599666Y-12460686D01*
X13602500Y-12487044D01*
X13602500Y-13041132D01*
X13602501Y-13041138D01*
X13608741Y-13088545D01*
X13608742Y-13088547D01*
X13608742Y-13088548D01*
X13640883Y-13157473D01*
X13657253Y-13192579D01*
X13738421Y-13273747D01*
X13842455Y-13322259D01*
X13889861Y-13328500D01*
X14116138Y-13328499D01*
X14163545Y-13322259D01*
X14200593Y-13304982D01*
X14269669Y-13294490D01*
X14305403Y-13304981D01*
X14342455Y-13322259D01*
X14342454Y-13322259D01*
X14348995Y-13323120D01*
X14389861Y-13328500D01*
X14616138Y-13328499D01*
X14663545Y-13322259D01*
X14700595Y-13304981D01*
X14769672Y-13294490D01*
X14805404Y-13304981D01*
X14842455Y-13322259D01*
X14889861Y-13328500D01*
X14992347Y-13328499D01*
X15059385Y-13348183D01*
X15105141Y-13400986D01*
X15115085Y-13470145D01*
X15086061Y-13533701D01*
X15074576Y-13545313D01*
X15042117Y-13574069D01*
X14952381Y-13704075D01*
X14952380Y-13704076D01*
X14896362Y-13851781D01*
X14877390Y-14008043D01*
X14877322Y-14008600D01*
X14887538Y-14092741D01*
X14889074Y-14105387D01*
X14877614Y-14174310D01*
X14830710Y-14226096D01*
X14763254Y-14244303D01*
X14696663Y-14223151D01*
X14678297Y-14208014D01*
X14260237Y-13789955D01*
X14244111Y-13770098D01*
X14239037Y-13762331D01*
X14213087Y-13742133D01*
X14207341Y-13737059D01*
X14204907Y-13734625D01*
X14204906Y-13734624D01*
X14204905Y-13734623D01*
X14198448Y-13730013D01*
X14187161Y-13721955D01*
X14146726Y-13690483D01*
X14146722Y-13690481D01*
X14140248Y-13686977D01*
X14133669Y-13683760D01*
X14084554Y-13669138D01*
X14036086Y-13652498D01*
X14028869Y-13651294D01*
X14021553Y-13650382D01*
X13972325Y-13652419D01*
X13970369Y-13652500D01*
X13209876Y-13652500D01*
X13157471Y-13640882D01*
X13088545Y-13608741D01*
X13088543Y-13608740D01*
X13088544Y-13608740D01*
X13041139Y-13602500D01*
X11639867Y-13602500D01*
X11628314Y-13604021D01*
X11592455Y-13608741D01*
X11592453Y-13608742D01*
X11592451Y-13608742D01*
X11488419Y-13657253D01*
X11485950Y-13659723D01*
X11481155Y-13662340D01*
X11479535Y-13663475D01*
X11479408Y-13663294D01*
X11424623Y-13693202D01*
X11354932Y-13688210D01*
X11310596Y-13659714D01*
X10685141Y-13034259D01*
X10651656Y-12972936D01*
X10656640Y-12903244D01*
X10663456Y-12888140D01*
X10735794Y-12752807D01*
X10790785Y-12571526D01*
X10803666Y-12440736D01*
X10829827Y-12375951D01*
X10886861Y-12335592D01*
X10921946Y-12328998D01*
X10967842Y-12327100D01*
X13442556Y-12327100D01*
X13509595Y-12346785D01*
G37*
%TD.AperFunction*%
%TA.AperFunction,Conductor*%
G36*
X21676303Y-7739046D02*
G01*
X21704458Y-7774306D01*
X21739503Y-7839871D01*
X21739503Y-7839872D01*
X21739506Y-7839876D01*
X21739507Y-7839877D01*
X21859685Y-7986315D01*
X22006123Y-8106493D01*
X22006126Y-8106495D01*
X22006128Y-8106496D01*
X22173188Y-8195792D01*
X22173190Y-8195792D01*
X22173193Y-8195794D01*
X22354474Y-8250785D01*
X22543000Y-8269353D01*
X22731526Y-8250785D01*
X22862636Y-8211012D01*
X22932501Y-8210390D01*
X22986311Y-8241993D01*
X23248380Y-8504062D01*
X23281865Y-8565385D01*
X23284699Y-8591743D01*
X23284699Y-8657807D01*
X23265014Y-8724846D01*
X23212210Y-8770601D01*
X23143052Y-8780545D01*
X23108294Y-8770189D01*
X22958838Y-8700497D01*
X22958829Y-8700493D01*
X22754131Y-8645645D01*
X22754120Y-8645643D01*
X22543002Y-8627173D01*
X22542998Y-8627173D01*
X22331879Y-8645643D01*
X22331868Y-8645645D01*
X22127170Y-8700493D01*
X22127161Y-8700497D01*
X21935084Y-8790064D01*
X21881286Y-8827732D01*
X21881286Y-8827733D01*
X22359133Y-9305580D01*
X22392618Y-9366903D01*
X22387634Y-9436595D01*
X22345762Y-9492528D01*
X22327748Y-9503745D01*
X22304956Y-9515358D01*
X22304949Y-9515363D01*
X22215363Y-9604949D01*
X22215358Y-9604956D01*
X22203745Y-9627748D01*
X22155770Y-9678544D01*
X22087949Y-9695338D01*
X22021814Y-9672800D01*
X22005580Y-9659133D01*
X21951419Y-9604972D01*
X21917934Y-9543649D01*
X21915100Y-9517291D01*
X21915100Y-9472611D01*
X21917739Y-9447164D01*
X21919643Y-9438085D01*
X21917740Y-9422819D01*
X21915577Y-9405461D01*
X21915100Y-9397785D01*
X21915100Y-9394360D01*
X21911512Y-9372858D01*
X21906383Y-9331716D01*
X21905173Y-9322007D01*
X21905171Y-9322003D01*
X21903102Y-9315053D01*
X21903070Y-9314959D01*
X21903044Y-9314872D01*
X21900691Y-9308017D01*
X21876304Y-9262955D01*
X21853799Y-9216918D01*
X21849519Y-9210924D01*
X21845019Y-9205143D01*
X21807324Y-9170441D01*
X21507419Y-8870535D01*
X21473934Y-8809212D01*
X21471100Y-8782854D01*
X21471100Y-7832759D01*
X21490785Y-7765720D01*
X21543589Y-7719965D01*
X21612747Y-7710021D01*
X21676303Y-7739046D01*
G37*
%TD.AperFunction*%
%TA.AperFunction,Conductor*%
G36*
X28711814Y-7514566D02*
G01*
X28764208Y-7560790D01*
X28783299Y-7626897D01*
X28783299Y-9519102D01*
X28763614Y-9586141D01*
X28710810Y-9631896D01*
X28641652Y-9641840D01*
X28578096Y-9612815D01*
X28540639Y-9555098D01*
X28515794Y-9473193D01*
X28507585Y-9457835D01*
X28426496Y-9306128D01*
X28426496Y-9306127D01*
X28426047Y-9305580D01*
X28306315Y-9159685D01*
X28159877Y-9039507D01*
X28159873Y-9039505D01*
X28159871Y-9039503D01*
X27992811Y-8950207D01*
X27811524Y-8895214D01*
X27623000Y-8876647D01*
X27434475Y-8895214D01*
X27253188Y-8950207D01*
X27086128Y-9039503D01*
X27086127Y-9039503D01*
X26939683Y-9159686D01*
X26923351Y-9179587D01*
X26865604Y-9218920D01*
X26795759Y-9220789D01*
X26735992Y-9184600D01*
X26705277Y-9121844D01*
X26703499Y-9100926D01*
X26703499Y-8769539D01*
X26723184Y-8702504D01*
X26739809Y-8681871D01*
X27179688Y-8241992D01*
X27241011Y-8208508D01*
X27303363Y-8211012D01*
X27434474Y-8250785D01*
X27623000Y-8269353D01*
X27811526Y-8250785D01*
X27992807Y-8195794D01*
X28159871Y-8106496D01*
X28159872Y-8106496D01*
X28159873Y-8106495D01*
X28159877Y-8106493D01*
X28306315Y-7986315D01*
X28426493Y-7839877D01*
X28515794Y-7672807D01*
X28540640Y-7590899D01*
X28578935Y-7532464D01*
X28642747Y-7504007D01*
X28711814Y-7514566D01*
G37*
%TD.AperFunction*%
%TA.AperFunction,Conductor*%
G36*
X19193092Y-8249974D02*
G01*
X19267123Y-8264700D01*
X20646100Y-8264700D01*
X20713139Y-8284385D01*
X20758894Y-8337189D01*
X20770100Y-8388700D01*
X20770100Y-8930188D01*
X20767461Y-8955632D01*
X20765557Y-8964712D01*
X20765435Y-8967661D01*
X20764136Y-8971489D01*
X20763449Y-8974768D01*
X20763052Y-8974684D01*
X20742992Y-9033828D01*
X20688340Y-9077358D01*
X20618829Y-9084430D01*
X20562877Y-9058382D01*
X20539877Y-9039507D01*
X20539871Y-9039503D01*
X20372811Y-8950207D01*
X20191524Y-8895214D01*
X20003000Y-8876647D01*
X19814475Y-8895214D01*
X19633188Y-8950207D01*
X19466128Y-9039503D01*
X19466127Y-9039503D01*
X19319682Y-9159687D01*
X19264753Y-9226619D01*
X19207007Y-9265953D01*
X19137163Y-9267824D01*
X19077395Y-9231636D01*
X19046679Y-9168881D01*
X19044900Y-9147954D01*
X19044900Y-8371591D01*
X19064585Y-8304552D01*
X19117389Y-8258797D01*
X19186547Y-8248853D01*
X19193092Y-8249974D01*
G37*
%TD.AperFunction*%
%TA.AperFunction,Conductor*%
G36*
X27595095Y-4777585D02*
G01*
X27615737Y-4794219D01*
X28746981Y-5925463D01*
X28780466Y-5986786D01*
X28783300Y-6013144D01*
X28783299Y-6979102D01*
X28763614Y-7046142D01*
X28710810Y-7091896D01*
X28641652Y-7101840D01*
X28578096Y-7072815D01*
X28540639Y-7015098D01*
X28515794Y-6933193D01*
X28442824Y-6796676D01*
X28426496Y-6766128D01*
X28426496Y-6766127D01*
X28426491Y-6766121D01*
X28306315Y-6619685D01*
X28159877Y-6499507D01*
X28159873Y-6499505D01*
X28159871Y-6499503D01*
X27992811Y-6410207D01*
X27811524Y-6355214D01*
X27623000Y-6336647D01*
X27434475Y-6355214D01*
X27253188Y-6410207D01*
X27086128Y-6499503D01*
X27086127Y-6499503D01*
X26939685Y-6619685D01*
X26819503Y-6766127D01*
X26819503Y-6766128D01*
X26730207Y-6933188D01*
X26675214Y-7114475D01*
X26656647Y-7302999D01*
X26675214Y-7491524D01*
X26714986Y-7622634D01*
X26715609Y-7692501D01*
X26684006Y-7746310D01*
X26156352Y-8273965D01*
X26139950Y-8290366D01*
X26120102Y-8306484D01*
X26112332Y-8311560D01*
X26112332Y-8311561D01*
X26092143Y-8337498D01*
X26087067Y-8343248D01*
X26084634Y-8345681D01*
X26084623Y-8345694D01*
X26071954Y-8363438D01*
X26040483Y-8403872D01*
X26036975Y-8410353D01*
X26033760Y-8416932D01*
X26019138Y-8466045D01*
X26002498Y-8514516D01*
X26001294Y-8521733D01*
X26000382Y-8529046D01*
X26002500Y-8580230D01*
X26002500Y-8770035D01*
X25982815Y-8837074D01*
X25930011Y-8882829D01*
X25860853Y-8892773D01*
X25807377Y-8871611D01*
X25690909Y-8790061D01*
X25498838Y-8700497D01*
X25498829Y-8700493D01*
X25294131Y-8645645D01*
X25294120Y-8645643D01*
X25083002Y-8627173D01*
X25082998Y-8627173D01*
X24871879Y-8645643D01*
X24871868Y-8645645D01*
X24667170Y-8700493D01*
X24667161Y-8700497D01*
X24593905Y-8734657D01*
X24524827Y-8745149D01*
X24461043Y-8716629D01*
X24422804Y-8658153D01*
X24417500Y-8622275D01*
X24417500Y-8515543D01*
X24437185Y-8448504D01*
X24453815Y-8427866D01*
X24639688Y-8241992D01*
X24701011Y-8208508D01*
X24763363Y-8211012D01*
X24894474Y-8250785D01*
X25083000Y-8269353D01*
X25271526Y-8250785D01*
X25452807Y-8195794D01*
X25619871Y-8106496D01*
X25619872Y-8106496D01*
X25619873Y-8106495D01*
X25619877Y-8106493D01*
X25766315Y-7986315D01*
X25886493Y-7839877D01*
X25940388Y-7739046D01*
X25975792Y-7672811D01*
X25975792Y-7672810D01*
X25975794Y-7672807D01*
X26030785Y-7491526D01*
X26049353Y-7303000D01*
X26030785Y-7114474D01*
X25975794Y-6933193D01*
X25975792Y-6933189D01*
X25975792Y-6933188D01*
X25886496Y-6766128D01*
X25886492Y-6766121D01*
X25785994Y-6643664D01*
X25758681Y-6579354D01*
X25765665Y-6521665D01*
X25767534Y-6516651D01*
X25767536Y-6516650D01*
X25814691Y-6390222D01*
X25820451Y-6336647D01*
X25820699Y-6334344D01*
X25820700Y-6334329D01*
X25820700Y-5807070D01*
X25820699Y-5807055D01*
X25817547Y-5777740D01*
X25814691Y-5751178D01*
X25814598Y-5750928D01*
X25767537Y-5624752D01*
X25767535Y-5624749D01*
X25766270Y-5623059D01*
X25686672Y-5516728D01*
X25578650Y-5435864D01*
X25578647Y-5435862D01*
X25480838Y-5399382D01*
X25424904Y-5357511D01*
X25400487Y-5292047D01*
X25415339Y-5223774D01*
X25464744Y-5174368D01*
X25480838Y-5167018D01*
X25538322Y-5145577D01*
X25578650Y-5130536D01*
X25686672Y-5049672D01*
X25767536Y-4941650D01*
X25793928Y-4870889D01*
X25805984Y-4838567D01*
X25847855Y-4782633D01*
X25913320Y-4758216D01*
X25922166Y-4757900D01*
X27528056Y-4757900D01*
X27595095Y-4777585D01*
G37*
%TD.AperFunction*%
%TA.AperFunction,Conductor*%
G36*
X36289852Y-2636385D02*
G01*
X36335607Y-2689189D01*
X36346813Y-2740787D01*
X36321586Y-38889987D01*
X36301855Y-38957012D01*
X36249019Y-39002730D01*
X36197586Y-39013900D01*
X24561160Y-39013900D01*
X24560954Y-39013859D01*
X24536400Y-39013859D01*
X24536301Y-39013900D01*
X24536017Y-39014016D01*
X24536015Y-39014018D01*
X24535859Y-39014399D01*
X24535876Y-39039016D01*
X24535871Y-39039016D01*
X24535900Y-39039159D01*
X24535900Y-42877843D01*
X24516215Y-42944882D01*
X24463411Y-42990637D01*
X24412044Y-43001843D01*
X22351148Y-43004234D01*
X22284086Y-42984627D01*
X22238269Y-42931876D01*
X22228246Y-42862729D01*
X22257197Y-42799140D01*
X22282112Y-42777133D01*
X22286801Y-42774001D01*
X22342166Y-42691140D01*
X22356700Y-42618074D01*
X22356700Y-40568726D01*
X22356700Y-40568723D01*
X22356699Y-40568721D01*
X22342167Y-40495664D01*
X22342166Y-40495660D01*
X22342165Y-40495659D01*
X22286801Y-40412799D01*
X22203940Y-40357434D01*
X22203939Y-40357433D01*
X22203935Y-40357432D01*
X22130877Y-40342900D01*
X22130874Y-40342900D01*
X18281526Y-40342900D01*
X18281523Y-40342900D01*
X18208464Y-40357432D01*
X18208460Y-40357433D01*
X18125599Y-40412799D01*
X18070233Y-40495660D01*
X18070232Y-40495664D01*
X18055700Y-40568721D01*
X18055700Y-41093900D01*
X18036015Y-41160939D01*
X17983211Y-41206694D01*
X17931700Y-41217900D01*
X16711523Y-41217900D01*
X16644484Y-41198215D01*
X16598729Y-41145411D01*
X16588785Y-41076253D01*
X16617810Y-41012697D01*
X16623842Y-41006219D01*
X16637515Y-40992545D01*
X16729556Y-40843324D01*
X16729558Y-40843319D01*
X16784705Y-40676897D01*
X16784706Y-40676890D01*
X16795199Y-40574186D01*
X16795200Y-40574173D01*
X16795200Y-40524200D01*
X14345201Y-40524200D01*
X14345201Y-40574186D01*
X14355694Y-40676897D01*
X14410841Y-40843319D01*
X14410843Y-40843324D01*
X14502884Y-40992545D01*
X14626854Y-41116515D01*
X14776075Y-41208556D01*
X14776080Y-41208558D01*
X14868340Y-41239130D01*
X14925785Y-41278902D01*
X14952608Y-41343418D01*
X14940293Y-41412194D01*
X14892750Y-41463394D01*
X14872671Y-41473017D01*
X14852874Y-41480401D01*
X14852864Y-41480406D01*
X14737655Y-41566652D01*
X14737652Y-41566655D01*
X14651406Y-41681864D01*
X14651402Y-41681871D01*
X14601110Y-41816713D01*
X14601109Y-41816717D01*
X14594700Y-41876327D01*
X14594700Y-41876334D01*
X14594700Y-41876335D01*
X14594700Y-42472070D01*
X14594701Y-42472076D01*
X14601108Y-42531683D01*
X14651402Y-42666528D01*
X14651406Y-42666535D01*
X14737652Y-42781744D01*
X14737653Y-42781744D01*
X14737654Y-42781746D01*
X14748512Y-42789874D01*
X14790382Y-42845808D01*
X14795366Y-42915499D01*
X14761880Y-42976822D01*
X14700557Y-43010306D01*
X14674344Y-43013140D01*
X2766400Y-43026954D01*
X2699338Y-43007347D01*
X2653521Y-42954596D01*
X2642256Y-42902798D01*
X2645875Y-40024200D01*
X14345200Y-40024200D01*
X15320200Y-40024200D01*
X15320200Y-39274200D01*
X15820200Y-39274200D01*
X15820200Y-40024200D01*
X16795199Y-40024200D01*
X16795199Y-39974228D01*
X16795198Y-39974213D01*
X16784705Y-39871502D01*
X16729558Y-39705080D01*
X16729556Y-39705075D01*
X16637515Y-39555854D01*
X16513545Y-39431884D01*
X16364324Y-39339843D01*
X16364319Y-39339841D01*
X16197897Y-39284694D01*
X16197890Y-39284693D01*
X16095186Y-39274200D01*
X15820200Y-39274200D01*
X15320200Y-39274200D01*
X15045229Y-39274200D01*
X15045212Y-39274201D01*
X14942502Y-39284694D01*
X14776080Y-39339841D01*
X14776075Y-39339843D01*
X14626854Y-39431884D01*
X14502884Y-39555854D01*
X14410843Y-39705075D01*
X14410841Y-39705080D01*
X14355694Y-39871502D01*
X14355693Y-39871509D01*
X14345200Y-39974213D01*
X14345200Y-40024200D01*
X2645875Y-40024200D01*
X2648697Y-37779000D01*
X12326401Y-37779000D01*
X12326401Y-37828986D01*
X12336894Y-37931697D01*
X12392041Y-38098119D01*
X12392043Y-38098124D01*
X12484084Y-38247345D01*
X12608054Y-38371315D01*
X12757275Y-38463356D01*
X12757280Y-38463358D01*
X12923702Y-38518505D01*
X12923709Y-38518506D01*
X13026419Y-38528999D01*
X13301399Y-38528999D01*
X13301400Y-38528998D01*
X13301400Y-37779000D01*
X13801400Y-37779000D01*
X13801400Y-38528999D01*
X14076372Y-38528999D01*
X14076386Y-38528998D01*
X14179097Y-38518505D01*
X14345519Y-38463358D01*
X14345524Y-38463356D01*
X14494745Y-38371315D01*
X14618715Y-38247345D01*
X14710756Y-38098124D01*
X14710758Y-38098119D01*
X14765905Y-37931697D01*
X14765906Y-37931690D01*
X14776399Y-37828986D01*
X14776400Y-37828973D01*
X14776400Y-37779000D01*
X13801400Y-37779000D01*
X13301400Y-37779000D01*
X12326401Y-37779000D01*
X2648697Y-37779000D01*
X2653652Y-33837634D01*
X4663329Y-33837634D01*
X4674388Y-33896079D01*
X4683252Y-33954890D01*
X4685762Y-33963027D01*
X4688578Y-33971075D01*
X4716377Y-34023672D01*
X4742176Y-34077244D01*
X4746962Y-34084265D01*
X4752031Y-34091132D01*
X4752034Y-34091138D01*
X4752038Y-34091142D01*
X4794095Y-34133199D01*
X4834547Y-34176796D01*
X4841810Y-34182588D01*
X4841289Y-34183241D01*
X4853530Y-34192634D01*
X5896490Y-35235593D01*
X5901126Y-35240780D01*
X5925521Y-35271370D01*
X5925521Y-35271371D01*
X5974671Y-35304880D01*
X6022518Y-35340193D01*
X6030054Y-35344176D01*
X6037719Y-35347867D01*
X6037727Y-35347872D01*
X6094576Y-35365406D01*
X6094577Y-35365407D01*
X6150697Y-35385045D01*
X6150699Y-35385045D01*
X6150701Y-35385046D01*
X6150702Y-35385046D01*
X6159098Y-35386634D01*
X6167495Y-35387900D01*
X6167498Y-35387900D01*
X6226959Y-35387900D01*
X6286409Y-35390125D01*
X6286409Y-35390124D01*
X6286410Y-35390125D01*
X6286410Y-35390124D01*
X6295642Y-35389085D01*
X6295735Y-35389913D01*
X6311039Y-35387900D01*
X12451900Y-35387900D01*
X12518939Y-35407585D01*
X12564694Y-35460389D01*
X12575900Y-35511900D01*
X12575900Y-35926870D01*
X12575901Y-35926876D01*
X12582308Y-35986483D01*
X12632602Y-36121328D01*
X12632606Y-36121335D01*
X12718852Y-36236544D01*
X12718855Y-36236547D01*
X12834064Y-36322793D01*
X12834073Y-36322798D01*
X12853868Y-36330181D01*
X12909802Y-36372051D01*
X12934220Y-36437515D01*
X12919369Y-36505788D01*
X12869965Y-36555194D01*
X12849541Y-36564069D01*
X12757278Y-36594642D01*
X12757275Y-36594643D01*
X12608054Y-36686684D01*
X12484084Y-36810654D01*
X12392043Y-36959875D01*
X12392041Y-36959880D01*
X12336894Y-37126302D01*
X12336893Y-37126309D01*
X12326400Y-37229013D01*
X12326400Y-37279000D01*
X14776399Y-37279000D01*
X14776399Y-37229028D01*
X14776398Y-37229013D01*
X14765905Y-37126302D01*
X14710758Y-36959880D01*
X14710756Y-36959875D01*
X14618715Y-36810654D01*
X14494745Y-36686684D01*
X14345524Y-36594643D01*
X14345519Y-36594641D01*
X14253259Y-36564069D01*
X14195814Y-36524296D01*
X14168991Y-36459780D01*
X14181306Y-36391004D01*
X14228849Y-36339804D01*
X14248933Y-36330180D01*
X14268726Y-36322798D01*
X14268731Y-36322796D01*
X14383946Y-36236546D01*
X14470196Y-36121331D01*
X14520491Y-35986483D01*
X14526900Y-35926873D01*
X14526899Y-35511899D01*
X14546583Y-35444861D01*
X14599387Y-35399106D01*
X14650899Y-35387900D01*
X16781700Y-35387900D01*
X16848739Y-35407585D01*
X16894494Y-35460389D01*
X16905700Y-35511900D01*
X16905700Y-36318078D01*
X16920232Y-36391135D01*
X16920233Y-36391139D01*
X16920234Y-36391140D01*
X16975599Y-36474001D01*
X17038582Y-36516084D01*
X17058460Y-36529366D01*
X17058464Y-36529367D01*
X17131521Y-36543899D01*
X17131524Y-36543900D01*
X17131526Y-36543900D01*
X17382500Y-36543900D01*
X17449539Y-36563585D01*
X17495294Y-36616389D01*
X17506500Y-36667900D01*
X17506500Y-37232217D01*
X17506110Y-37239155D01*
X17505062Y-37248461D01*
X17501729Y-37278034D01*
X17512788Y-37336479D01*
X17521652Y-37395290D01*
X17524162Y-37403427D01*
X17526978Y-37411475D01*
X17554777Y-37464072D01*
X17580576Y-37517644D01*
X17585362Y-37524665D01*
X17590431Y-37531532D01*
X17590434Y-37531538D01*
X17590438Y-37531542D01*
X17632495Y-37573599D01*
X17672947Y-37617196D01*
X17680210Y-37622988D01*
X17679689Y-37623641D01*
X17691930Y-37633034D01*
X18495690Y-38436793D01*
X18500326Y-38441980D01*
X18524721Y-38472570D01*
X18524721Y-38472571D01*
X18573871Y-38506080D01*
X18621718Y-38541393D01*
X18629254Y-38545376D01*
X18636919Y-38549067D01*
X18636927Y-38549072D01*
X18693776Y-38566606D01*
X18693777Y-38566607D01*
X18749897Y-38586245D01*
X18749899Y-38586245D01*
X18749901Y-38586246D01*
X18749902Y-38586246D01*
X18758298Y-38587834D01*
X18766695Y-38589100D01*
X18766698Y-38589100D01*
X18826159Y-38589100D01*
X18885609Y-38591325D01*
X18885609Y-38591324D01*
X18885610Y-38591325D01*
X18885610Y-38591324D01*
X18894842Y-38590285D01*
X18894935Y-38591113D01*
X18910239Y-38589100D01*
X31404217Y-38589100D01*
X31411155Y-38589489D01*
X31443050Y-38593083D01*
X31450034Y-38593870D01*
X31450034Y-38593869D01*
X31450035Y-38593870D01*
X31508479Y-38582811D01*
X31567287Y-38573948D01*
X31567290Y-38573946D01*
X31575447Y-38571430D01*
X31583469Y-38568623D01*
X31583472Y-38568623D01*
X31636072Y-38540822D01*
X31689642Y-38515025D01*
X31689642Y-38515024D01*
X31689644Y-38515024D01*
X31696695Y-38510216D01*
X31703538Y-38505166D01*
X31745599Y-38463104D01*
X31789194Y-38422655D01*
X31789196Y-38422650D01*
X31794987Y-38415390D01*
X31795643Y-38415913D01*
X31805032Y-38403670D01*
X34779205Y-35429496D01*
X34784373Y-35424877D01*
X34814970Y-35400479D01*
X34848480Y-35351328D01*
X34883793Y-35303482D01*
X34883794Y-35303479D01*
X34887787Y-35295924D01*
X34891470Y-35288276D01*
X34891470Y-35288275D01*
X34891472Y-35288273D01*
X34909007Y-35231422D01*
X34928646Y-35175299D01*
X34930232Y-35166911D01*
X34931500Y-35158504D01*
X34931500Y-35099026D01*
X34933724Y-35039592D01*
X34932684Y-35030361D01*
X34933513Y-35030267D01*
X34931500Y-35014966D01*
X34931500Y-24349781D01*
X34931889Y-24342844D01*
X34936270Y-24303965D01*
X34933661Y-24290173D01*
X34931500Y-24267124D01*
X34931500Y-19269781D01*
X34931889Y-19262844D01*
X34936270Y-19223965D01*
X34925210Y-19165511D01*
X34916348Y-19106713D01*
X34916347Y-19106711D01*
X34916347Y-19106709D01*
X34913831Y-19098552D01*
X34911025Y-19090531D01*
X34899689Y-19069083D01*
X34883222Y-19037926D01*
X34857425Y-18984358D01*
X34857422Y-18984355D01*
X34857422Y-18984354D01*
X34852642Y-18977342D01*
X34847567Y-18970465D01*
X34847566Y-18970463D01*
X34805516Y-18928413D01*
X34765055Y-18884806D01*
X34757792Y-18879014D01*
X34758312Y-18878361D01*
X34746067Y-18868964D01*
X33674908Y-17797805D01*
X33641423Y-17736482D01*
X33643929Y-17674127D01*
X33650785Y-17651527D01*
X33653908Y-17619818D01*
X33669353Y-17463000D01*
X33650785Y-17274474D01*
X33595794Y-17093193D01*
X33595792Y-17093190D01*
X33595792Y-17093188D01*
X33506496Y-16926128D01*
X33506496Y-16926127D01*
X33502745Y-16921556D01*
X33386315Y-16779685D01*
X33239877Y-16659507D01*
X33239873Y-16659505D01*
X33239871Y-16659503D01*
X33072811Y-16570207D01*
X32891524Y-16515214D01*
X32703000Y-16496647D01*
X32514475Y-16515214D01*
X32333192Y-16570206D01*
X32264139Y-16607116D01*
X32195736Y-16621357D01*
X32130492Y-16596357D01*
X32089122Y-16540051D01*
X32084760Y-16470318D01*
X32118004Y-16410077D01*
X32603022Y-15925058D01*
X32664343Y-15891575D01*
X32696908Y-15889684D01*
X32696908Y-15889353D01*
X32702627Y-15889353D01*
X32702861Y-15889339D01*
X32703000Y-15889353D01*
X32891526Y-15870785D01*
X33072807Y-15815794D01*
X33239871Y-15726496D01*
X33239872Y-15726496D01*
X33239873Y-15726495D01*
X33239877Y-15726493D01*
X33386315Y-15606315D01*
X33506493Y-15459877D01*
X33580093Y-15322182D01*
X33595792Y-15292811D01*
X33595792Y-15292810D01*
X33595794Y-15292807D01*
X33650785Y-15111526D01*
X33669353Y-14923000D01*
X33650785Y-14734474D01*
X33595794Y-14553193D01*
X33595792Y-14553190D01*
X33595792Y-14553188D01*
X33506496Y-14386128D01*
X33506496Y-14386127D01*
X33495875Y-14373185D01*
X33386315Y-14239685D01*
X33239877Y-14119507D01*
X33239873Y-14119505D01*
X33239871Y-14119503D01*
X33072811Y-14030207D01*
X32891524Y-13975214D01*
X32703000Y-13956647D01*
X32514475Y-13975214D01*
X32333188Y-14030207D01*
X32166128Y-14119503D01*
X32166122Y-14119507D01*
X32036964Y-14225504D01*
X31972654Y-14252816D01*
X31903787Y-14241025D01*
X31852227Y-14193872D01*
X31834300Y-14129650D01*
X31834300Y-13798743D01*
X31853985Y-13731704D01*
X31870619Y-13711062D01*
X32063369Y-13518312D01*
X32259689Y-13321991D01*
X32321010Y-13288508D01*
X32383363Y-13291013D01*
X32514474Y-13330785D01*
X32703000Y-13349353D01*
X32891526Y-13330785D01*
X33072807Y-13275794D01*
X33073047Y-13275666D01*
X33194125Y-13210948D01*
X33239871Y-13186496D01*
X33239872Y-13186496D01*
X33239873Y-13186495D01*
X33239877Y-13186493D01*
X33386315Y-13066315D01*
X33506493Y-12919877D01*
X33585267Y-12772501D01*
X33595792Y-12752811D01*
X33595793Y-12752809D01*
X33595794Y-12752807D01*
X33650785Y-12571526D01*
X33669353Y-12383000D01*
X33650785Y-12194474D01*
X33595794Y-12013193D01*
X33595792Y-12013190D01*
X33595792Y-12013188D01*
X33506496Y-11846128D01*
X33506496Y-11846127D01*
X33487262Y-11822690D01*
X33386315Y-11699685D01*
X33239877Y-11579507D01*
X33239873Y-11579505D01*
X33239871Y-11579503D01*
X33072811Y-11490207D01*
X32891524Y-11435214D01*
X32703000Y-11416647D01*
X32514475Y-11435214D01*
X32333188Y-11490207D01*
X32166128Y-11579503D01*
X32166127Y-11579503D01*
X32019682Y-11699687D01*
X31952553Y-11781485D01*
X31894808Y-11820819D01*
X31824963Y-11822690D01*
X31765195Y-11786503D01*
X31734479Y-11723747D01*
X31732700Y-11702820D01*
X31732700Y-10523179D01*
X31752385Y-10456140D01*
X31805189Y-10410385D01*
X31874347Y-10400441D01*
X31937903Y-10429466D01*
X31952554Y-10444515D01*
X32019682Y-10526312D01*
X32019683Y-10526313D01*
X32019685Y-10526315D01*
X32166123Y-10646493D01*
X32166126Y-10646495D01*
X32166128Y-10646496D01*
X32333188Y-10735792D01*
X32333190Y-10735792D01*
X32333193Y-10735794D01*
X32514474Y-10790785D01*
X32703000Y-10809353D01*
X32891526Y-10790785D01*
X33072807Y-10735794D01*
X33239871Y-10646496D01*
X33239872Y-10646496D01*
X33239873Y-10646495D01*
X33239877Y-10646493D01*
X33386315Y-10526315D01*
X33506493Y-10379877D01*
X33571700Y-10257883D01*
X33595792Y-10212811D01*
X33595792Y-10212810D01*
X33595794Y-10212807D01*
X33650785Y-10031526D01*
X33669353Y-9843000D01*
X33650785Y-9654474D01*
X33595794Y-9473193D01*
X33595792Y-9473189D01*
X33595792Y-9473188D01*
X33506496Y-9306128D01*
X33506496Y-9306127D01*
X33506047Y-9305580D01*
X33386315Y-9159685D01*
X33239877Y-9039507D01*
X33239873Y-9039505D01*
X33239871Y-9039503D01*
X33072811Y-8950207D01*
X32891524Y-8895214D01*
X32790979Y-8885312D01*
X32726192Y-8859151D01*
X32685833Y-8802117D01*
X32682716Y-8732317D01*
X32715450Y-8674230D01*
X34005246Y-7384434D01*
X34025102Y-7368311D01*
X34032869Y-7363237D01*
X34053073Y-7337277D01*
X34058141Y-7331539D01*
X34060576Y-7329106D01*
X34065311Y-7322473D01*
X34073247Y-7311359D01*
X34091473Y-7287942D01*
X34095480Y-7282792D01*
X34150001Y-7242772D01*
X34284531Y-7192596D01*
X34399746Y-7106346D01*
X34485996Y-6991131D01*
X34536291Y-6856283D01*
X34542700Y-6796673D01*
X34542699Y-5750928D01*
X34536291Y-5691317D01*
X34536277Y-5691280D01*
X34485997Y-5556471D01*
X34485993Y-5556464D01*
X34399747Y-5441255D01*
X34399744Y-5441252D01*
X34284535Y-5355006D01*
X34284528Y-5355002D01*
X34149686Y-5304710D01*
X34149685Y-5304709D01*
X34149683Y-5304709D01*
X34090073Y-5298300D01*
X34090063Y-5298300D01*
X33494329Y-5298300D01*
X33494323Y-5298301D01*
X33434716Y-5304708D01*
X33299871Y-5355002D01*
X33299864Y-5355006D01*
X33184655Y-5441252D01*
X33184652Y-5441255D01*
X33098406Y-5556464D01*
X33098402Y-5556471D01*
X33048108Y-5691317D01*
X33043086Y-5738033D01*
X33041701Y-5750923D01*
X33041700Y-5750935D01*
X33041700Y-6796670D01*
X33041701Y-6796676D01*
X33048108Y-6856283D01*
X33098402Y-6991128D01*
X33098403Y-6991129D01*
X33098404Y-6991131D01*
X33157516Y-7070094D01*
X33166207Y-7081704D01*
X33190624Y-7147168D01*
X33175773Y-7215441D01*
X33154621Y-7243696D01*
X31169155Y-9229161D01*
X31149306Y-9245282D01*
X31141530Y-9250363D01*
X31129338Y-9266026D01*
X31072625Y-9306836D01*
X31002852Y-9310506D01*
X30942171Y-9275871D01*
X30935635Y-9268522D01*
X30846317Y-9159687D01*
X30846315Y-9159685D01*
X30699877Y-9039507D01*
X30699873Y-9039505D01*
X30699871Y-9039503D01*
X30532811Y-8950207D01*
X30351524Y-8895214D01*
X30163000Y-8876647D01*
X29974475Y-8895214D01*
X29793190Y-8950207D01*
X29666751Y-9017789D01*
X29598348Y-9032030D01*
X29533105Y-9007029D01*
X29491735Y-8950724D01*
X29484300Y-8908435D01*
X29484299Y-8237565D01*
X29503984Y-8170530D01*
X29556788Y-8124775D01*
X29625946Y-8114831D01*
X29666752Y-8128211D01*
X29793188Y-8195792D01*
X29793190Y-8195792D01*
X29793193Y-8195794D01*
X29974474Y-8250785D01*
X30163000Y-8269353D01*
X30351526Y-8250785D01*
X30532807Y-8195794D01*
X30699871Y-8106496D01*
X30699872Y-8106496D01*
X30699873Y-8106495D01*
X30699877Y-8106493D01*
X30846315Y-7986315D01*
X30966493Y-7839877D01*
X31020388Y-7739046D01*
X31055792Y-7672811D01*
X31055792Y-7672810D01*
X31055794Y-7672807D01*
X31110785Y-7491526D01*
X31129353Y-7303000D01*
X31123666Y-7245258D01*
X31136685Y-7176613D01*
X31184750Y-7125903D01*
X31252601Y-7109228D01*
X31318695Y-7131884D01*
X31321340Y-7133809D01*
X31396252Y-7189888D01*
X31399868Y-7192595D01*
X31399871Y-7192597D01*
X31399874Y-7192598D01*
X31534717Y-7242891D01*
X31594327Y-7249300D01*
X32190072Y-7249299D01*
X32249683Y-7242891D01*
X32384531Y-7192596D01*
X32499746Y-7106346D01*
X32585996Y-6991131D01*
X32636291Y-6856283D01*
X32642700Y-6796673D01*
X32642699Y-5750928D01*
X32636291Y-5691317D01*
X32636277Y-5691280D01*
X32585997Y-5556471D01*
X32585993Y-5556464D01*
X32499747Y-5441255D01*
X32499744Y-5441252D01*
X32384535Y-5355006D01*
X32384528Y-5355002D01*
X32249686Y-5304710D01*
X32249685Y-5304709D01*
X32249683Y-5304709D01*
X32190073Y-5298300D01*
X32190063Y-5298300D01*
X31594329Y-5298300D01*
X31594323Y-5298301D01*
X31534716Y-5304708D01*
X31399871Y-5355002D01*
X31399864Y-5355006D01*
X31284655Y-5441252D01*
X31284652Y-5441255D01*
X31198406Y-5556464D01*
X31198402Y-5556471D01*
X31148108Y-5691317D01*
X31143086Y-5738033D01*
X31141701Y-5750923D01*
X31141700Y-5750935D01*
X31141700Y-5828708D01*
X31122015Y-5895747D01*
X31076717Y-5937763D01*
X31031746Y-5962100D01*
X30985714Y-5984603D01*
X30979729Y-5988875D01*
X30973946Y-5993377D01*
X30939231Y-6031087D01*
X30606311Y-6364006D01*
X30544988Y-6397491D01*
X30482635Y-6394986D01*
X30351524Y-6355214D01*
X30163000Y-6336647D01*
X29974475Y-6355214D01*
X29793192Y-6410206D01*
X29666753Y-6477789D01*
X29598350Y-6492030D01*
X29533106Y-6467030D01*
X29491736Y-6410724D01*
X29484300Y-6368430D01*
X29484300Y-5782861D01*
X29484512Y-5777740D01*
X29486732Y-5750935D01*
X29487932Y-5736456D01*
X29477758Y-5696280D01*
X29476710Y-5691280D01*
X29474966Y-5680829D01*
X29469892Y-5650419D01*
X29469255Y-5648563D01*
X29460015Y-5624879D01*
X29459217Y-5623060D01*
X29436555Y-5588373D01*
X29433931Y-5583969D01*
X29414218Y-5547541D01*
X29413003Y-5545980D01*
X29396587Y-5526598D01*
X29395236Y-5525130D01*
X29362548Y-5499688D01*
X29358636Y-5496375D01*
X29355367Y-5493366D01*
X29328156Y-5468316D01*
X29328151Y-5468313D01*
X29326517Y-5467245D01*
X29304660Y-5454221D01*
X29302925Y-5453282D01*
X29274076Y-5443378D01*
X29226659Y-5413778D01*
X28619541Y-4806660D01*
X28007237Y-4194355D01*
X27991111Y-4174498D01*
X27986037Y-4166731D01*
X27960087Y-4146533D01*
X27954341Y-4141459D01*
X27951907Y-4139025D01*
X27951906Y-4139024D01*
X27951905Y-4139023D01*
X27945448Y-4134413D01*
X27934161Y-4126355D01*
X27893726Y-4094883D01*
X27893722Y-4094881D01*
X27887248Y-4091377D01*
X27880669Y-4088160D01*
X27831554Y-4073538D01*
X27783086Y-4056898D01*
X27775869Y-4055694D01*
X27768553Y-4054782D01*
X27719325Y-4056819D01*
X27717369Y-4056900D01*
X25834959Y-4056900D01*
X25767920Y-4037215D01*
X25735692Y-4007211D01*
X25718624Y-3984411D01*
X25686672Y-3941728D01*
X25578650Y-3860864D01*
X25578647Y-3860862D01*
X25452224Y-3813709D01*
X25396344Y-3807700D01*
X25396330Y-3807700D01*
X24794070Y-3807700D01*
X24794055Y-3807700D01*
X24738175Y-3813709D01*
X24611752Y-3860862D01*
X24611749Y-3860864D01*
X24503728Y-3941728D01*
X24454708Y-4007211D01*
X24398774Y-4049082D01*
X24355441Y-4056900D01*
X23244159Y-4056900D01*
X23177120Y-4037215D01*
X23144892Y-4007211D01*
X23127824Y-3984411D01*
X23095872Y-3941728D01*
X22987850Y-3860864D01*
X22987847Y-3860862D01*
X22861424Y-3813709D01*
X22805544Y-3807700D01*
X22805530Y-3807700D01*
X22203270Y-3807700D01*
X22203255Y-3807700D01*
X22147375Y-3813709D01*
X22020952Y-3860862D01*
X22020949Y-3860864D01*
X21912928Y-3941728D01*
X21863908Y-4007211D01*
X21807974Y-4049082D01*
X21764641Y-4056900D01*
X18433500Y-4056900D01*
X18366461Y-4037215D01*
X18320706Y-3984411D01*
X18309500Y-3932900D01*
X18309500Y-3532723D01*
X18309499Y-3532721D01*
X18294967Y-3459664D01*
X18294966Y-3459660D01*
X18239601Y-3376799D01*
X18156740Y-3321434D01*
X18156739Y-3321433D01*
X18156735Y-3321432D01*
X18083677Y-3306900D01*
X18083674Y-3306900D01*
X16334326Y-3306900D01*
X16334323Y-3306900D01*
X16261264Y-3321432D01*
X16261260Y-3321433D01*
X16178399Y-3376799D01*
X16123033Y-3459660D01*
X16123032Y-3459664D01*
X16108500Y-3532721D01*
X16108500Y-5282078D01*
X16123032Y-5355135D01*
X16123033Y-5355139D01*
X16123034Y-5355140D01*
X16178399Y-5438001D01*
X16261259Y-5493365D01*
X16261260Y-5493366D01*
X16261264Y-5493367D01*
X16334321Y-5507899D01*
X16334324Y-5507900D01*
X16334326Y-5507900D01*
X18083676Y-5507900D01*
X18083677Y-5507899D01*
X18156740Y-5493366D01*
X18239601Y-5438001D01*
X18294966Y-5355140D01*
X18309500Y-5282074D01*
X18309500Y-4881900D01*
X18329185Y-4814861D01*
X18381989Y-4769106D01*
X18433500Y-4757900D01*
X21677434Y-4757900D01*
X21744473Y-4777585D01*
X21790228Y-4830389D01*
X21793616Y-4838567D01*
X21832062Y-4941647D01*
X21832064Y-4941650D01*
X21912928Y-5049672D01*
X22020949Y-5130535D01*
X22020952Y-5130537D01*
X22118761Y-5167018D01*
X22174695Y-5208889D01*
X22199112Y-5274354D01*
X22184260Y-5342627D01*
X22134855Y-5392032D01*
X22118761Y-5399382D01*
X22020952Y-5435862D01*
X22020949Y-5435864D01*
X21912928Y-5516728D01*
X21832064Y-5624749D01*
X21832062Y-5624752D01*
X21784909Y-5751175D01*
X21778900Y-5807055D01*
X21778900Y-6334344D01*
X21784909Y-6390224D01*
X21832062Y-6516647D01*
X21836312Y-6524429D01*
X21833216Y-6526119D01*
X21851735Y-6575792D01*
X21836873Y-6644062D01*
X21823904Y-6663283D01*
X21739507Y-6766122D01*
X21739503Y-6766128D01*
X21650207Y-6933188D01*
X21595214Y-7114474D01*
X21587787Y-7189888D01*
X21561626Y-7254675D01*
X21504591Y-7295033D01*
X21434791Y-7298150D01*
X21380399Y-7268961D01*
X21363323Y-7253241D01*
X21286695Y-7176613D01*
X21200032Y-7089950D01*
X21183911Y-7070098D01*
X21178837Y-7062331D01*
X21152887Y-7042133D01*
X21147141Y-7037059D01*
X21144707Y-7034625D01*
X21144706Y-7034624D01*
X21144705Y-7034623D01*
X21138248Y-7030013D01*
X21126961Y-7021955D01*
X21086526Y-6990483D01*
X21086522Y-6990481D01*
X21080048Y-6986977D01*
X21073468Y-6983760D01*
X21053315Y-6977760D01*
X20994681Y-6939764D01*
X20965896Y-6876099D01*
X20964700Y-6858916D01*
X20964700Y-6567123D01*
X20964699Y-6567121D01*
X20950167Y-6494064D01*
X20950166Y-6494060D01*
X20900492Y-6419717D01*
X20894801Y-6411199D01*
X20830792Y-6368430D01*
X20811939Y-6355833D01*
X20811935Y-6355832D01*
X20738877Y-6341300D01*
X20738874Y-6341300D01*
X19267126Y-6341300D01*
X19267123Y-6341300D01*
X19194064Y-6355832D01*
X19194060Y-6355833D01*
X19111199Y-6411199D01*
X19055833Y-6494060D01*
X19055832Y-6494064D01*
X19041300Y-6567121D01*
X19041300Y-7679855D01*
X19021615Y-7746894D01*
X18968811Y-7792649D01*
X18899653Y-7802593D01*
X18836097Y-7773568D01*
X18829619Y-7767536D01*
X18465060Y-7402978D01*
X18431575Y-7341655D01*
X18429686Y-7309093D01*
X18429353Y-7309093D01*
X18429353Y-7303348D01*
X18429340Y-7303129D01*
X18429353Y-7303000D01*
X18427710Y-7286327D01*
X18427693Y-7283896D01*
X18427582Y-7283906D01*
X18426731Y-7273659D01*
X18426732Y-7273656D01*
X18426731Y-7273652D01*
X18426215Y-7267432D01*
X18425377Y-7262639D01*
X18424451Y-7253241D01*
X18410785Y-7114474D01*
X18355794Y-6933193D01*
X18355792Y-6933189D01*
X18355792Y-6933188D01*
X18266496Y-6766128D01*
X18266496Y-6766127D01*
X18266491Y-6766121D01*
X18146315Y-6619685D01*
X17999877Y-6499507D01*
X17999873Y-6499505D01*
X17999871Y-6499503D01*
X17832811Y-6410207D01*
X17651524Y-6355214D01*
X17463000Y-6336647D01*
X17274475Y-6355214D01*
X17093188Y-6410207D01*
X16926128Y-6499503D01*
X16926127Y-6499503D01*
X16779685Y-6619685D01*
X16659503Y-6766127D01*
X16659503Y-6766128D01*
X16570207Y-6933188D01*
X16515214Y-7114475D01*
X16496647Y-7302999D01*
X16515214Y-7491524D01*
X16570207Y-7672811D01*
X16659503Y-7839871D01*
X16659503Y-7839872D01*
X16659506Y-7839876D01*
X16659507Y-7839877D01*
X16779685Y-7986315D01*
X16926123Y-8106493D01*
X16926126Y-8106495D01*
X16926128Y-8106496D01*
X17093188Y-8195792D01*
X17093190Y-8195792D01*
X17093193Y-8195794D01*
X17274474Y-8250785D01*
X17463000Y-8269353D01*
X17651526Y-8250785D01*
X17832807Y-8195794D01*
X17999877Y-8106493D01*
X18010397Y-8097858D01*
X18074703Y-8070543D01*
X18143571Y-8082331D01*
X18176746Y-8106028D01*
X18307581Y-8236863D01*
X18341066Y-8298186D01*
X18343900Y-8324544D01*
X18343900Y-9059662D01*
X18324215Y-9126701D01*
X18271411Y-9172456D01*
X18202253Y-9182400D01*
X18141236Y-9155516D01*
X17999877Y-9039507D01*
X17999871Y-9039503D01*
X17832811Y-8950207D01*
X17651524Y-8895214D01*
X17463000Y-8876647D01*
X17274475Y-8895214D01*
X17093188Y-8950207D01*
X16926128Y-9039503D01*
X16926127Y-9039503D01*
X16779685Y-9159685D01*
X16659503Y-9306127D01*
X16659503Y-9306128D01*
X16570207Y-9473188D01*
X16539437Y-9574625D01*
X16519048Y-9641840D01*
X16513447Y-9660303D01*
X16511473Y-9659704D01*
X16483439Y-9713284D01*
X16422720Y-9747851D01*
X16352951Y-9744104D01*
X16306535Y-9714853D01*
X16221637Y-9629955D01*
X16205511Y-9610098D01*
X16200437Y-9602331D01*
X16174487Y-9582133D01*
X16168741Y-9577059D01*
X16166307Y-9574625D01*
X16166306Y-9574624D01*
X16166305Y-9574623D01*
X16159848Y-9570013D01*
X16148561Y-9561955D01*
X16108126Y-9530483D01*
X16108122Y-9530481D01*
X16101648Y-9526977D01*
X16095069Y-9523760D01*
X16045954Y-9509138D01*
X15997486Y-9492498D01*
X15990269Y-9491294D01*
X15982953Y-9490382D01*
X15933725Y-9492419D01*
X15931769Y-9492500D01*
X15900437Y-9492500D01*
X15833398Y-9472815D01*
X15791079Y-9426953D01*
X15726497Y-9306128D01*
X15726496Y-9306127D01*
X15726047Y-9305580D01*
X15606315Y-9159685D01*
X15459877Y-9039507D01*
X15459873Y-9039505D01*
X15459871Y-9039503D01*
X15292811Y-8950207D01*
X15111524Y-8895214D01*
X14923000Y-8876647D01*
X14734475Y-8895214D01*
X14553188Y-8950207D01*
X14386128Y-9039503D01*
X14386127Y-9039503D01*
X14239682Y-9159687D01*
X14138091Y-9283476D01*
X14080345Y-9322810D01*
X14010500Y-9324681D01*
X13958255Y-9296041D01*
X13946524Y-9285242D01*
X13173637Y-8512355D01*
X13157511Y-8492498D01*
X13152437Y-8484731D01*
X13126487Y-8464533D01*
X13120741Y-8459459D01*
X13118307Y-8457025D01*
X13118306Y-8457024D01*
X13118305Y-8457023D01*
X13106372Y-8448504D01*
X13100561Y-8444355D01*
X13060126Y-8412883D01*
X13060122Y-8412881D01*
X13053648Y-8409377D01*
X13047069Y-8406160D01*
X12997954Y-8391538D01*
X12949486Y-8374898D01*
X12942269Y-8373694D01*
X12934951Y-8372782D01*
X12920529Y-8373379D01*
X12852734Y-8356481D01*
X12804836Y-8305613D01*
X12792044Y-8236924D01*
X12818418Y-8172224D01*
X12856950Y-8140127D01*
X12919877Y-8106493D01*
X13066315Y-7986315D01*
X13186493Y-7839877D01*
X13240388Y-7739046D01*
X13275792Y-7672811D01*
X13275792Y-7672810D01*
X13275794Y-7672807D01*
X13330785Y-7491526D01*
X13349353Y-7303000D01*
X13956647Y-7303000D01*
X13975214Y-7491524D01*
X14030207Y-7672811D01*
X14119503Y-7839871D01*
X14119503Y-7839872D01*
X14119506Y-7839876D01*
X14119507Y-7839877D01*
X14239685Y-7986315D01*
X14386123Y-8106493D01*
X14386126Y-8106495D01*
X14386128Y-8106496D01*
X14553188Y-8195792D01*
X14553190Y-8195792D01*
X14553193Y-8195794D01*
X14734474Y-8250785D01*
X14923000Y-8269353D01*
X15111526Y-8250785D01*
X15292807Y-8195794D01*
X15459871Y-8106496D01*
X15459872Y-8106496D01*
X15459873Y-8106495D01*
X15459877Y-8106493D01*
X15606315Y-7986315D01*
X15726493Y-7839877D01*
X15780388Y-7739046D01*
X15815792Y-7672811D01*
X15815792Y-7672810D01*
X15815794Y-7672807D01*
X15870785Y-7491526D01*
X15889353Y-7303000D01*
X15870785Y-7114474D01*
X15815794Y-6933193D01*
X15815792Y-6933189D01*
X15815792Y-6933188D01*
X15726496Y-6766128D01*
X15726496Y-6766127D01*
X15726491Y-6766121D01*
X15606315Y-6619685D01*
X15459877Y-6499507D01*
X15459873Y-6499505D01*
X15459871Y-6499503D01*
X15292811Y-6410207D01*
X15111524Y-6355214D01*
X14923000Y-6336647D01*
X14734475Y-6355214D01*
X14553188Y-6410207D01*
X14386128Y-6499503D01*
X14386127Y-6499503D01*
X14239685Y-6619685D01*
X14119503Y-6766127D01*
X14119503Y-6766128D01*
X14030207Y-6933188D01*
X13975214Y-7114475D01*
X13956647Y-7303000D01*
X13349353Y-7303000D01*
X13330785Y-7114474D01*
X13275794Y-6933193D01*
X13275792Y-6933189D01*
X13275792Y-6933188D01*
X13186496Y-6766128D01*
X13186496Y-6766127D01*
X13186491Y-6766121D01*
X13066315Y-6619685D01*
X12919877Y-6499507D01*
X12919873Y-6499505D01*
X12919871Y-6499503D01*
X12752811Y-6410207D01*
X12571524Y-6355214D01*
X12383000Y-6336647D01*
X12194475Y-6355214D01*
X12013188Y-6410207D01*
X11846128Y-6499503D01*
X11846127Y-6499503D01*
X11699682Y-6619687D01*
X11683353Y-6639585D01*
X11625608Y-6678919D01*
X11555763Y-6680790D01*
X11495995Y-6644603D01*
X11465279Y-6581847D01*
X11463500Y-6560920D01*
X11463500Y-5619943D01*
X11483185Y-5552904D01*
X11499810Y-5532271D01*
X11578491Y-5453590D01*
X11639809Y-5420108D01*
X11709501Y-5425092D01*
X11710962Y-5425648D01*
X11821105Y-5468317D01*
X11826544Y-5470424D01*
X12027024Y-5507900D01*
X12027026Y-5507900D01*
X12230974Y-5507900D01*
X12230976Y-5507900D01*
X12431456Y-5470424D01*
X12621637Y-5396748D01*
X12795041Y-5289381D01*
X12945764Y-5151979D01*
X13068673Y-4989221D01*
X13159582Y-4806650D01*
X13215397Y-4610483D01*
X13234215Y-4407400D01*
X13563785Y-4407400D01*
X13582602Y-4610482D01*
X13638417Y-4806647D01*
X13638422Y-4806660D01*
X13729327Y-4989221D01*
X13852237Y-5151981D01*
X14002958Y-5289380D01*
X14002960Y-5289382D01*
X14027716Y-5304710D01*
X14176363Y-5396748D01*
X14366544Y-5470424D01*
X14567024Y-5507900D01*
X14567026Y-5507900D01*
X14770974Y-5507900D01*
X14770976Y-5507900D01*
X14971456Y-5470424D01*
X15161637Y-5396748D01*
X15335041Y-5289381D01*
X15485764Y-5151979D01*
X15608673Y-4989221D01*
X15699582Y-4806650D01*
X15755397Y-4610483D01*
X15774215Y-4407400D01*
X15755397Y-4204317D01*
X15699582Y-4008150D01*
X15699114Y-4007211D01*
X15649415Y-3907400D01*
X15608673Y-3825579D01*
X15485764Y-3662821D01*
X15485762Y-3662818D01*
X15335041Y-3525419D01*
X15335039Y-3525417D01*
X15161642Y-3418055D01*
X15161635Y-3418051D01*
X15035769Y-3369291D01*
X14971456Y-3344376D01*
X14770976Y-3306900D01*
X14567024Y-3306900D01*
X14366544Y-3344376D01*
X14366541Y-3344376D01*
X14366541Y-3344377D01*
X14176364Y-3418051D01*
X14176357Y-3418055D01*
X14002960Y-3525417D01*
X14002958Y-3525419D01*
X13852237Y-3662818D01*
X13729327Y-3825578D01*
X13638422Y-4008139D01*
X13638417Y-4008152D01*
X13582602Y-4204317D01*
X13563785Y-4407399D01*
X13563785Y-4407400D01*
X13234215Y-4407400D01*
X13215397Y-4204317D01*
X13159582Y-4008150D01*
X13159114Y-4007211D01*
X13109415Y-3907400D01*
X13068673Y-3825579D01*
X12945764Y-3662821D01*
X12945762Y-3662818D01*
X12795041Y-3525419D01*
X12795039Y-3525417D01*
X12621642Y-3418055D01*
X12621635Y-3418051D01*
X12495769Y-3369291D01*
X12431456Y-3344376D01*
X12230976Y-3306900D01*
X12027024Y-3306900D01*
X11826544Y-3344376D01*
X11826541Y-3344376D01*
X11826541Y-3344377D01*
X11636364Y-3418051D01*
X11636357Y-3418055D01*
X11462960Y-3525417D01*
X11462958Y-3525419D01*
X11312237Y-3662818D01*
X11189327Y-3825578D01*
X11098422Y-4008139D01*
X11098417Y-4008152D01*
X11042602Y-4204317D01*
X11023785Y-4407399D01*
X11023785Y-4407400D01*
X11042602Y-4610482D01*
X11098418Y-4806653D01*
X11103741Y-4817341D01*
X11116002Y-4886126D01*
X11089129Y-4950621D01*
X11080422Y-4960294D01*
X10899955Y-5140761D01*
X10880106Y-5156882D01*
X10872331Y-5161962D01*
X10852143Y-5187898D01*
X10847067Y-5193648D01*
X10844634Y-5196081D01*
X10844623Y-5196094D01*
X10831954Y-5213838D01*
X10800483Y-5254272D01*
X10796975Y-5260753D01*
X10793760Y-5267332D01*
X10779138Y-5316445D01*
X10762498Y-5364916D01*
X10761294Y-5372133D01*
X10760382Y-5379446D01*
X10762500Y-5430630D01*
X10762500Y-6560920D01*
X10742815Y-6627959D01*
X10690011Y-6673714D01*
X10620853Y-6683658D01*
X10557297Y-6654633D01*
X10542647Y-6639585D01*
X10526317Y-6619687D01*
X10521699Y-6615897D01*
X10379877Y-6499507D01*
X10379873Y-6499505D01*
X10379871Y-6499503D01*
X10212811Y-6410207D01*
X10031524Y-6355214D01*
X9843000Y-6336647D01*
X9654475Y-6355214D01*
X9473188Y-6410207D01*
X9306128Y-6499503D01*
X9306127Y-6499503D01*
X9159685Y-6619685D01*
X9039503Y-6766127D01*
X9039503Y-6766128D01*
X8950207Y-6933188D01*
X8895214Y-7114475D01*
X8876647Y-7303000D01*
X8895214Y-7491524D01*
X8950207Y-7672811D01*
X9039503Y-7839871D01*
X9039503Y-7839872D01*
X9039506Y-7839876D01*
X9039507Y-7839877D01*
X9159685Y-7986315D01*
X9306123Y-8106493D01*
X9306126Y-8106495D01*
X9306128Y-8106496D01*
X9473188Y-8195792D01*
X9473190Y-8195792D01*
X9473193Y-8195794D01*
X9654474Y-8250785D01*
X9843000Y-8269353D01*
X10031526Y-8250785D01*
X10212807Y-8195794D01*
X10379871Y-8106496D01*
X10379872Y-8106496D01*
X10379873Y-8106495D01*
X10379877Y-8106493D01*
X10526315Y-7986315D01*
X10579798Y-7921144D01*
X10637543Y-7881810D01*
X10707388Y-7879939D01*
X10767157Y-7916126D01*
X10784707Y-7940792D01*
X10801295Y-7971444D01*
X10823801Y-8017483D01*
X10828065Y-8023455D01*
X10832580Y-8029256D01*
X10870275Y-8063958D01*
X11744760Y-8938441D01*
X11760880Y-8958289D01*
X11764336Y-8963580D01*
X11784527Y-9030466D01*
X11765351Y-9097652D01*
X11739197Y-9127258D01*
X11699685Y-9159684D01*
X11579503Y-9306127D01*
X11579503Y-9306128D01*
X11490207Y-9473188D01*
X11435214Y-9654475D01*
X11416647Y-9843000D01*
X11435214Y-10031524D01*
X11490207Y-10212811D01*
X11579503Y-10379871D01*
X11579507Y-10379877D01*
X11685504Y-10509036D01*
X11712816Y-10573346D01*
X11701025Y-10642213D01*
X11653872Y-10693773D01*
X11589650Y-10711700D01*
X11258744Y-10711700D01*
X11191705Y-10692015D01*
X11171063Y-10675381D01*
X10781993Y-10286311D01*
X10748508Y-10224988D01*
X10751012Y-10162637D01*
X10790785Y-10031526D01*
X10809353Y-9843000D01*
X10790785Y-9654474D01*
X10735794Y-9473193D01*
X10735792Y-9473189D01*
X10735792Y-9473188D01*
X10646496Y-9306128D01*
X10646496Y-9306127D01*
X10646047Y-9305580D01*
X10526315Y-9159685D01*
X10379877Y-9039507D01*
X10379873Y-9039505D01*
X10379871Y-9039503D01*
X10212811Y-8950207D01*
X10031524Y-8895214D01*
X9843000Y-8876647D01*
X9654475Y-8895214D01*
X9473188Y-8950207D01*
X9306128Y-9039503D01*
X9306127Y-9039503D01*
X9159685Y-9159685D01*
X9039503Y-9306127D01*
X9039503Y-9306128D01*
X8950207Y-9473188D01*
X8895214Y-9654475D01*
X8876647Y-9843000D01*
X8895214Y-10031524D01*
X8950207Y-10212811D01*
X9039503Y-10379871D01*
X9039503Y-10379872D01*
X9039506Y-10379876D01*
X9039507Y-10379877D01*
X9159685Y-10526315D01*
X9306123Y-10646493D01*
X9306126Y-10646495D01*
X9306128Y-10646496D01*
X9466734Y-10732342D01*
X9516578Y-10781304D01*
X9532039Y-10849442D01*
X9508207Y-10915121D01*
X9452650Y-10957490D01*
X9408281Y-10965700D01*
X8972744Y-10965700D01*
X8905705Y-10946015D01*
X8885063Y-10929381D01*
X8241993Y-10286311D01*
X8208508Y-10224988D01*
X8211012Y-10162637D01*
X8250785Y-10031526D01*
X8269353Y-9843000D01*
X8250785Y-9654474D01*
X8195794Y-9473193D01*
X8195792Y-9473189D01*
X8195792Y-9473188D01*
X8106496Y-9306128D01*
X8106496Y-9306127D01*
X8106047Y-9305580D01*
X7986315Y-9159685D01*
X7839877Y-9039507D01*
X7839873Y-9039505D01*
X7839871Y-9039503D01*
X7672811Y-8950207D01*
X7491524Y-8895214D01*
X7303000Y-8876647D01*
X7114475Y-8895214D01*
X6933188Y-8950207D01*
X6766128Y-9039503D01*
X6766127Y-9039503D01*
X6619685Y-9159685D01*
X6499503Y-9306127D01*
X6499503Y-9306128D01*
X6410207Y-9473188D01*
X6355214Y-9654475D01*
X6336647Y-9843000D01*
X6355214Y-10031524D01*
X6410207Y-10212811D01*
X6499503Y-10379871D01*
X6499503Y-10379872D01*
X6499506Y-10379876D01*
X6499507Y-10379877D01*
X6619685Y-10526315D01*
X6766123Y-10646493D01*
X6766126Y-10646495D01*
X6766128Y-10646496D01*
X6933188Y-10735792D01*
X6933190Y-10735792D01*
X6933193Y-10735794D01*
X7114474Y-10790785D01*
X7303000Y-10809353D01*
X7491526Y-10790785D01*
X7622636Y-10751012D01*
X7692501Y-10750390D01*
X7746311Y-10781993D01*
X8493562Y-11529244D01*
X8509689Y-11549102D01*
X8514763Y-11556869D01*
X8514765Y-11556871D01*
X8540705Y-11577060D01*
X8546468Y-11582150D01*
X8548893Y-11584575D01*
X8548895Y-11584577D01*
X8566637Y-11597244D01*
X8607074Y-11628717D01*
X8607078Y-11628718D01*
X8613514Y-11632200D01*
X8613539Y-11632213D01*
X8613571Y-11632230D01*
X8620130Y-11635437D01*
X8620133Y-11635439D01*
X8669237Y-11650058D01*
X8717712Y-11666700D01*
X8717714Y-11666700D01*
X8724954Y-11667908D01*
X8732246Y-11668817D01*
X8783431Y-11666700D01*
X8928529Y-11666700D01*
X8995568Y-11686385D01*
X9041323Y-11739189D01*
X9051267Y-11808347D01*
X9037887Y-11849153D01*
X8950207Y-12013188D01*
X8895214Y-12194475D01*
X8876647Y-12383000D01*
X8895214Y-12571524D01*
X8950207Y-12752811D01*
X9039503Y-12919871D01*
X9039503Y-12919872D01*
X9039506Y-12919876D01*
X9039507Y-12919877D01*
X9159685Y-13066315D01*
X9306123Y-13186493D01*
X9306126Y-13186495D01*
X9306128Y-13186496D01*
X9473188Y-13275792D01*
X9473190Y-13275792D01*
X9473193Y-13275794D01*
X9654474Y-13330785D01*
X9843000Y-13349353D01*
X9935635Y-13340229D01*
X10004280Y-13353248D01*
X10035469Y-13375951D01*
X11342895Y-14683377D01*
X11376380Y-14744700D01*
X11371396Y-14814392D01*
X11367598Y-14823460D01*
X11358741Y-14842453D01*
X11358740Y-14842458D01*
X11352500Y-14889859D01*
X11352500Y-15116131D01*
X11352501Y-15116138D01*
X11358741Y-15163545D01*
X11376018Y-15200596D01*
X11386509Y-15269673D01*
X11376018Y-15305402D01*
X11358742Y-15342451D01*
X11358740Y-15342458D01*
X11352500Y-15389859D01*
X11352500Y-15616134D01*
X11353441Y-15623276D01*
X11342673Y-15692311D01*
X11296291Y-15744565D01*
X11229021Y-15763448D01*
X11162222Y-15742965D01*
X11142820Y-15727138D01*
X10781993Y-15366311D01*
X10748508Y-15304988D01*
X10751012Y-15242637D01*
X10790785Y-15111526D01*
X10809353Y-14923000D01*
X10790785Y-14734474D01*
X10735794Y-14553193D01*
X10735792Y-14553190D01*
X10735792Y-14553188D01*
X10646496Y-14386128D01*
X10646496Y-14386127D01*
X10635875Y-14373185D01*
X10526315Y-14239685D01*
X10379877Y-14119507D01*
X10379873Y-14119505D01*
X10379871Y-14119503D01*
X10212811Y-14030207D01*
X10031524Y-13975214D01*
X9843000Y-13956647D01*
X9654475Y-13975214D01*
X9473188Y-14030207D01*
X9306128Y-14119503D01*
X9306127Y-14119503D01*
X9159685Y-14239685D01*
X9039503Y-14386127D01*
X9039503Y-14386128D01*
X8950207Y-14553188D01*
X8895214Y-14734475D01*
X8876647Y-14923000D01*
X8895214Y-15111524D01*
X8950207Y-15292811D01*
X9039503Y-15459871D01*
X9039507Y-15459877D01*
X9145504Y-15589036D01*
X9172816Y-15653346D01*
X9161025Y-15722213D01*
X9113872Y-15773773D01*
X9049650Y-15791700D01*
X8096350Y-15791700D01*
X8029311Y-15772015D01*
X7983556Y-15719211D01*
X7973612Y-15650053D01*
X8000496Y-15589036D01*
X8072484Y-15501317D01*
X8106493Y-15459877D01*
X8180093Y-15322182D01*
X8195792Y-15292811D01*
X8195792Y-15292810D01*
X8195794Y-15292807D01*
X8250785Y-15111526D01*
X8269353Y-14923000D01*
X8250785Y-14734474D01*
X8195794Y-14553193D01*
X8195792Y-14553190D01*
X8195792Y-14553188D01*
X8106496Y-14386128D01*
X8106496Y-14386127D01*
X8095875Y-14373185D01*
X7986315Y-14239685D01*
X7839877Y-14119507D01*
X7839873Y-14119505D01*
X7839871Y-14119503D01*
X7672811Y-14030207D01*
X7491524Y-13975214D01*
X7303000Y-13956647D01*
X7114475Y-13975214D01*
X6933188Y-14030207D01*
X6766128Y-14119503D01*
X6766127Y-14119503D01*
X6619685Y-14239685D01*
X6499503Y-14386127D01*
X6499503Y-14386128D01*
X6410207Y-14553188D01*
X6355214Y-14734475D01*
X6336647Y-14923000D01*
X6355214Y-15111524D01*
X6410207Y-15292811D01*
X6499503Y-15459871D01*
X6499503Y-15459872D01*
X6499506Y-15459876D01*
X6499507Y-15459877D01*
X6619685Y-15606315D01*
X6766123Y-15726493D01*
X6886955Y-15791079D01*
X6936797Y-15840040D01*
X6952500Y-15900436D01*
X6952500Y-15991388D01*
X6949861Y-16016832D01*
X6947957Y-16025911D01*
X6947957Y-16025917D01*
X6952023Y-16058537D01*
X6952500Y-16066214D01*
X6952500Y-16069638D01*
X6956087Y-16091141D01*
X6962427Y-16141993D01*
X6964520Y-16149026D01*
X6966908Y-16155981D01*
X6991295Y-16201044D01*
X7013801Y-16247083D01*
X7018065Y-16253055D01*
X7022580Y-16258856D01*
X7022581Y-16258857D01*
X7022582Y-16258858D01*
X7060275Y-16293557D01*
X7096670Y-16329952D01*
X7130155Y-16391273D01*
X7125171Y-16460965D01*
X7083301Y-16516899D01*
X7044985Y-16536293D01*
X6933191Y-16570206D01*
X6766128Y-16659503D01*
X6766127Y-16659503D01*
X6619685Y-16779685D01*
X6499503Y-16926127D01*
X6499503Y-16926128D01*
X6410207Y-17093188D01*
X6355214Y-17274475D01*
X6336647Y-17463000D01*
X6355214Y-17651524D01*
X6410207Y-17832811D01*
X6499503Y-17999871D01*
X6499503Y-17999872D01*
X6499506Y-17999876D01*
X6499507Y-17999877D01*
X6619685Y-18146315D01*
X6766123Y-18266493D01*
X6766126Y-18266495D01*
X6766128Y-18266496D01*
X6933188Y-18355792D01*
X6933190Y-18355792D01*
X6933193Y-18355794D01*
X7114474Y-18410785D01*
X7303000Y-18429353D01*
X7491526Y-18410785D01*
X7622636Y-18371012D01*
X7692501Y-18370390D01*
X7746311Y-18401993D01*
X8391962Y-19047644D01*
X8408086Y-19067499D01*
X8413163Y-19075269D01*
X8439108Y-19095462D01*
X8444860Y-19100542D01*
X8447293Y-19102975D01*
X8465034Y-19115641D01*
X8505474Y-19147117D01*
X8505476Y-19147117D01*
X8511848Y-19150566D01*
X8511905Y-19150594D01*
X8511978Y-19150633D01*
X8518529Y-19153835D01*
X8518534Y-19153839D01*
X8567633Y-19168456D01*
X8616112Y-19185100D01*
X8616120Y-19185100D01*
X8623305Y-19186299D01*
X8623338Y-19186304D01*
X8623392Y-19186313D01*
X8630646Y-19187217D01*
X8681831Y-19185100D01*
X9007960Y-19185100D01*
X9074999Y-19204785D01*
X9120754Y-19257589D01*
X9130698Y-19326747D01*
X9103813Y-19387765D01*
X9039508Y-19466121D01*
X9039503Y-19466128D01*
X8950207Y-19633188D01*
X8895214Y-19814475D01*
X8876647Y-20003000D01*
X8895214Y-20191524D01*
X8950207Y-20372811D01*
X9039503Y-20539871D01*
X9039503Y-20539872D01*
X9039506Y-20539876D01*
X9039507Y-20539877D01*
X9159684Y-20686314D01*
X9159687Y-20686317D01*
X9303385Y-20804246D01*
X9342720Y-20861992D01*
X9344591Y-20931837D01*
X9308404Y-20991605D01*
X9245648Y-21022321D01*
X9224721Y-21024100D01*
X8520606Y-21024100D01*
X8495161Y-21021461D01*
X8486085Y-21019558D01*
X8486082Y-21019558D01*
X8453468Y-21023623D01*
X8445792Y-21024100D01*
X8442360Y-21024100D01*
X8428019Y-21026492D01*
X8420848Y-21027689D01*
X8404021Y-21029786D01*
X8370007Y-21034027D01*
X8370006Y-21034027D01*
X8370001Y-21034028D01*
X8362975Y-21036119D01*
X8356023Y-21038506D01*
X8356019Y-21038507D01*
X8356019Y-21038508D01*
X8323811Y-21055938D01*
X8310955Y-21062895D01*
X8264912Y-21085403D01*
X8258966Y-21089648D01*
X8253142Y-21094181D01*
X8218442Y-21131875D01*
X7746310Y-21604006D01*
X7684987Y-21637491D01*
X7622634Y-21634986D01*
X7491524Y-21595214D01*
X7303000Y-21576647D01*
X7114475Y-21595214D01*
X6933188Y-21650207D01*
X6766128Y-21739503D01*
X6766127Y-21739503D01*
X6619685Y-21859685D01*
X6499503Y-22006127D01*
X6499503Y-22006128D01*
X6410207Y-22173188D01*
X6355214Y-22354475D01*
X6336647Y-22543000D01*
X6355214Y-22731524D01*
X6410207Y-22912811D01*
X6499503Y-23079871D01*
X6499503Y-23079872D01*
X6499506Y-23079876D01*
X6499507Y-23079877D01*
X6619685Y-23226315D01*
X6766123Y-23346493D01*
X6766126Y-23346495D01*
X6766128Y-23346496D01*
X6933188Y-23435792D01*
X6933190Y-23435792D01*
X6933193Y-23435794D01*
X7114474Y-23490785D01*
X7303000Y-23509353D01*
X7491526Y-23490785D01*
X7672807Y-23435794D01*
X7839871Y-23346496D01*
X7839872Y-23346496D01*
X7839873Y-23346495D01*
X7839877Y-23346493D01*
X7986315Y-23226315D01*
X8106493Y-23079877D01*
X8195794Y-22912807D01*
X8250785Y-22731526D01*
X8269353Y-22543000D01*
X8250785Y-22354474D01*
X8211012Y-22223363D01*
X8210390Y-22153497D01*
X8241993Y-22099688D01*
X8580263Y-21761419D01*
X8641586Y-21727934D01*
X8667944Y-21725100D01*
X9007960Y-21725100D01*
X9074999Y-21744785D01*
X9120754Y-21797589D01*
X9130698Y-21866747D01*
X9103813Y-21927765D01*
X9039508Y-22006121D01*
X9039503Y-22006128D01*
X8950207Y-22173188D01*
X8895214Y-22354475D01*
X8876647Y-22543000D01*
X8895214Y-22731524D01*
X8920986Y-22816482D01*
X8949112Y-22909201D01*
X8950207Y-22912809D01*
X8979683Y-22967956D01*
X8993924Y-23036359D01*
X8968923Y-23101602D01*
X8912618Y-23142972D01*
X8885666Y-23149455D01*
X8865071Y-23152023D01*
X8857393Y-23152500D01*
X8853960Y-23152500D01*
X8839737Y-23154873D01*
X8832448Y-23156089D01*
X8815621Y-23158186D01*
X8781607Y-23162427D01*
X8781606Y-23162427D01*
X8781601Y-23162428D01*
X8774575Y-23164519D01*
X8767623Y-23166906D01*
X8767619Y-23166907D01*
X8767619Y-23166908D01*
X8746611Y-23178277D01*
X8722555Y-23191295D01*
X8676512Y-23213803D01*
X8670566Y-23218048D01*
X8664742Y-23222581D01*
X8630042Y-23260275D01*
X7746310Y-24144006D01*
X7684987Y-24177491D01*
X7622634Y-24174986D01*
X7491524Y-24135214D01*
X7303000Y-24116647D01*
X7114475Y-24135214D01*
X6933188Y-24190207D01*
X6766128Y-24279503D01*
X6766127Y-24279503D01*
X6619685Y-24399685D01*
X6499503Y-24546127D01*
X6499503Y-24546128D01*
X6410207Y-24713188D01*
X6355214Y-24894475D01*
X6336647Y-25083000D01*
X6355214Y-25271524D01*
X6410207Y-25452811D01*
X6499503Y-25619871D01*
X6499503Y-25619872D01*
X6499506Y-25619876D01*
X6499507Y-25619877D01*
X6619685Y-25766315D01*
X6766123Y-25886493D01*
X6766126Y-25886495D01*
X6766128Y-25886496D01*
X6933188Y-25975792D01*
X6933190Y-25975792D01*
X6933193Y-25975794D01*
X7114474Y-26030785D01*
X7303000Y-26049353D01*
X7491526Y-26030785D01*
X7672807Y-25975794D01*
X7683638Y-25970005D01*
X7808961Y-25903018D01*
X7839871Y-25886496D01*
X7839872Y-25886496D01*
X7839873Y-25886495D01*
X7839877Y-25886493D01*
X7986315Y-25766315D01*
X8106493Y-25619877D01*
X8175799Y-25490215D01*
X8195792Y-25452811D01*
X8195792Y-25452810D01*
X8195794Y-25452807D01*
X8250785Y-25271526D01*
X8269353Y-25083000D01*
X8250785Y-24894474D01*
X8211012Y-24763363D01*
X8210390Y-24693497D01*
X8241993Y-24639688D01*
X8612732Y-24268950D01*
X8991862Y-23889819D01*
X9053186Y-23856334D01*
X9079544Y-23853500D01*
X9921855Y-23853500D01*
X9988894Y-23873185D01*
X10034649Y-23925989D01*
X10044593Y-23995147D01*
X10015568Y-24058703D01*
X10009534Y-24065183D01*
X9989221Y-24085495D01*
X9927897Y-24118979D01*
X9889390Y-24121215D01*
X9843002Y-24116647D01*
X9843000Y-24116647D01*
X9654475Y-24135214D01*
X9473188Y-24190207D01*
X9306128Y-24279503D01*
X9306127Y-24279503D01*
X9159685Y-24399685D01*
X9039503Y-24546127D01*
X9039503Y-24546128D01*
X8950207Y-24713188D01*
X8895214Y-24894475D01*
X8876647Y-25083000D01*
X8895214Y-25271524D01*
X8950207Y-25452811D01*
X9039503Y-25619871D01*
X9039503Y-25619872D01*
X9039506Y-25619876D01*
X9039507Y-25619877D01*
X9159684Y-25766314D01*
X9159687Y-25766317D01*
X9179585Y-25782647D01*
X9218919Y-25840392D01*
X9220790Y-25910237D01*
X9184603Y-25970005D01*
X9121847Y-26000721D01*
X9100920Y-26002500D01*
X8622206Y-26002500D01*
X8596761Y-25999861D01*
X8587685Y-25997958D01*
X8587682Y-25997958D01*
X8555068Y-26002023D01*
X8547392Y-26002500D01*
X8543960Y-26002500D01*
X8529619Y-26004892D01*
X8522448Y-26006089D01*
X8505621Y-26008186D01*
X8471607Y-26012427D01*
X8471606Y-26012427D01*
X8471601Y-26012428D01*
X8464575Y-26014519D01*
X8457623Y-26016906D01*
X8457619Y-26016907D01*
X8457619Y-26016908D01*
X8446484Y-26022934D01*
X8412555Y-26041295D01*
X8366512Y-26063803D01*
X8360566Y-26068048D01*
X8354742Y-26072581D01*
X8320042Y-26110275D01*
X7746310Y-26684006D01*
X7684987Y-26717491D01*
X7622634Y-26714986D01*
X7491524Y-26675214D01*
X7303000Y-26656647D01*
X7114475Y-26675214D01*
X6933188Y-26730207D01*
X6766128Y-26819503D01*
X6766127Y-26819503D01*
X6619685Y-26939685D01*
X6499503Y-27086127D01*
X6499503Y-27086128D01*
X6410207Y-27253188D01*
X6355214Y-27434475D01*
X6336647Y-27623000D01*
X6355214Y-27811524D01*
X6410207Y-27992811D01*
X6499503Y-28159871D01*
X6499503Y-28159872D01*
X6499506Y-28159876D01*
X6499507Y-28159877D01*
X6619685Y-28306315D01*
X6766123Y-28426493D01*
X6766126Y-28426495D01*
X6766128Y-28426496D01*
X6933188Y-28515792D01*
X6933190Y-28515792D01*
X6933193Y-28515794D01*
X7114474Y-28570785D01*
X7303000Y-28589353D01*
X7491526Y-28570785D01*
X7672807Y-28515794D01*
X7839871Y-28426496D01*
X7839872Y-28426496D01*
X7839873Y-28426495D01*
X7839877Y-28426493D01*
X7986315Y-28306315D01*
X8106493Y-28159877D01*
X8195794Y-27992807D01*
X8250785Y-27811526D01*
X8269353Y-27623000D01*
X8250785Y-27434474D01*
X8211012Y-27303363D01*
X8210390Y-27233497D01*
X8241993Y-27179688D01*
X8456815Y-26964867D01*
X8681862Y-26739819D01*
X8743186Y-26706334D01*
X8769544Y-26703500D01*
X8895512Y-26703500D01*
X9100920Y-26703500D01*
X9167959Y-26723185D01*
X9213714Y-26775989D01*
X9223658Y-26845147D01*
X9194633Y-26908703D01*
X9179585Y-26923353D01*
X9159687Y-26939682D01*
X9039503Y-27086127D01*
X9039503Y-27086128D01*
X8950207Y-27253188D01*
X8895214Y-27434475D01*
X8876647Y-27623000D01*
X8895214Y-27811524D01*
X8950207Y-27992811D01*
X9039503Y-28159871D01*
X9039503Y-28159872D01*
X9039506Y-28159876D01*
X9039507Y-28159877D01*
X9159684Y-28306314D01*
X9163550Y-28311024D01*
X9162375Y-28311988D01*
X9192273Y-28366742D01*
X9187289Y-28436434D01*
X9145417Y-28492367D01*
X9079953Y-28516784D01*
X9071107Y-28517100D01*
X8647606Y-28517100D01*
X8622161Y-28514461D01*
X8613085Y-28512558D01*
X8613082Y-28512558D01*
X8580468Y-28516623D01*
X8572792Y-28517100D01*
X8569360Y-28517100D01*
X8555019Y-28519492D01*
X8547848Y-28520689D01*
X8531021Y-28522786D01*
X8497007Y-28527027D01*
X8497006Y-28527027D01*
X8497001Y-28527028D01*
X8489975Y-28529119D01*
X8483023Y-28531506D01*
X8437955Y-28555895D01*
X8391912Y-28578403D01*
X8385966Y-28582648D01*
X8380142Y-28587181D01*
X8345442Y-28624875D01*
X7746310Y-29224006D01*
X7684987Y-29257491D01*
X7622634Y-29254986D01*
X7491524Y-29215214D01*
X7303000Y-29196647D01*
X7114475Y-29215214D01*
X6933188Y-29270207D01*
X6766128Y-29359503D01*
X6766127Y-29359503D01*
X6619685Y-29479685D01*
X6499503Y-29626127D01*
X6499503Y-29626128D01*
X6410207Y-29793188D01*
X6355214Y-29974475D01*
X6336647Y-30163000D01*
X6355214Y-30351524D01*
X6410207Y-30532811D01*
X6499503Y-30699871D01*
X6499503Y-30699872D01*
X6499506Y-30699876D01*
X6499507Y-30699877D01*
X6619685Y-30846315D01*
X6766123Y-30966493D01*
X6766126Y-30966495D01*
X6766128Y-30966496D01*
X6933188Y-31055792D01*
X6933190Y-31055792D01*
X6933193Y-31055794D01*
X7114474Y-31110785D01*
X7303000Y-31129353D01*
X7491526Y-31110785D01*
X7672807Y-31055794D01*
X7705615Y-31038258D01*
X7824646Y-30974634D01*
X7839871Y-30966496D01*
X7839872Y-30966496D01*
X7839873Y-30966495D01*
X7839877Y-30966493D01*
X7986315Y-30846315D01*
X8106493Y-30699877D01*
X8171700Y-30577883D01*
X8195792Y-30532811D01*
X8195792Y-30532810D01*
X8195794Y-30532807D01*
X8250785Y-30351526D01*
X8269353Y-30163000D01*
X8250785Y-29974474D01*
X8211012Y-29843363D01*
X8210390Y-29773497D01*
X8241993Y-29719688D01*
X8707263Y-29254419D01*
X8768586Y-29220934D01*
X8794944Y-29218100D01*
X9131870Y-29218100D01*
X9198909Y-29237785D01*
X9244664Y-29290589D01*
X9254608Y-29359747D01*
X9225583Y-29423303D01*
X9210535Y-29437953D01*
X9159687Y-29479682D01*
X9039503Y-29626127D01*
X9039503Y-29626128D01*
X8950207Y-29793188D01*
X8895214Y-29974475D01*
X8876647Y-30163000D01*
X8895214Y-30351524D01*
X8950207Y-30532811D01*
X9039503Y-30699871D01*
X9039503Y-30699872D01*
X9039506Y-30699876D01*
X9039507Y-30699877D01*
X9159685Y-30846315D01*
X9306123Y-30966493D01*
X9306126Y-30966495D01*
X9306128Y-30966496D01*
X9473188Y-31055792D01*
X9473190Y-31055792D01*
X9473193Y-31055794D01*
X9654474Y-31110785D01*
X9843000Y-31129353D01*
X10031526Y-31110785D01*
X10212807Y-31055794D01*
X10245615Y-31038258D01*
X10364646Y-30974634D01*
X10379871Y-30966496D01*
X10379872Y-30966496D01*
X10379873Y-30966495D01*
X10379877Y-30966493D01*
X10526315Y-30846315D01*
X10646493Y-30699877D01*
X10711700Y-30577883D01*
X10735792Y-30532811D01*
X10735792Y-30532810D01*
X10735794Y-30532807D01*
X10790785Y-30351526D01*
X10809353Y-30163000D01*
X10790785Y-29974474D01*
X10751012Y-29843363D01*
X10750390Y-29773497D01*
X10781993Y-29719688D01*
X11425063Y-29076619D01*
X11486386Y-29043134D01*
X11512744Y-29040300D01*
X11948281Y-29040300D01*
X12015320Y-29059985D01*
X12061075Y-29112789D01*
X12071019Y-29181947D01*
X12041994Y-29245503D01*
X12006734Y-29273658D01*
X11846128Y-29359503D01*
X11846127Y-29359503D01*
X11699685Y-29479685D01*
X11579503Y-29626127D01*
X11579503Y-29626128D01*
X11490207Y-29793188D01*
X11435214Y-29974475D01*
X11416647Y-30163000D01*
X11435214Y-30351524D01*
X11490207Y-30532811D01*
X11579503Y-30699871D01*
X11579503Y-30699872D01*
X11579506Y-30699876D01*
X11579507Y-30699877D01*
X11699685Y-30846315D01*
X11846123Y-30966493D01*
X11846126Y-30966495D01*
X11846128Y-30966496D01*
X12013188Y-31055792D01*
X12013190Y-31055792D01*
X12013193Y-31055794D01*
X12194474Y-31110785D01*
X12383000Y-31129353D01*
X12571526Y-31110785D01*
X12752807Y-31055794D01*
X12785615Y-31038258D01*
X12904646Y-30974634D01*
X12919871Y-30966496D01*
X12919872Y-30966496D01*
X12919873Y-30966495D01*
X12919877Y-30966493D01*
X13066315Y-30846315D01*
X13186493Y-30699877D01*
X13251700Y-30577883D01*
X13275792Y-30532811D01*
X13275792Y-30532810D01*
X13275794Y-30532807D01*
X13330785Y-30351526D01*
X13349353Y-30163000D01*
X13330785Y-29974474D01*
X13291012Y-29843363D01*
X13290389Y-29773497D01*
X13321988Y-29719691D01*
X13457063Y-29584616D01*
X13518386Y-29551134D01*
X13544743Y-29548300D01*
X13954222Y-29548300D01*
X14021261Y-29567985D01*
X14067016Y-29620789D01*
X14076960Y-29689947D01*
X14063580Y-29730753D01*
X14030207Y-29793188D01*
X13975214Y-29974475D01*
X13956647Y-30162999D01*
X13975214Y-30351524D01*
X14030207Y-30532811D01*
X14119503Y-30699871D01*
X14119503Y-30699872D01*
X14119506Y-30699876D01*
X14119507Y-30699877D01*
X14239685Y-30846315D01*
X14386123Y-30966493D01*
X14386126Y-30966495D01*
X14386128Y-30966496D01*
X14553188Y-31055792D01*
X14553190Y-31055792D01*
X14553193Y-31055794D01*
X14734474Y-31110785D01*
X14923000Y-31129353D01*
X15111526Y-31110785D01*
X15292807Y-31055794D01*
X15325615Y-31038258D01*
X15444646Y-30974634D01*
X15459877Y-30966493D01*
X15525036Y-30913018D01*
X15589345Y-30885706D01*
X15658212Y-30897497D01*
X15709772Y-30944649D01*
X15727700Y-31008872D01*
X15727700Y-31857127D01*
X15708015Y-31924166D01*
X15655211Y-31969921D01*
X15586053Y-31979865D01*
X15525036Y-31952981D01*
X15459877Y-31899507D01*
X15459871Y-31899503D01*
X15292811Y-31810207D01*
X15111524Y-31755214D01*
X14923000Y-31736647D01*
X14734475Y-31755214D01*
X14553188Y-31810207D01*
X14386128Y-31899503D01*
X14386127Y-31899503D01*
X14239685Y-32019685D01*
X14119503Y-32166127D01*
X14119503Y-32166128D01*
X14030207Y-32333188D01*
X13975214Y-32514475D01*
X13956647Y-32703000D01*
X13975214Y-32891524D01*
X14030207Y-33072811D01*
X14119503Y-33239871D01*
X14119503Y-33239872D01*
X14119506Y-33239876D01*
X14119507Y-33239877D01*
X14239685Y-33386315D01*
X14386123Y-33506493D01*
X14386126Y-33506495D01*
X14386128Y-33506496D01*
X14553188Y-33595792D01*
X14553190Y-33595792D01*
X14553193Y-33595794D01*
X14734474Y-33650785D01*
X14923000Y-33669353D01*
X15111526Y-33650785D01*
X15292807Y-33595794D01*
X15459871Y-33506496D01*
X15459872Y-33506496D01*
X15459873Y-33506495D01*
X15459877Y-33506493D01*
X15606315Y-33386315D01*
X15726493Y-33239877D01*
X15815794Y-33072807D01*
X15870785Y-32891526D01*
X15889353Y-32703000D01*
X15886026Y-32669226D01*
X15899044Y-32600584D01*
X15947108Y-32549873D01*
X16014959Y-32533197D01*
X16081053Y-32555852D01*
X16097110Y-32569393D01*
X16443762Y-32916044D01*
X16459886Y-32935899D01*
X16464963Y-32943669D01*
X16490908Y-32963862D01*
X16496660Y-32968942D01*
X16499093Y-32971375D01*
X16499094Y-32971376D01*
X16516835Y-32984043D01*
X16520384Y-32986805D01*
X16561196Y-33043516D01*
X16562880Y-33048659D01*
X16570206Y-33072808D01*
X16570207Y-33072810D01*
X16659503Y-33239871D01*
X16659503Y-33239872D01*
X16659506Y-33239876D01*
X16659507Y-33239877D01*
X16779685Y-33386315D01*
X16926123Y-33506493D01*
X16926126Y-33506495D01*
X16926128Y-33506496D01*
X17093188Y-33595792D01*
X17093190Y-33595792D01*
X17093193Y-33595794D01*
X17274474Y-33650785D01*
X17463000Y-33669353D01*
X17651526Y-33650785D01*
X17832807Y-33595794D01*
X17857426Y-33582635D01*
X18005250Y-33503622D01*
X18006185Y-33505372D01*
X18064142Y-33487221D01*
X18131523Y-33505700D01*
X18178218Y-33557676D01*
X18189400Y-33626645D01*
X18187727Y-33636644D01*
X18186957Y-33640316D01*
X18186957Y-33640317D01*
X18191023Y-33672937D01*
X18191500Y-33680614D01*
X18191500Y-33684038D01*
X18195087Y-33705541D01*
X18201427Y-33756393D01*
X18203520Y-33763426D01*
X18205908Y-33770381D01*
X18230295Y-33815444D01*
X18239097Y-33833450D01*
X18254247Y-33864439D01*
X18266007Y-33933312D01*
X18238664Y-33997609D01*
X18180899Y-34036917D01*
X18142847Y-34042900D01*
X17131523Y-34042900D01*
X17058464Y-34057432D01*
X17058460Y-34057433D01*
X16975599Y-34112799D01*
X16920233Y-34195660D01*
X16920232Y-34195664D01*
X16905700Y-34268721D01*
X16905700Y-34362900D01*
X16886015Y-34429939D01*
X16833211Y-34475694D01*
X16781700Y-34486900D01*
X6473365Y-34486900D01*
X6406326Y-34467215D01*
X6385684Y-34450581D01*
X5605419Y-33670316D01*
X5571934Y-33608993D01*
X5569100Y-33582635D01*
X5569100Y-32703000D01*
X8876647Y-32703000D01*
X8895214Y-32891524D01*
X8950207Y-33072811D01*
X9039503Y-33239871D01*
X9039503Y-33239872D01*
X9039506Y-33239876D01*
X9039507Y-33239877D01*
X9159685Y-33386315D01*
X9306123Y-33506493D01*
X9306126Y-33506495D01*
X9306128Y-33506496D01*
X9473188Y-33595792D01*
X9473190Y-33595792D01*
X9473193Y-33595794D01*
X9654474Y-33650785D01*
X9843000Y-33669353D01*
X10031526Y-33650785D01*
X10212807Y-33595794D01*
X10379871Y-33506496D01*
X10379872Y-33506496D01*
X10379873Y-33506495D01*
X10379877Y-33506493D01*
X10526315Y-33386315D01*
X10646493Y-33239877D01*
X10735794Y-33072807D01*
X10790785Y-32891526D01*
X10809353Y-32703000D01*
X10809353Y-32702999D01*
X11416647Y-32702999D01*
X11435214Y-32891524D01*
X11490207Y-33072811D01*
X11579503Y-33239871D01*
X11579503Y-33239872D01*
X11579506Y-33239876D01*
X11579507Y-33239877D01*
X11699685Y-33386315D01*
X11846123Y-33506493D01*
X11846126Y-33506495D01*
X11846128Y-33506496D01*
X12013188Y-33595792D01*
X12013190Y-33595792D01*
X12013193Y-33595794D01*
X12194474Y-33650785D01*
X12383000Y-33669353D01*
X12571526Y-33650785D01*
X12752807Y-33595794D01*
X12919871Y-33506496D01*
X12919872Y-33506496D01*
X12919873Y-33506495D01*
X12919877Y-33506493D01*
X13066315Y-33386315D01*
X13186493Y-33239877D01*
X13275794Y-33072807D01*
X13330785Y-32891526D01*
X13349353Y-32703000D01*
X13330785Y-32514474D01*
X13275794Y-32333193D01*
X13275792Y-32333190D01*
X13275792Y-32333188D01*
X13186496Y-32166128D01*
X13186496Y-32166127D01*
X13183815Y-32162860D01*
X13066315Y-32019685D01*
X12919877Y-31899507D01*
X12919873Y-31899505D01*
X12919871Y-31899503D01*
X12752811Y-31810207D01*
X12571524Y-31755214D01*
X12383000Y-31736647D01*
X12194475Y-31755214D01*
X12013188Y-31810207D01*
X11846128Y-31899503D01*
X11846127Y-31899503D01*
X11699685Y-32019685D01*
X11579503Y-32166127D01*
X11579503Y-32166128D01*
X11490207Y-32333188D01*
X11435214Y-32514475D01*
X11416647Y-32702999D01*
X10809353Y-32702999D01*
X10790785Y-32514474D01*
X10735794Y-32333193D01*
X10735792Y-32333190D01*
X10735792Y-32333188D01*
X10646496Y-32166128D01*
X10646496Y-32166127D01*
X10643815Y-32162860D01*
X10526315Y-32019685D01*
X10379877Y-31899507D01*
X10379873Y-31899505D01*
X10379871Y-31899503D01*
X10212811Y-31810207D01*
X10031524Y-31755214D01*
X9843000Y-31736647D01*
X9654475Y-31755214D01*
X9473188Y-31810207D01*
X9306128Y-31899503D01*
X9306127Y-31899503D01*
X9159685Y-32019685D01*
X9039503Y-32166127D01*
X9039503Y-32166128D01*
X8950207Y-32333188D01*
X8895214Y-32514475D01*
X8876647Y-32703000D01*
X5569100Y-32703000D01*
X5569100Y-20596566D01*
X5588785Y-20529527D01*
X5605419Y-20508885D01*
X5624485Y-20489819D01*
X5685808Y-20456334D01*
X5712166Y-20453500D01*
X6379015Y-20453500D01*
X6446054Y-20473185D01*
X6488371Y-20519044D01*
X6499507Y-20539877D01*
X6619685Y-20686315D01*
X6766123Y-20806493D01*
X6766126Y-20806495D01*
X6766128Y-20806496D01*
X6933188Y-20895792D01*
X6933190Y-20895792D01*
X6933193Y-20895794D01*
X7114474Y-20950785D01*
X7303000Y-20969353D01*
X7491526Y-20950785D01*
X7672807Y-20895794D01*
X7839871Y-20806496D01*
X7839872Y-20806496D01*
X7839873Y-20806495D01*
X7839877Y-20806493D01*
X7986315Y-20686315D01*
X8106493Y-20539877D01*
X8162960Y-20434235D01*
X8195792Y-20372811D01*
X8195792Y-20372810D01*
X8195794Y-20372807D01*
X8250785Y-20191526D01*
X8269353Y-20003000D01*
X8250785Y-19814474D01*
X8195794Y-19633193D01*
X8195792Y-19633190D01*
X8195792Y-19633188D01*
X8106496Y-19466128D01*
X8106496Y-19466127D01*
X8092140Y-19448634D01*
X7986315Y-19319685D01*
X7839877Y-19199507D01*
X7839873Y-19199505D01*
X7839871Y-19199503D01*
X7672811Y-19110207D01*
X7491524Y-19055214D01*
X7303000Y-19036647D01*
X7114475Y-19055214D01*
X6933188Y-19110207D01*
X6766128Y-19199503D01*
X6766127Y-19199503D01*
X6619685Y-19319685D01*
X6499507Y-19466122D01*
X6499504Y-19466128D01*
X6488371Y-19486955D01*
X6439410Y-19536798D01*
X6379015Y-19552500D01*
X5502983Y-19552500D01*
X5496044Y-19552110D01*
X5481769Y-19550502D01*
X5457164Y-19547729D01*
X5406743Y-19557270D01*
X5398720Y-19558788D01*
X5386032Y-19560700D01*
X5339916Y-19567651D01*
X5331732Y-19570175D01*
X5323728Y-19572976D01*
X5271136Y-19600773D01*
X5217557Y-19626574D01*
X5210538Y-19631359D01*
X5203661Y-19636435D01*
X5161613Y-19678483D01*
X5118003Y-19718947D01*
X5112213Y-19726208D01*
X5111562Y-19725688D01*
X5102167Y-19737928D01*
X4820404Y-20019692D01*
X4815217Y-20024327D01*
X4784633Y-20048717D01*
X4784629Y-20048721D01*
X4751119Y-20097871D01*
X4715806Y-20145718D01*
X4711816Y-20153267D01*
X4708128Y-20160926D01*
X4690592Y-20217777D01*
X4670953Y-20273901D01*
X4669371Y-20282259D01*
X4668100Y-20290700D01*
X4668100Y-20350173D01*
X4665875Y-20409609D01*
X4666916Y-20418843D01*
X4666085Y-20418936D01*
X4668100Y-20434235D01*
X4668100Y-33791817D01*
X4667710Y-33798755D01*
X4666324Y-33811054D01*
X4663329Y-33837634D01*
X2653652Y-33837634D01*
X2680622Y-12383000D01*
X6336647Y-12383000D01*
X6355214Y-12571524D01*
X6410207Y-12752811D01*
X6499503Y-12919871D01*
X6499503Y-12919872D01*
X6499506Y-12919876D01*
X6499507Y-12919877D01*
X6619685Y-13066315D01*
X6766123Y-13186493D01*
X6766126Y-13186495D01*
X6766128Y-13186496D01*
X6933188Y-13275792D01*
X6933190Y-13275792D01*
X6933193Y-13275794D01*
X7114474Y-13330785D01*
X7303000Y-13349353D01*
X7491526Y-13330785D01*
X7672807Y-13275794D01*
X7673047Y-13275666D01*
X7794125Y-13210948D01*
X7839871Y-13186496D01*
X7839872Y-13186496D01*
X7839873Y-13186495D01*
X7839877Y-13186493D01*
X7986315Y-13066315D01*
X8106493Y-12919877D01*
X8185267Y-12772501D01*
X8195792Y-12752811D01*
X8195793Y-12752809D01*
X8195794Y-12752807D01*
X8250785Y-12571526D01*
X8269353Y-12383000D01*
X8250785Y-12194474D01*
X8195794Y-12013193D01*
X8195792Y-12013190D01*
X8195792Y-12013188D01*
X8106496Y-11846128D01*
X8106496Y-11846127D01*
X8087262Y-11822690D01*
X7986315Y-11699685D01*
X7839877Y-11579507D01*
X7839873Y-11579505D01*
X7839871Y-11579503D01*
X7672811Y-11490207D01*
X7491524Y-11435214D01*
X7303000Y-11416647D01*
X7114475Y-11435214D01*
X6933188Y-11490207D01*
X6766128Y-11579503D01*
X6766127Y-11579503D01*
X6619685Y-11699685D01*
X6499503Y-11846127D01*
X6499503Y-11846128D01*
X6410207Y-12013188D01*
X6355214Y-12194475D01*
X6336647Y-12383000D01*
X2680622Y-12383000D01*
X2690333Y-4657400D01*
X3178364Y-4657400D01*
X3235567Y-4870886D01*
X3235570Y-4870892D01*
X3335399Y-5084978D01*
X3470894Y-5278482D01*
X3637917Y-5445505D01*
X3831421Y-5581000D01*
X4045507Y-5680829D01*
X4045516Y-5680833D01*
X4259000Y-5738034D01*
X4259000Y-5019701D01*
X4278685Y-4952662D01*
X4331489Y-4906907D01*
X4400647Y-4896963D01*
X4473237Y-4907400D01*
X4473238Y-4907400D01*
X4544762Y-4907400D01*
X4544763Y-4907400D01*
X4617353Y-4896963D01*
X4686512Y-4906907D01*
X4739315Y-4952662D01*
X4759000Y-5019701D01*
X4759000Y-5738033D01*
X4972483Y-5680833D01*
X4972492Y-5680829D01*
X5186578Y-5581000D01*
X5380082Y-5445505D01*
X5547105Y-5278482D01*
X5682600Y-5084978D01*
X5782429Y-4870892D01*
X5782431Y-4870889D01*
X5791406Y-4837392D01*
X5827770Y-4777731D01*
X5890616Y-4747200D01*
X5959992Y-4755494D01*
X6013871Y-4799978D01*
X6022182Y-4814211D01*
X6109327Y-4989221D01*
X6232237Y-5151981D01*
X6382958Y-5289380D01*
X6382960Y-5289382D01*
X6407716Y-5304710D01*
X6556363Y-5396748D01*
X6746544Y-5470424D01*
X6947024Y-5507900D01*
X6947026Y-5507900D01*
X7150974Y-5507900D01*
X7150976Y-5507900D01*
X7351456Y-5470424D01*
X7541637Y-5396748D01*
X7715041Y-5289381D01*
X7865764Y-5151979D01*
X7988673Y-4989221D01*
X8079582Y-4806650D01*
X8135397Y-4610483D01*
X8154215Y-4407400D01*
X8483785Y-4407400D01*
X8502602Y-4610482D01*
X8558417Y-4806647D01*
X8558422Y-4806660D01*
X8649327Y-4989221D01*
X8772237Y-5151981D01*
X8922958Y-5289380D01*
X8922960Y-5289382D01*
X8947716Y-5304710D01*
X9096363Y-5396748D01*
X9286544Y-5470424D01*
X9487024Y-5507900D01*
X9487026Y-5507900D01*
X9690974Y-5507900D01*
X9690976Y-5507900D01*
X9891456Y-5470424D01*
X10081637Y-5396748D01*
X10255041Y-5289381D01*
X10405764Y-5151979D01*
X10528673Y-4989221D01*
X10619582Y-4806650D01*
X10675397Y-4610483D01*
X10694215Y-4407400D01*
X10675397Y-4204317D01*
X10619582Y-4008150D01*
X10619114Y-4007211D01*
X10569415Y-3907400D01*
X10528673Y-3825579D01*
X10405764Y-3662821D01*
X10405762Y-3662818D01*
X10255041Y-3525419D01*
X10255039Y-3525417D01*
X10081642Y-3418055D01*
X10081635Y-3418051D01*
X9955769Y-3369291D01*
X9891456Y-3344376D01*
X9690976Y-3306900D01*
X9487024Y-3306900D01*
X9286544Y-3344376D01*
X9286541Y-3344376D01*
X9286541Y-3344377D01*
X9096364Y-3418051D01*
X9096357Y-3418055D01*
X8922960Y-3525417D01*
X8922958Y-3525419D01*
X8772237Y-3662818D01*
X8649327Y-3825578D01*
X8558422Y-4008139D01*
X8558417Y-4008152D01*
X8502602Y-4204317D01*
X8483785Y-4407399D01*
X8483785Y-4407400D01*
X8154215Y-4407400D01*
X8135397Y-4204317D01*
X8079582Y-4008150D01*
X8079114Y-4007211D01*
X8029415Y-3907400D01*
X7988673Y-3825579D01*
X7865764Y-3662821D01*
X7865762Y-3662818D01*
X7715041Y-3525419D01*
X7715039Y-3525417D01*
X7541642Y-3418055D01*
X7541635Y-3418051D01*
X7415769Y-3369291D01*
X7351456Y-3344376D01*
X7150976Y-3306900D01*
X6947024Y-3306900D01*
X6746544Y-3344376D01*
X6746541Y-3344376D01*
X6746541Y-3344377D01*
X6556364Y-3418051D01*
X6556357Y-3418055D01*
X6382960Y-3525417D01*
X6382958Y-3525419D01*
X6232237Y-3662818D01*
X6109327Y-3825578D01*
X6022182Y-4000588D01*
X5974679Y-4051825D01*
X5907016Y-4069246D01*
X5840676Y-4047320D01*
X5796721Y-3993009D01*
X5791407Y-3977408D01*
X5782434Y-3943918D01*
X5782429Y-3943907D01*
X5682600Y-3729822D01*
X5682599Y-3729820D01*
X5547113Y-3536326D01*
X5547108Y-3536320D01*
X5380082Y-3369294D01*
X5186578Y-3233799D01*
X4972492Y-3133970D01*
X4972486Y-3133967D01*
X4759000Y-3076764D01*
X4759000Y-3795098D01*
X4739315Y-3862137D01*
X4686511Y-3907892D01*
X4617355Y-3917836D01*
X4544766Y-3907400D01*
X4544763Y-3907400D01*
X4473237Y-3907400D01*
X4473233Y-3907400D01*
X4400645Y-3917836D01*
X4331487Y-3907892D01*
X4278684Y-3862136D01*
X4259000Y-3795098D01*
X4259000Y-3076764D01*
X4258999Y-3076764D01*
X4045513Y-3133967D01*
X4045507Y-3133970D01*
X3831422Y-3233799D01*
X3831420Y-3233800D01*
X3637926Y-3369286D01*
X3637920Y-3369291D01*
X3470891Y-3536320D01*
X3470886Y-3536326D01*
X3335400Y-3729820D01*
X3335399Y-3729822D01*
X3235570Y-3943907D01*
X3235567Y-3943913D01*
X3178364Y-4157399D01*
X3178364Y-4157400D01*
X3895653Y-4157400D01*
X3962692Y-4177085D01*
X4008447Y-4229889D01*
X4018391Y-4299047D01*
X4014631Y-4316333D01*
X4009000Y-4335511D01*
X4009000Y-4479288D01*
X4014631Y-4498467D01*
X4014630Y-4568336D01*
X3976855Y-4627114D01*
X3913299Y-4656138D01*
X3895653Y-4657400D01*
X3178364Y-4657400D01*
X2690333Y-4657400D01*
X2692743Y-2740542D01*
X2712512Y-2673529D01*
X2765373Y-2627841D01*
X2816743Y-2616700D01*
X36222813Y-2616700D01*
X36289852Y-2636385D01*
G37*
%TD.AperFunction*%
%TD*%
M02*
