%TF.GenerationSoftware,KiCad,Pcbnew,7.0.7*%
%TF.CreationDate,2025-06-12T14:25:12+01:00*%
%TF.ProjectId,Rosa,526f7361-2e6b-4696-9361-645f70636258,rev?*%
%TF.SameCoordinates,Original*%
%TF.FileFunction,Soldermask,Bot*%
%TF.FilePolarity,Negative*%
%FSLAX46Y46*%
G04 Gerber Fmt 4.6, Leading zero omitted, Abs format (unit mm)*
G04 Created by KiCad (PCBNEW 7.0.7) date 2025-06-12 14:25:12*
%MOMM*%
%LPD*%
G01*
G04 APERTURE LIST*
G04 Aperture macros list*
%AMRoundRect*
0 Rectangle with rounded corners*
0 $1 Rounding radius*
0 $2 $3 $4 $5 $6 $7 $8 $9 X,Y pos of 4 corners*
0 Add a 4 corners polygon primitive as box body*
4,1,4,$2,$3,$4,$5,$6,$7,$8,$9,$2,$3,0*
0 Add four circle primitives for the rounded corners*
1,1,$1+$1,$2,$3*
1,1,$1+$1,$4,$5*
1,1,$1+$1,$6,$7*
1,1,$1+$1,$8,$9*
0 Add four rect primitives between the rounded corners*
20,1,$1+$1,$2,$3,$4,$5,0*
20,1,$1+$1,$4,$5,$6,$7,0*
20,1,$1+$1,$6,$7,$8,$9,0*
20,1,$1+$1,$8,$9,$2,$3,0*%
G04 Aperture macros list end*
%ADD10R,3.800000X2.000000*%
%ADD11O,1.700000X1.700000*%
%ADD12R,1.700000X1.700000*%
%ADD13R,1.422400X1.422400*%
%ADD14C,1.422400*%
%ADD15RoundRect,0.250000X0.250000X0.475000X-0.250000X0.475000X-0.250000X-0.475000X0.250000X-0.475000X0*%
%ADD16RoundRect,0.200000X0.200000X0.275000X-0.200000X0.275000X-0.200000X-0.275000X0.200000X-0.275000X0*%
G04 APERTURE END LIST*
D10*
%TO.C,*%
X20193000Y-41605200D03*
%TD*%
D11*
%TO.C,*%
X4509000Y-4407400D03*
X12129000Y-4407400D03*
X9589000Y-4407400D03*
X7049000Y-4407400D03*
X14669000Y-4407400D03*
D12*
X17209000Y-4407400D03*
%TD*%
D13*
%TO.C,                              Marine*%
X20003000Y-7303000D03*
D14*
X20003000Y-9843000D03*
X17463000Y-7303000D03*
X17463000Y-9843000D03*
X30163000Y-32703000D03*
X27623000Y-30163000D03*
X27623000Y-32703000D03*
X25083000Y-30163000D03*
X14923000Y-32703000D03*
X12383000Y-30163000D03*
X12383000Y-32703000D03*
X9843000Y-30163000D03*
X32703000Y-27623000D03*
X30163000Y-27623000D03*
X32703000Y-25083000D03*
X30163000Y-25083000D03*
X30163000Y-9843000D03*
X30163000Y-7303000D03*
X7303000Y-17463000D03*
X9843000Y-17463000D03*
X9843000Y-20003000D03*
X14923000Y-7303000D03*
X14923000Y-9843000D03*
X12383000Y-7303000D03*
X12383000Y-9843000D03*
X22543000Y-9843000D03*
X25083000Y-9843000D03*
X32703000Y-20003000D03*
X25083000Y-32703000D03*
X22543000Y-30163000D03*
X22543000Y-32703000D03*
X20003000Y-30163000D03*
X9843000Y-32703000D03*
X7303000Y-30163000D03*
X9843000Y-27623000D03*
X7303000Y-27623000D03*
X30163000Y-22543000D03*
X30163000Y-20003000D03*
X30163000Y-17463000D03*
X32703000Y-14923000D03*
X25083000Y-7303000D03*
X32703000Y-30163000D03*
X27623000Y-9843000D03*
X9843000Y-12383000D03*
X7303000Y-14923000D03*
X9843000Y-14923000D03*
X22543000Y-7303000D03*
X27623000Y-7303000D03*
X30163000Y-30163000D03*
X9843000Y-7303000D03*
X7303000Y-9843000D03*
X9843000Y-9843000D03*
X7303000Y-12383000D03*
X20003000Y-32703000D03*
X17463000Y-30163000D03*
X17463000Y-32703000D03*
X14923000Y-30163000D03*
X9843000Y-25083000D03*
X7303000Y-25083000D03*
X9843000Y-22543000D03*
X7303000Y-22543000D03*
X30163000Y-14923000D03*
X32703000Y-12383000D03*
X30163000Y-12383000D03*
X32703000Y-9843000D03*
X7303000Y-20003000D03*
X32703000Y-17463000D03*
X32703000Y-22543000D03*
%TD*%
D15*
%TO.C, *%
X21867400Y-20003000D03*
X19967400Y-20003000D03*
%TD*%
D16*
%TO.C,R2*%
X27393400Y-28473400D03*
X25743400Y-28473400D03*
%TD*%
D15*
%TO.C, *%
X21879600Y-17297400D03*
X19979600Y-17297400D03*
%TD*%
M02*
