%TF.GenerationSoftware,KiCad,Pcbnew,7.0.7*%
%TF.CreationDate,2025-06-12T14:25:12+01:00*%
%TF.ProjectId,Rosa,526f7361-2e6b-4696-9361-645f70636258,rev?*%
%TF.SameCoordinates,Original*%
%TF.FileFunction,Legend,Top*%
%TF.FilePolarity,Positive*%
%FSLAX46Y46*%
G04 Gerber Fmt 4.6, Leading zero omitted, Abs format (unit mm)*
G04 Created by KiCad (PCBNEW 7.0.7) date 2025-06-12 14:25:12*
%MOMM*%
%LPD*%
G01*
G04 APERTURE LIST*
%ADD10C,0.150000*%
%ADD11C,0.175000*%
%ADD12C,0.125000*%
%ADD13C,0.250000*%
%ADD14C,0.300000*%
%ADD15C,0.120000*%
G04 APERTURE END LIST*
D10*
X20304047Y-3486284D02*
X20018333Y-2724379D01*
X20018333Y-2724379D02*
X19732619Y-3486284D01*
D11*
X34524131Y-17213833D02*
X34190797Y-17213833D01*
X34190797Y-17213833D02*
X34157464Y-17547166D01*
X34157464Y-17547166D02*
X34190797Y-17513833D01*
X34190797Y-17513833D02*
X34257464Y-17480500D01*
X34257464Y-17480500D02*
X34424131Y-17480500D01*
X34424131Y-17480500D02*
X34490797Y-17513833D01*
X34490797Y-17513833D02*
X34524131Y-17547166D01*
X34524131Y-17547166D02*
X34557464Y-17613833D01*
X34557464Y-17613833D02*
X34557464Y-17780500D01*
X34557464Y-17780500D02*
X34524131Y-17847166D01*
X34524131Y-17847166D02*
X34490797Y-17880500D01*
X34490797Y-17880500D02*
X34424131Y-17913833D01*
X34424131Y-17913833D02*
X34257464Y-17913833D01*
X34257464Y-17913833D02*
X34190797Y-17880500D01*
X34190797Y-17880500D02*
X34157464Y-17847166D01*
X34757464Y-17213833D02*
X34990798Y-17913833D01*
X34990798Y-17913833D02*
X35224131Y-17213833D01*
D10*
X28554847Y-27511684D02*
X28269133Y-26749779D01*
X28269133Y-26749779D02*
X27983419Y-27511684D01*
D11*
X34303464Y-19583966D02*
X34236797Y-19550633D01*
X34236797Y-19550633D02*
X34136797Y-19550633D01*
X34136797Y-19550633D02*
X34036797Y-19583966D01*
X34036797Y-19583966D02*
X33970131Y-19650633D01*
X33970131Y-19650633D02*
X33936797Y-19717300D01*
X33936797Y-19717300D02*
X33903464Y-19850633D01*
X33903464Y-19850633D02*
X33903464Y-19950633D01*
X33903464Y-19950633D02*
X33936797Y-20083966D01*
X33936797Y-20083966D02*
X33970131Y-20150633D01*
X33970131Y-20150633D02*
X34036797Y-20217300D01*
X34036797Y-20217300D02*
X34136797Y-20250633D01*
X34136797Y-20250633D02*
X34203464Y-20250633D01*
X34203464Y-20250633D02*
X34303464Y-20217300D01*
X34303464Y-20217300D02*
X34336797Y-20183966D01*
X34336797Y-20183966D02*
X34336797Y-19950633D01*
X34336797Y-19950633D02*
X34203464Y-19950633D01*
X34636797Y-20250633D02*
X34636797Y-19550633D01*
X34636797Y-19550633D02*
X35036797Y-20250633D01*
X35036797Y-20250633D02*
X35036797Y-19550633D01*
X35370130Y-20250633D02*
X35370130Y-19550633D01*
X35370130Y-19550633D02*
X35536797Y-19550633D01*
X35536797Y-19550633D02*
X35636797Y-19583966D01*
X35636797Y-19583966D02*
X35703464Y-19650633D01*
X35703464Y-19650633D02*
X35736797Y-19717300D01*
X35736797Y-19717300D02*
X35770130Y-19850633D01*
X35770130Y-19850633D02*
X35770130Y-19950633D01*
X35770130Y-19950633D02*
X35736797Y-20083966D01*
X35736797Y-20083966D02*
X35703464Y-20150633D01*
X35703464Y-20150633D02*
X35636797Y-20217300D01*
X35636797Y-20217300D02*
X35536797Y-20250633D01*
X35536797Y-20250633D02*
X35370130Y-20250633D01*
D10*
X34004333Y-38631019D02*
X33671000Y-38154828D01*
X33432905Y-38631019D02*
X33432905Y-37631019D01*
X33432905Y-37631019D02*
X33813857Y-37631019D01*
X33813857Y-37631019D02*
X33909095Y-37678638D01*
X33909095Y-37678638D02*
X33956714Y-37726257D01*
X33956714Y-37726257D02*
X34004333Y-37821495D01*
X34004333Y-37821495D02*
X34004333Y-37964352D01*
X34004333Y-37964352D02*
X33956714Y-38059590D01*
X33956714Y-38059590D02*
X33909095Y-38107209D01*
X33909095Y-38107209D02*
X33813857Y-38154828D01*
X33813857Y-38154828D02*
X33432905Y-38154828D01*
X35004333Y-38535780D02*
X34956714Y-38583400D01*
X34956714Y-38583400D02*
X34813857Y-38631019D01*
X34813857Y-38631019D02*
X34718619Y-38631019D01*
X34718619Y-38631019D02*
X34575762Y-38583400D01*
X34575762Y-38583400D02*
X34480524Y-38488161D01*
X34480524Y-38488161D02*
X34432905Y-38392923D01*
X34432905Y-38392923D02*
X34385286Y-38202447D01*
X34385286Y-38202447D02*
X34385286Y-38059590D01*
X34385286Y-38059590D02*
X34432905Y-37869114D01*
X34432905Y-37869114D02*
X34480524Y-37773876D01*
X34480524Y-37773876D02*
X34575762Y-37678638D01*
X34575762Y-37678638D02*
X34718619Y-37631019D01*
X34718619Y-37631019D02*
X34813857Y-37631019D01*
X34813857Y-37631019D02*
X34956714Y-37678638D01*
X34956714Y-37678638D02*
X35004333Y-37726257D01*
X35385286Y-37726257D02*
X35432905Y-37678638D01*
X35432905Y-37678638D02*
X35528143Y-37631019D01*
X35528143Y-37631019D02*
X35766238Y-37631019D01*
X35766238Y-37631019D02*
X35861476Y-37678638D01*
X35861476Y-37678638D02*
X35909095Y-37726257D01*
X35909095Y-37726257D02*
X35956714Y-37821495D01*
X35956714Y-37821495D02*
X35956714Y-37916733D01*
X35956714Y-37916733D02*
X35909095Y-38059590D01*
X35909095Y-38059590D02*
X35337667Y-38631019D01*
X35337667Y-38631019D02*
X35956714Y-38631019D01*
D12*
X16338992Y-21377909D02*
X16672325Y-21877909D01*
X16672325Y-21377909D02*
X16338992Y-21877909D01*
X17148515Y-21830290D02*
X17124706Y-21854100D01*
X17124706Y-21854100D02*
X17053277Y-21877909D01*
X17053277Y-21877909D02*
X17005658Y-21877909D01*
X17005658Y-21877909D02*
X16934230Y-21854100D01*
X16934230Y-21854100D02*
X16886611Y-21806480D01*
X16886611Y-21806480D02*
X16862801Y-21758861D01*
X16862801Y-21758861D02*
X16838992Y-21663623D01*
X16838992Y-21663623D02*
X16838992Y-21592195D01*
X16838992Y-21592195D02*
X16862801Y-21496957D01*
X16862801Y-21496957D02*
X16886611Y-21449338D01*
X16886611Y-21449338D02*
X16934230Y-21401719D01*
X16934230Y-21401719D02*
X17005658Y-21377909D01*
X17005658Y-21377909D02*
X17053277Y-21377909D01*
X17053277Y-21377909D02*
X17124706Y-21401719D01*
X17124706Y-21401719D02*
X17148515Y-21425528D01*
X17386611Y-21877909D02*
X17481849Y-21877909D01*
X17481849Y-21877909D02*
X17529468Y-21854100D01*
X17529468Y-21854100D02*
X17553277Y-21830290D01*
X17553277Y-21830290D02*
X17600896Y-21758861D01*
X17600896Y-21758861D02*
X17624706Y-21663623D01*
X17624706Y-21663623D02*
X17624706Y-21473147D01*
X17624706Y-21473147D02*
X17600896Y-21425528D01*
X17600896Y-21425528D02*
X17577087Y-21401719D01*
X17577087Y-21401719D02*
X17529468Y-21377909D01*
X17529468Y-21377909D02*
X17434230Y-21377909D01*
X17434230Y-21377909D02*
X17386611Y-21401719D01*
X17386611Y-21401719D02*
X17362801Y-21425528D01*
X17362801Y-21425528D02*
X17338992Y-21473147D01*
X17338992Y-21473147D02*
X17338992Y-21592195D01*
X17338992Y-21592195D02*
X17362801Y-21639814D01*
X17362801Y-21639814D02*
X17386611Y-21663623D01*
X17386611Y-21663623D02*
X17434230Y-21687433D01*
X17434230Y-21687433D02*
X17529468Y-21687433D01*
X17529468Y-21687433D02*
X17577087Y-21663623D01*
X17577087Y-21663623D02*
X17600896Y-21639814D01*
X17600896Y-21639814D02*
X17624706Y-21592195D01*
X18077086Y-21377909D02*
X17838991Y-21377909D01*
X17838991Y-21377909D02*
X17815182Y-21616004D01*
X17815182Y-21616004D02*
X17838991Y-21592195D01*
X17838991Y-21592195D02*
X17886610Y-21568385D01*
X17886610Y-21568385D02*
X18005658Y-21568385D01*
X18005658Y-21568385D02*
X18053277Y-21592195D01*
X18053277Y-21592195D02*
X18077086Y-21616004D01*
X18077086Y-21616004D02*
X18100896Y-21663623D01*
X18100896Y-21663623D02*
X18100896Y-21782671D01*
X18100896Y-21782671D02*
X18077086Y-21830290D01*
X18077086Y-21830290D02*
X18053277Y-21854100D01*
X18053277Y-21854100D02*
X18005658Y-21877909D01*
X18005658Y-21877909D02*
X17886610Y-21877909D01*
X17886610Y-21877909D02*
X17838991Y-21854100D01*
X17838991Y-21854100D02*
X17815182Y-21830290D01*
X18577086Y-21877909D02*
X18291372Y-21877909D01*
X18434229Y-21877909D02*
X18434229Y-21377909D01*
X18434229Y-21377909D02*
X18386610Y-21449338D01*
X18386610Y-21449338D02*
X18338991Y-21496957D01*
X18338991Y-21496957D02*
X18291372Y-21520766D01*
X19005657Y-21544576D02*
X19005657Y-21877909D01*
X18886609Y-21354100D02*
X18767562Y-21711242D01*
X18767562Y-21711242D02*
X19077085Y-21711242D01*
X19481847Y-21544576D02*
X19481847Y-21877909D01*
X19362799Y-21354100D02*
X19243752Y-21711242D01*
X19243752Y-21711242D02*
X19553275Y-21711242D01*
X19696132Y-21377909D02*
X20029465Y-21877909D01*
X20029465Y-21377909D02*
X19696132Y-21877909D01*
X20458036Y-21877909D02*
X20219941Y-21877909D01*
X20219941Y-21877909D02*
X20219941Y-21377909D01*
X20624703Y-21687433D02*
X21005656Y-21687433D01*
X21172323Y-21377909D02*
X21458037Y-21377909D01*
X21315180Y-21877909D02*
X21315180Y-21377909D01*
X21958036Y-21925528D02*
X21910417Y-21901719D01*
X21910417Y-21901719D02*
X21862798Y-21854100D01*
X21862798Y-21854100D02*
X21791370Y-21782671D01*
X21791370Y-21782671D02*
X21743751Y-21758861D01*
X21743751Y-21758861D02*
X21696132Y-21758861D01*
X21719941Y-21877909D02*
X21672322Y-21854100D01*
X21672322Y-21854100D02*
X21624703Y-21806480D01*
X21624703Y-21806480D02*
X21600894Y-21711242D01*
X21600894Y-21711242D02*
X21600894Y-21544576D01*
X21600894Y-21544576D02*
X21624703Y-21449338D01*
X21624703Y-21449338D02*
X21672322Y-21401719D01*
X21672322Y-21401719D02*
X21719941Y-21377909D01*
X21719941Y-21377909D02*
X21815179Y-21377909D01*
X21815179Y-21377909D02*
X21862798Y-21401719D01*
X21862798Y-21401719D02*
X21910417Y-21449338D01*
X21910417Y-21449338D02*
X21934227Y-21544576D01*
X21934227Y-21544576D02*
X21934227Y-21711242D01*
X21934227Y-21711242D02*
X21910417Y-21806480D01*
X21910417Y-21806480D02*
X21862798Y-21854100D01*
X21862798Y-21854100D02*
X21815179Y-21877909D01*
X21815179Y-21877909D02*
X21719941Y-21877909D01*
X22410418Y-21877909D02*
X22124704Y-21877909D01*
X22267561Y-21877909D02*
X22267561Y-21377909D01*
X22267561Y-21377909D02*
X22219942Y-21449338D01*
X22219942Y-21449338D02*
X22172323Y-21496957D01*
X22172323Y-21496957D02*
X22124704Y-21520766D01*
X22719941Y-21377909D02*
X22767560Y-21377909D01*
X22767560Y-21377909D02*
X22815179Y-21401719D01*
X22815179Y-21401719D02*
X22838989Y-21425528D01*
X22838989Y-21425528D02*
X22862798Y-21473147D01*
X22862798Y-21473147D02*
X22886608Y-21568385D01*
X22886608Y-21568385D02*
X22886608Y-21687433D01*
X22886608Y-21687433D02*
X22862798Y-21782671D01*
X22862798Y-21782671D02*
X22838989Y-21830290D01*
X22838989Y-21830290D02*
X22815179Y-21854100D01*
X22815179Y-21854100D02*
X22767560Y-21877909D01*
X22767560Y-21877909D02*
X22719941Y-21877909D01*
X22719941Y-21877909D02*
X22672322Y-21854100D01*
X22672322Y-21854100D02*
X22648513Y-21830290D01*
X22648513Y-21830290D02*
X22624703Y-21782671D01*
X22624703Y-21782671D02*
X22600894Y-21687433D01*
X22600894Y-21687433D02*
X22600894Y-21568385D01*
X22600894Y-21568385D02*
X22624703Y-21473147D01*
X22624703Y-21473147D02*
X22648513Y-21425528D01*
X22648513Y-21425528D02*
X22672322Y-21401719D01*
X22672322Y-21401719D02*
X22719941Y-21377909D01*
X23196131Y-21377909D02*
X23243750Y-21377909D01*
X23243750Y-21377909D02*
X23291369Y-21401719D01*
X23291369Y-21401719D02*
X23315179Y-21425528D01*
X23315179Y-21425528D02*
X23338988Y-21473147D01*
X23338988Y-21473147D02*
X23362798Y-21568385D01*
X23362798Y-21568385D02*
X23362798Y-21687433D01*
X23362798Y-21687433D02*
X23338988Y-21782671D01*
X23338988Y-21782671D02*
X23315179Y-21830290D01*
X23315179Y-21830290D02*
X23291369Y-21854100D01*
X23291369Y-21854100D02*
X23243750Y-21877909D01*
X23243750Y-21877909D02*
X23196131Y-21877909D01*
X23196131Y-21877909D02*
X23148512Y-21854100D01*
X23148512Y-21854100D02*
X23124703Y-21830290D01*
X23124703Y-21830290D02*
X23100893Y-21782671D01*
X23100893Y-21782671D02*
X23077084Y-21687433D01*
X23077084Y-21687433D02*
X23077084Y-21568385D01*
X23077084Y-21568385D02*
X23100893Y-21473147D01*
X23100893Y-21473147D02*
X23124703Y-21425528D01*
X23124703Y-21425528D02*
X23148512Y-21401719D01*
X23148512Y-21401719D02*
X23196131Y-21377909D01*
D10*
X20330188Y-6385419D02*
X19758760Y-6385419D01*
X20044474Y-6385419D02*
X20044474Y-5385419D01*
X20044474Y-5385419D02*
X19949236Y-5528276D01*
X19949236Y-5528276D02*
X19853998Y-5623514D01*
X19853998Y-5623514D02*
X19758760Y-5671133D01*
D12*
X15850864Y-16381909D02*
X15969912Y-16881909D01*
X15969912Y-16881909D02*
X16065150Y-16524766D01*
X16065150Y-16524766D02*
X16160388Y-16881909D01*
X16160388Y-16881909D02*
X16279436Y-16381909D01*
X16446103Y-16739052D02*
X16684198Y-16739052D01*
X16398484Y-16881909D02*
X16565150Y-16381909D01*
X16565150Y-16381909D02*
X16731817Y-16881909D01*
X17184197Y-16881909D02*
X17017531Y-16643814D01*
X16898483Y-16881909D02*
X16898483Y-16381909D01*
X16898483Y-16381909D02*
X17088959Y-16381909D01*
X17088959Y-16381909D02*
X17136578Y-16405719D01*
X17136578Y-16405719D02*
X17160388Y-16429528D01*
X17160388Y-16429528D02*
X17184197Y-16477147D01*
X17184197Y-16477147D02*
X17184197Y-16548576D01*
X17184197Y-16548576D02*
X17160388Y-16596195D01*
X17160388Y-16596195D02*
X17136578Y-16620004D01*
X17136578Y-16620004D02*
X17088959Y-16643814D01*
X17088959Y-16643814D02*
X16898483Y-16643814D01*
X17398483Y-16881909D02*
X17398483Y-16381909D01*
X17398483Y-16381909D02*
X17684197Y-16881909D01*
X17684197Y-16881909D02*
X17684197Y-16381909D01*
X17922293Y-16881909D02*
X17922293Y-16381909D01*
X18160388Y-16881909D02*
X18160388Y-16381909D01*
X18160388Y-16381909D02*
X18446102Y-16881909D01*
X18446102Y-16881909D02*
X18446102Y-16381909D01*
X18946103Y-16405719D02*
X18898484Y-16381909D01*
X18898484Y-16381909D02*
X18827055Y-16381909D01*
X18827055Y-16381909D02*
X18755627Y-16405719D01*
X18755627Y-16405719D02*
X18708008Y-16453338D01*
X18708008Y-16453338D02*
X18684198Y-16500957D01*
X18684198Y-16500957D02*
X18660389Y-16596195D01*
X18660389Y-16596195D02*
X18660389Y-16667623D01*
X18660389Y-16667623D02*
X18684198Y-16762861D01*
X18684198Y-16762861D02*
X18708008Y-16810480D01*
X18708008Y-16810480D02*
X18755627Y-16858100D01*
X18755627Y-16858100D02*
X18827055Y-16881909D01*
X18827055Y-16881909D02*
X18874674Y-16881909D01*
X18874674Y-16881909D02*
X18946103Y-16858100D01*
X18946103Y-16858100D02*
X18969912Y-16834290D01*
X18969912Y-16834290D02*
X18969912Y-16667623D01*
X18969912Y-16667623D02*
X18874674Y-16667623D01*
X19184198Y-16834290D02*
X19208008Y-16858100D01*
X19208008Y-16858100D02*
X19184198Y-16881909D01*
X19184198Y-16881909D02*
X19160389Y-16858100D01*
X19160389Y-16858100D02*
X19184198Y-16834290D01*
X19184198Y-16834290D02*
X19184198Y-16881909D01*
X19184198Y-16572385D02*
X19208008Y-16596195D01*
X19208008Y-16596195D02*
X19184198Y-16620004D01*
X19184198Y-16620004D02*
X19160389Y-16596195D01*
X19160389Y-16596195D02*
X19184198Y-16572385D01*
X19184198Y-16572385D02*
X19184198Y-16620004D01*
X19898483Y-16381909D02*
X19993721Y-16381909D01*
X19993721Y-16381909D02*
X20041340Y-16405719D01*
X20041340Y-16405719D02*
X20088959Y-16453338D01*
X20088959Y-16453338D02*
X20112769Y-16548576D01*
X20112769Y-16548576D02*
X20112769Y-16715242D01*
X20112769Y-16715242D02*
X20088959Y-16810480D01*
X20088959Y-16810480D02*
X20041340Y-16858100D01*
X20041340Y-16858100D02*
X19993721Y-16881909D01*
X19993721Y-16881909D02*
X19898483Y-16881909D01*
X19898483Y-16881909D02*
X19850864Y-16858100D01*
X19850864Y-16858100D02*
X19803245Y-16810480D01*
X19803245Y-16810480D02*
X19779436Y-16715242D01*
X19779436Y-16715242D02*
X19779436Y-16548576D01*
X19779436Y-16548576D02*
X19803245Y-16453338D01*
X19803245Y-16453338D02*
X19850864Y-16405719D01*
X19850864Y-16405719D02*
X19898483Y-16381909D01*
X20327055Y-16548576D02*
X20327055Y-16881909D01*
X20327055Y-16596195D02*
X20350865Y-16572385D01*
X20350865Y-16572385D02*
X20398484Y-16548576D01*
X20398484Y-16548576D02*
X20469912Y-16548576D01*
X20469912Y-16548576D02*
X20517531Y-16572385D01*
X20517531Y-16572385D02*
X20541341Y-16620004D01*
X20541341Y-16620004D02*
X20541341Y-16881909D01*
X20850865Y-16881909D02*
X20803246Y-16858100D01*
X20803246Y-16858100D02*
X20779436Y-16810480D01*
X20779436Y-16810480D02*
X20779436Y-16381909D01*
X20993722Y-16548576D02*
X21112770Y-16881909D01*
X21231817Y-16548576D02*
X21112770Y-16881909D01*
X21112770Y-16881909D02*
X21065151Y-17000957D01*
X21065151Y-17000957D02*
X21041341Y-17024766D01*
X21041341Y-17024766D02*
X20993722Y-17048576D01*
X21731817Y-16548576D02*
X21922293Y-16548576D01*
X21803245Y-16881909D02*
X21803245Y-16453338D01*
X21803245Y-16453338D02*
X21827055Y-16405719D01*
X21827055Y-16405719D02*
X21874674Y-16381909D01*
X21874674Y-16381909D02*
X21922293Y-16381909D01*
X22160388Y-16881909D02*
X22112769Y-16858100D01*
X22112769Y-16858100D02*
X22088959Y-16834290D01*
X22088959Y-16834290D02*
X22065150Y-16786671D01*
X22065150Y-16786671D02*
X22065150Y-16643814D01*
X22065150Y-16643814D02*
X22088959Y-16596195D01*
X22088959Y-16596195D02*
X22112769Y-16572385D01*
X22112769Y-16572385D02*
X22160388Y-16548576D01*
X22160388Y-16548576D02*
X22231816Y-16548576D01*
X22231816Y-16548576D02*
X22279435Y-16572385D01*
X22279435Y-16572385D02*
X22303245Y-16596195D01*
X22303245Y-16596195D02*
X22327054Y-16643814D01*
X22327054Y-16643814D02*
X22327054Y-16786671D01*
X22327054Y-16786671D02*
X22303245Y-16834290D01*
X22303245Y-16834290D02*
X22279435Y-16858100D01*
X22279435Y-16858100D02*
X22231816Y-16881909D01*
X22231816Y-16881909D02*
X22160388Y-16881909D01*
X22541340Y-16881909D02*
X22541340Y-16548576D01*
X22541340Y-16643814D02*
X22565150Y-16596195D01*
X22565150Y-16596195D02*
X22588959Y-16572385D01*
X22588959Y-16572385D02*
X22636578Y-16548576D01*
X22636578Y-16548576D02*
X22684197Y-16548576D01*
X23446102Y-16548576D02*
X23446102Y-16881909D01*
X23231816Y-16548576D02*
X23231816Y-16810480D01*
X23231816Y-16810480D02*
X23255626Y-16858100D01*
X23255626Y-16858100D02*
X23303245Y-16881909D01*
X23303245Y-16881909D02*
X23374673Y-16881909D01*
X23374673Y-16881909D02*
X23422292Y-16858100D01*
X23422292Y-16858100D02*
X23446102Y-16834290D01*
X23660388Y-16858100D02*
X23708007Y-16881909D01*
X23708007Y-16881909D02*
X23803245Y-16881909D01*
X23803245Y-16881909D02*
X23850864Y-16858100D01*
X23850864Y-16858100D02*
X23874673Y-16810480D01*
X23874673Y-16810480D02*
X23874673Y-16786671D01*
X23874673Y-16786671D02*
X23850864Y-16739052D01*
X23850864Y-16739052D02*
X23803245Y-16715242D01*
X23803245Y-16715242D02*
X23731816Y-16715242D01*
X23731816Y-16715242D02*
X23684197Y-16691433D01*
X23684197Y-16691433D02*
X23660388Y-16643814D01*
X23660388Y-16643814D02*
X23660388Y-16620004D01*
X23660388Y-16620004D02*
X23684197Y-16572385D01*
X23684197Y-16572385D02*
X23731816Y-16548576D01*
X23731816Y-16548576D02*
X23803245Y-16548576D01*
X23803245Y-16548576D02*
X23850864Y-16572385D01*
X24279435Y-16858100D02*
X24231816Y-16881909D01*
X24231816Y-16881909D02*
X24136578Y-16881909D01*
X24136578Y-16881909D02*
X24088959Y-16858100D01*
X24088959Y-16858100D02*
X24065150Y-16810480D01*
X24065150Y-16810480D02*
X24065150Y-16620004D01*
X24065150Y-16620004D02*
X24088959Y-16572385D01*
X24088959Y-16572385D02*
X24136578Y-16548576D01*
X24136578Y-16548576D02*
X24231816Y-16548576D01*
X24231816Y-16548576D02*
X24279435Y-16572385D01*
X24279435Y-16572385D02*
X24303245Y-16620004D01*
X24303245Y-16620004D02*
X24303245Y-16667623D01*
X24303245Y-16667623D02*
X24065150Y-16715242D01*
X15898483Y-17686909D02*
X15898483Y-17353576D01*
X15898483Y-17186909D02*
X15874674Y-17210719D01*
X15874674Y-17210719D02*
X15898483Y-17234528D01*
X15898483Y-17234528D02*
X15922293Y-17210719D01*
X15922293Y-17210719D02*
X15898483Y-17186909D01*
X15898483Y-17186909D02*
X15898483Y-17234528D01*
X16136578Y-17353576D02*
X16136578Y-17686909D01*
X16136578Y-17401195D02*
X16160388Y-17377385D01*
X16160388Y-17377385D02*
X16208007Y-17353576D01*
X16208007Y-17353576D02*
X16279435Y-17353576D01*
X16279435Y-17353576D02*
X16327054Y-17377385D01*
X16327054Y-17377385D02*
X16350864Y-17425004D01*
X16350864Y-17425004D02*
X16350864Y-17686909D01*
X16946102Y-17544052D02*
X17184197Y-17544052D01*
X16898483Y-17686909D02*
X17065149Y-17186909D01*
X17065149Y-17186909D02*
X17231816Y-17686909D01*
X17327054Y-17353576D02*
X17517530Y-17353576D01*
X17398482Y-17186909D02*
X17398482Y-17615480D01*
X17398482Y-17615480D02*
X17422292Y-17663100D01*
X17422292Y-17663100D02*
X17469911Y-17686909D01*
X17469911Y-17686909D02*
X17517530Y-17686909D01*
X17898482Y-17686909D02*
X17898482Y-17425004D01*
X17898482Y-17425004D02*
X17874672Y-17377385D01*
X17874672Y-17377385D02*
X17827053Y-17353576D01*
X17827053Y-17353576D02*
X17731815Y-17353576D01*
X17731815Y-17353576D02*
X17684196Y-17377385D01*
X17898482Y-17663100D02*
X17850863Y-17686909D01*
X17850863Y-17686909D02*
X17731815Y-17686909D01*
X17731815Y-17686909D02*
X17684196Y-17663100D01*
X17684196Y-17663100D02*
X17660387Y-17615480D01*
X17660387Y-17615480D02*
X17660387Y-17567861D01*
X17660387Y-17567861D02*
X17684196Y-17520242D01*
X17684196Y-17520242D02*
X17731815Y-17496433D01*
X17731815Y-17496433D02*
X17850863Y-17496433D01*
X17850863Y-17496433D02*
X17898482Y-17472623D01*
X18136577Y-17686909D02*
X18136577Y-17353576D01*
X18136577Y-17448814D02*
X18160387Y-17401195D01*
X18160387Y-17401195D02*
X18184196Y-17377385D01*
X18184196Y-17377385D02*
X18231815Y-17353576D01*
X18231815Y-17353576D02*
X18279434Y-17353576D01*
X18446101Y-17686909D02*
X18446101Y-17353576D01*
X18446101Y-17186909D02*
X18422292Y-17210719D01*
X18422292Y-17210719D02*
X18446101Y-17234528D01*
X18446101Y-17234528D02*
X18469911Y-17210719D01*
X18469911Y-17210719D02*
X18446101Y-17186909D01*
X18446101Y-17186909D02*
X18446101Y-17234528D01*
X19279434Y-17663100D02*
X19231815Y-17686909D01*
X19231815Y-17686909D02*
X19136577Y-17686909D01*
X19136577Y-17686909D02*
X19088958Y-17663100D01*
X19088958Y-17663100D02*
X19065148Y-17639290D01*
X19065148Y-17639290D02*
X19041339Y-17591671D01*
X19041339Y-17591671D02*
X19041339Y-17448814D01*
X19041339Y-17448814D02*
X19065148Y-17401195D01*
X19065148Y-17401195D02*
X19088958Y-17377385D01*
X19088958Y-17377385D02*
X19136577Y-17353576D01*
X19136577Y-17353576D02*
X19231815Y-17353576D01*
X19231815Y-17353576D02*
X19279434Y-17377385D01*
X19565148Y-17686909D02*
X19517529Y-17663100D01*
X19517529Y-17663100D02*
X19493719Y-17639290D01*
X19493719Y-17639290D02*
X19469910Y-17591671D01*
X19469910Y-17591671D02*
X19469910Y-17448814D01*
X19469910Y-17448814D02*
X19493719Y-17401195D01*
X19493719Y-17401195D02*
X19517529Y-17377385D01*
X19517529Y-17377385D02*
X19565148Y-17353576D01*
X19565148Y-17353576D02*
X19636576Y-17353576D01*
X19636576Y-17353576D02*
X19684195Y-17377385D01*
X19684195Y-17377385D02*
X19708005Y-17401195D01*
X19708005Y-17401195D02*
X19731814Y-17448814D01*
X19731814Y-17448814D02*
X19731814Y-17591671D01*
X19731814Y-17591671D02*
X19708005Y-17639290D01*
X19708005Y-17639290D02*
X19684195Y-17663100D01*
X19684195Y-17663100D02*
X19636576Y-17686909D01*
X19636576Y-17686909D02*
X19565148Y-17686909D01*
X19946100Y-17686909D02*
X19946100Y-17353576D01*
X19946100Y-17401195D02*
X19969910Y-17377385D01*
X19969910Y-17377385D02*
X20017529Y-17353576D01*
X20017529Y-17353576D02*
X20088957Y-17353576D01*
X20088957Y-17353576D02*
X20136576Y-17377385D01*
X20136576Y-17377385D02*
X20160386Y-17425004D01*
X20160386Y-17425004D02*
X20160386Y-17686909D01*
X20160386Y-17425004D02*
X20184195Y-17377385D01*
X20184195Y-17377385D02*
X20231814Y-17353576D01*
X20231814Y-17353576D02*
X20303243Y-17353576D01*
X20303243Y-17353576D02*
X20350862Y-17377385D01*
X20350862Y-17377385D02*
X20374672Y-17425004D01*
X20374672Y-17425004D02*
X20374672Y-17686909D01*
X20612767Y-17353576D02*
X20612767Y-17853576D01*
X20612767Y-17377385D02*
X20660386Y-17353576D01*
X20660386Y-17353576D02*
X20755624Y-17353576D01*
X20755624Y-17353576D02*
X20803243Y-17377385D01*
X20803243Y-17377385D02*
X20827053Y-17401195D01*
X20827053Y-17401195D02*
X20850862Y-17448814D01*
X20850862Y-17448814D02*
X20850862Y-17591671D01*
X20850862Y-17591671D02*
X20827053Y-17639290D01*
X20827053Y-17639290D02*
X20803243Y-17663100D01*
X20803243Y-17663100D02*
X20755624Y-17686909D01*
X20755624Y-17686909D02*
X20660386Y-17686909D01*
X20660386Y-17686909D02*
X20612767Y-17663100D01*
X21279434Y-17353576D02*
X21279434Y-17686909D01*
X21065148Y-17353576D02*
X21065148Y-17615480D01*
X21065148Y-17615480D02*
X21088958Y-17663100D01*
X21088958Y-17663100D02*
X21136577Y-17686909D01*
X21136577Y-17686909D02*
X21208005Y-17686909D01*
X21208005Y-17686909D02*
X21255624Y-17663100D01*
X21255624Y-17663100D02*
X21279434Y-17639290D01*
X21446101Y-17353576D02*
X21636577Y-17353576D01*
X21517529Y-17186909D02*
X21517529Y-17615480D01*
X21517529Y-17615480D02*
X21541339Y-17663100D01*
X21541339Y-17663100D02*
X21588958Y-17686909D01*
X21588958Y-17686909D02*
X21636577Y-17686909D01*
X21993719Y-17663100D02*
X21946100Y-17686909D01*
X21946100Y-17686909D02*
X21850862Y-17686909D01*
X21850862Y-17686909D02*
X21803243Y-17663100D01*
X21803243Y-17663100D02*
X21779434Y-17615480D01*
X21779434Y-17615480D02*
X21779434Y-17425004D01*
X21779434Y-17425004D02*
X21803243Y-17377385D01*
X21803243Y-17377385D02*
X21850862Y-17353576D01*
X21850862Y-17353576D02*
X21946100Y-17353576D01*
X21946100Y-17353576D02*
X21993719Y-17377385D01*
X21993719Y-17377385D02*
X22017529Y-17425004D01*
X22017529Y-17425004D02*
X22017529Y-17472623D01*
X22017529Y-17472623D02*
X21779434Y-17520242D01*
X22231814Y-17686909D02*
X22231814Y-17353576D01*
X22231814Y-17448814D02*
X22255624Y-17401195D01*
X22255624Y-17401195D02*
X22279433Y-17377385D01*
X22279433Y-17377385D02*
X22327052Y-17353576D01*
X22327052Y-17353576D02*
X22374671Y-17353576D01*
X22517529Y-17663100D02*
X22565148Y-17686909D01*
X22565148Y-17686909D02*
X22660386Y-17686909D01*
X22660386Y-17686909D02*
X22708005Y-17663100D01*
X22708005Y-17663100D02*
X22731814Y-17615480D01*
X22731814Y-17615480D02*
X22731814Y-17591671D01*
X22731814Y-17591671D02*
X22708005Y-17544052D01*
X22708005Y-17544052D02*
X22660386Y-17520242D01*
X22660386Y-17520242D02*
X22588957Y-17520242D01*
X22588957Y-17520242D02*
X22541338Y-17496433D01*
X22541338Y-17496433D02*
X22517529Y-17448814D01*
X22517529Y-17448814D02*
X22517529Y-17425004D01*
X22517529Y-17425004D02*
X22541338Y-17377385D01*
X22541338Y-17377385D02*
X22588957Y-17353576D01*
X22588957Y-17353576D02*
X22660386Y-17353576D01*
X22660386Y-17353576D02*
X22708005Y-17377385D01*
X22946100Y-17639290D02*
X22969910Y-17663100D01*
X22969910Y-17663100D02*
X22946100Y-17686909D01*
X22946100Y-17686909D02*
X22922291Y-17663100D01*
X22922291Y-17663100D02*
X22946100Y-17639290D01*
X22946100Y-17639290D02*
X22946100Y-17686909D01*
X22946100Y-17496433D02*
X22922291Y-17210719D01*
X22922291Y-17210719D02*
X22946100Y-17186909D01*
X22946100Y-17186909D02*
X22969910Y-17210719D01*
X22969910Y-17210719D02*
X22946100Y-17496433D01*
X22946100Y-17496433D02*
X22946100Y-17186909D01*
D10*
X4289617Y-5691466D02*
X4222950Y-5658133D01*
X4222950Y-5658133D02*
X4122950Y-5658133D01*
X4122950Y-5658133D02*
X4022950Y-5691466D01*
X4022950Y-5691466D02*
X3956284Y-5758133D01*
X3956284Y-5758133D02*
X3922950Y-5824800D01*
X3922950Y-5824800D02*
X3889617Y-5958133D01*
X3889617Y-5958133D02*
X3889617Y-6058133D01*
X3889617Y-6058133D02*
X3922950Y-6191466D01*
X3922950Y-6191466D02*
X3956284Y-6258133D01*
X3956284Y-6258133D02*
X4022950Y-6324800D01*
X4022950Y-6324800D02*
X4122950Y-6358133D01*
X4122950Y-6358133D02*
X4189617Y-6358133D01*
X4189617Y-6358133D02*
X4289617Y-6324800D01*
X4289617Y-6324800D02*
X4322950Y-6291466D01*
X4322950Y-6291466D02*
X4322950Y-6058133D01*
X4322950Y-6058133D02*
X4189617Y-6058133D01*
X4622950Y-6358133D02*
X4622950Y-5658133D01*
X4622950Y-5658133D02*
X5022950Y-6358133D01*
X5022950Y-6358133D02*
X5022950Y-5658133D01*
X5356283Y-6358133D02*
X5356283Y-5658133D01*
X5356283Y-5658133D02*
X5522950Y-5658133D01*
X5522950Y-5658133D02*
X5622950Y-5691466D01*
X5622950Y-5691466D02*
X5689617Y-5758133D01*
X5689617Y-5758133D02*
X5722950Y-5824800D01*
X5722950Y-5824800D02*
X5756283Y-5958133D01*
X5756283Y-5958133D02*
X5756283Y-6058133D01*
X5756283Y-6058133D02*
X5722950Y-6191466D01*
X5722950Y-6191466D02*
X5689617Y-6258133D01*
X5689617Y-6258133D02*
X5622950Y-6324800D01*
X5622950Y-6324800D02*
X5522950Y-6358133D01*
X5522950Y-6358133D02*
X5356283Y-6358133D01*
X6489616Y-5658133D02*
X6889616Y-5658133D01*
X6689616Y-6358133D02*
X6689616Y-5658133D01*
X7122949Y-6358133D02*
X7122949Y-5658133D01*
X7122949Y-5658133D02*
X7289616Y-5658133D01*
X7289616Y-5658133D02*
X7389616Y-5691466D01*
X7389616Y-5691466D02*
X7456283Y-5758133D01*
X7456283Y-5758133D02*
X7489616Y-5824800D01*
X7489616Y-5824800D02*
X7522949Y-5958133D01*
X7522949Y-5958133D02*
X7522949Y-6058133D01*
X7522949Y-6058133D02*
X7489616Y-6191466D01*
X7489616Y-6191466D02*
X7456283Y-6258133D01*
X7456283Y-6258133D02*
X7389616Y-6324800D01*
X7389616Y-6324800D02*
X7289616Y-6358133D01*
X7289616Y-6358133D02*
X7122949Y-6358133D01*
X7956283Y-5658133D02*
X8089616Y-5658133D01*
X8089616Y-5658133D02*
X8156283Y-5691466D01*
X8156283Y-5691466D02*
X8222949Y-5758133D01*
X8222949Y-5758133D02*
X8256283Y-5891466D01*
X8256283Y-5891466D02*
X8256283Y-6124800D01*
X8256283Y-6124800D02*
X8222949Y-6258133D01*
X8222949Y-6258133D02*
X8156283Y-6324800D01*
X8156283Y-6324800D02*
X8089616Y-6358133D01*
X8089616Y-6358133D02*
X7956283Y-6358133D01*
X7956283Y-6358133D02*
X7889616Y-6324800D01*
X7889616Y-6324800D02*
X7822949Y-6258133D01*
X7822949Y-6258133D02*
X7789616Y-6124800D01*
X7789616Y-6124800D02*
X7789616Y-5891466D01*
X7789616Y-5891466D02*
X7822949Y-5758133D01*
X7822949Y-5758133D02*
X7889616Y-5691466D01*
X7889616Y-5691466D02*
X7956283Y-5658133D01*
X8989615Y-5658133D02*
X9389615Y-5658133D01*
X9189615Y-6358133D02*
X9189615Y-5658133D01*
X9622948Y-6358133D02*
X9622948Y-5658133D01*
X9622948Y-5658133D02*
X9789615Y-5658133D01*
X9789615Y-5658133D02*
X9889615Y-5691466D01*
X9889615Y-5691466D02*
X9956282Y-5758133D01*
X9956282Y-5758133D02*
X9989615Y-5824800D01*
X9989615Y-5824800D02*
X10022948Y-5958133D01*
X10022948Y-5958133D02*
X10022948Y-6058133D01*
X10022948Y-6058133D02*
X9989615Y-6191466D01*
X9989615Y-6191466D02*
X9956282Y-6258133D01*
X9956282Y-6258133D02*
X9889615Y-6324800D01*
X9889615Y-6324800D02*
X9789615Y-6358133D01*
X9789615Y-6358133D02*
X9622948Y-6358133D01*
X10322948Y-6358133D02*
X10322948Y-5658133D01*
X11089614Y-5658133D02*
X11489614Y-5658133D01*
X11289614Y-6358133D02*
X11289614Y-5658133D01*
X12122947Y-6291466D02*
X12089614Y-6324800D01*
X12089614Y-6324800D02*
X11989614Y-6358133D01*
X11989614Y-6358133D02*
X11922947Y-6358133D01*
X11922947Y-6358133D02*
X11822947Y-6324800D01*
X11822947Y-6324800D02*
X11756281Y-6258133D01*
X11756281Y-6258133D02*
X11722947Y-6191466D01*
X11722947Y-6191466D02*
X11689614Y-6058133D01*
X11689614Y-6058133D02*
X11689614Y-5958133D01*
X11689614Y-5958133D02*
X11722947Y-5824800D01*
X11722947Y-5824800D02*
X11756281Y-5758133D01*
X11756281Y-5758133D02*
X11822947Y-5691466D01*
X11822947Y-5691466D02*
X11922947Y-5658133D01*
X11922947Y-5658133D02*
X11989614Y-5658133D01*
X11989614Y-5658133D02*
X12089614Y-5691466D01*
X12089614Y-5691466D02*
X12122947Y-5724800D01*
X12422947Y-6358133D02*
X12422947Y-5658133D01*
X12822947Y-6358133D02*
X12522947Y-5958133D01*
X12822947Y-5658133D02*
X12422947Y-6058133D01*
X13556280Y-5658133D02*
X13956280Y-5658133D01*
X13756280Y-6358133D02*
X13756280Y-5658133D01*
X14189613Y-6358133D02*
X14189613Y-5658133D01*
X14189613Y-5658133D02*
X14422947Y-6158133D01*
X14422947Y-6158133D02*
X14656280Y-5658133D01*
X14656280Y-5658133D02*
X14656280Y-6358133D01*
X14956280Y-6324800D02*
X15056280Y-6358133D01*
X15056280Y-6358133D02*
X15222947Y-6358133D01*
X15222947Y-6358133D02*
X15289613Y-6324800D01*
X15289613Y-6324800D02*
X15322947Y-6291466D01*
X15322947Y-6291466D02*
X15356280Y-6224800D01*
X15356280Y-6224800D02*
X15356280Y-6158133D01*
X15356280Y-6158133D02*
X15322947Y-6091466D01*
X15322947Y-6091466D02*
X15289613Y-6058133D01*
X15289613Y-6058133D02*
X15222947Y-6024800D01*
X15222947Y-6024800D02*
X15089613Y-5991466D01*
X15089613Y-5991466D02*
X15022947Y-5958133D01*
X15022947Y-5958133D02*
X14989613Y-5924800D01*
X14989613Y-5924800D02*
X14956280Y-5858133D01*
X14956280Y-5858133D02*
X14956280Y-5791466D01*
X14956280Y-5791466D02*
X14989613Y-5724800D01*
X14989613Y-5724800D02*
X15022947Y-5691466D01*
X15022947Y-5691466D02*
X15089613Y-5658133D01*
X15089613Y-5658133D02*
X15256280Y-5658133D01*
X15256280Y-5658133D02*
X15356280Y-5691466D01*
X16122947Y-5658133D02*
X16556280Y-5658133D01*
X16556280Y-5658133D02*
X16322947Y-5924800D01*
X16322947Y-5924800D02*
X16422947Y-5924800D01*
X16422947Y-5924800D02*
X16489613Y-5958133D01*
X16489613Y-5958133D02*
X16522947Y-5991466D01*
X16522947Y-5991466D02*
X16556280Y-6058133D01*
X16556280Y-6058133D02*
X16556280Y-6224800D01*
X16556280Y-6224800D02*
X16522947Y-6291466D01*
X16522947Y-6291466D02*
X16489613Y-6324800D01*
X16489613Y-6324800D02*
X16422947Y-6358133D01*
X16422947Y-6358133D02*
X16222947Y-6358133D01*
X16222947Y-6358133D02*
X16156280Y-6324800D01*
X16156280Y-6324800D02*
X16122947Y-6291466D01*
X16856280Y-6291466D02*
X16889614Y-6324800D01*
X16889614Y-6324800D02*
X16856280Y-6358133D01*
X16856280Y-6358133D02*
X16822947Y-6324800D01*
X16822947Y-6324800D02*
X16856280Y-6291466D01*
X16856280Y-6291466D02*
X16856280Y-6358133D01*
X17122947Y-5658133D02*
X17556280Y-5658133D01*
X17556280Y-5658133D02*
X17322947Y-5924800D01*
X17322947Y-5924800D02*
X17422947Y-5924800D01*
X17422947Y-5924800D02*
X17489613Y-5958133D01*
X17489613Y-5958133D02*
X17522947Y-5991466D01*
X17522947Y-5991466D02*
X17556280Y-6058133D01*
X17556280Y-6058133D02*
X17556280Y-6224800D01*
X17556280Y-6224800D02*
X17522947Y-6291466D01*
X17522947Y-6291466D02*
X17489613Y-6324800D01*
X17489613Y-6324800D02*
X17422947Y-6358133D01*
X17422947Y-6358133D02*
X17222947Y-6358133D01*
X17222947Y-6358133D02*
X17156280Y-6324800D01*
X17156280Y-6324800D02*
X17122947Y-6291466D01*
X17756280Y-5658133D02*
X17989614Y-6358133D01*
X17989614Y-6358133D02*
X18222947Y-5658133D01*
D13*
X4641571Y-8513099D02*
X6141571Y-8513099D01*
X6141571Y-8513099D02*
X6141571Y-8970242D01*
X6141571Y-8970242D02*
X6070142Y-9084527D01*
X6070142Y-9084527D02*
X5998714Y-9141670D01*
X5998714Y-9141670D02*
X5855857Y-9198813D01*
X5855857Y-9198813D02*
X5641571Y-9198813D01*
X5641571Y-9198813D02*
X5498714Y-9141670D01*
X5498714Y-9141670D02*
X5427285Y-9084527D01*
X5427285Y-9084527D02*
X5355857Y-8970242D01*
X5355857Y-8970242D02*
X5355857Y-8513099D01*
X4641571Y-9884527D02*
X4713000Y-9770242D01*
X4713000Y-9770242D02*
X4784428Y-9713099D01*
X4784428Y-9713099D02*
X4927285Y-9655956D01*
X4927285Y-9655956D02*
X5355857Y-9655956D01*
X5355857Y-9655956D02*
X5498714Y-9713099D01*
X5498714Y-9713099D02*
X5570142Y-9770242D01*
X5570142Y-9770242D02*
X5641571Y-9884527D01*
X5641571Y-9884527D02*
X5641571Y-10055956D01*
X5641571Y-10055956D02*
X5570142Y-10170242D01*
X5570142Y-10170242D02*
X5498714Y-10227385D01*
X5498714Y-10227385D02*
X5355857Y-10284527D01*
X5355857Y-10284527D02*
X4927285Y-10284527D01*
X4927285Y-10284527D02*
X4784428Y-10227385D01*
X4784428Y-10227385D02*
X4713000Y-10170242D01*
X4713000Y-10170242D02*
X4641571Y-10055956D01*
X4641571Y-10055956D02*
X4641571Y-9884527D01*
X5641571Y-10684527D02*
X4641571Y-10913099D01*
X4641571Y-10913099D02*
X5355857Y-11141670D01*
X5355857Y-11141670D02*
X4641571Y-11370241D01*
X4641571Y-11370241D02*
X5641571Y-11598813D01*
X4713000Y-12513099D02*
X4641571Y-12398813D01*
X4641571Y-12398813D02*
X4641571Y-12170242D01*
X4641571Y-12170242D02*
X4713000Y-12055956D01*
X4713000Y-12055956D02*
X4855857Y-11998813D01*
X4855857Y-11998813D02*
X5427285Y-11998813D01*
X5427285Y-11998813D02*
X5570142Y-12055956D01*
X5570142Y-12055956D02*
X5641571Y-12170242D01*
X5641571Y-12170242D02*
X5641571Y-12398813D01*
X5641571Y-12398813D02*
X5570142Y-12513099D01*
X5570142Y-12513099D02*
X5427285Y-12570242D01*
X5427285Y-12570242D02*
X5284428Y-12570242D01*
X5284428Y-12570242D02*
X5141571Y-11998813D01*
X4641571Y-13084527D02*
X5641571Y-13084527D01*
X5355857Y-13084527D02*
X5498714Y-13141670D01*
X5498714Y-13141670D02*
X5570142Y-13198813D01*
X5570142Y-13198813D02*
X5641571Y-13313098D01*
X5641571Y-13313098D02*
X5641571Y-13427384D01*
X4713000Y-14284527D02*
X4641571Y-14170241D01*
X4641571Y-14170241D02*
X4641571Y-13941670D01*
X4641571Y-13941670D02*
X4713000Y-13827384D01*
X4713000Y-13827384D02*
X4855857Y-13770241D01*
X4855857Y-13770241D02*
X5427285Y-13770241D01*
X5427285Y-13770241D02*
X5570142Y-13827384D01*
X5570142Y-13827384D02*
X5641571Y-13941670D01*
X5641571Y-13941670D02*
X5641571Y-14170241D01*
X5641571Y-14170241D02*
X5570142Y-14284527D01*
X5570142Y-14284527D02*
X5427285Y-14341670D01*
X5427285Y-14341670D02*
X5284428Y-14341670D01*
X5284428Y-14341670D02*
X5141571Y-13770241D01*
X4641571Y-15370241D02*
X6141571Y-15370241D01*
X4713000Y-15370241D02*
X4641571Y-15255955D01*
X4641571Y-15255955D02*
X4641571Y-15027383D01*
X4641571Y-15027383D02*
X4713000Y-14913098D01*
X4713000Y-14913098D02*
X4784428Y-14855955D01*
X4784428Y-14855955D02*
X4927285Y-14798812D01*
X4927285Y-14798812D02*
X5355857Y-14798812D01*
X5355857Y-14798812D02*
X5498714Y-14855955D01*
X5498714Y-14855955D02*
X5570142Y-14913098D01*
X5570142Y-14913098D02*
X5641571Y-15027383D01*
X5641571Y-15027383D02*
X5641571Y-15255955D01*
X5641571Y-15255955D02*
X5570142Y-15370241D01*
X4641571Y-16855955D02*
X6141571Y-16855955D01*
X5570142Y-16855955D02*
X5641571Y-16970241D01*
X5641571Y-16970241D02*
X5641571Y-17198812D01*
X5641571Y-17198812D02*
X5570142Y-17313098D01*
X5570142Y-17313098D02*
X5498714Y-17370241D01*
X5498714Y-17370241D02*
X5355857Y-17427383D01*
X5355857Y-17427383D02*
X4927285Y-17427383D01*
X4927285Y-17427383D02*
X4784428Y-17370241D01*
X4784428Y-17370241D02*
X4713000Y-17313098D01*
X4713000Y-17313098D02*
X4641571Y-17198812D01*
X4641571Y-17198812D02*
X4641571Y-16970241D01*
X4641571Y-16970241D02*
X4713000Y-16855955D01*
X5641571Y-17827383D02*
X4641571Y-18113097D01*
X5641571Y-18398812D02*
X4641571Y-18113097D01*
X4641571Y-18113097D02*
X4284428Y-17998812D01*
X4284428Y-17998812D02*
X4213000Y-17941669D01*
X4213000Y-17941669D02*
X4141571Y-17827383D01*
X4641571Y-19770241D02*
X6141571Y-19770241D01*
X6141571Y-19770241D02*
X5070142Y-20170241D01*
X5070142Y-20170241D02*
X6141571Y-20570241D01*
X6141571Y-20570241D02*
X4641571Y-20570241D01*
X4641571Y-21655956D02*
X5427285Y-21655956D01*
X5427285Y-21655956D02*
X5570142Y-21598813D01*
X5570142Y-21598813D02*
X5641571Y-21484527D01*
X5641571Y-21484527D02*
X5641571Y-21255956D01*
X5641571Y-21255956D02*
X5570142Y-21141670D01*
X4713000Y-21655956D02*
X4641571Y-21541670D01*
X4641571Y-21541670D02*
X4641571Y-21255956D01*
X4641571Y-21255956D02*
X4713000Y-21141670D01*
X4713000Y-21141670D02*
X4855857Y-21084527D01*
X4855857Y-21084527D02*
X4998714Y-21084527D01*
X4998714Y-21084527D02*
X5141571Y-21141670D01*
X5141571Y-21141670D02*
X5213000Y-21255956D01*
X5213000Y-21255956D02*
X5213000Y-21541670D01*
X5213000Y-21541670D02*
X5284428Y-21655956D01*
X5641571Y-22055955D02*
X5641571Y-22513098D01*
X6141571Y-22227384D02*
X4855857Y-22227384D01*
X4855857Y-22227384D02*
X4713000Y-22284527D01*
X4713000Y-22284527D02*
X4641571Y-22398812D01*
X4641571Y-22398812D02*
X4641571Y-22513098D01*
X5641571Y-22741669D02*
X5641571Y-23198812D01*
X6141571Y-22913098D02*
X4855857Y-22913098D01*
X4855857Y-22913098D02*
X4713000Y-22970241D01*
X4713000Y-22970241D02*
X4641571Y-23084526D01*
X4641571Y-23084526D02*
X4641571Y-23198812D01*
X4641571Y-23598812D02*
X6141571Y-23598812D01*
X4641571Y-24113098D02*
X5427285Y-24113098D01*
X5427285Y-24113098D02*
X5570142Y-24055955D01*
X5570142Y-24055955D02*
X5641571Y-23941669D01*
X5641571Y-23941669D02*
X5641571Y-23770240D01*
X5641571Y-23770240D02*
X5570142Y-23655955D01*
X5570142Y-23655955D02*
X5498714Y-23598812D01*
X4641571Y-24684526D02*
X5641571Y-24684526D01*
X6141571Y-24684526D02*
X6070142Y-24627383D01*
X6070142Y-24627383D02*
X5998714Y-24684526D01*
X5998714Y-24684526D02*
X6070142Y-24741669D01*
X6070142Y-24741669D02*
X6141571Y-24684526D01*
X6141571Y-24684526D02*
X5998714Y-24684526D01*
X4641571Y-25770241D02*
X5427285Y-25770241D01*
X5427285Y-25770241D02*
X5570142Y-25713098D01*
X5570142Y-25713098D02*
X5641571Y-25598812D01*
X5641571Y-25598812D02*
X5641571Y-25370241D01*
X5641571Y-25370241D02*
X5570142Y-25255955D01*
X4713000Y-25770241D02*
X4641571Y-25655955D01*
X4641571Y-25655955D02*
X4641571Y-25370241D01*
X4641571Y-25370241D02*
X4713000Y-25255955D01*
X4713000Y-25255955D02*
X4855857Y-25198812D01*
X4855857Y-25198812D02*
X4998714Y-25198812D01*
X4998714Y-25198812D02*
X5141571Y-25255955D01*
X5141571Y-25255955D02*
X5213000Y-25370241D01*
X5213000Y-25370241D02*
X5213000Y-25655955D01*
X5213000Y-25655955D02*
X5284428Y-25770241D01*
X4713000Y-26284526D02*
X4641571Y-26398812D01*
X4641571Y-26398812D02*
X4641571Y-26627383D01*
X4641571Y-26627383D02*
X4713000Y-26741669D01*
X4713000Y-26741669D02*
X4855857Y-26798812D01*
X4855857Y-26798812D02*
X4927285Y-26798812D01*
X4927285Y-26798812D02*
X5070142Y-26741669D01*
X5070142Y-26741669D02*
X5141571Y-26627383D01*
X5141571Y-26627383D02*
X5141571Y-26455955D01*
X5141571Y-26455955D02*
X5213000Y-26341669D01*
X5213000Y-26341669D02*
X5355857Y-26284526D01*
X5355857Y-26284526D02*
X5427285Y-26284526D01*
X5427285Y-26284526D02*
X5570142Y-26341669D01*
X5570142Y-26341669D02*
X5641571Y-26455955D01*
X5641571Y-26455955D02*
X5641571Y-26627383D01*
X5641571Y-26627383D02*
X5570142Y-26741669D01*
X4641571Y-28227384D02*
X6141571Y-28227384D01*
X5427285Y-28227384D02*
X5427285Y-28913098D01*
X4641571Y-28913098D02*
X6141571Y-28913098D01*
X4713000Y-29941670D02*
X4641571Y-29827384D01*
X4641571Y-29827384D02*
X4641571Y-29598813D01*
X4641571Y-29598813D02*
X4713000Y-29484527D01*
X4713000Y-29484527D02*
X4855857Y-29427384D01*
X4855857Y-29427384D02*
X5427285Y-29427384D01*
X5427285Y-29427384D02*
X5570142Y-29484527D01*
X5570142Y-29484527D02*
X5641571Y-29598813D01*
X5641571Y-29598813D02*
X5641571Y-29827384D01*
X5641571Y-29827384D02*
X5570142Y-29941670D01*
X5570142Y-29941670D02*
X5427285Y-29998813D01*
X5427285Y-29998813D02*
X5284428Y-29998813D01*
X5284428Y-29998813D02*
X5141571Y-29427384D01*
X4641571Y-30513098D02*
X5641571Y-30513098D01*
X6141571Y-30513098D02*
X6070142Y-30455955D01*
X6070142Y-30455955D02*
X5998714Y-30513098D01*
X5998714Y-30513098D02*
X6070142Y-30570241D01*
X6070142Y-30570241D02*
X6141571Y-30513098D01*
X6141571Y-30513098D02*
X5998714Y-30513098D01*
X5641571Y-31084527D02*
X4641571Y-31084527D01*
X5498714Y-31084527D02*
X5570142Y-31141670D01*
X5570142Y-31141670D02*
X5641571Y-31255955D01*
X5641571Y-31255955D02*
X5641571Y-31427384D01*
X5641571Y-31427384D02*
X5570142Y-31541670D01*
X5570142Y-31541670D02*
X5427285Y-31598813D01*
X5427285Y-31598813D02*
X4641571Y-31598813D01*
X4641571Y-32170241D02*
X5641571Y-32170241D01*
X5355857Y-32170241D02*
X5498714Y-32227384D01*
X5498714Y-32227384D02*
X5570142Y-32284527D01*
X5570142Y-32284527D02*
X5641571Y-32398812D01*
X5641571Y-32398812D02*
X5641571Y-32513098D01*
X4641571Y-32913098D02*
X5641571Y-32913098D01*
X6141571Y-32913098D02*
X6070142Y-32855955D01*
X6070142Y-32855955D02*
X5998714Y-32913098D01*
X5998714Y-32913098D02*
X6070142Y-32970241D01*
X6070142Y-32970241D02*
X6141571Y-32913098D01*
X6141571Y-32913098D02*
X5998714Y-32913098D01*
X4713000Y-33998813D02*
X4641571Y-33884527D01*
X4641571Y-33884527D02*
X4641571Y-33655955D01*
X4641571Y-33655955D02*
X4713000Y-33541670D01*
X4713000Y-33541670D02*
X4784428Y-33484527D01*
X4784428Y-33484527D02*
X4927285Y-33427384D01*
X4927285Y-33427384D02*
X5355857Y-33427384D01*
X5355857Y-33427384D02*
X5498714Y-33484527D01*
X5498714Y-33484527D02*
X5570142Y-33541670D01*
X5570142Y-33541670D02*
X5641571Y-33655955D01*
X5641571Y-33655955D02*
X5641571Y-33884527D01*
X5641571Y-33884527D02*
X5570142Y-33998813D01*
X4641571Y-34513098D02*
X6141571Y-34513098D01*
X4641571Y-35027384D02*
X5427285Y-35027384D01*
X5427285Y-35027384D02*
X5570142Y-34970241D01*
X5570142Y-34970241D02*
X5641571Y-34855955D01*
X5641571Y-34855955D02*
X5641571Y-34684526D01*
X5641571Y-34684526D02*
X5570142Y-34570241D01*
X5570142Y-34570241D02*
X5498714Y-34513098D01*
X4713000Y-35541669D02*
X4641571Y-35655955D01*
X4641571Y-35655955D02*
X4641571Y-35884526D01*
X4641571Y-35884526D02*
X4713000Y-35998812D01*
X4713000Y-35998812D02*
X4855857Y-36055955D01*
X4855857Y-36055955D02*
X4927285Y-36055955D01*
X4927285Y-36055955D02*
X5070142Y-35998812D01*
X5070142Y-35998812D02*
X5141571Y-35884526D01*
X5141571Y-35884526D02*
X5141571Y-35713098D01*
X5141571Y-35713098D02*
X5213000Y-35598812D01*
X5213000Y-35598812D02*
X5355857Y-35541669D01*
X5355857Y-35541669D02*
X5427285Y-35541669D01*
X5427285Y-35541669D02*
X5570142Y-35598812D01*
X5570142Y-35598812D02*
X5641571Y-35713098D01*
X5641571Y-35713098D02*
X5641571Y-35884526D01*
X5641571Y-35884526D02*
X5570142Y-35998812D01*
D14*
X3976082Y-38282085D02*
X4047510Y-38210657D01*
X4047510Y-38210657D02*
X4190368Y-38139228D01*
X4190368Y-38139228D02*
X4547510Y-38139228D01*
X4547510Y-38139228D02*
X4690368Y-38210657D01*
X4690368Y-38210657D02*
X4761796Y-38282085D01*
X4761796Y-38282085D02*
X4833225Y-38424942D01*
X4833225Y-38424942D02*
X4833225Y-38567800D01*
X4833225Y-38567800D02*
X4761796Y-38782085D01*
X4761796Y-38782085D02*
X3904653Y-39639228D01*
X3904653Y-39639228D02*
X4833225Y-39639228D01*
X5761796Y-38139228D02*
X5904653Y-38139228D01*
X5904653Y-38139228D02*
X6047510Y-38210657D01*
X6047510Y-38210657D02*
X6118939Y-38282085D01*
X6118939Y-38282085D02*
X6190367Y-38424942D01*
X6190367Y-38424942D02*
X6261796Y-38710657D01*
X6261796Y-38710657D02*
X6261796Y-39067800D01*
X6261796Y-39067800D02*
X6190367Y-39353514D01*
X6190367Y-39353514D02*
X6118939Y-39496371D01*
X6118939Y-39496371D02*
X6047510Y-39567800D01*
X6047510Y-39567800D02*
X5904653Y-39639228D01*
X5904653Y-39639228D02*
X5761796Y-39639228D01*
X5761796Y-39639228D02*
X5618939Y-39567800D01*
X5618939Y-39567800D02*
X5547510Y-39496371D01*
X5547510Y-39496371D02*
X5476081Y-39353514D01*
X5476081Y-39353514D02*
X5404653Y-39067800D01*
X5404653Y-39067800D02*
X5404653Y-38710657D01*
X5404653Y-38710657D02*
X5476081Y-38424942D01*
X5476081Y-38424942D02*
X5547510Y-38282085D01*
X5547510Y-38282085D02*
X5618939Y-38210657D01*
X5618939Y-38210657D02*
X5761796Y-38139228D01*
X6833224Y-38282085D02*
X6904652Y-38210657D01*
X6904652Y-38210657D02*
X7047510Y-38139228D01*
X7047510Y-38139228D02*
X7404652Y-38139228D01*
X7404652Y-38139228D02*
X7547510Y-38210657D01*
X7547510Y-38210657D02*
X7618938Y-38282085D01*
X7618938Y-38282085D02*
X7690367Y-38424942D01*
X7690367Y-38424942D02*
X7690367Y-38567800D01*
X7690367Y-38567800D02*
X7618938Y-38782085D01*
X7618938Y-38782085D02*
X6761795Y-39639228D01*
X6761795Y-39639228D02*
X7690367Y-39639228D01*
X9047509Y-38139228D02*
X8333223Y-38139228D01*
X8333223Y-38139228D02*
X8261795Y-38853514D01*
X8261795Y-38853514D02*
X8333223Y-38782085D01*
X8333223Y-38782085D02*
X8476081Y-38710657D01*
X8476081Y-38710657D02*
X8833223Y-38710657D01*
X8833223Y-38710657D02*
X8976081Y-38782085D01*
X8976081Y-38782085D02*
X9047509Y-38853514D01*
X9047509Y-38853514D02*
X9118938Y-38996371D01*
X9118938Y-38996371D02*
X9118938Y-39353514D01*
X9118938Y-39353514D02*
X9047509Y-39496371D01*
X9047509Y-39496371D02*
X8976081Y-39567800D01*
X8976081Y-39567800D02*
X8833223Y-39639228D01*
X8833223Y-39639228D02*
X8476081Y-39639228D01*
X8476081Y-39639228D02*
X8333223Y-39567800D01*
X8333223Y-39567800D02*
X8261795Y-39496371D01*
X4833225Y-40625657D02*
X4690368Y-40554228D01*
X4690368Y-40554228D02*
X4476082Y-40554228D01*
X4476082Y-40554228D02*
X4261796Y-40625657D01*
X4261796Y-40625657D02*
X4118939Y-40768514D01*
X4118939Y-40768514D02*
X4047510Y-40911371D01*
X4047510Y-40911371D02*
X3976082Y-41197085D01*
X3976082Y-41197085D02*
X3976082Y-41411371D01*
X3976082Y-41411371D02*
X4047510Y-41697085D01*
X4047510Y-41697085D02*
X4118939Y-41839942D01*
X4118939Y-41839942D02*
X4261796Y-41982800D01*
X4261796Y-41982800D02*
X4476082Y-42054228D01*
X4476082Y-42054228D02*
X4618939Y-42054228D01*
X4618939Y-42054228D02*
X4833225Y-41982800D01*
X4833225Y-41982800D02*
X4904653Y-41911371D01*
X4904653Y-41911371D02*
X4904653Y-41411371D01*
X4904653Y-41411371D02*
X4618939Y-41411371D01*
X6190368Y-42054228D02*
X6190368Y-41268514D01*
X6190368Y-41268514D02*
X6118939Y-41125657D01*
X6118939Y-41125657D02*
X5976082Y-41054228D01*
X5976082Y-41054228D02*
X5690368Y-41054228D01*
X5690368Y-41054228D02*
X5547510Y-41125657D01*
X6190368Y-41982800D02*
X6047510Y-42054228D01*
X6047510Y-42054228D02*
X5690368Y-42054228D01*
X5690368Y-42054228D02*
X5547510Y-41982800D01*
X5547510Y-41982800D02*
X5476082Y-41839942D01*
X5476082Y-41839942D02*
X5476082Y-41697085D01*
X5476082Y-41697085D02*
X5547510Y-41554228D01*
X5547510Y-41554228D02*
X5690368Y-41482800D01*
X5690368Y-41482800D02*
X6047510Y-41482800D01*
X6047510Y-41482800D02*
X6190368Y-41411371D01*
X7547511Y-42054228D02*
X7547511Y-40554228D01*
X7547511Y-41982800D02*
X7404653Y-42054228D01*
X7404653Y-42054228D02*
X7118939Y-42054228D01*
X7118939Y-42054228D02*
X6976082Y-41982800D01*
X6976082Y-41982800D02*
X6904653Y-41911371D01*
X6904653Y-41911371D02*
X6833225Y-41768514D01*
X6833225Y-41768514D02*
X6833225Y-41339942D01*
X6833225Y-41339942D02*
X6904653Y-41197085D01*
X6904653Y-41197085D02*
X6976082Y-41125657D01*
X6976082Y-41125657D02*
X7118939Y-41054228D01*
X7118939Y-41054228D02*
X7404653Y-41054228D01*
X7404653Y-41054228D02*
X7547511Y-41125657D01*
X8904654Y-41054228D02*
X8904654Y-42268514D01*
X8904654Y-42268514D02*
X8833225Y-42411371D01*
X8833225Y-42411371D02*
X8761796Y-42482800D01*
X8761796Y-42482800D02*
X8618939Y-42554228D01*
X8618939Y-42554228D02*
X8404654Y-42554228D01*
X8404654Y-42554228D02*
X8261796Y-42482800D01*
X8904654Y-41982800D02*
X8761796Y-42054228D01*
X8761796Y-42054228D02*
X8476082Y-42054228D01*
X8476082Y-42054228D02*
X8333225Y-41982800D01*
X8333225Y-41982800D02*
X8261796Y-41911371D01*
X8261796Y-41911371D02*
X8190368Y-41768514D01*
X8190368Y-41768514D02*
X8190368Y-41339942D01*
X8190368Y-41339942D02*
X8261796Y-41197085D01*
X8261796Y-41197085D02*
X8333225Y-41125657D01*
X8333225Y-41125657D02*
X8476082Y-41054228D01*
X8476082Y-41054228D02*
X8761796Y-41054228D01*
X8761796Y-41054228D02*
X8904654Y-41125657D01*
X10190368Y-41982800D02*
X10047511Y-42054228D01*
X10047511Y-42054228D02*
X9761797Y-42054228D01*
X9761797Y-42054228D02*
X9618939Y-41982800D01*
X9618939Y-41982800D02*
X9547511Y-41839942D01*
X9547511Y-41839942D02*
X9547511Y-41268514D01*
X9547511Y-41268514D02*
X9618939Y-41125657D01*
X9618939Y-41125657D02*
X9761797Y-41054228D01*
X9761797Y-41054228D02*
X10047511Y-41054228D01*
X10047511Y-41054228D02*
X10190368Y-41125657D01*
X10190368Y-41125657D02*
X10261797Y-41268514D01*
X10261797Y-41268514D02*
X10261797Y-41411371D01*
X10261797Y-41411371D02*
X9547511Y-41554228D01*
X10690368Y-41054228D02*
X11261796Y-41054228D01*
X10904653Y-40554228D02*
X10904653Y-41839942D01*
X10904653Y-41839942D02*
X10976082Y-41982800D01*
X10976082Y-41982800D02*
X11118939Y-42054228D01*
X11118939Y-42054228D02*
X11261796Y-42054228D01*
X11761796Y-40554228D02*
X11761796Y-41768514D01*
X11761796Y-41768514D02*
X11833225Y-41911371D01*
X11833225Y-41911371D02*
X11904654Y-41982800D01*
X11904654Y-41982800D02*
X12047511Y-42054228D01*
X12047511Y-42054228D02*
X12333225Y-42054228D01*
X12333225Y-42054228D02*
X12476082Y-41982800D01*
X12476082Y-41982800D02*
X12547511Y-41911371D01*
X12547511Y-41911371D02*
X12618939Y-41768514D01*
X12618939Y-41768514D02*
X12618939Y-40554228D01*
X13333225Y-42054228D02*
X13333225Y-40554228D01*
X14190368Y-42054228D02*
X13547511Y-41197085D01*
X14190368Y-40554228D02*
X13333225Y-41411371D01*
D10*
X29824466Y-36234019D02*
X29824466Y-36948304D01*
X29824466Y-36948304D02*
X29776847Y-37091161D01*
X29776847Y-37091161D02*
X29681609Y-37186400D01*
X29681609Y-37186400D02*
X29538752Y-37234019D01*
X29538752Y-37234019D02*
X29443514Y-37234019D01*
X30300657Y-37234019D02*
X30300657Y-36234019D01*
X30300657Y-36234019D02*
X30681609Y-36234019D01*
X30681609Y-36234019D02*
X30776847Y-36281638D01*
X30776847Y-36281638D02*
X30824466Y-36329257D01*
X30824466Y-36329257D02*
X30872085Y-36424495D01*
X30872085Y-36424495D02*
X30872085Y-36567352D01*
X30872085Y-36567352D02*
X30824466Y-36662590D01*
X30824466Y-36662590D02*
X30776847Y-36710209D01*
X30776847Y-36710209D02*
X30681609Y-36757828D01*
X30681609Y-36757828D02*
X30300657Y-36757828D01*
X31253038Y-36329257D02*
X31300657Y-36281638D01*
X31300657Y-36281638D02*
X31395895Y-36234019D01*
X31395895Y-36234019D02*
X31633990Y-36234019D01*
X31633990Y-36234019D02*
X31729228Y-36281638D01*
X31729228Y-36281638D02*
X31776847Y-36329257D01*
X31776847Y-36329257D02*
X31824466Y-36424495D01*
X31824466Y-36424495D02*
X31824466Y-36519733D01*
X31824466Y-36519733D02*
X31776847Y-36662590D01*
X31776847Y-36662590D02*
X31205419Y-37234019D01*
X31205419Y-37234019D02*
X31824466Y-37234019D01*
X24928533Y-35151219D02*
X24595200Y-34675028D01*
X24357105Y-35151219D02*
X24357105Y-34151219D01*
X24357105Y-34151219D02*
X24738057Y-34151219D01*
X24738057Y-34151219D02*
X24833295Y-34198838D01*
X24833295Y-34198838D02*
X24880914Y-34246457D01*
X24880914Y-34246457D02*
X24928533Y-34341695D01*
X24928533Y-34341695D02*
X24928533Y-34484552D01*
X24928533Y-34484552D02*
X24880914Y-34579790D01*
X24880914Y-34579790D02*
X24833295Y-34627409D01*
X24833295Y-34627409D02*
X24738057Y-34675028D01*
X24738057Y-34675028D02*
X24357105Y-34675028D01*
X25261867Y-34151219D02*
X25880914Y-34151219D01*
X25880914Y-34151219D02*
X25547581Y-34532171D01*
X25547581Y-34532171D02*
X25690438Y-34532171D01*
X25690438Y-34532171D02*
X25785676Y-34579790D01*
X25785676Y-34579790D02*
X25833295Y-34627409D01*
X25833295Y-34627409D02*
X25880914Y-34722647D01*
X25880914Y-34722647D02*
X25880914Y-34960742D01*
X25880914Y-34960742D02*
X25833295Y-35055980D01*
X25833295Y-35055980D02*
X25785676Y-35103600D01*
X25785676Y-35103600D02*
X25690438Y-35151219D01*
X25690438Y-35151219D02*
X25404724Y-35151219D01*
X25404724Y-35151219D02*
X25309486Y-35103600D01*
X25309486Y-35103600D02*
X25261867Y-35055980D01*
X12230980Y-36745666D02*
X12278600Y-36793285D01*
X12278600Y-36793285D02*
X12326219Y-36936142D01*
X12326219Y-36936142D02*
X12326219Y-37031380D01*
X12326219Y-37031380D02*
X12278600Y-37174237D01*
X12278600Y-37174237D02*
X12183361Y-37269475D01*
X12183361Y-37269475D02*
X12088123Y-37317094D01*
X12088123Y-37317094D02*
X11897647Y-37364713D01*
X11897647Y-37364713D02*
X11754790Y-37364713D01*
X11754790Y-37364713D02*
X11564314Y-37317094D01*
X11564314Y-37317094D02*
X11469076Y-37269475D01*
X11469076Y-37269475D02*
X11373838Y-37174237D01*
X11373838Y-37174237D02*
X11326219Y-37031380D01*
X11326219Y-37031380D02*
X11326219Y-36936142D01*
X11326219Y-36936142D02*
X11373838Y-36793285D01*
X11373838Y-36793285D02*
X11421457Y-36745666D01*
X11421457Y-36364713D02*
X11373838Y-36317094D01*
X11373838Y-36317094D02*
X11326219Y-36221856D01*
X11326219Y-36221856D02*
X11326219Y-35983761D01*
X11326219Y-35983761D02*
X11373838Y-35888523D01*
X11373838Y-35888523D02*
X11421457Y-35840904D01*
X11421457Y-35840904D02*
X11516695Y-35793285D01*
X11516695Y-35793285D02*
X11611933Y-35793285D01*
X11611933Y-35793285D02*
X11754790Y-35840904D01*
X11754790Y-35840904D02*
X12326219Y-36412332D01*
X12326219Y-36412332D02*
X12326219Y-35793285D01*
X21816219Y-5373666D02*
X21340028Y-5706999D01*
X21816219Y-5945094D02*
X20816219Y-5945094D01*
X20816219Y-5945094D02*
X20816219Y-5564142D01*
X20816219Y-5564142D02*
X20863838Y-5468904D01*
X20863838Y-5468904D02*
X20911457Y-5421285D01*
X20911457Y-5421285D02*
X21006695Y-5373666D01*
X21006695Y-5373666D02*
X21149552Y-5373666D01*
X21149552Y-5373666D02*
X21244790Y-5421285D01*
X21244790Y-5421285D02*
X21292409Y-5468904D01*
X21292409Y-5468904D02*
X21340028Y-5564142D01*
X21340028Y-5564142D02*
X21340028Y-5945094D01*
X21149552Y-4516523D02*
X21816219Y-4516523D01*
X20768600Y-4754618D02*
X21482885Y-4992713D01*
X21482885Y-4992713D02*
X21482885Y-4373666D01*
X26404178Y-5006838D02*
X26404178Y-3006838D01*
X26404178Y-3006838D02*
X27070845Y-4435409D01*
X27070845Y-4435409D02*
X27737511Y-3006838D01*
X27737511Y-3006838D02*
X27737511Y-5006838D01*
X29547035Y-5006838D02*
X29547035Y-3959219D01*
X29547035Y-3959219D02*
X29451797Y-3768742D01*
X29451797Y-3768742D02*
X29261321Y-3673504D01*
X29261321Y-3673504D02*
X28880368Y-3673504D01*
X28880368Y-3673504D02*
X28689892Y-3768742D01*
X29547035Y-4911600D02*
X29356559Y-5006838D01*
X29356559Y-5006838D02*
X28880368Y-5006838D01*
X28880368Y-5006838D02*
X28689892Y-4911600D01*
X28689892Y-4911600D02*
X28594654Y-4721123D01*
X28594654Y-4721123D02*
X28594654Y-4530647D01*
X28594654Y-4530647D02*
X28689892Y-4340171D01*
X28689892Y-4340171D02*
X28880368Y-4244933D01*
X28880368Y-4244933D02*
X29356559Y-4244933D01*
X29356559Y-4244933D02*
X29547035Y-4149695D01*
X30499416Y-5006838D02*
X30499416Y-3673504D01*
X30499416Y-4054457D02*
X30594654Y-3863980D01*
X30594654Y-3863980D02*
X30689892Y-3768742D01*
X30689892Y-3768742D02*
X30880368Y-3673504D01*
X30880368Y-3673504D02*
X31070845Y-3673504D01*
X31737511Y-5006838D02*
X31737511Y-3673504D01*
X31737511Y-3006838D02*
X31642273Y-3102076D01*
X31642273Y-3102076D02*
X31737511Y-3197314D01*
X31737511Y-3197314D02*
X31832749Y-3102076D01*
X31832749Y-3102076D02*
X31737511Y-3006838D01*
X31737511Y-3006838D02*
X31737511Y-3197314D01*
X32689892Y-3673504D02*
X32689892Y-5006838D01*
X32689892Y-3863980D02*
X32785130Y-3768742D01*
X32785130Y-3768742D02*
X32975606Y-3673504D01*
X32975606Y-3673504D02*
X33261321Y-3673504D01*
X33261321Y-3673504D02*
X33451797Y-3768742D01*
X33451797Y-3768742D02*
X33547035Y-3959219D01*
X33547035Y-3959219D02*
X33547035Y-5006838D01*
X35261321Y-4911600D02*
X35070845Y-5006838D01*
X35070845Y-5006838D02*
X34689892Y-5006838D01*
X34689892Y-5006838D02*
X34499416Y-4911600D01*
X34499416Y-4911600D02*
X34404178Y-4721123D01*
X34404178Y-4721123D02*
X34404178Y-3959219D01*
X34404178Y-3959219D02*
X34499416Y-3768742D01*
X34499416Y-3768742D02*
X34689892Y-3673504D01*
X34689892Y-3673504D02*
X35070845Y-3673504D01*
X35070845Y-3673504D02*
X35261321Y-3768742D01*
X35261321Y-3768742D02*
X35356559Y-3959219D01*
X35356559Y-3959219D02*
X35356559Y-4149695D01*
X35356559Y-4149695D02*
X34404178Y-4340171D01*
X24407019Y-5373666D02*
X23930828Y-5706999D01*
X24407019Y-5945094D02*
X23407019Y-5945094D01*
X23407019Y-5945094D02*
X23407019Y-5564142D01*
X23407019Y-5564142D02*
X23454638Y-5468904D01*
X23454638Y-5468904D02*
X23502257Y-5421285D01*
X23502257Y-5421285D02*
X23597495Y-5373666D01*
X23597495Y-5373666D02*
X23740352Y-5373666D01*
X23740352Y-5373666D02*
X23835590Y-5421285D01*
X23835590Y-5421285D02*
X23883209Y-5468904D01*
X23883209Y-5468904D02*
X23930828Y-5564142D01*
X23930828Y-5564142D02*
X23930828Y-5945094D01*
X24407019Y-4421285D02*
X24407019Y-4992713D01*
X24407019Y-4706999D02*
X23407019Y-4706999D01*
X23407019Y-4706999D02*
X23549876Y-4802237D01*
X23549876Y-4802237D02*
X23645114Y-4897475D01*
X23645114Y-4897475D02*
X23692733Y-4992713D01*
X33507466Y-34227419D02*
X33507466Y-34941704D01*
X33507466Y-34941704D02*
X33459847Y-35084561D01*
X33459847Y-35084561D02*
X33364609Y-35179800D01*
X33364609Y-35179800D02*
X33221752Y-35227419D01*
X33221752Y-35227419D02*
X33126514Y-35227419D01*
X33983657Y-35227419D02*
X33983657Y-34227419D01*
X33983657Y-34227419D02*
X34364609Y-34227419D01*
X34364609Y-34227419D02*
X34459847Y-34275038D01*
X34459847Y-34275038D02*
X34507466Y-34322657D01*
X34507466Y-34322657D02*
X34555085Y-34417895D01*
X34555085Y-34417895D02*
X34555085Y-34560752D01*
X34555085Y-34560752D02*
X34507466Y-34655990D01*
X34507466Y-34655990D02*
X34459847Y-34703609D01*
X34459847Y-34703609D02*
X34364609Y-34751228D01*
X34364609Y-34751228D02*
X33983657Y-34751228D01*
X35507466Y-35227419D02*
X34936038Y-35227419D01*
X35221752Y-35227419D02*
X35221752Y-34227419D01*
X35221752Y-34227419D02*
X35126514Y-34370276D01*
X35126514Y-34370276D02*
X35031276Y-34465514D01*
X35031276Y-34465514D02*
X34936038Y-34513133D01*
X17057019Y-39750904D02*
X17866542Y-39750904D01*
X17866542Y-39750904D02*
X17961780Y-39703285D01*
X17961780Y-39703285D02*
X18009400Y-39655666D01*
X18009400Y-39655666D02*
X18057019Y-39560428D01*
X18057019Y-39560428D02*
X18057019Y-39369952D01*
X18057019Y-39369952D02*
X18009400Y-39274714D01*
X18009400Y-39274714D02*
X17961780Y-39227095D01*
X17961780Y-39227095D02*
X17866542Y-39179476D01*
X17866542Y-39179476D02*
X17057019Y-39179476D01*
X18057019Y-38179476D02*
X18057019Y-38750904D01*
X18057019Y-38465190D02*
X17057019Y-38465190D01*
X17057019Y-38465190D02*
X17199876Y-38560428D01*
X17199876Y-38560428D02*
X17295114Y-38655666D01*
X17295114Y-38655666D02*
X17342733Y-38750904D01*
X32650133Y-8303419D02*
X32173943Y-8303419D01*
X32173943Y-8303419D02*
X32173943Y-7303419D01*
X33507276Y-8303419D02*
X32935848Y-8303419D01*
X33221562Y-8303419D02*
X33221562Y-7303419D01*
X33221562Y-7303419D02*
X33126324Y-7446276D01*
X33126324Y-7446276D02*
X33031086Y-7541514D01*
X33031086Y-7541514D02*
X32935848Y-7589133D01*
X17301380Y-41467066D02*
X17349000Y-41514685D01*
X17349000Y-41514685D02*
X17396619Y-41657542D01*
X17396619Y-41657542D02*
X17396619Y-41752780D01*
X17396619Y-41752780D02*
X17349000Y-41895637D01*
X17349000Y-41895637D02*
X17253761Y-41990875D01*
X17253761Y-41990875D02*
X17158523Y-42038494D01*
X17158523Y-42038494D02*
X16968047Y-42086113D01*
X16968047Y-42086113D02*
X16825190Y-42086113D01*
X16825190Y-42086113D02*
X16634714Y-42038494D01*
X16634714Y-42038494D02*
X16539476Y-41990875D01*
X16539476Y-41990875D02*
X16444238Y-41895637D01*
X16444238Y-41895637D02*
X16396619Y-41752780D01*
X16396619Y-41752780D02*
X16396619Y-41657542D01*
X16396619Y-41657542D02*
X16444238Y-41514685D01*
X16444238Y-41514685D02*
X16491857Y-41467066D01*
X17396619Y-40514685D02*
X17396619Y-41086113D01*
X17396619Y-40800399D02*
X16396619Y-40800399D01*
X16396619Y-40800399D02*
X16539476Y-40895637D01*
X16539476Y-40895637D02*
X16634714Y-40990875D01*
X16634714Y-40990875D02*
X16682333Y-41086113D01*
D15*
%TO.C,JP2*%
X28357565Y-36343000D02*
X28589235Y-36343000D01*
X28357565Y-37063000D02*
X28589235Y-37063000D01*
%TO.C,*%
X18539000Y-3077400D02*
X18539000Y-4407400D01*
X17209000Y-3077400D02*
X18539000Y-3077400D01*
X15939000Y-3077400D02*
X3179000Y-3077400D01*
X15939000Y-3077400D02*
X15939000Y-5737400D01*
X3179000Y-3077400D02*
X3179000Y-5737400D01*
X15939000Y-5737400D02*
X3179000Y-5737400D01*
X27113000Y-27113000D02*
X27113000Y-26413000D01*
X27113000Y-26413000D02*
X28403000Y-26413000D01*
X27113000Y-12893000D02*
X27113000Y-13593000D01*
X26413000Y-27113000D02*
X27113000Y-27113000D01*
X26413000Y-12893000D02*
X27113000Y-12893000D01*
X13593000Y-27113000D02*
X12893000Y-27113000D01*
X13593000Y-12893000D02*
X12893000Y-12893000D01*
X12893000Y-27113000D02*
X12893000Y-26413000D01*
X12893000Y-12893000D02*
X12893000Y-13593000D01*
%TO.C,R3*%
X27423342Y-34275500D02*
X27897858Y-34275500D01*
X27423342Y-35320500D02*
X27897858Y-35320500D01*
%TO.C,C2*%
X12816400Y-36840252D02*
X12816400Y-36317748D01*
X14286400Y-36840252D02*
X14286400Y-36317748D01*
%TO.C,R4*%
X23014400Y-5120421D02*
X23014400Y-5445979D01*
X21994400Y-5120421D02*
X21994400Y-5445979D01*
%TO.C,                              Marine*%
X4378000Y-5378000D02*
X4378000Y-35628000D01*
X4378000Y-35628000D02*
X35628000Y-35628000D01*
X5378000Y-4378000D02*
X4378000Y-5378000D01*
X19003000Y-4378000D02*
X5378000Y-4378000D01*
X35628000Y-4378000D02*
X21003000Y-4378000D01*
X35628000Y-35628000D02*
X35628000Y-4378000D01*
%TO.C,R1*%
X25605200Y-5120421D02*
X25605200Y-5445979D01*
X24585200Y-5120421D02*
X24585200Y-5445979D01*
%TO.C,JP1*%
X32040565Y-34336400D02*
X32272235Y-34336400D01*
X32040565Y-35056400D02*
X32272235Y-35056400D01*
%TO.C,U1*%
X23616200Y-34343400D02*
X23616200Y-40353400D01*
X16796200Y-36593400D02*
X16796200Y-40353400D01*
X23616200Y-40353400D02*
X22356200Y-40353400D01*
X16796200Y-40353400D02*
X18056200Y-40353400D01*
%TO.C,L1*%
X32580948Y-5538800D02*
X33103452Y-5538800D01*
X32580948Y-7008800D02*
X33103452Y-7008800D01*
%TO.C,C1*%
X14835200Y-41485452D02*
X14835200Y-40962948D01*
X16305200Y-41485452D02*
X16305200Y-40962948D01*
%TD*%
M02*
